<?xml version="1.0" encoding="UTF-8" standalone="no"?>
<!DOCTYPE svg PUBLIC "-//W3C//DTD SVG 1.1//EN" "http://www.w3.org/Graphics/SVG/1.1/DTD/svg11.dtd">
<svg width="100%" height="100%" viewBox="0 0 700 500" version="1.1" xmlns="http://www.w3.org/2000/svg" xmlns:xlink="http://www.w3.org/1999/xlink" xml:space="preserve" xmlns:serif="http://www.serif.com/" style="fill-rule:evenodd;clip-rule:evenodd;stroke-linejoin:round;stroke-miterlimit:2;">
    <g>
        <g>
            <g>
                <path d="M300.768,300.52C308.46,305.405 317.387,308 326.5,308C352.832,308 374.5,286.332 374.5,260C374.5,233.668 352.832,212 326.5,212L326.5,100C414.273,100 486.5,172.227 486.5,260C486.5,347.773 414.273,420 326.5,420C296.124,420 266.367,411.35 240.725,395.066L300.768,300.52Z" style="fill:rgb(99,110,250);fill-rule:nonzero;"/>
                <g transform="matrix(1,0,0,1,414.767,293.781)">
                    <g transform="matrix(12,0,0,12,0,0)">
                        <path d="M0.122,0.003L0.122,-0.083C0.169,-0.064 0.215,-0.054 0.258,-0.054C0.306,-0.054 0.343,-0.068 0.37,-0.096C0.398,-0.124 0.411,-0.163 0.411,-0.212C0.411,-0.32 0.336,-0.375 0.187,-0.375C0.17,-0.375 0.152,-0.373 0.134,-0.371L0.134,-0.723L0.5,-0.723L0.5,-0.639L0.218,-0.639L0.218,-0.448C0.311,-0.448 0.383,-0.427 0.436,-0.384C0.488,-0.342 0.514,-0.283 0.514,-0.207C0.514,-0.137 0.49,-0.082 0.443,-0.042C0.395,-0.002 0.33,0.018 0.246,0.018C0.209,0.018 0.168,0.013 0.122,0.003Z" style="fill:white;fill-rule:nonzero;"/>
                    </g>
                    <g transform="matrix(12,0,0,12,7.58789,0)">
                        <path d="M0.114,-0.004L0.114,-0.086C0.175,-0.065 0.227,-0.054 0.27,-0.054C0.33,-0.054 0.377,-0.08 0.41,-0.131C0.444,-0.182 0.461,-0.252 0.461,-0.343C0.412,-0.283 0.357,-0.253 0.294,-0.253C0.234,-0.253 0.182,-0.275 0.14,-0.32C0.097,-0.365 0.076,-0.419 0.076,-0.484C0.076,-0.558 0.099,-0.619 0.144,-0.668C0.189,-0.716 0.246,-0.741 0.314,-0.741C0.392,-0.741 0.454,-0.709 0.5,-0.646C0.545,-0.583 0.567,-0.497 0.567,-0.388C0.567,-0.263 0.54,-0.165 0.485,-0.092C0.429,-0.018 0.355,0.018 0.261,0.018C0.223,0.018 0.174,0.011 0.114,-0.004ZM0.172,-0.503C0.172,-0.447 0.185,-0.403 0.21,-0.371C0.235,-0.338 0.269,-0.322 0.312,-0.322C0.353,-0.322 0.387,-0.336 0.416,-0.364C0.445,-0.391 0.459,-0.425 0.459,-0.464C0.459,-0.525 0.446,-0.575 0.418,-0.613C0.39,-0.65 0.353,-0.669 0.308,-0.669C0.266,-0.669 0.233,-0.654 0.209,-0.624C0.184,-0.594 0.172,-0.554 0.172,-0.503Z" style="fill:white;fill-rule:nonzero;"/>
                    </g>
                    <g transform="matrix(12,0,0,12,15.1758,0)">
                        <path d="M0.012,0.018L0.581,-0.741L0.656,-0.741L0.087,0.018L0.012,0.018ZM0.157,-0.361C0.111,-0.361 0.075,-0.378 0.047,-0.411C0.02,-0.444 0.006,-0.487 0.006,-0.542C0.006,-0.598 0.02,-0.642 0.047,-0.674C0.075,-0.706 0.112,-0.723 0.16,-0.723C0.207,-0.723 0.244,-0.706 0.271,-0.674C0.299,-0.642 0.313,-0.598 0.313,-0.543C0.313,-0.487 0.299,-0.442 0.271,-0.41C0.244,-0.378 0.206,-0.361 0.157,-0.361ZM0.159,-0.41C0.213,-0.41 0.241,-0.454 0.241,-0.543C0.241,-0.583 0.233,-0.615 0.219,-0.639C0.204,-0.663 0.184,-0.675 0.16,-0.675C0.135,-0.675 0.115,-0.663 0.1,-0.639C0.085,-0.615 0.078,-0.583 0.078,-0.542C0.078,-0.502 0.085,-0.47 0.1,-0.446C0.115,-0.422 0.134,-0.41 0.159,-0.41ZM0.507,-0C0.461,-0 0.424,-0.016 0.396,-0.049C0.369,-0.082 0.355,-0.126 0.355,-0.181C0.355,-0.236 0.369,-0.28 0.397,-0.313C0.425,-0.345 0.462,-0.361 0.509,-0.361C0.556,-0.361 0.593,-0.345 0.621,-0.313C0.649,-0.28 0.663,-0.237 0.663,-0.182C0.663,-0.125 0.649,-0.081 0.621,-0.048C0.593,-0.016 0.555,-0 0.507,-0ZM0.508,-0.048C0.563,-0.048 0.59,-0.093 0.59,-0.182C0.59,-0.222 0.583,-0.254 0.568,-0.278C0.553,-0.302 0.534,-0.313 0.509,-0.313C0.484,-0.313 0.464,-0.302 0.45,-0.278C0.435,-0.254 0.428,-0.221 0.428,-0.181C0.428,-0.141 0.435,-0.109 0.449,-0.084C0.464,-0.06 0.483,-0.048 0.508,-0.048Z" style="fill:white;fill-rule:nonzero;"/>
                    </g>
                </g>
            </g>
            <g>
                <path d="M326.5,212C300.168,212 278.5,233.668 278.5,260C278.5,269.547 281.348,278.88 286.678,286.8L193.761,349.333C175.994,322.932 166.5,291.822 166.5,260C166.5,172.227 238.727,100 326.5,100L326.5,212Z" style="fill:rgb(239,85,59);fill-rule:nonzero;"/>
                <g transform="matrix(1,0,0,1,217.408,215.877)">
                    <g transform="matrix(12,0,0,12,0,0)">
                        <path d="M0.102,-0.005L0.102,-0.095C0.171,-0.068 0.225,-0.054 0.265,-0.054C0.311,-0.054 0.348,-0.068 0.377,-0.094C0.406,-0.121 0.42,-0.156 0.42,-0.199C0.42,-0.3 0.349,-0.351 0.207,-0.351L0.168,-0.351L0.168,-0.416L0.202,-0.417C0.336,-0.417 0.402,-0.464 0.402,-0.558C0.402,-0.632 0.358,-0.668 0.271,-0.668C0.222,-0.668 0.169,-0.655 0.111,-0.628L0.111,-0.712C0.168,-0.731 0.224,-0.741 0.277,-0.741C0.425,-0.741 0.499,-0.685 0.499,-0.573C0.499,-0.488 0.449,-0.428 0.348,-0.392C0.465,-0.365 0.523,-0.301 0.523,-0.2C0.523,-0.132 0.5,-0.079 0.456,-0.04C0.411,-0.001 0.349,0.018 0.271,0.018C0.226,0.018 0.17,0.01 0.102,-0.005Z" style="fill:rgb(68,68,68);fill-rule:nonzero;"/>
                    </g>
                    <g transform="matrix(12,0,0,12,7.58789,0)">
                        <path d="M0.376,-0L0.376,-0.205L0.051,-0.205L0.051,-0.277L0.376,-0.723L0.467,-0.723L0.467,-0.283L0.563,-0.283L0.563,-0.205L0.467,-0.205L0.467,-0L0.376,-0ZM0.146,-0.283L0.383,-0.283L0.383,-0.604L0.146,-0.283Z" style="fill:rgb(68,68,68);fill-rule:nonzero;"/>
                    </g>
                    <g transform="matrix(12,0,0,12,15.1758,0)">
                        <rect x="0.098" y="-0.121" width="0.121" height="0.121" style="fill:rgb(68,68,68);fill-rule:nonzero;"/>
                    </g>
                    <g transform="matrix(12,0,0,12,18.9727,0)">
                        <path d="M0.376,-0L0.376,-0.205L0.051,-0.205L0.051,-0.277L0.376,-0.723L0.467,-0.723L0.467,-0.283L0.563,-0.283L0.563,-0.205L0.467,-0.205L0.467,-0L0.376,-0ZM0.146,-0.283L0.383,-0.283L0.383,-0.604L0.146,-0.283Z" style="fill:rgb(68,68,68);fill-rule:nonzero;"/>
                    </g>
                    <g transform="matrix(12,0,0,12,26.5605,0)">
                        <path d="M0.012,0.018L0.581,-0.741L0.656,-0.741L0.087,0.018L0.012,0.018ZM0.157,-0.361C0.111,-0.361 0.075,-0.378 0.047,-0.411C0.02,-0.444 0.006,-0.487 0.006,-0.542C0.006,-0.598 0.02,-0.642 0.047,-0.674C0.075,-0.706 0.112,-0.723 0.16,-0.723C0.207,-0.723 0.244,-0.706 0.271,-0.674C0.299,-0.642 0.313,-0.598 0.313,-0.543C0.313,-0.487 0.299,-0.442 0.271,-0.41C0.244,-0.378 0.206,-0.361 0.157,-0.361ZM0.159,-0.41C0.213,-0.41 0.241,-0.454 0.241,-0.543C0.241,-0.583 0.233,-0.615 0.219,-0.639C0.204,-0.663 0.184,-0.675 0.16,-0.675C0.135,-0.675 0.115,-0.663 0.1,-0.639C0.085,-0.615 0.078,-0.583 0.078,-0.542C0.078,-0.502 0.085,-0.47 0.1,-0.446C0.115,-0.422 0.134,-0.41 0.159,-0.41ZM0.507,-0C0.461,-0 0.424,-0.016 0.396,-0.049C0.369,-0.082 0.355,-0.126 0.355,-0.181C0.355,-0.236 0.369,-0.28 0.397,-0.313C0.425,-0.345 0.462,-0.361 0.509,-0.361C0.556,-0.361 0.593,-0.345 0.621,-0.313C0.649,-0.28 0.663,-0.237 0.663,-0.182C0.663,-0.125 0.649,-0.081 0.621,-0.048C0.593,-0.016 0.555,-0 0.507,-0ZM0.508,-0.048C0.563,-0.048 0.59,-0.093 0.59,-0.182C0.59,-0.222 0.583,-0.254 0.568,-0.278C0.553,-0.302 0.534,-0.313 0.509,-0.313C0.484,-0.313 0.464,-0.302 0.45,-0.278C0.435,-0.254 0.428,-0.221 0.428,-0.181C0.428,-0.141 0.435,-0.109 0.449,-0.084C0.464,-0.06 0.483,-0.048 0.508,-0.048Z" style="fill:rgb(68,68,68);fill-rule:nonzero;"/>
                    </g>
                </g>
            </g>
            <g>
                <path d="M286.678,286.8C290.377,292.296 295.175,296.968 300.768,300.52L240.725,395.066C222.083,383.226 206.091,367.654 193.761,349.333L286.678,286.8Z" style="fill:rgb(0,204,150);fill-rule:nonzero;"/>
                <g transform="matrix(1,0,0,1,216.564,359.89)">
                    <g transform="matrix(12,0,0,12,0,0)">
                        <path d="M0.172,-0.375C0.218,-0.434 0.276,-0.464 0.345,-0.464C0.408,-0.464 0.46,-0.443 0.5,-0.401C0.54,-0.359 0.561,-0.306 0.561,-0.24C0.561,-0.165 0.538,-0.103 0.493,-0.055C0.448,-0.006 0.391,0.018 0.321,0.018C0.242,0.018 0.179,-0.014 0.134,-0.078C0.089,-0.142 0.067,-0.231 0.067,-0.345C0.067,-0.471 0.093,-0.568 0.144,-0.637C0.196,-0.707 0.269,-0.741 0.362,-0.741C0.405,-0.741 0.459,-0.732 0.523,-0.714L0.523,-0.63C0.455,-0.656 0.4,-0.669 0.356,-0.669C0.233,-0.669 0.172,-0.571 0.172,-0.375ZM0.464,-0.219C0.464,-0.273 0.452,-0.316 0.427,-0.348C0.402,-0.379 0.368,-0.395 0.325,-0.395C0.284,-0.395 0.249,-0.381 0.22,-0.354C0.19,-0.326 0.176,-0.293 0.176,-0.255C0.176,-0.194 0.19,-0.146 0.218,-0.109C0.245,-0.073 0.282,-0.054 0.328,-0.054C0.369,-0.054 0.402,-0.069 0.427,-0.099C0.452,-0.129 0.464,-0.169 0.464,-0.219Z" style="fill:rgb(68,68,68);fill-rule:nonzero;"/>
                    </g>
                    <g transform="matrix(12,0,0,12,7.58789,0)">
                        <rect x="0.098" y="-0.121" width="0.121" height="0.121" style="fill:rgb(68,68,68);fill-rule:nonzero;"/>
                    </g>
                    <g transform="matrix(12,0,0,12,11.3848,0)">
                        <path d="M0.122,0.003L0.122,-0.083C0.169,-0.064 0.215,-0.054 0.258,-0.054C0.306,-0.054 0.343,-0.068 0.37,-0.096C0.398,-0.124 0.411,-0.163 0.411,-0.212C0.411,-0.32 0.336,-0.375 0.187,-0.375C0.17,-0.375 0.152,-0.373 0.134,-0.371L0.134,-0.723L0.5,-0.723L0.5,-0.639L0.218,-0.639L0.218,-0.448C0.311,-0.448 0.383,-0.427 0.436,-0.384C0.488,-0.342 0.514,-0.283 0.514,-0.207C0.514,-0.137 0.49,-0.082 0.443,-0.042C0.395,-0.002 0.33,0.018 0.246,0.018C0.209,0.018 0.168,0.013 0.122,0.003Z" style="fill:rgb(68,68,68);fill-rule:nonzero;"/>
                    </g>
                    <g transform="matrix(12,0,0,12,18.9727,0)">
                        <path d="M0.15,-0C0.16,-0.056 0.173,-0.105 0.191,-0.146C0.208,-0.187 0.239,-0.243 0.283,-0.315L0.48,-0.632L0.108,-0.632L0.108,-0.723L0.572,-0.723L0.572,-0.632C0.387,-0.359 0.283,-0.148 0.261,-0L0.15,-0Z" style="fill:rgb(68,68,68);fill-rule:nonzero;"/>
                    </g>
                    <g transform="matrix(12,0,0,12,26.5605,0)">
                        <path d="M0.012,0.018L0.581,-0.741L0.656,-0.741L0.087,0.018L0.012,0.018ZM0.157,-0.361C0.111,-0.361 0.075,-0.378 0.047,-0.411C0.02,-0.444 0.006,-0.487 0.006,-0.542C0.006,-0.598 0.02,-0.642 0.047,-0.674C0.075,-0.706 0.112,-0.723 0.16,-0.723C0.207,-0.723 0.244,-0.706 0.271,-0.674C0.299,-0.642 0.313,-0.598 0.313,-0.543C0.313,-0.487 0.299,-0.442 0.271,-0.41C0.244,-0.378 0.206,-0.361 0.157,-0.361ZM0.159,-0.41C0.213,-0.41 0.241,-0.454 0.241,-0.543C0.241,-0.583 0.233,-0.615 0.219,-0.639C0.204,-0.663 0.184,-0.675 0.16,-0.675C0.135,-0.675 0.115,-0.663 0.1,-0.639C0.085,-0.615 0.078,-0.583 0.078,-0.542C0.078,-0.502 0.085,-0.47 0.1,-0.446C0.115,-0.422 0.134,-0.41 0.159,-0.41ZM0.507,-0C0.461,-0 0.424,-0.016 0.396,-0.049C0.369,-0.082 0.355,-0.126 0.355,-0.181C0.355,-0.236 0.369,-0.28 0.397,-0.313C0.425,-0.345 0.462,-0.361 0.509,-0.361C0.556,-0.361 0.593,-0.345 0.621,-0.313C0.649,-0.28 0.663,-0.237 0.663,-0.182C0.663,-0.125 0.649,-0.081 0.621,-0.048C0.593,-0.016 0.555,-0 0.507,-0ZM0.508,-0.048C0.563,-0.048 0.59,-0.093 0.59,-0.182C0.59,-0.222 0.583,-0.254 0.568,-0.278C0.553,-0.302 0.534,-0.313 0.509,-0.313C0.484,-0.313 0.464,-0.302 0.45,-0.278C0.435,-0.254 0.428,-0.221 0.428,-0.181C0.428,-0.141 0.435,-0.109 0.449,-0.084C0.464,-0.06 0.483,-0.048 0.508,-0.048Z" style="fill:rgb(68,68,68);fill-rule:nonzero;"/>
                    </g>
                </g>
            </g>
            <g>
                <path d="M300.768,300.52L240.725,395.066L300.768,300.52Z" style="fill:rgb(171,99,250);fill-rule:nonzero;"/>
                <g transform="matrix(1,0,0,1,219.014,404.982)">
                    <g transform="matrix(12,0,0,12,0,0)">
                        <path d="M0.313,0.018C0.239,0.018 0.179,-0.017 0.133,-0.087C0.087,-0.157 0.063,-0.249 0.063,-0.362C0.063,-0.476 0.087,-0.567 0.133,-0.637C0.179,-0.706 0.241,-0.741 0.316,-0.741C0.392,-0.741 0.453,-0.706 0.5,-0.637C0.546,-0.567 0.569,-0.476 0.569,-0.363C0.569,-0.247 0.546,-0.155 0.5,-0.086C0.453,-0.017 0.391,0.018 0.313,0.018ZM0.314,-0.054C0.416,-0.054 0.467,-0.158 0.467,-0.365C0.467,-0.567 0.417,-0.668 0.316,-0.668C0.216,-0.668 0.166,-0.566 0.166,-0.362C0.166,-0.157 0.215,-0.054 0.314,-0.054Z" style="fill:rgb(42,63,95);fill-rule:nonzero;"/>
                    </g>
                    <g transform="matrix(12,0,0,12,7.58789,0)">
                        <path d="M0.012,0.018L0.581,-0.741L0.656,-0.741L0.087,0.018L0.012,0.018ZM0.157,-0.361C0.111,-0.361 0.075,-0.378 0.047,-0.411C0.02,-0.444 0.006,-0.487 0.006,-0.542C0.006,-0.598 0.02,-0.642 0.047,-0.674C0.075,-0.706 0.112,-0.723 0.16,-0.723C0.207,-0.723 0.244,-0.706 0.271,-0.674C0.299,-0.642 0.313,-0.598 0.313,-0.543C0.313,-0.487 0.299,-0.442 0.271,-0.41C0.244,-0.378 0.206,-0.361 0.157,-0.361ZM0.159,-0.41C0.213,-0.41 0.241,-0.454 0.241,-0.543C0.241,-0.583 0.233,-0.615 0.219,-0.639C0.204,-0.663 0.184,-0.675 0.16,-0.675C0.135,-0.675 0.115,-0.663 0.1,-0.639C0.085,-0.615 0.078,-0.583 0.078,-0.542C0.078,-0.502 0.085,-0.47 0.1,-0.446C0.115,-0.422 0.134,-0.41 0.159,-0.41ZM0.507,-0C0.461,-0 0.424,-0.016 0.396,-0.049C0.369,-0.082 0.355,-0.126 0.355,-0.181C0.355,-0.236 0.369,-0.28 0.397,-0.313C0.425,-0.345 0.462,-0.361 0.509,-0.361C0.556,-0.361 0.593,-0.345 0.621,-0.313C0.649,-0.28 0.663,-0.237 0.663,-0.182C0.663,-0.125 0.649,-0.081 0.621,-0.048C0.593,-0.016 0.555,-0 0.507,-0ZM0.508,-0.048C0.563,-0.048 0.59,-0.093 0.59,-0.182C0.59,-0.222 0.583,-0.254 0.568,-0.278C0.553,-0.302 0.534,-0.313 0.509,-0.313C0.484,-0.313 0.464,-0.302 0.45,-0.278C0.435,-0.254 0.428,-0.221 0.428,-0.181C0.428,-0.141 0.435,-0.109 0.449,-0.084C0.464,-0.06 0.483,-0.048 0.508,-0.048Z" style="fill:rgb(42,63,95);fill-rule:nonzero;"/>
                    </g>
                </g>
            </g>
        </g>
    </g>
    <g>
        <g transform="matrix(1,0,0,1,577.66,100)">
            <g>
                <g>
                    <g transform="matrix(1,0,0,1,0,14.5)">
                        <g transform="matrix(1,0,0,1,40,4.68)">
                            <path d="M5.514,-3.316L4.037,-7.055L2.555,-3.316L5.514,-3.316ZM6.814,0L5.871,-2.402L2.197,-2.402L1.242,0L0.1,0L3.539,-8.672L4.758,-8.672L8.145,0L6.814,0Z" style="fill:rgb(42,63,95);fill-rule:nonzero;"/>
                            <path d="M13.412,0L13.412,-1.195C12.799,-0.301 12.055,0.146 11.18,0.146C10.625,0.146 10.184,-0.028 9.855,-0.378C9.527,-0.728 9.363,-1.199 9.363,-1.793L9.363,-6.363L10.518,-6.363L10.518,-2.168C10.518,-1.691 10.587,-1.353 10.726,-1.151C10.864,-0.95 11.096,-0.85 11.42,-0.85C12.123,-0.85 12.787,-1.313 13.412,-2.238L13.412,-6.363L14.566,-6.363L14.566,0L13.412,0Z" style="fill:rgb(42,63,95);fill-rule:nonzero;"/>
                            <path d="M18.791,0.146C18.205,0.146 17.748,-0.021 17.42,-0.357C17.092,-0.693 16.928,-1.16 16.928,-1.758L16.928,-5.496L16.131,-5.496L16.131,-6.363L16.928,-6.363L16.928,-7.518L18.082,-7.629L18.082,-6.363L19.746,-6.363L19.746,-5.496L18.082,-5.496L18.082,-1.969C18.082,-1.137 18.441,-0.721 19.16,-0.721C19.313,-0.721 19.498,-0.746 19.717,-0.797L19.717,0C19.361,0.098 19.053,0.146 18.791,0.146Z" style="fill:rgb(42,63,95);fill-rule:nonzero;"/>
                            <path d="M23.859,0.146C22.949,0.146 22.223,-0.155 21.68,-0.759C21.137,-1.362 20.865,-2.17 20.865,-3.182C20.865,-4.205 21.138,-5.015 21.683,-5.61C22.228,-6.206 22.967,-6.504 23.9,-6.504C24.834,-6.504 25.573,-6.206 26.118,-5.61C26.663,-5.015 26.936,-4.209 26.936,-3.193C26.936,-2.154 26.662,-1.338 26.115,-0.744C25.568,-0.15 24.816,0.146 23.859,0.146ZM23.877,-0.721C25.1,-0.721 25.711,-1.545 25.711,-3.193C25.711,-4.822 25.107,-5.637 23.9,-5.637C22.697,-5.637 22.096,-4.818 22.096,-3.182C22.096,-1.541 22.689,-0.721 23.877,-0.721Z" style="fill:rgb(42,63,95);fill-rule:nonzero;"/>
                            <path d="M28.74,0L28.74,-6.363L29.895,-6.363L29.895,-5.168C30.457,-6.059 31.18,-6.504 32.063,-6.504C32.914,-6.504 33.494,-6.059 33.803,-5.168C34.35,-6.063 35.061,-6.51 35.936,-6.51C36.498,-6.51 36.934,-6.345 37.242,-6.015C37.551,-5.685 37.705,-5.223 37.705,-4.629L37.705,0L36.545,0L36.545,-4.447C36.545,-5.174 36.258,-5.537 35.684,-5.537C35.086,-5.537 34.459,-5.113 33.803,-4.266L33.803,0L32.643,0L32.643,-4.447C32.643,-5.178 32.35,-5.543 31.764,-5.543C31.182,-5.543 30.559,-5.117 29.895,-4.266L29.895,0L28.74,0Z" style="fill:rgb(42,63,95);fill-rule:nonzero;"/>
                            <path d="M42.434,0.146C41.523,0.146 40.797,-0.155 40.254,-0.759C39.711,-1.362 39.439,-2.17 39.439,-3.182C39.439,-4.205 39.712,-5.015 40.257,-5.61C40.802,-6.206 41.541,-6.504 42.475,-6.504C43.408,-6.504 44.147,-6.206 44.692,-5.61C45.237,-5.015 45.51,-4.209 45.51,-3.193C45.51,-2.154 45.236,-1.338 44.689,-0.744C44.143,-0.15 43.391,0.146 42.434,0.146ZM42.451,-0.721C43.674,-0.721 44.285,-1.545 44.285,-3.193C44.285,-4.822 43.682,-5.637 42.475,-5.637C41.271,-5.637 40.67,-4.818 40.67,-3.182C40.67,-1.541 41.264,-0.721 42.451,-0.721Z" style="fill:rgb(42,63,95);fill-rule:nonzero;"/>
                            <path d="M48.633,0L46.266,-6.363L47.42,-6.363L49.271,-1.412L51.223,-6.363L52.301,-6.363L49.787,0L48.633,0Z" style="fill:rgb(42,63,95);fill-rule:nonzero;"/>
                            <path d="M53.525,0L53.525,-6.363L54.68,-6.363L54.68,0L53.525,0ZM53.525,-7.518L53.525,-8.672L54.68,-8.672L54.68,-7.518L53.525,-7.518Z" style="fill:rgb(42,63,95);fill-rule:nonzero;"/>
                            <rect x="56.994" y="-9.252" width="1.154" height="9.252" style="fill:rgb(42,63,95);"/>
                        </g>
                        <g transform="matrix(1,0,0,1,20,0)">
                            <g>
                                <g>
                                    <rect x="-6" y="-6" width="12" height="12" style="fill:rgb(99,110,250);"/>
                                </g>
                            </g>
                        </g>
                        <rect x="0" y="-9.5" width="104.516" height="19" style="fill-opacity:0;"/>
                    </g>
                    <g transform="matrix(1,0,0,1,0,33.5)">
                        <g transform="matrix(1,0,0,1,40,4.68)">
                            <path d="M4.834,0.217C3.486,0.217 2.445,-0.179 1.711,-0.97C0.977,-1.761 0.609,-2.881 0.609,-4.33C0.609,-5.775 0.983,-6.896 1.731,-7.693C2.479,-8.49 3.533,-8.889 4.893,-8.889C5.67,-8.889 6.58,-8.762 7.623,-8.508L7.623,-7.354C6.436,-7.764 5.52,-7.969 4.875,-7.969C3.934,-7.969 3.205,-7.65 2.689,-7.014C2.174,-6.377 1.916,-5.479 1.916,-4.318C1.916,-3.213 2.191,-2.341 2.742,-1.702C3.293,-1.063 4.045,-0.744 4.998,-0.744C5.818,-0.744 6.697,-0.996 7.635,-1.5L7.635,-0.445C6.779,-0.004 5.846,0.217 4.834,0.217Z" style="fill:rgb(42,63,95);fill-rule:nonzero;"/>
                            <path d="M12.738,-0.809C12.047,-0.172 11.381,0.146 10.74,0.146C10.213,0.146 9.775,-0.019 9.428,-0.349C9.08,-0.679 8.906,-1.096 8.906,-1.6C8.906,-2.295 9.198,-2.829 9.782,-3.202C10.366,-3.575 11.203,-3.762 12.293,-3.762L12.568,-3.762L12.568,-4.529C12.568,-5.268 12.189,-5.637 11.432,-5.637C10.822,-5.637 10.164,-5.449 9.457,-5.074L9.457,-6.029C10.234,-6.346 10.963,-6.504 11.643,-6.504C12.354,-6.504 12.878,-6.344 13.216,-6.023C13.554,-5.703 13.723,-5.205 13.723,-4.529L13.723,-1.646C13.723,-0.986 13.926,-0.656 14.332,-0.656C14.383,-0.656 14.457,-0.664 14.555,-0.68L14.637,-0.041C14.375,0.084 14.086,0.146 13.77,0.146C13.23,0.146 12.887,-0.172 12.738,-0.809ZM12.568,-1.436L12.568,-3.082L12.182,-3.094C11.549,-3.094 11.037,-2.974 10.646,-2.733C10.256,-2.493 10.061,-2.178 10.061,-1.787C10.061,-1.51 10.158,-1.275 10.354,-1.084C10.549,-0.893 10.787,-0.797 11.068,-0.797C11.549,-0.797 12.049,-1.01 12.568,-1.436Z" style="fill:rgb(42,63,95);fill-rule:nonzero;"/>
                            <path d="M16.084,0L16.084,-6.363L17.238,-6.363L17.238,-5.168C17.801,-6.059 18.523,-6.504 19.406,-6.504C20.258,-6.504 20.838,-6.059 21.146,-5.168C21.693,-6.063 22.404,-6.51 23.279,-6.51C23.842,-6.51 24.277,-6.345 24.586,-6.015C24.895,-5.685 25.049,-5.223 25.049,-4.629L25.049,0L23.889,0L23.889,-4.447C23.889,-5.174 23.602,-5.537 23.027,-5.537C22.43,-5.537 21.803,-5.113 21.146,-4.266L21.146,0L19.986,0L19.986,-4.447C19.986,-5.178 19.693,-5.543 19.107,-5.543C18.525,-5.543 17.902,-5.117 17.238,-4.266L17.238,0L16.084,0Z" style="fill:rgb(42,63,95);fill-rule:nonzero;"/>
                            <path d="M27.287,0L27.287,-6.363L28.441,-6.363L28.441,0L27.287,0ZM27.287,-7.518L27.287,-8.672L28.441,-8.672L28.441,-7.518L27.287,-7.518Z" style="fill:rgb(42,63,95);fill-rule:nonzero;"/>
                            <path d="M33.246,0.146C32.336,0.146 31.609,-0.155 31.066,-0.759C30.523,-1.362 30.252,-2.17 30.252,-3.182C30.252,-4.205 30.524,-5.015 31.069,-5.61C31.614,-6.206 32.354,-6.504 33.287,-6.504C34.221,-6.504 34.96,-6.206 35.505,-5.61C36.05,-5.015 36.322,-4.209 36.322,-3.193C36.322,-2.154 36.049,-1.338 35.502,-0.744C34.955,-0.15 34.203,0.146 33.246,0.146ZM33.264,-0.721C34.486,-0.721 35.098,-1.545 35.098,-3.193C35.098,-4.822 34.494,-5.637 33.287,-5.637C32.084,-5.637 31.482,-4.818 31.482,-3.182C31.482,-1.541 32.076,-0.721 33.264,-0.721Z" style="fill:rgb(42,63,95);fill-rule:nonzero;"/>
                            <path d="M38.127,0L38.127,-6.363L39.281,-6.363L39.281,-5.168C39.891,-6.059 40.637,-6.504 41.52,-6.504C42.07,-6.504 42.51,-6.329 42.838,-5.979C43.166,-5.63 43.33,-5.16 43.33,-4.57L43.33,0L42.176,0L42.176,-4.195C42.176,-4.668 42.106,-5.005 41.968,-5.206C41.829,-5.407 41.6,-5.508 41.279,-5.508C40.572,-5.508 39.906,-5.045 39.281,-4.119L39.281,0L38.127,0Z" style="fill:rgb(42,63,95);fill-rule:nonzero;"/>
                            <path d="M50.238,-0.205C49.465,0.029 48.803,0.146 48.252,0.146C47.314,0.146 46.55,-0.165 45.958,-0.788C45.366,-1.411 45.07,-2.219 45.07,-3.211C45.07,-4.176 45.331,-4.967 45.853,-5.584C46.374,-6.201 47.041,-6.51 47.854,-6.51C48.623,-6.51 49.218,-6.236 49.638,-5.689C50.058,-5.143 50.268,-4.365 50.268,-3.357L50.262,-3L46.248,-3C46.416,-1.488 47.156,-0.732 48.469,-0.732C48.949,-0.732 49.539,-0.861 50.238,-1.119L50.238,-0.205ZM46.301,-3.867L49.107,-3.867C49.107,-5.051 48.666,-5.643 47.783,-5.643C46.896,-5.643 46.402,-5.051 46.301,-3.867Z" style="fill:rgb(42,63,95);fill-rule:nonzero;"/>
                            <path d="M54.17,0.146C53.584,0.146 53.127,-0.021 52.799,-0.357C52.471,-0.693 52.307,-1.16 52.307,-1.758L52.307,-5.496L51.51,-5.496L51.51,-6.363L52.307,-6.363L52.307,-7.518L53.461,-7.629L53.461,-6.363L55.125,-6.363L55.125,-5.496L53.461,-5.496L53.461,-1.969C53.461,-1.137 53.82,-0.721 54.539,-0.721C54.691,-0.721 54.877,-0.746 55.096,-0.797L55.096,0C54.74,0.098 54.432,0.146 54.17,0.146Z" style="fill:rgb(42,63,95);fill-rule:nonzero;"/>
                            <path d="M60.029,-0.809C59.338,-0.172 58.672,0.146 58.031,0.146C57.504,0.146 57.066,-0.019 56.719,-0.349C56.371,-0.679 56.197,-1.096 56.197,-1.6C56.197,-2.295 56.489,-2.829 57.073,-3.202C57.657,-3.575 58.494,-3.762 59.584,-3.762L59.859,-3.762L59.859,-4.529C59.859,-5.268 59.48,-5.637 58.723,-5.637C58.113,-5.637 57.455,-5.449 56.748,-5.074L56.748,-6.029C57.525,-6.346 58.254,-6.504 58.934,-6.504C59.645,-6.504 60.169,-6.344 60.507,-6.023C60.845,-5.703 61.014,-5.205 61.014,-4.529L61.014,-1.646C61.014,-0.986 61.217,-0.656 61.623,-0.656C61.674,-0.656 61.748,-0.664 61.846,-0.68L61.928,-0.041C61.666,0.084 61.377,0.146 61.061,0.146C60.521,0.146 60.178,-0.172 60.029,-0.809ZM59.859,-1.436L59.859,-3.082L59.473,-3.094C58.84,-3.094 58.328,-2.974 57.938,-2.733C57.547,-2.493 57.352,-2.178 57.352,-1.787C57.352,-1.51 57.449,-1.275 57.645,-1.084C57.84,-0.893 58.078,-0.797 58.359,-0.797C58.84,-0.797 59.34,-1.01 59.859,-1.436Z" style="fill:rgb(42,63,95);fill-rule:nonzero;"/>
                        </g>
                        <g transform="matrix(1,0,0,1,20,0)">
                            <g>
                                <g>
                                    <rect x="-6" y="-6" width="12" height="12" style="fill:rgb(239,85,59);"/>
                                </g>
                            </g>
                        </g>
                        <rect x="0" y="-9.5" width="104.516" height="19" style="fill-opacity:0;"/>
                    </g>
                    <g transform="matrix(1,0,0,1,0,52.5)">
                        <g transform="matrix(1,0,0,1,40,4.68)">
                            <path d="M4.834,0.217C3.486,0.217 2.445,-0.179 1.711,-0.97C0.977,-1.761 0.609,-2.881 0.609,-4.33C0.609,-5.775 0.983,-6.896 1.731,-7.693C2.479,-8.49 3.533,-8.889 4.893,-8.889C5.67,-8.889 6.58,-8.762 7.623,-8.508L7.623,-7.354C6.436,-7.764 5.52,-7.969 4.875,-7.969C3.934,-7.969 3.205,-7.65 2.689,-7.014C2.174,-6.377 1.916,-5.479 1.916,-4.318C1.916,-3.213 2.191,-2.341 2.742,-1.702C3.293,-1.063 4.045,-0.744 4.998,-0.744C5.818,-0.744 6.697,-0.996 7.635,-1.5L7.635,-0.445C6.779,-0.004 5.846,0.217 4.834,0.217Z" style="fill:rgb(42,63,95);fill-rule:nonzero;"/>
                            <path d="M12.738,-0.809C12.047,-0.172 11.381,0.146 10.74,0.146C10.213,0.146 9.775,-0.019 9.428,-0.349C9.08,-0.679 8.906,-1.096 8.906,-1.6C8.906,-2.295 9.198,-2.829 9.782,-3.202C10.366,-3.575 11.203,-3.762 12.293,-3.762L12.568,-3.762L12.568,-4.529C12.568,-5.268 12.189,-5.637 11.432,-5.637C10.822,-5.637 10.164,-5.449 9.457,-5.074L9.457,-6.029C10.234,-6.346 10.963,-6.504 11.643,-6.504C12.354,-6.504 12.878,-6.344 13.216,-6.023C13.554,-5.703 13.723,-5.205 13.723,-4.529L13.723,-1.646C13.723,-0.986 13.926,-0.656 14.332,-0.656C14.383,-0.656 14.457,-0.664 14.555,-0.68L14.637,-0.041C14.375,0.084 14.086,0.146 13.77,0.146C13.23,0.146 12.887,-0.172 12.738,-0.809ZM12.568,-1.436L12.568,-3.082L12.182,-3.094C11.549,-3.094 11.037,-2.974 10.646,-2.733C10.256,-2.493 10.061,-2.178 10.061,-1.787C10.061,-1.51 10.158,-1.275 10.354,-1.084C10.549,-0.893 10.787,-0.797 11.068,-0.797C11.549,-0.797 12.049,-1.01 12.568,-1.436Z" style="fill:rgb(42,63,95);fill-rule:nonzero;"/>
                            <path d="M16.084,0L16.084,-6.363L17.238,-6.363L17.238,-5.168C17.801,-6.059 18.523,-6.504 19.406,-6.504C20.258,-6.504 20.838,-6.059 21.146,-5.168C21.693,-6.063 22.404,-6.51 23.279,-6.51C23.842,-6.51 24.277,-6.345 24.586,-6.015C24.895,-5.685 25.049,-5.223 25.049,-4.629L25.049,0L23.889,0L23.889,-4.447C23.889,-5.174 23.602,-5.537 23.027,-5.537C22.43,-5.537 21.803,-5.113 21.146,-4.266L21.146,0L19.986,0L19.986,-4.447C19.986,-5.178 19.693,-5.543 19.107,-5.543C18.525,-5.543 17.902,-5.117 17.238,-4.266L17.238,0L16.084,0Z" style="fill:rgb(42,63,95);fill-rule:nonzero;"/>
                            <path d="M27.287,2.314L27.287,-6.363L28.441,-6.363L28.441,-5.168C28.914,-6.059 29.623,-6.504 30.568,-6.504C31.334,-6.504 31.937,-6.225 32.376,-5.666C32.815,-5.107 33.035,-4.344 33.035,-3.375C33.035,-2.32 32.786,-1.47 32.288,-0.823C31.79,-0.177 31.135,0.146 30.322,0.146C29.568,0.146 28.941,-0.143 28.441,-0.721L28.441,2.314L27.287,2.314ZM28.441,-1.518C29.035,-0.986 29.602,-0.721 30.141,-0.721C31.25,-0.721 31.805,-1.566 31.805,-3.258C31.805,-4.75 31.313,-5.496 30.328,-5.496C29.684,-5.496 29.055,-5.146 28.441,-4.447L28.441,-1.518Z" style="fill:rgb(42,63,95);fill-rule:nonzero;"/>
                            <path d="M39.504,-0.205C38.73,0.029 38.068,0.146 37.518,0.146C36.58,0.146 35.815,-0.165 35.224,-0.788C34.632,-1.411 34.336,-2.219 34.336,-3.211C34.336,-4.176 34.597,-4.967 35.118,-5.584C35.64,-6.201 36.307,-6.51 37.119,-6.51C37.889,-6.51 38.483,-6.236 38.903,-5.689C39.323,-5.143 39.533,-4.365 39.533,-3.357L39.527,-3L35.514,-3C35.682,-1.488 36.422,-0.732 37.734,-0.732C38.215,-0.732 38.805,-0.861 39.504,-1.119L39.504,-0.205ZM35.566,-3.867L38.373,-3.867C38.373,-5.051 37.932,-5.643 37.049,-5.643C36.162,-5.643 35.668,-5.051 35.566,-3.867Z" style="fill:rgb(42,63,95);fill-rule:nonzero;"/>
                            <path d="M41.525,0L41.525,-6.363L42.68,-6.363L42.68,-5.168C43.137,-6.059 43.801,-6.504 44.672,-6.504C44.789,-6.504 44.912,-6.494 45.041,-6.475L45.041,-5.396C44.842,-5.463 44.666,-5.496 44.514,-5.496C43.783,-5.496 43.172,-5.063 42.68,-4.195L42.68,0L41.525,0Z" style="fill:rgb(42,63,95);fill-rule:nonzero;"/>
                            <path d="M48.926,0.146C48.016,0.146 47.289,-0.155 46.746,-0.759C46.203,-1.362 45.932,-2.17 45.932,-3.182C45.932,-4.205 46.204,-5.015 46.749,-5.61C47.294,-6.206 48.033,-6.504 48.967,-6.504C49.9,-6.504 50.64,-6.206 51.185,-5.61C51.729,-5.015 52.002,-4.209 52.002,-3.193C52.002,-2.154 51.729,-1.338 51.182,-0.744C50.635,-0.15 49.883,0.146 48.926,0.146ZM48.943,-0.721C50.166,-0.721 50.777,-1.545 50.777,-3.193C50.777,-4.822 50.174,-5.637 48.967,-5.637C47.764,-5.637 47.162,-4.818 47.162,-3.182C47.162,-1.541 47.756,-0.721 48.943,-0.721Z" style="fill:rgb(42,63,95);fill-rule:nonzero;"/>
                        </g>
                        <g transform="matrix(1,0,0,1,20,0)">
                            <g>
                                <g>
                                    <rect x="-6" y="-6" width="12" height="12" style="fill:rgb(0,204,150);"/>
                                </g>
                            </g>
                        </g>
                        <rect x="0" y="-9.5" width="104.516" height="19" style="fill-opacity:0;"/>
                    </g>
                    <g transform="matrix(1,0,0,1,0,71.5)">
                        <g transform="matrix(1,0,0,1,40,4.68)">
                            <path d="M1.119,0L1.119,-8.672L2.824,-8.672L5.227,-1.963L7.699,-8.672L9.223,-8.672L9.223,0L8.074,0L8.074,-7.055L5.684,-0.58L4.494,-0.58L2.174,-7.072L2.174,0L1.119,0Z" style="fill:rgb(42,63,95);fill-rule:nonzero;"/>
                            <path d="M11.49,0L11.49,-6.363L12.645,-6.363L12.645,0L11.49,0ZM11.49,-7.518L11.49,-8.672L12.645,-8.672L12.645,-7.518L11.49,-7.518Z" style="fill:rgb(42,63,95);fill-rule:nonzero;"/>
                            <path d="M17.443,0.146C16.584,0.146 15.871,-0.172 15.305,-0.809C14.738,-1.445 14.455,-2.248 14.455,-3.217C14.455,-4.252 14.735,-5.059 15.296,-5.637C15.856,-6.215 16.639,-6.504 17.643,-6.504C18.139,-6.504 18.693,-6.436 19.307,-6.299L19.307,-5.332C18.654,-5.523 18.123,-5.619 17.713,-5.619C17.123,-5.619 16.649,-5.397 16.292,-4.954C15.935,-4.511 15.756,-3.92 15.756,-3.182C15.756,-2.467 15.939,-1.889 16.307,-1.447C16.674,-1.006 17.154,-0.785 17.748,-0.785C18.275,-0.785 18.818,-0.92 19.377,-1.189L19.377,-0.193C18.631,0.033 17.986,0.146 17.443,0.146Z" style="fill:rgb(42,63,95);fill-rule:nonzero;"/>
                            <path d="M21.105,0L21.105,-6.363L22.26,-6.363L22.26,-5.168C22.717,-6.059 23.381,-6.504 24.252,-6.504C24.369,-6.504 24.492,-6.494 24.621,-6.475L24.621,-5.396C24.422,-5.463 24.246,-5.496 24.094,-5.496C23.363,-5.496 22.752,-5.063 22.26,-4.195L22.26,0L21.105,0Z" style="fill:rgb(42,63,95);fill-rule:nonzero;"/>
                            <path d="M28.506,0.146C27.596,0.146 26.869,-0.155 26.326,-0.759C25.783,-1.362 25.512,-2.17 25.512,-3.182C25.512,-4.205 25.784,-5.015 26.329,-5.61C26.874,-6.206 27.613,-6.504 28.547,-6.504C29.48,-6.504 30.22,-6.206 30.765,-5.61C31.31,-5.015 31.582,-4.209 31.582,-3.193C31.582,-2.154 31.309,-1.338 30.762,-0.744C30.215,-0.15 29.463,0.146 28.506,0.146ZM28.523,-0.721C29.746,-0.721 30.357,-1.545 30.357,-3.193C30.357,-4.822 29.754,-5.637 28.547,-5.637C27.344,-5.637 26.742,-4.818 26.742,-3.182C26.742,-1.541 27.336,-0.721 28.523,-0.721Z" style="fill:rgb(42,63,95);fill-rule:nonzero;"/>
                            <path d="M33.387,0.07L33.387,-9.252L34.541,-9.252L34.541,-5.168C35.014,-6.059 35.723,-6.504 36.668,-6.504C37.434,-6.504 38.036,-6.225 38.476,-5.666C38.915,-5.107 39.135,-4.344 39.135,-3.375C39.135,-2.32 38.886,-1.47 38.388,-0.823C37.89,-0.177 37.234,0.146 36.422,0.146C35.668,0.146 35.041,-0.143 34.541,-0.721L34.4,0.07L33.387,0.07ZM34.541,-1.518C35.135,-0.986 35.701,-0.721 36.24,-0.721C37.35,-0.721 37.904,-1.566 37.904,-3.258C37.904,-4.75 37.412,-5.496 36.428,-5.496C35.783,-5.496 35.154,-5.146 34.541,-4.447L34.541,-1.518Z" style="fill:rgb(42,63,95);fill-rule:nonzero;"/>
                            <path d="M44.918,0L44.918,-1.195C44.305,-0.301 43.561,0.146 42.686,0.146C42.131,0.146 41.689,-0.028 41.361,-0.378C41.033,-0.728 40.869,-1.199 40.869,-1.793L40.869,-6.363L42.023,-6.363L42.023,-2.168C42.023,-1.691 42.093,-1.353 42.231,-1.151C42.37,-0.95 42.602,-0.85 42.926,-0.85C43.629,-0.85 44.293,-1.313 44.918,-2.238L44.918,-6.363L46.072,-6.363L46.072,0L44.918,0Z" style="fill:rgb(42,63,95);fill-rule:nonzero;"/>
                            <path d="M50.074,0.146C49.547,0.146 48.906,0.023 48.152,-0.223L48.152,-1.283C48.906,-0.908 49.563,-0.721 50.121,-0.721C50.453,-0.721 50.729,-0.811 50.947,-0.99C51.166,-1.17 51.275,-1.395 51.275,-1.664C51.275,-2.059 50.969,-2.385 50.355,-2.643L49.682,-2.93C48.686,-3.344 48.188,-3.939 48.188,-4.717C48.188,-5.271 48.384,-5.708 48.776,-6.026C49.169,-6.345 49.707,-6.504 50.391,-6.504C50.746,-6.504 51.186,-6.455 51.709,-6.357L51.949,-6.311L51.949,-5.35C51.305,-5.541 50.793,-5.637 50.414,-5.637C49.672,-5.637 49.301,-5.367 49.301,-4.828C49.301,-4.48 49.582,-4.188 50.145,-3.949L50.701,-3.715C51.33,-3.449 51.775,-3.169 52.037,-2.874C52.299,-2.579 52.43,-2.211 52.43,-1.77C52.43,-1.211 52.209,-0.752 51.768,-0.393C51.326,-0.033 50.762,0.146 50.074,0.146Z" style="fill:rgb(42,63,95);fill-rule:nonzero;"/>
                        </g>
                        <g transform="matrix(1,0,0,1,20,0)">
                            <g>
                                <g>
                                    <rect x="-6" y="-6" width="12" height="12" style="fill:rgb(171,99,250);"/>
                                </g>
                            </g>
                        </g>
                        <rect x="0" y="-9.5" width="104.516" height="19" style="fill-opacity:0;"/>
                    </g>
                </g>
            </g>
        </g>
        <g transform="matrix(1,0,0,1,35,50)">
            <g>
                <path d="M1.585,0L1.585,-12.285L5.669,-12.285C6.887,-12.285 7.871,-12.15 8.62,-11.878C9.37,-11.607 10.019,-11.148 10.567,-10.5C11.436,-9.471 11.87,-8.115 11.87,-6.433C11.87,-4.391 11.331,-2.808 10.251,-1.685C9.172,-0.562 7.653,0 5.694,0L1.585,0ZM3.329,-1.303L5.562,-1.303C7.155,-1.303 8.284,-1.732 8.948,-2.59C9.662,-3.503 10.019,-4.729 10.019,-6.267C10.019,-7.711 9.668,-8.846 8.965,-9.67C8.539,-10.174 8.03,-10.518 7.438,-10.704C6.845,-10.889 5.954,-10.982 4.765,-10.982L3.329,-10.982L3.329,-1.303Z" style="fill:rgb(42,63,95);fill-rule:nonzero;"/>
                <path d="M14.369,0L14.369,-9.015L16.004,-9.015L16.004,0L14.369,0ZM14.369,-10.65L14.369,-12.285L16.004,-12.285L16.004,-10.65L14.369,-10.65Z" style="fill:rgb(42,63,95);fill-rule:nonzero;"/>
                <path d="M21.673,0.208C20.926,0.208 20.019,0.033 18.951,-0.315L18.951,-1.818C20.019,-1.287 20.948,-1.021 21.74,-1.021C22.21,-1.021 22.6,-1.148 22.91,-1.403C23.22,-1.657 23.375,-1.976 23.375,-2.357C23.375,-2.916 22.941,-3.378 22.072,-3.744L21.117,-4.15C19.706,-4.737 19,-5.581 19,-6.682C19,-7.468 19.279,-8.086 19.835,-8.537C20.391,-8.988 21.153,-9.214 22.122,-9.214C22.625,-9.214 23.248,-9.145 23.989,-9.006L24.33,-8.94L24.33,-7.579C23.417,-7.85 22.692,-7.985 22.155,-7.985C21.103,-7.985 20.578,-7.604 20.578,-6.84C20.578,-6.347 20.976,-5.932 21.773,-5.595L22.562,-5.263C23.452,-4.886 24.083,-4.489 24.454,-4.072C24.825,-3.654 25.01,-3.132 25.01,-2.507C25.01,-1.715 24.698,-1.065 24.072,-0.556C23.447,-0.047 22.647,0.208 21.673,0.208Z" style="fill:rgb(42,63,95);fill-rule:nonzero;"/>
                <path d="M30.655,0.208C29.825,0.208 29.177,-0.03 28.712,-0.506C28.248,-0.982 28.015,-1.644 28.015,-2.49L28.015,-7.786L26.886,-7.786L26.886,-9.015L28.015,-9.015L28.015,-10.65L29.65,-10.808L29.65,-9.015L32.008,-9.015L32.008,-7.786L29.65,-7.786L29.65,-2.789C29.65,-1.61 30.16,-1.021 31.178,-1.021C31.394,-1.021 31.656,-1.057 31.966,-1.129L31.966,0C31.463,0.138 31.026,0.208 30.655,0.208Z" style="fill:rgb(42,63,95);fill-rule:nonzero;"/>
                <path d="M34.307,0L34.307,-9.015L35.942,-9.015L35.942,-7.321C36.59,-8.583 37.531,-9.214 38.765,-9.214C38.931,-9.214 39.105,-9.2 39.288,-9.172L39.288,-7.645C39.005,-7.739 38.756,-7.786 38.541,-7.786C37.506,-7.786 36.64,-7.172 35.942,-5.943L35.942,0L34.307,0Z" style="fill:rgb(42,63,95);fill-rule:nonzero;"/>
                <path d="M41.263,0L41.263,-9.015L42.898,-9.015L42.898,0L41.263,0ZM41.263,-10.65L41.263,-12.285L42.898,-12.285L42.898,-10.65L41.263,-10.65Z" style="fill:rgb(42,63,95);fill-rule:nonzero;"/>
                <path d="M46.177,0.1L46.177,-13.107L47.813,-13.107L47.813,-7.321C48.482,-8.583 49.486,-9.214 50.826,-9.214C51.91,-9.214 52.764,-8.818 53.386,-8.027C54.009,-7.236 54.32,-6.154 54.32,-4.781C54.32,-3.287 53.968,-2.082 53.262,-1.166C52.556,-0.25 51.628,0.208 50.477,0.208C49.409,0.208 48.521,-0.202 47.813,-1.021L47.613,0.1L46.177,0.1ZM47.813,-2.15C48.654,-1.397 49.456,-1.021 50.22,-1.021C51.791,-1.021 52.577,-2.219 52.577,-4.615C52.577,-6.729 51.88,-7.786 50.485,-7.786C49.572,-7.786 48.681,-7.291 47.813,-6.3L47.813,-2.15Z" style="fill:rgb(42,63,95);fill-rule:nonzero;"/>
                <path d="M62.513,0L62.513,-1.693C61.644,-0.426 60.59,0.208 59.351,0.208C58.565,0.208 57.939,-0.04 57.475,-0.535C57.01,-1.031 56.777,-1.699 56.777,-2.54L56.777,-9.015L58.413,-9.015L58.413,-3.071C58.413,-2.396 58.511,-1.916 58.707,-1.631C58.904,-1.346 59.232,-1.204 59.691,-1.204C60.687,-1.204 61.628,-1.859 62.513,-3.171L62.513,-9.015L64.148,-9.015L64.148,0L62.513,0Z" style="fill:rgb(42,63,95);fill-rule:nonzero;"/>
                <path d="M70.947,0.208C69.729,0.208 68.719,-0.243 67.917,-1.146C67.115,-2.048 66.713,-3.185 66.713,-4.557C66.713,-6.024 67.11,-7.166 67.905,-7.985C68.699,-8.804 69.807,-9.214 71.229,-9.214C71.932,-9.214 72.718,-9.117 73.586,-8.923L73.586,-7.554C72.662,-7.825 71.91,-7.96 71.329,-7.96C70.493,-7.96 69.822,-7.646 69.316,-7.018C68.809,-6.39 68.556,-5.553 68.556,-4.507C68.556,-3.495 68.816,-2.676 69.336,-2.05C69.857,-1.425 70.537,-1.112 71.378,-1.112C72.125,-1.112 72.895,-1.303 73.686,-1.685L73.686,-0.274C72.629,0.047 71.716,0.208 70.947,0.208Z" style="fill:rgb(42,63,95);fill-rule:nonzero;"/>
                <path d="M76.135,0L76.135,-9.015L77.77,-9.015L77.77,0L76.135,0ZM76.135,-10.65L76.135,-12.285L77.77,-12.285L77.77,-10.65L76.135,-10.65Z" style="fill:rgb(42,63,95);fill-rule:nonzero;"/>
                <path d="M84.577,0.208C83.287,0.208 82.258,-0.22 81.489,-1.075C80.72,-1.93 80.335,-3.074 80.335,-4.507C80.335,-5.957 80.721,-7.104 81.493,-7.948C82.265,-8.792 83.312,-9.214 84.635,-9.214C85.957,-9.214 87.005,-8.792 87.777,-7.948C88.549,-7.104 88.935,-5.963 88.935,-4.524C88.935,-3.052 88.547,-1.895 87.772,-1.054C86.998,-0.213 85.932,0.208 84.577,0.208ZM84.602,-1.021C86.334,-1.021 87.2,-2.189 87.2,-4.524C87.2,-6.832 86.345,-7.985 84.635,-7.985C82.93,-7.985 82.078,-6.826 82.078,-4.507C82.078,-2.183 82.919,-1.021 84.602,-1.021ZM83.406,-10.65L85.407,-13.314L87.299,-13.314L84.635,-10.65L83.406,-10.65Z" style="fill:rgb(42,63,95);fill-rule:nonzero;"/>
                <path d="M91.491,0L91.491,-9.015L93.126,-9.015L93.126,-7.321C93.99,-8.583 95.047,-9.214 96.297,-9.214C97.078,-9.214 97.7,-8.966 98.165,-8.471C98.63,-7.976 98.862,-7.31 98.862,-6.475L98.862,0L97.227,0L97.227,-5.943C97.227,-6.613 97.129,-7.09 96.932,-7.375C96.736,-7.66 96.411,-7.803 95.957,-7.803C94.955,-7.803 94.012,-7.147 93.126,-5.835L93.126,0L91.491,0Z" style="fill:rgb(42,63,95);fill-rule:nonzero;"/>
                <path d="M113.206,0L113.206,-1.693C112.542,-0.426 111.54,0.208 110.201,0.208C109.117,0.208 108.263,-0.188 107.64,-0.979C107.018,-1.771 106.707,-2.853 106.707,-4.225C106.707,-5.725 107.059,-6.931 107.765,-7.844C108.47,-8.757 109.399,-9.214 110.55,-9.214C111.618,-9.214 112.503,-8.804 113.206,-7.985L113.206,-13.107L114.85,-13.107L114.85,0L113.206,0ZM113.206,-6.865C112.359,-7.612 111.557,-7.985 110.799,-7.985C109.233,-7.985 108.45,-6.787 108.45,-4.391C108.45,-2.283 109.147,-1.229 110.542,-1.229C111.449,-1.229 112.337,-1.724 113.206,-2.714L113.206,-6.865Z" style="fill:rgb(42,63,95);fill-rule:nonzero;"/>
                <path d="M124.728,-0.291C123.632,0.042 122.694,0.208 121.914,0.208C120.585,0.208 119.502,-0.234 118.664,-1.116C117.825,-1.999 117.406,-3.143 117.406,-4.549C117.406,-5.916 117.776,-7.036 118.514,-7.911C119.253,-8.785 120.198,-9.222 121.349,-9.222C122.439,-9.222 123.282,-8.835 123.877,-8.06C124.472,-7.285 124.769,-6.184 124.769,-4.756L124.761,-4.25L119.075,-4.25C119.313,-2.108 120.361,-1.038 122.221,-1.038C122.901,-1.038 123.737,-1.22 124.728,-1.585L124.728,-0.291ZM119.149,-5.479L123.125,-5.479C123.125,-7.155 122.5,-7.994 121.25,-7.994C119.993,-7.994 119.293,-7.155 119.149,-5.479Z" style="fill:rgb(42,63,95);fill-rule:nonzero;"/>
                <rect x="127.591" y="-13.107" width="1.635" height="13.107" style="fill:rgb(42,63,95);"/>
                <path d="M137.884,3.279L137.884,-9.015L139.52,-9.015L139.52,-7.321C140.189,-8.583 141.194,-9.214 142.533,-9.214C143.617,-9.214 144.471,-8.818 145.094,-8.027C145.716,-7.236 146.027,-6.154 146.027,-4.781C146.027,-3.287 145.675,-2.082 144.969,-1.166C144.263,-0.25 143.335,0.208 142.184,0.208C141.116,0.208 140.228,-0.202 139.52,-1.021L139.52,3.279L137.884,3.279ZM139.52,-2.15C140.361,-1.397 141.163,-1.021 141.927,-1.021C143.498,-1.021 144.284,-2.219 144.284,-4.615C144.284,-6.729 143.587,-7.786 142.192,-7.786C141.279,-7.786 140.388,-7.291 139.52,-6.3L139.52,-2.15Z" style="fill:rgb(42,63,95);fill-rule:nonzero;"/>
                <path d="M153.232,-1.146C152.253,-0.243 151.309,0.208 150.402,0.208C149.655,0.208 149.035,-0.026 148.542,-0.494C148.05,-0.962 147.804,-1.552 147.804,-2.266C147.804,-3.251 148.217,-4.008 149.045,-4.536C149.872,-5.065 151.058,-5.329 152.602,-5.329L152.992,-5.329L152.992,-6.417C152.992,-7.462 152.455,-7.985 151.381,-7.985C150.518,-7.985 149.586,-7.72 148.584,-7.188L148.584,-8.542C149.685,-8.99 150.717,-9.214 151.68,-9.214C152.687,-9.214 153.43,-8.987 153.909,-8.533C154.388,-8.079 154.627,-7.374 154.627,-6.417L154.627,-2.333C154.627,-1.397 154.915,-0.93 155.49,-0.93C155.562,-0.93 155.667,-0.941 155.806,-0.963L155.922,-0.058C155.551,0.119 155.142,0.208 154.693,0.208C153.93,0.208 153.443,-0.243 153.232,-1.146ZM152.992,-2.034L152.992,-4.366L152.444,-4.383C151.547,-4.383 150.822,-4.213 150.269,-3.872C149.716,-3.532 149.439,-3.085 149.439,-2.532C149.439,-2.139 149.577,-1.807 149.854,-1.536C150.131,-1.264 150.468,-1.129 150.867,-1.129C151.547,-1.129 152.256,-1.431 152.992,-2.034Z" style="fill:rgb(42,63,95);fill-rule:nonzero;"/>
                <path d="M157.972,0L157.972,-9.015L159.607,-9.015L159.607,-7.321C160.255,-8.583 161.196,-9.214 162.43,-9.214C162.596,-9.214 162.77,-9.2 162.953,-9.172L162.953,-7.645C162.67,-7.739 162.421,-7.786 162.206,-7.786C161.171,-7.786 160.305,-7.172 159.607,-5.943L159.607,0L157.972,0Z" style="fill:rgb(42,63,95);fill-rule:nonzero;"/>
                <path d="M170.714,3.279L170.714,-1.693C170.05,-0.426 169.048,0.208 167.709,0.208C166.624,0.208 165.771,-0.188 165.148,-0.979C164.526,-1.771 164.214,-2.853 164.214,-4.225C164.214,-5.725 164.567,-6.931 165.273,-7.844C165.978,-8.757 166.907,-9.214 168.058,-9.214C169.126,-9.214 170.011,-8.804 170.714,-7.985L170.714,-9.015L172.357,-9.015L172.357,3.279L170.714,3.279ZM170.714,-6.865C169.867,-7.612 169.065,-7.985 168.307,-7.985C166.741,-7.985 165.958,-6.787 165.958,-4.391C165.958,-2.283 166.655,-1.229 168.049,-1.229C168.957,-1.229 169.845,-1.724 170.714,-2.714L170.714,-6.865Z" style="fill:rgb(42,63,95);fill-rule:nonzero;"/>
                <path d="M181.264,0L181.264,-1.693C180.395,-0.426 179.341,0.208 178.102,0.208C177.316,0.208 176.69,-0.04 176.226,-0.535C175.761,-1.031 175.528,-1.699 175.528,-2.54L175.528,-9.015L177.164,-9.015L177.164,-3.071C177.164,-2.396 177.262,-1.916 177.458,-1.631C177.655,-1.346 177.983,-1.204 178.442,-1.204C179.438,-1.204 180.379,-1.859 181.264,-3.171L181.264,-9.015L182.899,-9.015L182.899,0L181.264,0Z" style="fill:rgb(42,63,95);fill-rule:nonzero;"/>
                <path d="M192.786,-0.291C191.69,0.042 190.752,0.208 189.972,0.208C188.644,0.208 187.56,-0.234 186.722,-1.116C185.884,-1.999 185.464,-3.143 185.464,-4.549C185.464,-5.916 185.834,-7.036 186.573,-7.911C187.311,-8.785 188.256,-9.222 189.407,-9.222C190.497,-9.222 191.34,-8.835 191.935,-8.06C192.53,-7.285 192.827,-6.184 192.827,-4.756L192.819,-4.25L187.133,-4.25C187.371,-2.108 188.419,-1.038 190.279,-1.038C190.959,-1.038 191.795,-1.22 192.786,-1.585L192.786,-0.291ZM187.208,-5.479L191.184,-5.479C191.184,-7.155 190.558,-7.994 189.308,-7.994C188.051,-7.994 187.351,-7.155 187.208,-5.479Z" style="fill:rgb(42,63,95);fill-rule:nonzero;"/>
                <path d="M205.677,-1.146C204.697,-0.243 203.754,0.208 202.846,0.208C202.099,0.208 201.479,-0.026 200.987,-0.494C200.494,-0.962 200.248,-1.552 200.248,-2.266C200.248,-3.251 200.662,-4.008 201.489,-4.536C202.316,-5.065 203.502,-5.329 205.046,-5.329L205.436,-5.329L205.436,-6.417C205.436,-7.462 204.899,-7.985 203.826,-7.985C202.962,-7.985 202.03,-7.72 201.028,-7.188L201.028,-8.542C202.13,-8.99 203.162,-9.214 204.125,-9.214C205.132,-9.214 205.875,-8.987 206.353,-8.533C206.832,-8.079 207.071,-7.374 207.071,-6.417L207.071,-2.333C207.071,-1.397 207.359,-0.93 207.935,-0.93C208.007,-0.93 208.112,-0.941 208.25,-0.963L208.366,-0.058C207.995,0.119 207.586,0.208 207.138,0.208C206.374,0.208 205.887,-0.243 205.677,-1.146ZM205.436,-2.034L205.436,-4.366L204.888,-4.383C203.992,-4.383 203.267,-4.213 202.713,-3.872C202.16,-3.532 201.883,-3.085 201.883,-2.532C201.883,-2.139 202.022,-1.807 202.298,-1.536C202.575,-1.264 202.913,-1.129 203.311,-1.129C203.992,-1.129 204.7,-1.431 205.436,-2.034Z" style="fill:rgb(42,63,95);fill-rule:nonzero;"/>
                <path d="M216.053,0L216.053,-1.693C215.184,-0.426 214.13,0.208 212.89,0.208C212.104,0.208 211.479,-0.04 211.014,-0.535C210.549,-1.031 210.317,-1.699 210.317,-2.54L210.317,-9.015L211.952,-9.015L211.952,-3.071C211.952,-2.396 212.05,-1.916 212.247,-1.631C212.443,-1.346 212.771,-1.204 213.23,-1.204C214.227,-1.204 215.167,-1.859 216.053,-3.171L216.053,-9.015L217.688,-9.015L217.688,0L216.053,0Z" style="fill:rgb(42,63,95);fill-rule:nonzero;"/>
                <path d="M223.673,0.208C222.843,0.208 222.195,-0.03 221.73,-0.506C221.266,-0.982 221.033,-1.644 221.033,-2.49L221.033,-7.786L219.904,-7.786L219.904,-9.015L221.033,-9.015L221.033,-10.65L222.668,-10.808L222.668,-9.015L225.026,-9.015L225.026,-7.786L222.668,-7.786L222.668,-2.789C222.668,-1.61 223.178,-1.021 224.196,-1.021C224.412,-1.021 224.674,-1.057 224.984,-1.129L224.984,0C224.481,0.138 224.044,0.208 223.673,0.208Z" style="fill:rgb(42,63,95);fill-rule:nonzero;"/>
                <path d="M230.853,0.208C229.564,0.208 228.534,-0.22 227.765,-1.075C226.996,-1.93 226.611,-3.074 226.611,-4.507C226.611,-5.957 226.997,-7.104 227.769,-7.948C228.541,-8.792 229.589,-9.214 230.911,-9.214C232.234,-9.214 233.281,-8.792 234.053,-7.948C234.825,-7.104 235.211,-5.963 235.211,-4.524C235.211,-3.052 234.824,-1.895 234.049,-1.054C233.274,-0.213 232.209,0.208 230.853,0.208ZM230.878,-1.021C232.61,-1.021 233.476,-2.189 233.476,-4.524C233.476,-6.832 232.621,-7.985 230.911,-7.985C229.207,-7.985 228.354,-6.826 228.354,-4.507C228.354,-2.183 229.196,-1.021 230.878,-1.021Z" style="fill:rgb(42,63,95);fill-rule:nonzero;"/>
                <path d="M237.768,0L237.768,-9.015L239.403,-9.015L239.403,-7.321C240.2,-8.583 241.223,-9.214 242.474,-9.214C243.681,-9.214 244.502,-8.583 244.939,-7.321C245.714,-8.589 246.721,-9.222 247.961,-9.222C248.758,-9.222 249.375,-8.988 249.812,-8.521C250.249,-8.053 250.468,-7.399 250.468,-6.558L250.468,0L248.824,0L248.824,-6.3C248.824,-7.33 248.417,-7.844 247.604,-7.844C246.757,-7.844 245.869,-7.244 244.939,-6.043L244.939,0L243.296,0L243.296,-6.3C243.296,-7.335 242.881,-7.853 242.051,-7.853C241.226,-7.853 240.344,-7.249 239.403,-6.043L239.403,0L237.768,0Z" style="fill:rgb(42,63,95);fill-rule:nonzero;"/>
                <path d="M257.167,0.208C255.877,0.208 254.848,-0.22 254.079,-1.075C253.309,-1.93 252.925,-3.074 252.925,-4.507C252.925,-5.957 253.311,-7.104 254.083,-7.948C254.855,-8.792 255.902,-9.214 257.225,-9.214C258.547,-9.214 259.594,-8.792 260.366,-7.948C261.138,-7.104 261.524,-5.963 261.524,-4.524C261.524,-3.052 261.137,-1.895 260.362,-1.054C259.588,-0.213 258.522,0.208 257.167,0.208ZM257.191,-1.021C258.924,-1.021 259.79,-2.189 259.79,-4.524C259.79,-6.832 258.935,-7.985 257.225,-7.985C255.52,-7.985 254.668,-6.826 254.668,-4.507C254.668,-2.183 255.509,-1.021 257.191,-1.021Z" style="fill:rgb(42,63,95);fill-rule:nonzero;"/>
                <path d="M266.787,0.208C265.957,0.208 265.31,-0.03 264.845,-0.506C264.38,-0.982 264.147,-1.644 264.147,-2.49L264.147,-7.786L263.019,-7.786L263.019,-9.015L264.147,-9.015L264.147,-10.65L265.783,-10.808L265.783,-9.015L268.14,-9.015L268.14,-7.786L265.783,-7.786L265.783,-2.789C265.783,-1.61 266.292,-1.021 267.31,-1.021C267.526,-1.021 267.789,-1.057 268.099,-1.129L268.099,0C267.595,0.138 267.158,0.208 266.787,0.208Z" style="fill:rgb(42,63,95);fill-rule:nonzero;"/>
                <path d="M273.967,0.208C272.678,0.208 271.649,-0.22 270.879,-1.075C270.11,-1.93 269.726,-3.074 269.726,-4.507C269.726,-5.957 270.112,-7.104 270.884,-7.948C271.656,-8.792 272.703,-9.214 274.025,-9.214C275.348,-9.214 276.395,-8.792 277.167,-7.948C277.939,-7.104 278.325,-5.963 278.325,-4.524C278.325,-3.052 277.938,-1.895 277.163,-1.054C276.388,-0.213 275.323,0.208 273.967,0.208ZM273.992,-1.021C275.724,-1.021 276.59,-2.189 276.59,-4.524C276.59,-6.832 275.735,-7.985 274.025,-7.985C272.321,-7.985 271.469,-6.826 271.469,-4.507C271.469,-2.183 272.31,-1.021 273.992,-1.021Z" style="fill:rgb(42,63,95);fill-rule:nonzero;"/>
                <path d="M280.882,0L280.882,-9.015L282.517,-9.015L282.517,-7.321C283.165,-8.583 284.105,-9.214 285.339,-9.214C285.505,-9.214 285.68,-9.2 285.862,-9.172L285.862,-7.645C285.58,-7.739 285.331,-7.786 285.115,-7.786C284.08,-7.786 283.214,-7.172 282.517,-5.943L282.517,0L280.882,0Z" style="fill:rgb(42,63,95);fill-rule:nonzero;"/>
                <path d="M296.736,0.208C295.519,0.208 294.509,-0.243 293.707,-1.146C292.904,-2.048 292.503,-3.185 292.503,-4.557C292.503,-6.024 292.9,-7.166 293.694,-7.985C294.488,-8.804 295.596,-9.214 297.019,-9.214C297.721,-9.214 298.507,-9.117 299.376,-8.923L299.376,-7.554C298.452,-7.825 297.699,-7.96 297.118,-7.96C296.283,-7.96 295.612,-7.646 295.105,-7.018C294.599,-6.39 294.346,-5.553 294.346,-4.507C294.346,-3.495 294.606,-2.676 295.126,-2.05C295.646,-1.425 296.327,-1.112 297.168,-1.112C297.915,-1.112 298.684,-1.303 299.476,-1.685L299.476,-0.274C298.419,0.047 297.506,0.208 296.736,0.208Z" style="fill:rgb(42,63,95);fill-rule:nonzero;"/>
                <path d="M305.452,0.208C304.163,0.208 303.133,-0.22 302.364,-1.075C301.595,-1.93 301.21,-3.074 301.21,-4.507C301.21,-5.957 301.596,-7.104 302.368,-7.948C303.14,-8.792 304.188,-9.214 305.51,-9.214C306.833,-9.214 307.88,-8.792 308.652,-7.948C309.424,-7.104 309.81,-5.963 309.81,-4.524C309.81,-3.052 309.423,-1.895 308.648,-1.054C307.873,-0.213 306.808,0.208 305.452,0.208ZM305.477,-1.021C307.209,-1.021 308.075,-2.189 308.075,-4.524C308.075,-6.832 307.22,-7.985 305.51,-7.985C303.806,-7.985 302.954,-6.826 302.954,-4.507C302.954,-2.183 303.795,-1.021 305.477,-1.021Z" style="fill:rgb(42,63,95);fill-rule:nonzero;"/>
                <rect x="312.367" y="-13.107" width="1.635" height="13.107" style="fill:rgb(42,63,95);"/>
                <path d="M320.809,0.208C319.519,0.208 318.49,-0.22 317.721,-1.075C316.951,-1.93 316.567,-3.074 316.567,-4.507C316.567,-5.957 316.953,-7.104 317.725,-7.948C318.497,-8.792 319.544,-9.214 320.867,-9.214C322.189,-9.214 323.237,-8.792 324.009,-7.948C324.781,-7.104 325.167,-5.963 325.167,-4.524C325.167,-3.052 324.779,-1.895 324.004,-1.054C323.23,-0.213 322.164,0.208 320.809,0.208ZM320.833,-1.021C322.566,-1.021 323.432,-2.189 323.432,-4.524C323.432,-6.832 322.577,-7.985 320.867,-7.985C319.162,-7.985 318.31,-6.826 318.31,-4.507C318.31,-2.183 319.151,-1.021 320.833,-1.021Z" style="fill:rgb(42,63,95);fill-rule:nonzero;"/>
                <path d="M327.723,0L327.723,-9.015L329.358,-9.015L329.358,-7.321C330.155,-8.583 331.179,-9.214 332.43,-9.214C333.636,-9.214 334.458,-8.583 334.895,-7.321C335.67,-8.589 336.677,-9.222 337.917,-9.222C338.713,-9.222 339.33,-8.988 339.768,-8.521C340.205,-8.053 340.423,-7.399 340.423,-6.558L340.423,0L338.78,0L338.78,-6.3C338.78,-7.33 338.373,-7.844 337.56,-7.844C336.713,-7.844 335.825,-7.244 334.895,-6.043L334.895,0L333.251,0L333.251,-6.3C333.251,-7.335 332.836,-7.853 332.006,-7.853C331.182,-7.853 330.299,-7.249 329.358,-6.043L329.358,0L327.723,0Z" style="fill:rgb(42,63,95);fill-rule:nonzero;"/>
                <path d="M343.594,0.1L343.594,-13.107L345.229,-13.107L345.229,-7.321C345.899,-8.583 346.903,-9.214 348.243,-9.214C349.327,-9.214 350.181,-8.818 350.803,-8.027C351.426,-7.236 351.737,-6.154 351.737,-4.781C351.737,-3.287 351.385,-2.082 350.679,-1.166C349.973,-0.25 349.045,0.208 347.894,0.208C346.826,0.208 345.938,-0.202 345.229,-1.021L345.03,0.1L343.594,0.1ZM345.229,-2.15C346.071,-1.397 346.873,-1.021 347.637,-1.021C349.208,-1.021 349.994,-2.219 349.994,-4.615C349.994,-6.729 349.297,-7.786 347.902,-7.786C346.989,-7.786 346.098,-7.291 345.229,-6.3L345.229,-2.15Z" style="fill:rgb(42,63,95);fill-rule:nonzero;"/>
                <path d="M354.294,0L354.294,-9.015L355.929,-9.015L355.929,0L354.294,0ZM354.294,-10.65L354.294,-12.285L355.929,-12.285L355.929,-10.65L354.294,-10.65Z" style="fill:rgb(42,63,95);fill-rule:nonzero;"/>
                <path d="M363.856,-1.146C362.877,-0.243 361.933,0.208 361.026,0.208C360.279,0.208 359.659,-0.026 359.167,-0.494C358.674,-0.962 358.428,-1.552 358.428,-2.266C358.428,-3.251 358.841,-4.008 359.669,-4.536C360.496,-5.065 361.682,-5.329 363.226,-5.329L363.616,-5.329L363.616,-6.417C363.616,-7.462 363.079,-7.985 362.005,-7.985C361.142,-7.985 360.21,-7.72 359.208,-7.188L359.208,-8.542C360.309,-8.99 361.341,-9.214 362.304,-9.214C363.311,-9.214 364.054,-8.987 364.533,-8.533C365.012,-8.079 365.251,-7.374 365.251,-6.417L365.251,-2.333C365.251,-1.397 365.539,-0.93 366.114,-0.93C366.186,-0.93 366.291,-0.941 366.43,-0.963L366.546,-0.058C366.175,0.119 365.766,0.208 365.317,0.208C364.554,0.208 364.067,-0.243 363.856,-1.146ZM363.616,-2.034L363.616,-4.366L363.068,-4.383C362.171,-4.383 361.446,-4.213 360.893,-3.872C360.34,-3.532 360.063,-3.085 360.063,-2.532C360.063,-2.139 360.201,-1.807 360.478,-1.536C360.755,-1.264 361.092,-1.129 361.491,-1.129C362.171,-1.129 362.88,-1.431 363.616,-2.034Z" style="fill:rgb(42,63,95);fill-rule:nonzero;"/>
                <path d="M368.596,0L368.596,-9.015L370.231,-9.015L370.231,-7.321C371.095,-8.583 372.152,-9.214 373.402,-9.214C374.183,-9.214 374.805,-8.966 375.27,-8.471C375.735,-7.976 375.967,-7.31 375.967,-6.475L375.967,0L374.332,0L374.332,-5.943C374.332,-6.613 374.234,-7.09 374.037,-7.375C373.841,-7.66 373.516,-7.803 373.062,-7.803C372.06,-7.803 371.117,-7.147 370.231,-5.835L370.231,0L368.596,0Z" style="fill:rgb(42,63,95);fill-rule:nonzero;"/>
                <path d="M382.674,0.208C381.385,0.208 380.356,-0.22 379.586,-1.075C378.817,-1.93 378.433,-3.074 378.433,-4.507C378.433,-5.957 378.819,-7.104 379.591,-7.948C380.363,-8.792 381.41,-9.214 382.732,-9.214C384.055,-9.214 385.102,-8.792 385.874,-7.948C386.646,-7.104 387.032,-5.963 387.032,-4.524C387.032,-3.052 386.645,-1.895 385.87,-1.054C385.095,-0.213 384.03,0.208 382.674,0.208ZM382.699,-1.021C384.431,-1.021 385.297,-2.189 385.297,-4.524C385.297,-6.832 384.442,-7.985 382.732,-7.985C381.028,-7.985 380.176,-6.826 380.176,-4.507C380.176,-2.183 381.017,-1.021 382.699,-1.021Z" style="fill:rgb(42,63,95);fill-rule:nonzero;"/>
                <path d="M394.968,3.279L394.968,-9.015L396.603,-9.015L396.603,-7.321C397.273,-8.583 398.277,-9.214 399.616,-9.214C400.701,-9.214 401.554,-8.818 402.177,-8.027C402.8,-7.236 403.111,-6.154 403.111,-4.781C403.111,-3.287 402.758,-2.082 402.052,-1.166C401.347,-0.25 400.419,0.208 399.268,0.208C398.2,0.208 397.311,-0.202 396.603,-1.021L396.603,3.279L394.968,3.279ZM396.603,-2.15C397.444,-1.397 398.247,-1.021 399.01,-1.021C400.582,-1.021 401.368,-2.219 401.368,-4.615C401.368,-6.729 400.67,-7.786 399.276,-7.786C398.363,-7.786 397.472,-7.291 396.603,-6.3L396.603,-2.15Z" style="fill:rgb(42,63,95);fill-rule:nonzero;"/>
                <path d="M409.195,0.208C407.906,0.208 406.877,-0.22 406.107,-1.075C405.338,-1.93 404.954,-3.074 404.954,-4.507C404.954,-5.957 405.34,-7.104 406.112,-7.948C406.884,-8.792 407.931,-9.214 409.253,-9.214C410.576,-9.214 411.623,-8.792 412.395,-7.948C413.167,-7.104 413.553,-5.963 413.553,-4.524C413.553,-3.052 413.166,-1.895 412.391,-1.054C411.616,-0.213 410.551,0.208 409.195,0.208ZM409.22,-1.021C410.952,-1.021 411.818,-2.189 411.818,-4.524C411.818,-6.832 410.963,-7.985 409.253,-7.985C407.549,-7.985 406.697,-6.826 406.697,-4.507C406.697,-2.183 407.538,-1.021 409.22,-1.021Z" style="fill:rgb(42,63,95);fill-rule:nonzero;"/>
                <path d="M416.11,0L416.11,-9.015L417.745,-9.015L417.745,-7.321C418.393,-8.583 419.333,-9.214 420.567,-9.214C420.733,-9.214 420.908,-9.2 421.09,-9.172L421.09,-7.645C420.808,-7.739 420.559,-7.786 420.343,-7.786C419.308,-7.786 418.442,-7.172 417.745,-5.943L417.745,0L416.11,0Z" style="fill:rgb(42,63,95);fill-rule:nonzero;"/>
                <path d="M431.964,0.208C430.747,0.208 429.737,-0.243 428.935,-1.146C428.132,-2.048 427.731,-3.185 427.731,-4.557C427.731,-6.024 428.128,-7.166 428.922,-7.985C429.716,-8.804 430.824,-9.214 432.247,-9.214C432.949,-9.214 433.735,-9.117 434.604,-8.923L434.604,-7.554C433.68,-7.825 432.927,-7.96 432.346,-7.96C431.511,-7.96 430.84,-7.646 430.333,-7.018C429.827,-6.39 429.574,-5.553 429.574,-4.507C429.574,-3.495 429.834,-2.676 430.354,-2.05C430.874,-1.425 431.555,-1.112 432.396,-1.112C433.143,-1.112 433.912,-1.303 434.704,-1.685L434.704,-0.274C433.647,0.047 432.734,0.208 431.964,0.208Z" style="fill:rgb(42,63,95);fill-rule:nonzero;"/>
                <rect x="437.152" y="-13.107" width="1.635" height="13.107" style="fill:rgb(42,63,95);"/>
                <path d="M446.715,-1.146C445.735,-0.243 444.792,0.208 443.884,0.208C443.137,0.208 442.517,-0.026 442.025,-0.494C441.532,-0.962 441.286,-1.552 441.286,-2.266C441.286,-3.251 441.7,-4.008 442.527,-4.536C443.354,-5.065 444.54,-5.329 446.084,-5.329L446.474,-5.329L446.474,-6.417C446.474,-7.462 445.937,-7.985 444.864,-7.985C444,-7.985 443.068,-7.72 442.066,-7.188L442.066,-8.542C443.168,-8.99 444.2,-9.214 445.163,-9.214C446.17,-9.214 446.913,-8.987 447.391,-8.533C447.87,-8.079 448.109,-7.374 448.109,-6.417L448.109,-2.333C448.109,-1.397 448.397,-0.93 448.973,-0.93C449.045,-0.93 449.15,-0.941 449.288,-0.963L449.404,-0.058C449.034,0.119 448.624,0.208 448.176,0.208C447.412,0.208 446.925,-0.243 446.715,-1.146ZM446.474,-2.034L446.474,-4.366L445.926,-4.383C445.03,-4.383 444.305,-4.213 443.751,-3.872C443.198,-3.532 442.921,-3.085 442.921,-2.532C442.921,-2.139 443.06,-1.807 443.336,-1.536C443.613,-1.264 443.951,-1.129 444.349,-1.129C445.03,-1.129 445.738,-1.431 446.474,-2.034Z" style="fill:rgb(42,63,95);fill-rule:nonzero;"/>
                <path d="M453.845,0.208C453.098,0.208 452.191,0.033 451.123,-0.315L451.123,-1.818C452.191,-1.287 453.12,-1.021 453.912,-1.021C454.382,-1.021 454.772,-1.148 455.082,-1.403C455.392,-1.657 455.547,-1.976 455.547,-2.357C455.547,-2.916 455.112,-3.378 454.244,-3.744L453.289,-4.15C451.878,-4.737 451.172,-5.581 451.172,-6.682C451.172,-7.468 451.45,-8.086 452.007,-8.537C452.563,-8.988 453.325,-9.214 454.293,-9.214C454.797,-9.214 455.42,-9.145 456.161,-9.006L456.501,-8.94L456.501,-7.579C455.588,-7.85 454.863,-7.985 454.327,-7.985C453.275,-7.985 452.75,-7.604 452.75,-6.84C452.75,-6.347 453.148,-5.932 453.945,-5.595L454.733,-5.263C455.624,-4.886 456.255,-4.489 456.626,-4.072C456.997,-3.654 457.182,-3.132 457.182,-2.507C457.182,-1.715 456.869,-1.065 456.244,-0.556C455.619,-0.047 454.819,0.208 453.845,0.208Z" style="fill:rgb(42,63,95);fill-rule:nonzero;"/>
                <path d="M466.728,-0.291C465.632,0.042 464.694,0.208 463.914,0.208C462.586,0.208 461.503,-0.234 460.664,-1.116C459.826,-1.999 459.407,-3.143 459.407,-4.549C459.407,-5.916 459.776,-7.036 460.515,-7.911C461.254,-8.785 462.199,-9.222 463.35,-9.222C464.44,-9.222 465.282,-8.835 465.877,-8.06C466.472,-7.285 466.77,-6.184 466.77,-4.756L466.761,-4.25L461.075,-4.25C461.313,-2.108 462.362,-1.038 464.221,-1.038C464.902,-1.038 465.737,-1.22 466.728,-1.585L466.728,-0.291ZM461.15,-5.479L465.126,-5.479C465.126,-7.155 464.501,-7.994 463.25,-7.994C461.994,-7.994 461.294,-7.155 461.15,-5.479Z" style="fill:rgb(42,63,95);fill-rule:nonzero;"/>
                <path d="M469.617,2.665L469.617,2.05C470.148,1.901 470.414,1.273 470.414,0.166L470.414,0L469.617,0L469.617,-2.05L471.667,-2.05L471.667,-0.274C471.667,1.547 470.984,2.526 469.617,2.665Z" style="fill:rgb(42,63,95);fill-rule:nonzero;"/>
                <path d="M480.125,0L480.125,-1.436C480.601,-2.548 481.564,-3.76 483.014,-5.072L483.952,-5.91C485.159,-7 485.762,-8.082 485.762,-9.156C485.762,-9.842 485.556,-10.382 485.143,-10.774C484.731,-11.167 484.165,-11.364 483.446,-11.364C482.594,-11.364 481.589,-11.035 480.433,-10.376L480.433,-11.82C481.523,-12.335 482.605,-12.592 483.678,-12.592C484.829,-12.592 485.753,-12.282 486.451,-11.663C487.148,-11.043 487.497,-10.221 487.497,-9.197C487.497,-8.461 487.321,-7.808 486.969,-7.238C486.618,-6.668 485.964,-5.977 485.006,-5.163L484.375,-4.624C483.064,-3.511 482.306,-2.449 482.101,-1.436L487.438,-1.436L487.438,0L480.125,0Z" style="fill:rgb(42,63,95);fill-rule:nonzero;"/>
                <path d="M494.793,0.307C493.526,0.307 492.501,-0.289 491.718,-1.482C490.934,-2.674 490.543,-4.231 490.543,-6.151C490.543,-8.088 490.937,-9.646 491.726,-10.824C492.514,-12.003 493.553,-12.592 494.843,-12.592C496.132,-12.592 497.171,-12.003 497.96,-10.824C498.748,-9.646 499.143,-8.096 499.143,-6.176C499.143,-4.206 498.748,-2.633 497.96,-1.457C497.171,-0.281 496.116,0.307 494.793,0.307ZM494.81,-0.921C496.542,-0.921 497.408,-2.681 497.408,-6.201C497.408,-9.643 496.553,-11.364 494.843,-11.364C493.138,-11.364 492.286,-9.626 492.286,-6.151C492.286,-2.665 493.127,-0.921 494.81,-0.921Z" style="fill:rgb(42,63,95);fill-rule:nonzero;"/>
                <path d="M502.77,0L502.77,-1.229L505.227,-1.229L505.227,-10.924L502.77,-10.31L502.77,-11.571L506.871,-12.592L506.871,-1.229L509.328,-1.229L509.328,0L502.77,0Z" style="fill:rgb(42,63,95);fill-rule:nonzero;"/>
                <path d="M512.897,-0.075L512.897,-1.461C513.937,-1.101 514.823,-0.921 515.553,-0.921C516.571,-0.921 517.367,-1.354 517.94,-2.22C518.512,-3.087 518.799,-4.292 518.799,-5.835C517.969,-4.812 517.025,-4.3 515.968,-4.3C514.933,-4.3 514.056,-4.68 513.337,-5.441C512.618,-6.202 512.258,-7.13 512.258,-8.226C512.258,-9.482 512.641,-10.524 513.407,-11.351C514.174,-12.179 515.138,-12.592 516.3,-12.592C517.634,-12.592 518.685,-12.057 519.455,-10.986C520.224,-9.915 520.608,-8.45 520.608,-6.591C520.608,-4.477 520.139,-2.799 519.201,-1.556C518.263,-0.314 516.995,0.307 515.396,0.307C514.754,0.307 513.921,0.18 512.897,-0.075ZM513.893,-8.55C513.893,-7.598 514.105,-6.848 514.528,-6.3C514.951,-5.752 515.531,-5.479 516.267,-5.479C516.959,-5.479 517.55,-5.714 518.039,-6.184C518.529,-6.654 518.774,-7.222 518.774,-7.886C518.774,-8.932 518.537,-9.774 518.064,-10.413C517.591,-11.052 516.97,-11.372 516.201,-11.372C515.487,-11.372 514.924,-11.119 514.511,-10.613C514.099,-10.106 513.893,-9.419 513.893,-8.55Z" style="fill:rgb(42,63,95);fill-rule:nonzero;"/>
            </g>
        </g>
    </g>
</svg>
