<?xml version="1.0" encoding="UTF-8" standalone="no"?>
<!DOCTYPE svg PUBLIC "-//W3C//DTD SVG 1.1//EN" "http://www.w3.org/Graphics/SVG/1.1/DTD/svg11.dtd">
<svg width="100%" height="100%" viewBox="0 0 432 562" version="1.1" xmlns="http://www.w3.org/2000/svg" xmlns:xlink="http://www.w3.org/1999/xlink" xml:space="preserve" xmlns:serif="http://www.serif.com/" style="fill-rule:evenodd;clip-rule:evenodd;">
    <rect x="125" y="50" width="250" height="120" style="fill:rgb(196,196,196);"/>
    <rect x="125" y="390" width="250" height="120" style="fill:rgb(196,196,196);"/>
    <rect x="0.5" y="220.5" width="249" height="119" style="fill:none;stroke:black;stroke-width:1px;"/>
    <rect x="57" y="247" width="136" height="65" style="fill:rgb(158,193,163);"/>
    <path d="M92.939,221.061C93.525,221.646 94.475,221.646 95.061,221.061L104.607,211.515C105.192,210.929 105.192,209.979 104.607,209.393C104.021,208.808 103.071,208.808 102.485,209.393L94,217.879L85.515,209.393C84.929,208.808 83.979,208.808 83.393,209.393C82.808,209.979 82.808,210.929 83.393,211.515L92.939,221.061ZM92.5,50L92.5,220L95.5,220L95.5,50L92.5,50Z" style="fill-rule:nonzero;"/>
    <path d="M193.939,391.061C194.525,391.646 195.475,391.646 196.061,391.061L205.607,381.515C206.192,380.929 206.192,379.979 205.607,379.393C205.021,378.808 204.071,378.808 203.485,379.393L195,387.879L186.515,379.393C185.929,378.808 184.979,378.808 184.393,379.393C183.808,379.979 183.808,380.929 184.393,381.515L193.939,391.061ZM193.5,340L193.5,390L196.5,390L196.5,340L193.5,340Z" style="fill-rule:nonzero;"/>
    <path d="M193.939,221.061C194.525,221.646 195.475,221.646 196.061,221.061L205.607,211.515C206.192,210.929 206.192,209.979 205.607,209.393C205.021,208.808 204.071,208.808 203.485,209.393L195,217.879L186.515,209.393C185.929,208.808 184.979,208.808 184.393,209.393C183.808,209.979 183.808,210.929 184.393,211.515L193.939,221.061ZM193.5,170L193.5,220L196.5,220L196.5,170L193.5,170Z" style="fill-rule:nonzero;"/>
    <path d="M193.939,51.061C194.525,51.646 195.475,51.646 196.061,51.061L205.607,41.515C206.192,40.929 206.192,39.979 205.607,39.393C205.021,38.808 204.071,38.808 203.485,39.393L195,47.879L186.515,39.393C185.929,38.808 184.979,38.808 184.393,39.393C183.808,39.979 183.808,40.929 184.393,41.515L193.939,51.061ZM193.5,0L193.5,50L196.5,50L196.5,-0L193.5,0Z" style="fill-rule:nonzero;"/>
    <path d="M268.939,561.061C269.525,561.646 270.475,561.646 271.061,561.061L280.607,551.515C281.192,550.929 281.192,549.979 280.607,549.393C280.021,548.808 279.071,548.808 278.485,549.393L270,557.879L261.515,549.393C260.929,548.808 259.979,548.808 259.393,549.393C258.808,549.979 258.808,550.929 259.393,551.515L268.939,561.061ZM268.5,510L268.5,560L271.5,560L271.5,510L268.5,510Z" style="fill-rule:nonzero;"/>
    <path d="M228.939,561.061C229.525,561.646 230.475,561.646 231.061,561.061L240.607,551.515C241.192,550.929 241.192,549.979 240.607,549.393C240.021,548.808 239.071,548.808 238.485,549.393L230,557.879L221.515,549.393C220.929,548.808 219.979,548.808 219.393,549.393C218.808,549.979 218.808,550.929 219.393,551.515L228.939,561.061ZM228.5,510L228.5,560L231.5,560L231.5,510L228.5,510Z" style="fill-rule:nonzero;"/>
    <path d="M9.428,211.345C9.428,212.32 9.264,213.172 8.936,213.901C8.607,214.626 8.143,215.18 7.541,215.562C6.939,215.945 6.238,216.137 5.436,216.137C4.652,216.137 3.957,215.945 3.351,215.562C2.744,215.175 2.273,214.626 1.936,213.915C1.603,213.2 1.432,212.372 1.423,211.434L1.423,210.716C1.423,209.759 1.589,208.913 1.922,208.18C2.255,207.446 2.724,206.885 3.33,206.498C3.941,206.106 4.638,205.91 5.422,205.91C6.219,205.91 6.921,206.104 7.527,206.491C8.138,206.874 8.607,207.432 8.936,208.166C9.264,208.895 9.428,209.745 9.428,210.716L9.428,211.345ZM8.122,210.702C8.122,209.522 7.885,208.617 7.411,207.988C6.937,207.355 6.274,207.038 5.422,207.038C4.592,207.038 3.938,207.355 3.46,207.988C2.986,208.617 2.742,209.492 2.729,210.613L2.729,211.345C2.729,212.489 2.968,213.389 3.446,214.045C3.929,214.697 4.592,215.022 5.436,215.022C6.283,215.022 6.939,214.715 7.404,214.1C7.869,213.48 8.108,212.593 8.122,211.44L8.122,210.702ZM13.092,206.047L16.346,214.168L19.6,206.047L21.302,206.047L21.302,216L19.989,216L19.989,212.124L20.112,207.94L16.845,216L15.84,216L12.579,207.961L12.709,212.124L12.709,216L11.397,216L11.397,206.047L13.092,206.047ZM29.245,211.399L24.932,211.399L24.932,214.927L29.942,214.927L29.942,216L23.619,216L23.619,206.047L29.874,206.047L29.874,207.127L24.932,207.127L24.932,210.326L29.245,210.326L29.245,211.399ZM38.925,214.694C38.588,215.177 38.116,215.54 37.51,215.781C36.908,216.018 36.206,216.137 35.404,216.137C34.593,216.137 33.873,215.948 33.244,215.569C32.615,215.187 32.128,214.644 31.781,213.942C31.44,213.241 31.264,212.427 31.255,211.502L31.255,210.634C31.255,209.134 31.604,207.972 32.301,207.147C33.003,206.323 33.987,205.91 35.254,205.91C36.293,205.91 37.129,206.177 37.763,206.71C38.396,207.239 38.783,207.991 38.925,208.966L37.612,208.966C37.366,207.649 36.582,206.99 35.261,206.99C34.381,206.99 33.714,207.3 33.258,207.92C32.807,208.535 32.579,209.428 32.574,210.6L32.574,211.413C32.574,212.53 32.829,213.418 33.34,214.079C33.85,214.735 34.541,215.063 35.411,215.063C35.903,215.063 36.334,215.009 36.703,214.899C37.072,214.79 37.378,214.605 37.619,214.346L37.619,212.11L35.315,212.11L35.315,211.044L38.925,211.044L38.925,214.694ZM46.615,213.402L42.445,213.402L41.509,216L40.155,216L43.956,206.047L45.105,206.047L48.912,216L47.565,216L46.615,213.402ZM42.842,212.322L46.226,212.322L44.53,207.667L42.842,212.322ZM55.133,216L53.82,216L53.82,206.047L55.133,206.047L55.133,216Z" style="fill-rule:nonzero;"/>
    <path d="M271.254,21.395L268.512,21.395L268.512,29L267.393,29L267.393,21.395L264.656,21.395L264.656,20.469L271.254,20.469L271.254,21.395ZM274.395,29.117C273.535,29.117 272.836,28.836 272.297,28.273C271.758,27.707 271.488,26.951 271.488,26.006L271.488,25.807C271.488,25.178 271.607,24.617 271.846,24.125C272.088,23.629 272.424,23.242 272.854,22.965C273.287,22.684 273.756,22.543 274.26,22.543C275.084,22.543 275.725,22.815 276.182,23.357C276.639,23.9 276.867,24.678 276.867,25.69L276.867,26.141L272.572,26.141C272.588,26.766 272.77,27.272 273.117,27.658C273.469,28.041 273.914,28.232 274.453,28.232C274.836,28.232 275.16,28.154 275.426,27.998C275.691,27.842 275.924,27.635 276.123,27.377L276.785,27.893C276.254,28.709 275.457,29.117 274.395,29.117ZM274.26,23.434C273.822,23.434 273.455,23.594 273.158,23.914C272.861,24.231 272.678,24.676 272.607,25.25L275.783,25.25L275.783,25.168C275.752,24.617 275.604,24.191 275.338,23.891C275.072,23.586 274.713,23.434 274.26,23.434ZM280.67,28.232C281.057,28.232 281.395,28.115 281.684,27.881C281.973,27.647 282.133,27.354 282.164,27.002L283.189,27.002C283.17,27.365 283.045,27.711 282.814,28.039C282.584,28.367 282.275,28.629 281.889,28.824C281.506,29.02 281.1,29.117 280.67,29.117C279.807,29.117 279.119,28.83 278.607,28.256C278.1,27.678 277.846,26.889 277.846,25.889L277.846,25.707C277.846,25.09 277.959,24.541 278.186,24.061C278.412,23.58 278.736,23.207 279.158,22.941C279.584,22.676 280.086,22.543 280.664,22.543C281.375,22.543 281.965,22.756 282.434,23.182C282.906,23.607 283.158,24.16 283.189,24.84L282.164,24.84C282.133,24.43 281.977,24.094 281.695,23.832C281.418,23.566 281.074,23.434 280.664,23.434C280.113,23.434 279.686,23.633 279.381,24.031C279.08,24.426 278.93,24.998 278.93,25.748L278.93,25.953C278.93,26.684 279.08,27.246 279.381,27.641C279.682,28.035 280.111,28.232 280.67,28.232ZM285.492,23.428C285.973,22.838 286.598,22.543 287.367,22.543C288.707,22.543 289.383,23.299 289.395,24.811L289.395,29L288.311,29L288.311,24.805C288.307,24.348 288.201,24.01 287.994,23.791C287.791,23.572 287.473,23.463 287.039,23.463C286.688,23.463 286.379,23.557 286.113,23.744C285.848,23.932 285.641,24.178 285.492,24.482L285.492,29L284.408,29L284.408,20L285.492,20L285.492,23.428ZM292.043,22.66L292.078,23.457C292.562,22.848 293.195,22.543 293.977,22.543C295.316,22.543 295.992,23.299 296.004,24.811L296.004,29L294.92,29L294.92,24.805C294.916,24.348 294.811,24.01 294.604,23.791C294.4,23.572 294.082,23.463 293.648,23.463C293.297,23.463 292.988,23.557 292.723,23.744C292.457,23.932 292.25,24.178 292.102,24.482L292.102,29L291.018,29L291.018,22.66L292.043,22.66ZM297.352,25.772C297.352,25.15 297.473,24.592 297.715,24.096C297.961,23.6 298.301,23.217 298.734,22.947C299.172,22.678 299.67,22.543 300.229,22.543C301.092,22.543 301.789,22.842 302.32,23.44C302.855,24.037 303.123,24.832 303.123,25.824L303.123,25.9C303.123,26.518 303.004,27.072 302.766,27.565C302.531,28.053 302.193,28.434 301.752,28.707C301.314,28.981 300.811,29.117 300.24,29.117C299.381,29.117 298.684,28.818 298.148,28.221C297.617,27.623 297.352,26.832 297.352,25.848L297.352,25.772ZM298.441,25.9C298.441,26.604 298.604,27.168 298.928,27.594C299.256,28.02 299.693,28.232 300.24,28.232C300.791,28.232 301.229,28.018 301.553,27.588C301.877,27.154 302.039,26.549 302.039,25.772C302.039,25.076 301.873,24.514 301.541,24.084C301.213,23.65 300.775,23.434 300.229,23.434C299.693,23.434 299.262,23.647 298.934,24.072C298.605,24.498 298.441,25.107 298.441,25.9ZM305.66,29L304.576,29L304.576,20L305.66,20L305.66,29ZM307.113,25.772C307.113,25.15 307.234,24.592 307.477,24.096C307.723,23.6 308.062,23.217 308.496,22.947C308.934,22.678 309.432,22.543 309.99,22.543C310.854,22.543 311.551,22.842 312.082,23.44C312.617,24.037 312.885,24.832 312.885,25.824L312.885,25.9C312.885,26.518 312.766,27.072 312.527,27.565C312.293,28.053 311.955,28.434 311.514,28.707C311.076,28.981 310.572,29.117 310.002,29.117C309.143,29.117 308.445,28.818 307.91,28.221C307.379,27.623 307.113,26.832 307.113,25.848L307.113,25.772ZM308.203,25.9C308.203,26.604 308.365,27.168 308.689,27.594C309.018,28.02 309.455,28.232 310.002,28.232C310.553,28.232 310.99,28.018 311.314,27.588C311.639,27.154 311.801,26.549 311.801,25.772C311.801,25.076 311.635,24.514 311.303,24.084C310.975,23.65 310.537,23.434 309.99,23.434C309.455,23.434 309.023,23.647 308.695,24.072C308.367,24.498 308.203,25.107 308.203,25.9ZM313.986,25.777C313.986,24.789 314.215,24.004 314.672,23.422C315.129,22.836 315.734,22.543 316.488,22.543C317.262,22.543 317.865,22.816 318.299,23.363L318.352,22.66L319.342,22.66L319.342,28.848C319.342,29.668 319.098,30.315 318.609,30.787C318.125,31.26 317.473,31.496 316.652,31.496C316.195,31.496 315.748,31.398 315.311,31.203C314.873,31.008 314.539,30.74 314.309,30.4L314.871,29.75C315.336,30.324 315.904,30.611 316.576,30.611C317.104,30.611 317.514,30.463 317.807,30.166C318.104,29.869 318.252,29.451 318.252,28.912L318.252,28.367C317.818,28.867 317.227,29.117 316.477,29.117C315.734,29.117 315.133,28.818 314.672,28.221C314.215,27.623 313.986,26.809 313.986,25.777ZM315.076,25.9C315.076,26.615 315.223,27.178 315.516,27.588C315.809,27.994 316.219,28.197 316.746,28.197C317.43,28.197 317.932,27.887 318.252,27.266L318.252,24.371C317.92,23.766 317.422,23.463 316.758,23.463C316.23,23.463 315.818,23.668 315.521,24.078C315.225,24.488 315.076,25.096 315.076,25.9ZM322.16,29L321.076,29L321.076,22.66L322.16,22.66L322.16,29ZM320.988,20.979C320.988,20.803 321.041,20.654 321.146,20.533C321.256,20.412 321.416,20.352 321.627,20.352C321.838,20.352 321.998,20.412 322.107,20.533C322.217,20.654 322.271,20.803 322.271,20.979C322.271,21.154 322.217,21.301 322.107,21.418C321.998,21.535 321.838,21.594 321.627,21.594C321.416,21.594 321.256,21.535 321.146,21.418C321.041,21.301 320.988,21.154 320.988,20.979ZM326.531,29.117C325.672,29.117 324.973,28.836 324.434,28.273C323.895,27.707 323.625,26.951 323.625,26.006L323.625,25.807C323.625,25.178 323.744,24.617 323.982,24.125C324.225,23.629 324.561,23.242 324.99,22.965C325.424,22.684 325.893,22.543 326.396,22.543C327.221,22.543 327.861,22.815 328.318,23.357C328.775,23.9 329.004,24.678 329.004,25.69L329.004,26.141L324.709,26.141C324.725,26.766 324.906,27.272 325.254,27.658C325.605,28.041 326.051,28.232 326.59,28.232C326.973,28.232 327.297,28.154 327.562,27.998C327.828,27.842 328.061,27.635 328.26,27.377L328.922,27.893C328.391,28.709 327.594,29.117 326.531,29.117ZM326.396,23.434C325.959,23.434 325.592,23.594 325.295,23.914C324.998,24.231 324.814,24.676 324.744,25.25L327.92,25.25L327.92,25.168C327.889,24.617 327.74,24.191 327.475,23.891C327.209,23.586 326.85,23.434 326.396,23.434ZM333.955,27.318C333.955,27.025 333.844,26.799 333.621,26.639C333.402,26.475 333.018,26.334 332.467,26.217C331.92,26.1 331.484,25.959 331.16,25.795C330.84,25.631 330.602,25.436 330.445,25.209C330.293,24.982 330.217,24.713 330.217,24.4C330.217,23.881 330.436,23.441 330.873,23.082C331.314,22.723 331.877,22.543 332.561,22.543C333.279,22.543 333.861,22.729 334.307,23.1C334.756,23.471 334.98,23.945 334.98,24.523L333.891,24.523C333.891,24.227 333.764,23.971 333.51,23.756C333.26,23.541 332.943,23.434 332.561,23.434C332.166,23.434 331.857,23.52 331.635,23.691C331.412,23.863 331.301,24.088 331.301,24.365C331.301,24.627 331.404,24.824 331.611,24.957C331.818,25.09 332.191,25.217 332.73,25.338C333.273,25.459 333.713,25.604 334.049,25.772C334.385,25.94 334.633,26.143 334.793,26.381C334.957,26.615 335.039,26.902 335.039,27.242C335.039,27.809 334.812,28.264 334.359,28.607C333.906,28.947 333.318,29.117 332.596,29.117C332.088,29.117 331.639,29.027 331.248,28.848C330.857,28.668 330.551,28.418 330.328,28.098C330.109,27.773 330,27.424 330,27.049L331.084,27.049C331.104,27.412 331.248,27.701 331.518,27.916C331.791,28.127 332.15,28.232 332.596,28.232C333.006,28.232 333.334,28.15 333.58,27.986C333.83,27.818 333.955,27.596 333.955,27.318Z" style="fill-rule:nonzero;"/>
    <path d="M99.787,280.66L99.787,284L98.662,284L98.662,275.469L101.809,275.469C102.742,275.469 103.473,275.707 104,276.184C104.531,276.66 104.797,277.291 104.797,278.076C104.797,278.904 104.537,279.543 104.018,279.992C103.502,280.438 102.762,280.66 101.797,280.66L99.787,280.66ZM99.787,279.74L101.809,279.74C102.41,279.74 102.871,279.6 103.191,279.318C103.512,279.033 103.672,278.623 103.672,278.088C103.672,277.58 103.512,277.174 103.191,276.869C102.871,276.564 102.432,276.406 101.873,276.395L99.787,276.395L99.787,279.74ZM109.127,278.633C108.963,278.605 108.785,278.592 108.594,278.592C107.883,278.592 107.4,278.895 107.146,279.5L107.146,284L106.062,284L106.062,277.66L107.117,277.66L107.135,278.393C107.49,277.826 107.994,277.543 108.646,277.543C108.857,277.543 109.018,277.57 109.127,277.625L109.127,278.633ZM109.725,280.771C109.725,280.15 109.846,279.592 110.088,279.096C110.334,278.6 110.674,278.217 111.107,277.947C111.545,277.678 112.043,277.543 112.602,277.543C113.465,277.543 114.162,277.842 114.693,278.439C115.229,279.037 115.496,279.832 115.496,280.824L115.496,280.9C115.496,281.518 115.377,282.072 115.139,282.564C114.904,283.053 114.566,283.434 114.125,283.707C113.688,283.98 113.184,284.117 112.613,284.117C111.754,284.117 111.057,283.818 110.521,283.221C109.99,282.623 109.725,281.832 109.725,280.848L109.725,280.771ZM110.814,280.9C110.814,281.604 110.977,282.168 111.301,282.594C111.629,283.02 112.066,283.232 112.613,283.232C113.164,283.232 113.602,283.018 113.926,282.588C114.25,282.154 114.412,281.549 114.412,280.771C114.412,280.076 114.246,279.514 113.914,279.084C113.586,278.65 113.148,278.434 112.602,278.434C112.066,278.434 111.635,278.646 111.307,279.072C110.979,279.498 110.814,280.107 110.814,280.9ZM116.592,280.777C116.592,279.805 116.822,279.023 117.283,278.434C117.744,277.84 118.348,277.543 119.094,277.543C119.836,277.543 120.424,277.797 120.857,278.305L120.857,275L121.941,275L121.941,284L120.945,284L120.893,283.32C120.459,283.852 119.855,284.117 119.082,284.117C118.348,284.117 117.748,283.816 117.283,283.215C116.822,282.613 116.592,281.828 116.592,280.859L116.592,280.777ZM117.676,280.9C117.676,281.619 117.824,282.182 118.121,282.588C118.418,282.994 118.828,283.197 119.352,283.197C120.039,283.197 120.541,282.889 120.857,282.271L120.857,279.359C120.533,278.762 120.035,278.463 119.363,278.463C118.832,278.463 118.418,278.668 118.121,279.078C117.824,279.488 117.676,280.096 117.676,280.9ZM127.543,283.373C127.121,283.869 126.502,284.117 125.686,284.117C125.01,284.117 124.494,283.922 124.139,283.531C123.787,283.137 123.609,282.555 123.605,281.785L123.605,277.66L124.689,277.66L124.689,281.756C124.689,282.717 125.08,283.197 125.861,283.197C126.689,283.197 127.24,282.889 127.514,282.271L127.514,277.66L128.598,277.66L128.598,284L127.566,284L127.543,283.373ZM132.793,283.232C133.18,283.232 133.518,283.115 133.807,282.881C134.096,282.646 134.256,282.354 134.287,282.002L135.312,282.002C135.293,282.365 135.168,282.711 134.938,283.039C134.707,283.367 134.398,283.629 134.012,283.824C133.629,284.02 133.223,284.117 132.793,284.117C131.93,284.117 131.242,283.83 130.73,283.256C130.223,282.678 129.969,281.889 129.969,280.889L129.969,280.707C129.969,280.09 130.082,279.541 130.309,279.061C130.535,278.58 130.859,278.207 131.281,277.941C131.707,277.676 132.209,277.543 132.787,277.543C133.498,277.543 134.088,277.756 134.557,278.182C135.029,278.607 135.281,279.16 135.312,279.84L134.287,279.84C134.256,279.43 134.1,279.094 133.818,278.832C133.541,278.566 133.197,278.434 132.787,278.434C132.236,278.434 131.809,278.633 131.504,279.031C131.203,279.426 131.053,279.998 131.053,280.748L131.053,280.953C131.053,281.684 131.203,282.246 131.504,282.641C131.805,283.035 132.234,283.232 132.793,283.232ZM139.162,284.117C138.303,284.117 137.604,283.836 137.064,283.273C136.525,282.707 136.256,281.951 136.256,281.006L136.256,280.807C136.256,280.178 136.375,279.617 136.613,279.125C136.855,278.629 137.191,278.242 137.621,277.965C138.055,277.684 138.523,277.543 139.027,277.543C139.852,277.543 140.492,277.814 140.949,278.357C141.406,278.9 141.635,279.678 141.635,280.689L141.635,281.141L137.34,281.141C137.355,281.766 137.537,282.271 137.885,282.658C138.236,283.041 138.682,283.232 139.221,283.232C139.604,283.232 139.928,283.154 140.193,282.998C140.459,282.842 140.691,282.635 140.891,282.377L141.553,282.893C141.021,283.709 140.225,284.117 139.162,284.117ZM139.027,278.434C138.59,278.434 138.223,278.594 137.926,278.914C137.629,279.23 137.445,279.676 137.375,280.25L140.551,280.25L140.551,280.168C140.52,279.617 140.371,279.191 140.105,278.891C139.84,278.586 139.48,278.434 139.027,278.434ZM145.959,278.633C145.795,278.605 145.617,278.592 145.426,278.592C144.715,278.592 144.232,278.895 143.979,279.5L143.979,284L142.895,284L142.895,277.66L143.949,277.66L143.967,278.393C144.322,277.826 144.826,277.543 145.479,277.543C145.689,277.543 145.85,277.57 145.959,277.625L145.959,278.633ZM150.652,282.318C150.652,282.025 150.541,281.799 150.318,281.639C150.1,281.475 149.715,281.334 149.164,281.217C148.617,281.1 148.182,280.959 147.857,280.795C147.537,280.631 147.299,280.436 147.143,280.209C146.99,279.982 146.914,279.713 146.914,279.4C146.914,278.881 147.133,278.441 147.57,278.082C148.012,277.723 148.574,277.543 149.258,277.543C149.977,277.543 150.559,277.729 151.004,278.1C151.453,278.471 151.678,278.945 151.678,279.523L150.588,279.523C150.588,279.227 150.461,278.971 150.207,278.756C149.957,278.541 149.641,278.434 149.258,278.434C148.863,278.434 148.555,278.52 148.332,278.691C148.109,278.863 147.998,279.088 147.998,279.365C147.998,279.627 148.102,279.824 148.309,279.957C148.516,280.09 148.889,280.217 149.428,280.338C149.971,280.459 150.41,280.604 150.746,280.771C151.082,280.939 151.33,281.143 151.49,281.381C151.654,281.615 151.736,281.902 151.736,282.242C151.736,282.809 151.51,283.264 151.057,283.607C150.604,283.947 150.016,284.117 149.293,284.117C148.785,284.117 148.336,284.027 147.945,283.848C147.555,283.668 147.248,283.418 147.025,283.098C146.807,282.773 146.697,282.424 146.697,282.049L147.781,282.049C147.801,282.412 147.945,282.701 148.215,282.916C148.488,283.127 148.848,283.232 149.293,283.232C149.703,283.232 150.031,283.15 150.277,282.986C150.527,282.818 150.652,282.596 150.652,282.318Z" style="fill-rule:nonzero;"/>
    <path d="M233.133,439.742L228.203,439.742L228.203,443.773L233.93,443.773L233.93,445L226.703,445L226.703,433.625L233.852,433.625L233.852,434.859L228.203,434.859L228.203,438.516L233.133,438.516L233.133,439.742ZM236.141,445L236.141,437.664L234.805,437.664L234.805,436.547L236.141,436.547L236.141,435.68C236.141,434.773 236.383,434.073 236.867,433.578C237.352,433.083 238.036,432.836 238.922,432.836C239.255,432.836 239.586,432.88 239.914,432.969L239.836,434.141C239.591,434.094 239.331,434.07 239.055,434.07C238.586,434.07 238.224,434.208 237.969,434.484C237.714,434.755 237.586,435.146 237.586,435.656L237.586,436.547L239.391,436.547L239.391,437.664L237.586,437.664L237.586,445L236.141,445ZM241.703,445L241.703,437.664L240.367,437.664L240.367,436.547L241.703,436.547L241.703,435.68C241.703,434.773 241.945,434.073 242.43,433.578C242.914,433.083 243.599,432.836 244.484,432.836C244.818,432.836 245.148,432.88 245.477,432.969L245.398,434.141C245.154,434.094 244.893,434.07 244.617,434.07C244.148,434.07 243.786,434.208 243.531,434.484C243.276,434.755 243.148,435.146 243.148,435.656L243.148,436.547L244.953,436.547L244.953,437.664L243.148,437.664L243.148,445L241.703,445ZM249.875,445.156C248.729,445.156 247.797,444.781 247.078,444.031C246.359,443.276 246,442.268 246,441.008L246,440.742C246,439.904 246.159,439.156 246.477,438.5C246.799,437.839 247.247,437.323 247.82,436.953C248.398,436.578 249.023,436.391 249.695,436.391C250.794,436.391 251.648,436.753 252.258,437.477C252.867,438.201 253.172,439.237 253.172,440.586L253.172,441.188L247.445,441.188C247.466,442.021 247.708,442.695 248.172,443.211C248.641,443.721 249.234,443.977 249.953,443.977C250.464,443.977 250.896,443.872 251.25,443.664C251.604,443.456 251.914,443.18 252.18,442.836L253.062,443.523C252.354,444.612 251.292,445.156 249.875,445.156ZM249.695,437.578C249.112,437.578 248.622,437.792 248.227,438.219C247.831,438.641 247.586,439.234 247.492,440L251.727,440L251.727,439.891C251.685,439.156 251.487,438.589 251.133,438.188C250.779,437.781 250.299,437.578 249.695,437.578ZM258.242,443.977C258.758,443.977 259.208,443.82 259.594,443.508C259.979,443.195 260.193,442.805 260.234,442.336L261.602,442.336C261.576,442.82 261.409,443.281 261.102,443.719C260.794,444.156 260.383,444.505 259.867,444.766C259.357,445.026 258.815,445.156 258.242,445.156C257.091,445.156 256.174,444.773 255.492,444.008C254.815,443.237 254.477,442.185 254.477,440.852L254.477,440.609C254.477,439.786 254.628,439.055 254.93,438.414C255.232,437.773 255.664,437.276 256.227,436.922C256.794,436.568 257.464,436.391 258.234,436.391C259.182,436.391 259.969,436.674 260.594,437.242C261.224,437.81 261.56,438.547 261.602,439.453L260.234,439.453C260.193,438.906 259.984,438.458 259.609,438.109C259.24,437.755 258.781,437.578 258.234,437.578C257.5,437.578 256.93,437.844 256.523,438.375C256.122,438.901 255.922,439.664 255.922,440.664L255.922,440.938C255.922,441.911 256.122,442.661 256.523,443.188C256.924,443.714 257.497,443.977 258.242,443.977ZM265.188,434.5L265.188,436.547L266.766,436.547L266.766,437.664L265.188,437.664L265.188,442.906C265.188,443.245 265.258,443.5 265.398,443.672C265.539,443.839 265.779,443.922 266.117,443.922C266.284,443.922 266.513,443.891 266.805,443.828L266.805,445C266.424,445.104 266.055,445.156 265.695,445.156C265.049,445.156 264.562,444.961 264.234,444.57C263.906,444.18 263.742,443.625 263.742,442.906L263.742,437.664L262.203,437.664L262.203,436.547L263.742,436.547L263.742,434.5L265.188,434.5ZM273.383,442.758C273.383,442.367 273.234,442.065 272.938,441.852C272.646,441.633 272.133,441.445 271.398,441.289C270.669,441.133 270.089,440.945 269.656,440.727C269.229,440.508 268.911,440.247 268.703,439.945C268.5,439.643 268.398,439.284 268.398,438.867C268.398,438.174 268.69,437.589 269.273,437.109C269.862,436.63 270.612,436.391 271.523,436.391C272.482,436.391 273.258,436.638 273.852,437.133C274.451,437.628 274.75,438.26 274.75,439.031L273.297,439.031C273.297,438.635 273.128,438.294 272.789,438.008C272.456,437.721 272.034,437.578 271.523,437.578C270.997,437.578 270.586,437.693 270.289,437.922C269.992,438.151 269.844,438.451 269.844,438.82C269.844,439.169 269.982,439.432 270.258,439.609C270.534,439.786 271.031,439.956 271.75,440.117C272.474,440.279 273.06,440.471 273.508,440.695C273.956,440.919 274.286,441.19 274.5,441.508C274.719,441.82 274.828,442.203 274.828,442.656C274.828,443.411 274.526,444.018 273.922,444.477C273.318,444.93 272.534,445.156 271.57,445.156C270.893,445.156 270.294,445.036 269.773,444.797C269.253,444.557 268.844,444.224 268.547,443.797C268.255,443.365 268.109,442.898 268.109,442.398L269.555,442.398C269.581,442.883 269.773,443.268 270.133,443.555C270.497,443.836 270.977,443.977 271.57,443.977C272.117,443.977 272.555,443.867 272.883,443.648C273.216,443.424 273.383,443.128 273.383,442.758ZM197.805,459.547L197.805,464L196.305,464L196.305,452.625L200.5,452.625C201.745,452.625 202.719,452.943 203.422,453.578C204.13,454.214 204.484,455.055 204.484,456.102C204.484,457.206 204.138,458.057 203.445,458.656C202.758,459.25 201.771,459.547 200.484,459.547L197.805,459.547ZM197.805,458.32L200.5,458.32C201.302,458.32 201.917,458.133 202.344,457.758C202.771,457.378 202.984,456.831 202.984,456.117C202.984,455.44 202.771,454.898 202.344,454.492C201.917,454.086 201.331,453.875 200.586,453.859L197.805,453.859L197.805,458.32ZM205.68,459.695C205.68,458.867 205.841,458.122 206.164,457.461C206.492,456.799 206.945,456.289 207.523,455.93C208.107,455.57 208.771,455.391 209.516,455.391C210.667,455.391 211.596,455.789 212.305,456.586C213.018,457.383 213.375,458.443 213.375,459.766L213.375,459.867C213.375,460.69 213.216,461.43 212.898,462.086C212.586,462.737 212.135,463.245 211.547,463.609C210.964,463.974 210.292,464.156 209.531,464.156C208.385,464.156 207.456,463.758 206.742,462.961C206.034,462.164 205.68,461.109 205.68,459.797L205.68,459.695ZM207.133,459.867C207.133,460.805 207.349,461.557 207.781,462.125C208.219,462.693 208.802,462.977 209.531,462.977C210.266,462.977 210.849,462.69 211.281,462.117C211.714,461.539 211.93,460.732 211.93,459.695C211.93,458.768 211.708,458.018 211.266,457.445C210.828,456.867 210.245,456.578 209.516,456.578C208.802,456.578 208.227,456.862 207.789,457.43C207.352,457.997 207.133,458.81 207.133,459.867ZM220.109,461.758C220.109,461.367 219.961,461.065 219.664,460.852C219.372,460.633 218.859,460.445 218.125,460.289C217.396,460.133 216.815,459.945 216.383,459.727C215.956,459.508 215.638,459.247 215.43,458.945C215.227,458.643 215.125,458.284 215.125,457.867C215.125,457.174 215.417,456.589 216,456.109C216.589,455.63 217.339,455.391 218.25,455.391C219.208,455.391 219.984,455.638 220.578,456.133C221.177,456.628 221.477,457.26 221.477,458.031L220.023,458.031C220.023,457.635 219.854,457.294 219.516,457.008C219.182,456.721 218.76,456.578 218.25,456.578C217.724,456.578 217.312,456.693 217.016,456.922C216.719,457.151 216.57,457.451 216.57,457.82C216.57,458.169 216.708,458.432 216.984,458.609C217.26,458.786 217.758,458.956 218.477,459.117C219.201,459.279 219.786,459.471 220.234,459.695C220.682,459.919 221.013,460.19 221.227,460.508C221.445,460.82 221.555,461.203 221.555,461.656C221.555,462.411 221.253,463.018 220.648,463.477C220.044,463.93 219.26,464.156 218.297,464.156C217.62,464.156 217.021,464.036 216.5,463.797C215.979,463.557 215.57,463.224 215.273,462.797C214.982,462.365 214.836,461.898 214.836,461.398L216.281,461.398C216.307,461.883 216.5,462.268 216.859,462.555C217.224,462.836 217.703,462.977 218.297,462.977C218.844,462.977 219.281,462.867 219.609,462.648C219.943,462.424 220.109,462.128 220.109,461.758ZM225.398,453.5L225.398,455.547L226.977,455.547L226.977,456.664L225.398,456.664L225.398,461.906C225.398,462.245 225.469,462.5 225.609,462.672C225.75,462.839 225.99,462.922 226.328,462.922C226.495,462.922 226.724,462.891 227.016,462.828L227.016,464C226.635,464.104 226.266,464.156 225.906,464.156C225.26,464.156 224.773,463.961 224.445,463.57C224.117,463.18 223.953,462.625 223.953,461.906L223.953,456.664L222.414,456.664L222.414,455.547L223.953,455.547L223.953,453.5L225.398,453.5ZM235.812,459.867C235.812,461.154 235.518,462.19 234.93,462.977C234.341,463.763 233.544,464.156 232.539,464.156C231.513,464.156 230.706,463.831 230.117,463.18L230.117,467.25L228.672,467.25L228.672,455.547L229.992,455.547L230.062,456.484C230.651,455.755 231.469,455.391 232.516,455.391C233.531,455.391 234.333,455.773 234.922,456.539C235.516,457.305 235.812,458.37 235.812,459.734L235.812,459.867ZM234.367,459.703C234.367,458.75 234.164,457.997 233.758,457.445C233.352,456.893 232.794,456.617 232.086,456.617C231.211,456.617 230.555,457.005 230.117,457.781L230.117,461.82C230.549,462.591 231.211,462.977 232.102,462.977C232.794,462.977 233.344,462.703 233.75,462.156C234.161,461.604 234.367,460.786 234.367,459.703ZM241.742,456.844C241.523,456.807 241.286,456.789 241.031,456.789C240.083,456.789 239.44,457.193 239.102,458L239.102,464L237.656,464L237.656,455.547L239.062,455.547L239.086,456.523C239.56,455.768 240.232,455.391 241.102,455.391C241.383,455.391 241.596,455.427 241.742,455.5L241.742,456.844ZM242.539,459.695C242.539,458.867 242.701,458.122 243.023,457.461C243.352,456.799 243.805,456.289 244.383,455.93C244.966,455.57 245.63,455.391 246.375,455.391C247.526,455.391 248.456,455.789 249.164,456.586C249.878,457.383 250.234,458.443 250.234,459.766L250.234,459.867C250.234,460.69 250.076,461.43 249.758,462.086C249.445,462.737 248.995,463.245 248.406,463.609C247.823,463.974 247.151,464.156 246.391,464.156C245.245,464.156 244.315,463.758 243.602,462.961C242.893,462.164 242.539,461.109 242.539,459.797L242.539,459.695ZM243.992,459.867C243.992,460.805 244.208,461.557 244.641,462.125C245.078,462.693 245.661,462.977 246.391,462.977C247.125,462.977 247.708,462.69 248.141,462.117C248.573,461.539 248.789,460.732 248.789,459.695C248.789,458.768 248.568,458.018 248.125,457.445C247.688,456.867 247.104,456.578 246.375,456.578C245.661,456.578 245.086,456.862 244.648,457.43C244.211,457.997 243.992,458.81 243.992,459.867ZM255.438,462.977C255.953,462.977 256.404,462.82 256.789,462.508C257.174,462.195 257.388,461.805 257.43,461.336L258.797,461.336C258.771,461.82 258.604,462.281 258.297,462.719C257.99,463.156 257.578,463.505 257.062,463.766C256.552,464.026 256.01,464.156 255.438,464.156C254.286,464.156 253.37,463.773 252.688,463.008C252.01,462.237 251.672,461.185 251.672,459.852L251.672,459.609C251.672,458.786 251.823,458.055 252.125,457.414C252.427,456.773 252.859,456.276 253.422,455.922C253.99,455.568 254.659,455.391 255.43,455.391C256.378,455.391 257.164,455.674 257.789,456.242C258.419,456.81 258.755,457.547 258.797,458.453L257.43,458.453C257.388,457.906 257.18,457.458 256.805,457.109C256.435,456.755 255.977,456.578 255.43,456.578C254.695,456.578 254.125,456.844 253.719,457.375C253.318,457.901 253.117,458.664 253.117,459.664L253.117,459.938C253.117,460.911 253.318,461.661 253.719,462.188C254.12,462.714 254.693,462.977 255.438,462.977ZM263.93,464.156C262.784,464.156 261.852,463.781 261.133,463.031C260.414,462.276 260.055,461.268 260.055,460.008L260.055,459.742C260.055,458.904 260.214,458.156 260.531,457.5C260.854,456.839 261.302,456.323 261.875,455.953C262.453,455.578 263.078,455.391 263.75,455.391C264.849,455.391 265.703,455.753 266.312,456.477C266.922,457.201 267.227,458.237 267.227,459.586L267.227,460.188L261.5,460.188C261.521,461.021 261.763,461.695 262.227,462.211C262.695,462.721 263.289,462.977 264.008,462.977C264.518,462.977 264.951,462.872 265.305,462.664C265.659,462.456 265.969,462.18 266.234,461.836L267.117,462.523C266.409,463.612 265.346,464.156 263.93,464.156ZM263.75,456.578C263.167,456.578 262.677,456.792 262.281,457.219C261.885,457.641 261.641,458.234 261.547,459L265.781,459L265.781,458.891C265.74,458.156 265.542,457.589 265.188,457.188C264.833,456.781 264.354,456.578 263.75,456.578ZM273.828,461.758C273.828,461.367 273.68,461.065 273.383,460.852C273.091,460.633 272.578,460.445 271.844,460.289C271.115,460.133 270.534,459.945 270.102,459.727C269.674,459.508 269.357,459.247 269.148,458.945C268.945,458.643 268.844,458.284 268.844,457.867C268.844,457.174 269.135,456.589 269.719,456.109C270.307,455.63 271.057,455.391 271.969,455.391C272.927,455.391 273.703,455.638 274.297,456.133C274.896,456.628 275.195,457.26 275.195,458.031L273.742,458.031C273.742,457.635 273.573,457.294 273.234,457.008C272.901,456.721 272.479,456.578 271.969,456.578C271.443,456.578 271.031,456.693 270.734,456.922C270.438,457.151 270.289,457.451 270.289,457.82C270.289,458.169 270.427,458.432 270.703,458.609C270.979,458.786 271.477,458.956 272.195,459.117C272.919,459.279 273.505,459.471 273.953,459.695C274.401,459.919 274.732,460.19 274.945,460.508C275.164,460.82 275.273,461.203 275.273,461.656C275.273,462.411 274.971,463.018 274.367,463.477C273.763,463.93 272.979,464.156 272.016,464.156C271.339,464.156 270.74,464.036 270.219,463.797C269.698,463.557 269.289,463.224 268.992,462.797C268.701,462.365 268.555,461.898 268.555,461.398L270,461.398C270.026,461.883 270.219,462.268 270.578,462.555C270.943,462.836 271.422,462.977 272.016,462.977C272.562,462.977 273,462.867 273.328,462.648C273.661,462.424 273.828,462.128 273.828,461.758ZM282.078,461.758C282.078,461.367 281.93,461.065 281.633,460.852C281.341,460.633 280.828,460.445 280.094,460.289C279.365,460.133 278.784,459.945 278.352,459.727C277.924,459.508 277.607,459.247 277.398,458.945C277.195,458.643 277.094,458.284 277.094,457.867C277.094,457.174 277.385,456.589 277.969,456.109C278.557,455.63 279.307,455.391 280.219,455.391C281.177,455.391 281.953,455.638 282.547,456.133C283.146,456.628 283.445,457.26 283.445,458.031L281.992,458.031C281.992,457.635 281.823,457.294 281.484,457.008C281.151,456.721 280.729,456.578 280.219,456.578C279.693,456.578 279.281,456.693 278.984,456.922C278.688,457.151 278.539,457.451 278.539,457.82C278.539,458.169 278.677,458.432 278.953,458.609C279.229,458.786 279.727,458.956 280.445,459.117C281.169,459.279 281.755,459.471 282.203,459.695C282.651,459.919 282.982,460.19 283.195,460.508C283.414,460.82 283.523,461.203 283.523,461.656C283.523,462.411 283.221,463.018 282.617,463.477C282.013,463.93 281.229,464.156 280.266,464.156C279.589,464.156 278.99,464.036 278.469,463.797C277.948,463.557 277.539,463.224 277.242,462.797C276.951,462.365 276.805,461.898 276.805,461.398L278.25,461.398C278.276,461.883 278.469,462.268 278.828,462.555C279.193,462.836 279.672,462.977 280.266,462.977C280.812,462.977 281.25,462.867 281.578,462.648C281.911,462.424 282.078,462.128 282.078,461.758ZM286.977,464L285.531,464L285.531,455.547L286.977,455.547L286.977,464ZM285.414,453.305C285.414,453.07 285.484,452.872 285.625,452.711C285.771,452.549 285.984,452.469 286.266,452.469C286.547,452.469 286.76,452.549 286.906,452.711C287.052,452.872 287.125,453.07 287.125,453.305C287.125,453.539 287.052,453.734 286.906,453.891C286.76,454.047 286.547,454.125 286.266,454.125C285.984,454.125 285.771,454.047 285.625,453.891C285.484,453.734 285.414,453.539 285.414,453.305ZM290.664,455.547L290.711,456.609C291.357,455.797 292.201,455.391 293.242,455.391C295.029,455.391 295.93,456.398 295.945,458.414L295.945,464L294.5,464L294.5,458.406C294.495,457.797 294.354,457.346 294.078,457.055C293.807,456.763 293.383,456.617 292.805,456.617C292.336,456.617 291.924,456.742 291.57,456.992C291.216,457.242 290.94,457.57 290.742,457.977L290.742,464L289.297,464L289.297,455.547L290.664,455.547ZM297.781,459.703C297.781,458.385 298.086,457.339 298.695,456.562C299.305,455.781 300.112,455.391 301.117,455.391C302.148,455.391 302.953,455.755 303.531,456.484L303.602,455.547L304.922,455.547L304.922,463.797C304.922,464.891 304.596,465.753 303.945,466.383C303.299,467.013 302.43,467.328 301.336,467.328C300.727,467.328 300.13,467.198 299.547,466.938C298.964,466.677 298.518,466.32 298.211,465.867L298.961,465C299.581,465.766 300.339,466.148 301.234,466.148C301.938,466.148 302.484,465.951 302.875,465.555C303.271,465.159 303.469,464.602 303.469,463.883L303.469,463.156C302.891,463.823 302.102,464.156 301.102,464.156C300.112,464.156 299.31,463.758 298.695,462.961C298.086,462.164 297.781,461.078 297.781,459.703ZM299.234,459.867C299.234,460.82 299.43,461.57 299.82,462.117C300.211,462.659 300.758,462.93 301.461,462.93C302.372,462.93 303.042,462.516 303.469,461.688L303.469,457.828C303.026,457.021 302.362,456.617 301.477,456.617C300.773,456.617 300.224,456.891 299.828,457.438C299.432,457.984 299.234,458.794 299.234,459.867Z" style="fill-rule:nonzero;"/>
    <path d="M218.195,95.859L214.539,95.859L214.539,106L213.047,106L213.047,95.859L209.398,95.859L209.398,94.625L218.195,94.625L218.195,95.859ZM222.383,106.156C221.237,106.156 220.305,105.781 219.586,105.031C218.867,104.276 218.508,103.268 218.508,102.008L218.508,101.742C218.508,100.904 218.667,100.156 218.984,99.5C219.307,98.839 219.755,98.323 220.328,97.953C220.906,97.578 221.531,97.391 222.203,97.391C223.302,97.391 224.156,97.753 224.766,98.477C225.375,99.201 225.68,100.237 225.68,101.586L225.68,102.188L219.953,102.188C219.974,103.021 220.216,103.695 220.68,104.211C221.148,104.721 221.742,104.977 222.461,104.977C222.971,104.977 223.404,104.872 223.758,104.664C224.112,104.456 224.422,104.18 224.688,103.836L225.57,104.523C224.862,105.612 223.799,106.156 222.383,106.156ZM222.203,98.578C221.62,98.578 221.13,98.792 220.734,99.219C220.339,99.641 220.094,100.234 220,101L224.234,101L224.234,100.891C224.193,100.156 223.995,99.589 223.641,99.188C223.286,98.781 222.807,98.578 222.203,98.578ZM230.75,104.977C231.266,104.977 231.716,104.82 232.102,104.508C232.487,104.195 232.701,103.805 232.742,103.336L234.109,103.336C234.083,103.82 233.917,104.281 233.609,104.719C233.302,105.156 232.891,105.505 232.375,105.766C231.865,106.026 231.323,106.156 230.75,106.156C229.599,106.156 228.682,105.773 228,105.008C227.323,104.237 226.984,103.185 226.984,101.852L226.984,101.609C226.984,100.786 227.135,100.055 227.438,99.414C227.74,98.773 228.172,98.276 228.734,97.922C229.302,97.568 229.971,97.391 230.742,97.391C231.69,97.391 232.477,97.675 233.102,98.242C233.732,98.81 234.068,99.547 234.109,100.453L232.742,100.453C232.701,99.906 232.492,99.458 232.117,99.109C231.747,98.755 231.289,98.578 230.742,98.578C230.008,98.578 229.438,98.844 229.031,99.375C228.63,99.901 228.43,100.664 228.43,101.664L228.43,101.938C228.43,102.911 228.63,103.661 229.031,104.188C229.432,104.714 230.005,104.977 230.75,104.977ZM237.18,98.57C237.82,97.784 238.654,97.391 239.68,97.391C241.466,97.391 242.367,98.398 242.383,100.414L242.383,106L240.938,106L240.938,100.406C240.932,99.797 240.792,99.346 240.516,99.055C240.245,98.763 239.82,98.617 239.242,98.617C238.773,98.617 238.362,98.742 238.008,98.992C237.654,99.242 237.378,99.57 237.18,99.977L237.18,106L235.734,106L235.734,94L237.18,94L237.18,98.57ZM245.914,97.547L245.961,98.609C246.607,97.797 247.451,97.391 248.492,97.391C250.279,97.391 251.18,98.398 251.195,100.414L251.195,106L249.75,106L249.75,100.406C249.745,99.797 249.604,99.346 249.328,99.055C249.057,98.763 248.633,98.617 248.055,98.617C247.586,98.617 247.174,98.742 246.82,98.992C246.466,99.242 246.19,99.57 245.992,99.977L245.992,106L244.547,106L244.547,97.547L245.914,97.547ZM252.992,101.695C252.992,100.867 253.154,100.122 253.477,99.461C253.805,98.799 254.258,98.289 254.836,97.93C255.419,97.57 256.083,97.391 256.828,97.391C257.979,97.391 258.909,97.789 259.617,98.586C260.331,99.383 260.688,100.443 260.688,101.766L260.688,101.867C260.688,102.69 260.529,103.43 260.211,104.086C259.898,104.737 259.448,105.245 258.859,105.609C258.276,105.974 257.604,106.156 256.844,106.156C255.698,106.156 254.768,105.758 254.055,104.961C253.346,104.164 252.992,103.109 252.992,101.797L252.992,101.695ZM254.445,101.867C254.445,102.805 254.661,103.557 255.094,104.125C255.531,104.693 256.115,104.977 256.844,104.977C257.578,104.977 258.161,104.69 258.594,104.117C259.026,103.539 259.242,102.732 259.242,101.695C259.242,100.768 259.021,100.018 258.578,99.445C258.141,98.867 257.557,98.578 256.828,98.578C256.115,98.578 255.539,98.862 255.102,99.43C254.664,99.997 254.445,100.81 254.445,101.867ZM264.07,106L262.625,106L262.625,94L264.07,94L264.07,106ZM266.008,101.695C266.008,100.867 266.169,100.122 266.492,99.461C266.82,98.799 267.273,98.289 267.852,97.93C268.435,97.57 269.099,97.391 269.844,97.391C270.995,97.391 271.924,97.789 272.633,98.586C273.346,99.383 273.703,100.443 273.703,101.766L273.703,101.867C273.703,102.69 273.544,103.43 273.227,104.086C272.914,104.737 272.464,105.245 271.875,105.609C271.292,105.974 270.62,106.156 269.859,106.156C268.714,106.156 267.784,105.758 267.07,104.961C266.362,104.164 266.008,103.109 266.008,101.797L266.008,101.695ZM267.461,101.867C267.461,102.805 267.677,103.557 268.109,104.125C268.547,104.693 269.13,104.977 269.859,104.977C270.594,104.977 271.177,104.69 271.609,104.117C272.042,103.539 272.258,102.732 272.258,101.695C272.258,100.768 272.036,100.018 271.594,99.445C271.156,98.867 270.573,98.578 269.844,98.578C269.13,98.578 268.555,98.862 268.117,99.43C267.68,99.997 267.461,100.81 267.461,101.867ZM275.172,101.703C275.172,100.385 275.477,99.339 276.086,98.563C276.695,97.781 277.503,97.391 278.508,97.391C279.539,97.391 280.344,97.755 280.922,98.484L280.992,97.547L282.312,97.547L282.312,105.797C282.312,106.891 281.987,107.753 281.336,108.383C280.69,109.013 279.82,109.328 278.727,109.328C278.117,109.328 277.521,109.198 276.938,108.938C276.354,108.677 275.909,108.32 275.602,107.867L276.352,107C276.971,107.766 277.729,108.148 278.625,108.148C279.328,108.148 279.875,107.951 280.266,107.555C280.661,107.159 280.859,106.602 280.859,105.883L280.859,105.156C280.281,105.823 279.492,106.156 278.492,106.156C277.503,106.156 276.701,105.758 276.086,104.961C275.477,104.164 275.172,103.078 275.172,101.703ZM276.625,101.867C276.625,102.82 276.82,103.57 277.211,104.117C277.602,104.659 278.148,104.93 278.852,104.93C279.763,104.93 280.432,104.516 280.859,103.688L280.859,99.828C280.417,99.021 279.753,98.617 278.867,98.617C278.164,98.617 277.615,98.891 277.219,99.438C276.823,99.984 276.625,100.794 276.625,101.867ZM287.266,103.883L289.234,97.547L290.781,97.547L287.383,107.305C286.857,108.711 286.021,109.414 284.875,109.414L284.602,109.391L284.062,109.289L284.062,108.117L284.453,108.148C284.943,108.148 285.323,108.049 285.594,107.852C285.87,107.654 286.096,107.292 286.273,106.766L286.594,105.906L283.578,97.547L285.156,97.547L287.266,103.883ZM201.68,120.547L201.68,125L200.18,125L200.18,113.625L204.375,113.625C205.62,113.625 206.594,113.943 207.297,114.578C208.005,115.214 208.359,116.055 208.359,117.102C208.359,118.206 208.013,119.057 207.32,119.656C206.633,120.25 205.646,120.547 204.359,120.547L201.68,120.547ZM201.68,119.32L204.375,119.32C205.177,119.32 205.792,119.133 206.219,118.758C206.646,118.378 206.859,117.831 206.859,117.117C206.859,116.44 206.646,115.898 206.219,115.492C205.792,115.086 205.206,114.875 204.461,114.859L201.68,114.859L201.68,119.32ZM214.133,117.844C213.914,117.807 213.677,117.789 213.422,117.789C212.474,117.789 211.831,118.193 211.492,119L211.492,125L210.047,125L210.047,116.547L211.453,116.547L211.477,117.523C211.951,116.768 212.622,116.391 213.492,116.391C213.773,116.391 213.987,116.427 214.133,116.5L214.133,117.844ZM218.82,125.156C217.674,125.156 216.742,124.781 216.023,124.031C215.305,123.276 214.945,122.268 214.945,121.008L214.945,120.742C214.945,119.904 215.104,119.156 215.422,118.5C215.745,117.839 216.193,117.323 216.766,116.953C217.344,116.578 217.969,116.391 218.641,116.391C219.74,116.391 220.594,116.753 221.203,117.477C221.812,118.201 222.117,119.237 222.117,120.586L222.117,121.188L216.391,121.188C216.411,122.021 216.654,122.695 217.117,123.211C217.586,123.721 218.18,123.977 218.898,123.977C219.409,123.977 219.841,123.872 220.195,123.664C220.549,123.456 220.859,123.18 221.125,122.836L222.008,123.523C221.299,124.612 220.237,125.156 218.82,125.156ZM218.641,117.578C218.057,117.578 217.568,117.792 217.172,118.219C216.776,118.641 216.531,119.234 216.438,120L220.672,120L220.672,119.891C220.63,119.156 220.432,118.589 220.078,118.188C219.724,117.781 219.245,117.578 218.641,117.578ZM230.938,120.867C230.938,122.154 230.643,123.19 230.055,123.977C229.466,124.763 228.669,125.156 227.664,125.156C226.638,125.156 225.831,124.831 225.242,124.18L225.242,128.25L223.797,128.25L223.797,116.547L225.117,116.547L225.188,117.484C225.776,116.755 226.594,116.391 227.641,116.391C228.656,116.391 229.458,116.773 230.047,117.539C230.641,118.305 230.938,119.37 230.938,120.734L230.938,120.867ZM229.492,120.703C229.492,119.75 229.289,118.997 228.883,118.445C228.477,117.893 227.919,117.617 227.211,117.617C226.336,117.617 225.68,118.005 225.242,118.781L225.242,122.82C225.674,123.591 226.336,123.977 227.227,123.977C227.919,123.977 228.469,123.703 228.875,123.156C229.286,122.604 229.492,121.786 229.492,120.703ZM236.867,117.844C236.648,117.807 236.411,117.789 236.156,117.789C235.208,117.789 234.565,118.193 234.227,119L234.227,125L232.781,125L232.781,116.547L234.188,116.547L234.211,117.523C234.685,116.768 235.357,116.391 236.227,116.391C236.508,116.391 236.721,116.427 236.867,116.5L236.867,117.844ZM237.664,120.695C237.664,119.867 237.826,119.122 238.148,118.461C238.477,117.799 238.93,117.289 239.508,116.93C240.091,116.57 240.755,116.391 241.5,116.391C242.651,116.391 243.581,116.789 244.289,117.586C245.003,118.383 245.359,119.443 245.359,120.766L245.359,120.867C245.359,121.69 245.201,122.43 244.883,123.086C244.57,123.737 244.12,124.245 243.531,124.609C242.948,124.974 242.276,125.156 241.516,125.156C240.37,125.156 239.44,124.758 238.727,123.961C238.018,123.164 237.664,122.109 237.664,120.797L237.664,120.695ZM239.117,120.867C239.117,121.805 239.333,122.557 239.766,123.125C240.203,123.693 240.786,123.977 241.516,123.977C242.25,123.977 242.833,123.69 243.266,123.117C243.698,122.539 243.914,121.732 243.914,120.695C243.914,119.768 243.693,119.018 243.25,118.445C242.812,117.867 242.229,117.578 241.5,117.578C240.786,117.578 240.211,117.862 239.773,118.43C239.336,118.997 239.117,119.81 239.117,120.867ZM250.562,123.977C251.078,123.977 251.529,123.82 251.914,123.508C252.299,123.195 252.513,122.805 252.555,122.336L253.922,122.336C253.896,122.82 253.729,123.281 253.422,123.719C253.115,124.156 252.703,124.505 252.188,124.766C251.677,125.026 251.135,125.156 250.562,125.156C249.411,125.156 248.495,124.773 247.812,124.008C247.135,123.237 246.797,122.185 246.797,120.852L246.797,120.609C246.797,119.786 246.948,119.055 247.25,118.414C247.552,117.773 247.984,117.276 248.547,116.922C249.115,116.568 249.784,116.391 250.555,116.391C251.503,116.391 252.289,116.674 252.914,117.242C253.544,117.81 253.88,118.547 253.922,119.453L252.555,119.453C252.513,118.906 252.305,118.458 251.93,118.109C251.56,117.755 251.102,117.578 250.555,117.578C249.82,117.578 249.25,117.844 248.844,118.375C248.443,118.901 248.242,119.664 248.242,120.664L248.242,120.938C248.242,121.911 248.443,122.661 248.844,123.188C249.245,123.714 249.818,123.977 250.562,123.977ZM259.055,125.156C257.909,125.156 256.977,124.781 256.258,124.031C255.539,123.276 255.18,122.268 255.18,121.008L255.18,120.742C255.18,119.904 255.339,119.156 255.656,118.5C255.979,117.839 256.427,117.323 257,116.953C257.578,116.578 258.203,116.391 258.875,116.391C259.974,116.391 260.828,116.753 261.438,117.477C262.047,118.201 262.352,119.237 262.352,120.586L262.352,121.188L256.625,121.188C256.646,122.021 256.888,122.695 257.352,123.211C257.82,123.721 258.414,123.977 259.133,123.977C259.643,123.977 260.076,123.872 260.43,123.664C260.784,123.456 261.094,123.18 261.359,122.836L262.242,123.523C261.534,124.612 260.471,125.156 259.055,125.156ZM258.875,117.578C258.292,117.578 257.802,117.792 257.406,118.219C257.01,118.641 256.766,119.234 256.672,120L260.906,120L260.906,119.891C260.865,119.156 260.667,118.589 260.312,118.188C259.958,117.781 259.479,117.578 258.875,117.578ZM268.953,122.758C268.953,122.367 268.805,122.065 268.508,121.852C268.216,121.633 267.703,121.445 266.969,121.289C266.24,121.133 265.659,120.945 265.227,120.727C264.799,120.508 264.482,120.247 264.273,119.945C264.07,119.643 263.969,119.284 263.969,118.867C263.969,118.174 264.26,117.589 264.844,117.109C265.432,116.63 266.182,116.391 267.094,116.391C268.052,116.391 268.828,116.638 269.422,117.133C270.021,117.628 270.32,118.26 270.32,119.031L268.867,119.031C268.867,118.635 268.698,118.294 268.359,118.008C268.026,117.721 267.604,117.578 267.094,117.578C266.568,117.578 266.156,117.693 265.859,117.922C265.562,118.151 265.414,118.451 265.414,118.82C265.414,119.169 265.552,119.432 265.828,119.609C266.104,119.786 266.602,119.956 267.32,120.117C268.044,120.279 268.63,120.471 269.078,120.695C269.526,120.919 269.857,121.19 270.07,121.508C270.289,121.82 270.398,122.203 270.398,122.656C270.398,123.411 270.096,124.018 269.492,124.477C268.888,124.93 268.104,125.156 267.141,125.156C266.464,125.156 265.865,125.036 265.344,124.797C264.823,124.557 264.414,124.224 264.117,123.797C263.826,123.365 263.68,122.898 263.68,122.398L265.125,122.398C265.151,122.883 265.344,123.268 265.703,123.555C266.068,123.836 266.547,123.977 267.141,123.977C267.688,123.977 268.125,123.867 268.453,123.648C268.786,123.424 268.953,123.128 268.953,122.758ZM277.203,122.758C277.203,122.367 277.055,122.065 276.758,121.852C276.466,121.633 275.953,121.445 275.219,121.289C274.49,121.133 273.909,120.945 273.477,120.727C273.049,120.508 272.732,120.247 272.523,119.945C272.32,119.643 272.219,119.284 272.219,118.867C272.219,118.174 272.51,117.589 273.094,117.109C273.682,116.63 274.432,116.391 275.344,116.391C276.302,116.391 277.078,116.638 277.672,117.133C278.271,117.628 278.57,118.26 278.57,119.031L277.117,119.031C277.117,118.635 276.948,118.294 276.609,118.008C276.276,117.721 275.854,117.578 275.344,117.578C274.818,117.578 274.406,117.693 274.109,117.922C273.812,118.151 273.664,118.451 273.664,118.82C273.664,119.169 273.802,119.432 274.078,119.609C274.354,119.786 274.852,119.956 275.57,120.117C276.294,120.279 276.88,120.471 277.328,120.695C277.776,120.919 278.107,121.19 278.32,121.508C278.539,121.82 278.648,122.203 278.648,122.656C278.648,123.411 278.346,124.018 277.742,124.477C277.138,124.93 276.354,125.156 275.391,125.156C274.714,125.156 274.115,125.036 273.594,124.797C273.073,124.557 272.664,124.224 272.367,123.797C272.076,123.365 271.93,122.898 271.93,122.398L273.375,122.398C273.401,122.883 273.594,123.268 273.953,123.555C274.318,123.836 274.797,123.977 275.391,123.977C275.938,123.977 276.375,123.867 276.703,123.648C277.036,123.424 277.203,123.128 277.203,122.758ZM282.102,125L280.656,125L280.656,116.547L282.102,116.547L282.102,125ZM280.539,114.305C280.539,114.07 280.609,113.872 280.75,113.711C280.896,113.549 281.109,113.469 281.391,113.469C281.672,113.469 281.885,113.549 282.031,113.711C282.177,113.872 282.25,114.07 282.25,114.305C282.25,114.539 282.177,114.734 282.031,114.891C281.885,115.047 281.672,115.125 281.391,115.125C281.109,115.125 280.896,115.047 280.75,114.891C280.609,114.734 280.539,114.539 280.539,114.305ZM285.789,116.547L285.836,117.609C286.482,116.797 287.326,116.391 288.367,116.391C290.154,116.391 291.055,117.398 291.07,119.414L291.07,125L289.625,125L289.625,119.406C289.62,118.797 289.479,118.346 289.203,118.055C288.932,117.763 288.508,117.617 287.93,117.617C287.461,117.617 287.049,117.742 286.695,117.992C286.341,118.242 286.065,118.57 285.867,118.977L285.867,125L284.422,125L284.422,116.547L285.789,116.547ZM292.906,120.703C292.906,119.385 293.211,118.339 293.82,117.562C294.43,116.781 295.237,116.391 296.242,116.391C297.273,116.391 298.078,116.755 298.656,117.484L298.727,116.547L300.047,116.547L300.047,124.797C300.047,125.891 299.721,126.753 299.07,127.383C298.424,128.013 297.555,128.328 296.461,128.328C295.852,128.328 295.255,128.198 294.672,127.938C294.089,127.677 293.643,127.32 293.336,126.867L294.086,126C294.706,126.766 295.464,127.148 296.359,127.148C297.062,127.148 297.609,126.951 298,126.555C298.396,126.159 298.594,125.602 298.594,124.883L298.594,124.156C298.016,124.823 297.227,125.156 296.227,125.156C295.237,125.156 294.435,124.758 293.82,123.961C293.211,123.164 292.906,122.078 292.906,120.703ZM294.359,120.867C294.359,121.82 294.555,122.57 294.945,123.117C295.336,123.659 295.883,123.93 296.586,123.93C297.497,123.93 298.167,123.516 298.594,122.688L298.594,118.828C298.151,118.021 297.487,117.617 296.602,117.617C295.898,117.617 295.349,117.891 294.953,118.438C294.557,118.984 294.359,119.794 294.359,120.867Z" style="fill-rule:nonzero;"/>
    <path d="M10.373,18.66L10.373,22L9.248,22L9.248,13.469L12.395,13.469C13.328,13.469 14.059,13.707 14.586,14.184C15.117,14.66 15.383,15.291 15.383,16.076C15.383,16.904 15.123,17.543 14.604,17.992C14.088,18.438 13.348,18.66 12.383,18.66L10.373,18.66ZM10.373,17.74L12.395,17.74C12.996,17.74 13.457,17.6 13.777,17.318C14.098,17.033 14.258,16.623 14.258,16.088C14.258,15.58 14.098,15.174 13.777,14.869C13.457,14.565 13.018,14.406 12.459,14.395L10.373,14.395L10.373,17.74ZM16.279,18.772C16.279,18.15 16.4,17.592 16.643,17.096C16.889,16.6 17.229,16.217 17.662,15.947C18.1,15.678 18.598,15.543 19.156,15.543C20.02,15.543 20.717,15.842 21.248,16.44C21.783,17.037 22.051,17.832 22.051,18.824L22.051,18.9C22.051,19.518 21.932,20.072 21.693,20.565C21.459,21.053 21.121,21.434 20.68,21.707C20.242,21.981 19.738,22.117 19.168,22.117C18.309,22.117 17.611,21.818 17.076,21.221C16.545,20.623 16.279,19.832 16.279,18.848L16.279,18.772ZM17.369,18.9C17.369,19.604 17.531,20.168 17.856,20.594C18.184,21.02 18.621,21.232 19.168,21.232C19.719,21.232 20.156,21.018 20.481,20.588C20.805,20.154 20.967,19.549 20.967,18.772C20.967,18.076 20.801,17.514 20.469,17.084C20.141,16.65 19.703,16.434 19.156,16.434C18.621,16.434 18.19,16.647 17.861,17.072C17.533,17.498 17.369,18.107 17.369,18.9ZM24.588,22L23.504,22L23.504,13L24.588,13L24.588,22ZM27.506,22L26.422,22L26.422,15.66L27.506,15.66L27.506,22ZM26.334,13.979C26.334,13.803 26.387,13.654 26.492,13.533C26.602,13.412 26.762,13.352 26.973,13.352C27.184,13.352 27.344,13.412 27.453,13.533C27.563,13.654 27.617,13.803 27.617,13.979C27.617,14.154 27.563,14.301 27.453,14.418C27.344,14.535 27.184,14.594 26.973,14.594C26.762,14.594 26.602,14.535 26.492,14.418C26.387,14.301 26.334,14.154 26.334,13.979ZM31.789,21.232C32.176,21.232 32.514,21.115 32.803,20.881C33.092,20.647 33.252,20.354 33.283,20.002L34.309,20.002C34.289,20.365 34.164,20.711 33.934,21.039C33.703,21.367 33.395,21.629 33.008,21.824C32.625,22.02 32.219,22.117 31.789,22.117C30.926,22.117 30.238,21.83 29.727,21.256C29.219,20.678 28.965,19.889 28.965,18.889L28.965,18.707C28.965,18.09 29.078,17.541 29.305,17.061C29.531,16.58 29.856,16.207 30.277,15.941C30.703,15.676 31.205,15.543 31.783,15.543C32.494,15.543 33.084,15.756 33.553,16.182C34.025,16.607 34.277,17.16 34.309,17.84L33.283,17.84C33.252,17.43 33.096,17.094 32.815,16.832C32.537,16.566 32.193,16.434 31.783,16.434C31.232,16.434 30.805,16.633 30.5,17.031C30.199,17.426 30.049,17.998 30.049,18.748L30.049,18.953C30.049,19.684 30.199,20.246 30.5,20.641C30.801,21.035 31.231,21.232 31.789,21.232ZM37.602,20.412L39.078,15.66L40.238,15.66L37.69,22.979C37.295,24.033 36.668,24.561 35.809,24.561L35.603,24.543L35.199,24.467L35.199,23.588L35.492,23.611C35.859,23.611 36.145,23.537 36.348,23.389C36.555,23.24 36.725,22.969 36.857,22.574L37.098,21.93L34.836,15.66L36.02,15.66L37.602,20.412ZM49.068,19.773L45.494,19.773L44.691,22L43.531,22L46.789,13.469L47.773,13.469L51.037,22L49.883,22L49.068,19.773ZM45.834,18.848L48.734,18.848L47.281,14.857L45.834,18.848ZM53.193,22L52.109,22L52.109,13L53.193,13L53.193,22ZM56.404,14.125L56.404,15.66L57.588,15.66L57.588,16.498L56.404,16.498L56.404,20.43C56.404,20.684 56.457,20.875 56.563,21.004C56.668,21.129 56.848,21.191 57.102,21.191C57.227,21.191 57.398,21.168 57.617,21.121L57.617,22C57.332,22.078 57.055,22.117 56.785,22.117C56.301,22.117 55.936,21.971 55.69,21.678C55.443,21.385 55.32,20.969 55.32,20.43L55.32,16.498L54.166,16.498L54.166,15.66L55.32,15.66L55.32,14.125L56.404,14.125ZM61.49,22.117C60.631,22.117 59.932,21.836 59.393,21.273C58.853,20.707 58.584,19.951 58.584,19.006L58.584,18.807C58.584,18.178 58.703,17.617 58.941,17.125C59.184,16.629 59.52,16.242 59.949,15.965C60.383,15.684 60.852,15.543 61.356,15.543C62.18,15.543 62.82,15.815 63.277,16.357C63.734,16.9 63.963,17.678 63.963,18.69L63.963,19.141L59.668,19.141C59.684,19.766 59.865,20.272 60.213,20.658C60.565,21.041 61.01,21.232 61.549,21.232C61.932,21.232 62.256,21.154 62.522,20.998C62.787,20.842 63.02,20.635 63.219,20.377L63.881,20.893C63.35,21.709 62.553,22.117 61.49,22.117ZM61.356,16.434C60.918,16.434 60.551,16.594 60.254,16.914C59.957,17.231 59.773,17.676 59.703,18.25L62.879,18.25L62.879,18.168C62.848,17.617 62.699,17.191 62.434,16.891C62.168,16.586 61.809,16.434 61.356,16.434ZM68.287,16.633C68.123,16.606 67.945,16.592 67.754,16.592C67.043,16.592 66.561,16.895 66.307,17.5L66.307,22L65.223,22L65.223,15.66L66.277,15.66L66.295,16.393C66.65,15.826 67.154,15.543 67.807,15.543C68.018,15.543 68.178,15.57 68.287,15.625L68.287,16.633ZM70.315,15.66L70.35,16.457C70.834,15.848 71.467,15.543 72.248,15.543C73.588,15.543 74.264,16.299 74.275,17.811L74.275,22L73.191,22L73.191,17.805C73.188,17.348 73.082,17.01 72.875,16.791C72.672,16.572 72.354,16.463 71.92,16.463C71.568,16.463 71.26,16.557 70.994,16.744C70.729,16.932 70.522,17.178 70.373,17.482L70.373,22L69.289,22L69.289,15.66L70.315,15.66ZM79.824,22C79.762,21.875 79.711,21.652 79.672,21.332C79.168,21.856 78.566,22.117 77.867,22.117C77.242,22.117 76.729,21.941 76.326,21.59C75.928,21.234 75.729,20.785 75.729,20.242C75.729,19.582 75.979,19.07 76.479,18.707C76.982,18.34 77.69,18.156 78.6,18.156L79.654,18.156L79.654,17.658C79.654,17.279 79.541,16.979 79.315,16.756C79.088,16.529 78.754,16.416 78.313,16.416C77.926,16.416 77.602,16.514 77.34,16.709C77.078,16.904 76.947,17.141 76.947,17.418L75.857,17.418C75.857,17.102 75.969,16.797 76.191,16.504C76.418,16.207 76.723,15.973 77.106,15.801C77.492,15.629 77.916,15.543 78.377,15.543C79.107,15.543 79.68,15.727 80.094,16.094C80.508,16.457 80.723,16.959 80.738,17.6L80.738,20.518C80.738,21.1 80.813,21.563 80.961,21.906L80.961,22L79.824,22ZM78.025,21.174C78.365,21.174 78.688,21.086 78.992,20.91C79.297,20.734 79.518,20.506 79.654,20.225L79.654,18.924L78.805,18.924C77.477,18.924 76.813,19.313 76.813,20.09C76.813,20.43 76.926,20.695 77.152,20.887C77.379,21.078 77.67,21.174 78.025,21.174ZM83.908,14.125L83.908,15.66L85.092,15.66L85.092,16.498L83.908,16.498L83.908,20.43C83.908,20.684 83.961,20.875 84.066,21.004C84.172,21.129 84.352,21.191 84.606,21.191C84.731,21.191 84.902,21.168 85.121,21.121L85.121,22C84.836,22.078 84.559,22.117 84.289,22.117C83.805,22.117 83.44,21.971 83.193,21.678C82.947,21.385 82.824,20.969 82.824,20.43L82.824,16.498L81.67,16.498L81.67,15.66L82.824,15.66L82.824,14.125L83.908,14.125ZM87.541,22L86.457,22L86.457,15.66L87.541,15.66L87.541,22ZM86.369,13.979C86.369,13.803 86.422,13.654 86.527,13.533C86.637,13.412 86.797,13.352 87.008,13.352C87.219,13.352 87.379,13.412 87.488,13.533C87.598,13.654 87.652,13.803 87.652,13.979C87.652,14.154 87.598,14.301 87.488,14.418C87.379,14.535 87.219,14.594 87.008,14.594C86.797,14.594 86.637,14.535 86.527,14.418C86.422,14.301 86.369,14.154 86.369,13.979ZM91.373,20.529L92.943,15.66L94.051,15.66L91.777,22L90.951,22L88.654,15.66L89.762,15.66L91.373,20.529ZM97.643,22.117C96.783,22.117 96.084,21.836 95.545,21.273C95.006,20.707 94.736,19.951 94.736,19.006L94.736,18.807C94.736,18.178 94.856,17.617 95.094,17.125C95.336,16.629 95.672,16.242 96.102,15.965C96.535,15.684 97.004,15.543 97.508,15.543C98.332,15.543 98.973,15.815 99.43,16.357C99.887,16.9 100.115,17.678 100.115,18.69L100.115,19.141L95.82,19.141C95.836,19.766 96.018,20.272 96.365,20.658C96.717,21.041 97.162,21.232 97.701,21.232C98.084,21.232 98.408,21.154 98.674,20.998C98.94,20.842 99.172,20.635 99.371,20.377L100.033,20.893C99.502,21.709 98.705,22.117 97.643,22.117ZM97.508,16.434C97.07,16.434 96.703,16.594 96.406,16.914C96.109,17.231 95.926,17.676 95.856,18.25L99.031,18.25L99.031,18.168C99,17.617 98.852,17.191 98.586,16.891C98.32,16.586 97.961,16.434 97.508,16.434ZM105.066,20.318C105.066,20.025 104.955,19.799 104.732,19.639C104.514,19.475 104.129,19.334 103.578,19.217C103.031,19.1 102.596,18.959 102.271,18.795C101.951,18.631 101.713,18.436 101.557,18.209C101.404,17.982 101.328,17.713 101.328,17.4C101.328,16.881 101.547,16.441 101.984,16.082C102.426,15.723 102.988,15.543 103.672,15.543C104.391,15.543 104.973,15.729 105.418,16.1C105.867,16.471 106.092,16.945 106.092,17.523L105.002,17.523C105.002,17.227 104.875,16.971 104.621,16.756C104.371,16.541 104.055,16.434 103.672,16.434C103.277,16.434 102.969,16.52 102.746,16.691C102.523,16.863 102.412,17.088 102.412,17.365C102.412,17.627 102.516,17.824 102.723,17.957C102.93,18.09 103.303,18.217 103.842,18.338C104.385,18.459 104.824,18.604 105.16,18.772C105.496,18.94 105.744,19.143 105.904,19.381C106.068,19.615 106.15,19.902 106.15,20.242C106.15,20.809 105.924,21.264 105.471,21.607C105.018,21.947 104.43,22.117 103.707,22.117C103.199,22.117 102.75,22.027 102.359,21.848C101.969,21.668 101.662,21.418 101.439,21.098C101.221,20.773 101.111,20.424 101.111,20.049L102.195,20.049C102.215,20.412 102.359,20.701 102.629,20.916C102.902,21.127 103.262,21.232 103.707,21.232C104.117,21.232 104.445,21.15 104.691,20.986C104.941,20.818 105.066,20.596 105.066,20.318ZM15.289,31.424L17.668,31.424L17.668,32.449L15.289,32.449L15.289,35.145L14.199,35.145L14.199,32.449L11.82,32.449L11.82,31.424L14.199,31.424L14.199,28.934L15.289,28.934L15.289,31.424ZM22.139,36L22.139,27.469L24.928,27.469C25.854,27.469 26.549,27.66 27.014,28.043C27.482,28.426 27.717,28.992 27.717,29.742C27.717,30.141 27.604,30.494 27.377,30.803C27.15,31.107 26.842,31.344 26.451,31.512C26.912,31.641 27.275,31.887 27.541,32.25C27.811,32.609 27.945,33.039 27.945,33.539C27.945,34.305 27.697,34.906 27.201,35.344C26.705,35.781 26.004,36 25.098,36L22.139,36ZM23.264,32.01L23.264,35.08L25.121,35.08C25.645,35.08 26.057,34.945 26.357,34.676C26.662,34.402 26.815,34.027 26.815,33.551C26.815,32.523 26.256,32.01 25.139,32.01L23.264,32.01ZM23.264,31.107L24.963,31.107C25.455,31.107 25.848,30.984 26.141,30.738C26.438,30.492 26.586,30.158 26.586,29.736C26.586,29.268 26.449,28.928 26.176,28.717C25.902,28.502 25.486,28.395 24.928,28.395L23.264,28.395L23.264,31.107ZM33.359,36C33.297,35.875 33.246,35.652 33.207,35.332C32.703,35.856 32.102,36.117 31.402,36.117C30.777,36.117 30.264,35.941 29.861,35.59C29.463,35.234 29.264,34.785 29.264,34.242C29.264,33.582 29.514,33.07 30.014,32.707C30.518,32.34 31.225,32.156 32.135,32.156L33.19,32.156L33.19,31.658C33.19,31.279 33.076,30.979 32.85,30.756C32.623,30.529 32.289,30.416 31.848,30.416C31.461,30.416 31.137,30.514 30.875,30.709C30.613,30.904 30.482,31.141 30.482,31.418L29.393,31.418C29.393,31.102 29.504,30.797 29.727,30.504C29.953,30.207 30.258,29.973 30.641,29.801C31.027,29.629 31.451,29.543 31.912,29.543C32.643,29.543 33.215,29.727 33.629,30.094C34.043,30.457 34.258,30.959 34.273,31.6L34.273,34.518C34.273,35.1 34.348,35.563 34.496,35.906L34.496,36L33.359,36ZM31.561,35.174C31.9,35.174 32.223,35.086 32.527,34.91C32.832,34.734 33.053,34.506 33.19,34.225L33.19,32.924L32.34,32.924C31.012,32.924 30.348,33.313 30.348,34.09C30.348,34.43 30.461,34.695 30.688,34.887C30.914,35.078 31.205,35.174 31.561,35.174ZM39.664,34.318C39.664,34.025 39.553,33.799 39.33,33.639C39.111,33.475 38.727,33.334 38.176,33.217C37.629,33.1 37.193,32.959 36.869,32.795C36.549,32.631 36.311,32.435 36.154,32.209C36.002,31.982 35.926,31.713 35.926,31.4C35.926,30.881 36.145,30.441 36.582,30.082C37.023,29.723 37.586,29.543 38.27,29.543C38.988,29.543 39.57,29.729 40.016,30.1C40.465,30.471 40.69,30.945 40.69,31.523L39.6,31.523C39.6,31.227 39.473,30.971 39.219,30.756C38.969,30.541 38.652,30.434 38.27,30.434C37.875,30.434 37.566,30.52 37.344,30.691C37.121,30.863 37.01,31.088 37.01,31.365C37.01,31.627 37.113,31.824 37.32,31.957C37.527,32.09 37.9,32.217 38.44,32.338C38.982,32.459 39.422,32.603 39.758,32.772C40.094,32.94 40.342,33.143 40.502,33.381C40.666,33.615 40.748,33.902 40.748,34.242C40.748,34.809 40.522,35.264 40.068,35.607C39.615,35.947 39.027,36.117 38.305,36.117C37.797,36.117 37.348,36.027 36.957,35.848C36.566,35.668 36.26,35.418 36.037,35.098C35.818,34.773 35.709,34.424 35.709,34.049L36.793,34.049C36.813,34.412 36.957,34.701 37.227,34.916C37.5,35.127 37.859,35.232 38.305,35.232C38.715,35.232 39.043,35.15 39.289,34.986C39.539,34.818 39.664,34.596 39.664,34.318ZM44.791,36.117C43.932,36.117 43.232,35.836 42.693,35.273C42.154,34.707 41.885,33.951 41.885,33.006L41.885,32.807C41.885,32.178 42.004,31.617 42.242,31.125C42.484,30.629 42.82,30.242 43.25,29.965C43.684,29.684 44.152,29.543 44.656,29.543C45.481,29.543 46.121,29.815 46.578,30.357C47.035,30.9 47.264,31.678 47.264,32.69L47.264,33.141L42.969,33.141C42.984,33.766 43.166,34.272 43.514,34.658C43.865,35.041 44.311,35.232 44.85,35.232C45.232,35.232 45.557,35.154 45.822,34.998C46.088,34.842 46.32,34.635 46.52,34.377L47.182,34.893C46.65,35.709 45.853,36.117 44.791,36.117ZM44.656,30.434C44.219,30.434 43.852,30.594 43.555,30.914C43.258,31.231 43.074,31.676 43.004,32.25L46.18,32.25L46.18,32.168C46.148,31.617 46,31.191 45.734,30.891C45.469,30.586 45.109,30.434 44.656,30.434ZM54.272,31.752L56.498,27.469L57.775,27.469L54.834,32.818L54.834,36L53.709,36L53.709,32.818L50.768,27.469L52.057,27.469L54.272,31.752ZM60.951,36.117C60.092,36.117 59.393,35.836 58.853,35.273C58.315,34.707 58.045,33.951 58.045,33.006L58.045,32.807C58.045,32.178 58.164,31.617 58.402,31.125C58.645,30.629 58.981,30.242 59.41,29.965C59.844,29.684 60.313,29.543 60.816,29.543C61.641,29.543 62.281,29.815 62.738,30.357C63.195,30.9 63.424,31.678 63.424,32.69L63.424,33.141L59.129,33.141C59.145,33.766 59.326,34.272 59.674,34.658C60.025,35.041 60.471,35.232 61.01,35.232C61.393,35.232 61.717,35.154 61.982,34.998C62.248,34.842 62.481,34.635 62.68,34.377L63.342,34.893C62.81,35.709 62.014,36.117 60.951,36.117ZM60.816,30.434C60.379,30.434 60.012,30.594 59.715,30.914C59.418,31.231 59.234,31.676 59.164,32.25L62.34,32.25L62.34,32.168C62.309,31.617 62.16,31.191 61.895,30.891C61.629,30.586 61.27,30.434 60.816,30.434ZM68.598,36C68.535,35.875 68.484,35.652 68.445,35.332C67.941,35.856 67.34,36.117 66.641,36.117C66.016,36.117 65.502,35.941 65.1,35.59C64.701,35.234 64.502,34.785 64.502,34.242C64.502,33.582 64.752,33.07 65.252,32.707C65.756,32.34 66.463,32.156 67.373,32.156L68.428,32.156L68.428,31.658C68.428,31.279 68.315,30.979 68.088,30.756C67.861,30.529 67.527,30.416 67.086,30.416C66.699,30.416 66.375,30.514 66.113,30.709C65.852,30.904 65.721,31.141 65.721,31.418L64.631,31.418C64.631,31.102 64.742,30.797 64.965,30.504C65.191,30.207 65.496,29.973 65.879,29.801C66.266,29.629 66.69,29.543 67.15,29.543C67.881,29.543 68.453,29.727 68.867,30.094C69.281,30.457 69.496,30.959 69.512,31.6L69.512,34.518C69.512,35.1 69.586,35.563 69.734,35.906L69.734,36L68.598,36ZM66.799,35.174C67.139,35.174 67.461,35.086 67.766,34.91C68.07,34.734 68.291,34.506 68.428,34.225L68.428,32.924L67.578,32.924C66.25,32.924 65.586,33.313 65.586,34.09C65.586,34.43 65.699,34.695 65.926,34.887C66.152,35.078 66.443,35.174 66.799,35.174ZM74.275,30.633C74.111,30.606 73.934,30.592 73.742,30.592C73.031,30.592 72.549,30.895 72.295,31.5L72.295,36L71.211,36L71.211,29.66L72.266,29.66L72.283,30.393C72.639,29.826 73.143,29.543 73.795,29.543C74.006,29.543 74.166,29.57 74.275,29.625L74.275,30.633ZM83.129,32.232L79.549,32.232L79.549,36L78.424,36L78.424,27.469L83.709,27.469L83.709,28.395L79.549,28.395L79.549,31.313L83.129,31.313L83.129,32.232ZM86.065,36L84.981,36L84.981,27L86.065,27L86.065,36ZM90.436,36.117C89.576,36.117 88.877,35.836 88.338,35.273C87.799,34.707 87.529,33.951 87.529,33.006L87.529,32.807C87.529,32.178 87.648,31.617 87.887,31.125C88.129,30.629 88.465,30.242 88.894,29.965C89.328,29.684 89.797,29.543 90.301,29.543C91.125,29.543 91.766,29.815 92.223,30.357C92.68,30.9 92.908,31.678 92.908,32.69L92.908,33.141L88.613,33.141C88.629,33.766 88.811,34.272 89.158,34.658C89.51,35.041 89.955,35.232 90.494,35.232C90.877,35.232 91.201,35.154 91.467,34.998C91.732,34.842 91.965,34.635 92.164,34.377L92.826,34.893C92.295,35.709 91.498,36.117 90.436,36.117ZM90.301,30.434C89.863,30.434 89.496,30.594 89.199,30.914C88.902,31.231 88.719,31.676 88.648,32.25L91.824,32.25L91.824,32.168C91.793,31.617 91.644,31.191 91.379,30.891C91.113,30.586 90.754,30.434 90.301,30.434ZM96.799,36.117C95.94,36.117 95.24,35.836 94.701,35.273C94.162,34.707 93.893,33.951 93.893,33.006L93.893,32.807C93.893,32.178 94.012,31.617 94.25,31.125C94.492,30.629 94.828,30.242 95.258,29.965C95.691,29.684 96.16,29.543 96.664,29.543C97.488,29.543 98.129,29.815 98.586,30.357C99.043,30.9 99.272,31.678 99.272,32.69L99.272,33.141L94.977,33.141C94.992,33.766 95.174,34.272 95.522,34.658C95.873,35.041 96.318,35.232 96.857,35.232C97.24,35.232 97.565,35.154 97.83,34.998C98.096,34.842 98.328,34.635 98.527,34.377L99.19,34.893C98.658,35.709 97.861,36.117 96.799,36.117ZM96.664,30.434C96.227,30.434 95.859,30.594 95.563,30.914C95.266,31.231 95.082,31.676 95.012,32.25L98.188,32.25L98.188,32.168C98.156,31.617 98.008,31.191 97.742,30.891C97.477,30.586 97.117,30.434 96.664,30.434ZM102.002,28.125L102.002,29.66L103.186,29.66L103.186,30.498L102.002,30.498L102.002,34.43C102.002,34.684 102.055,34.875 102.16,35.004C102.266,35.129 102.445,35.191 102.699,35.191C102.824,35.191 102.996,35.168 103.215,35.121L103.215,36C102.93,36.078 102.652,36.117 102.383,36.117C101.898,36.117 101.533,35.971 101.287,35.678C101.041,35.385 100.918,34.969 100.918,34.43L100.918,30.498L99.764,30.498L99.764,29.66L100.918,29.66L100.918,28.125L102.002,28.125Z" style="fill-rule:nonzero;"/>
    <path d="M246.6,193.549L244.596,193.549L244.596,197L243.465,197L243.465,188.469L246.289,188.469C247.25,188.469 247.988,188.688 248.504,189.125C249.023,189.562 249.283,190.199 249.283,191.035C249.283,191.566 249.139,192.029 248.85,192.424C248.564,192.818 248.166,193.113 247.654,193.309L249.658,196.93L249.658,197L248.451,197L246.6,193.549ZM244.596,192.629L246.324,192.629C246.883,192.629 247.326,192.484 247.654,192.195C247.986,191.906 248.152,191.52 248.152,191.035C248.152,190.508 247.994,190.104 247.678,189.822C247.365,189.541 246.912,189.398 246.318,189.395L244.596,189.395L244.596,192.629ZM254.609,197C254.547,196.875 254.496,196.652 254.457,196.332C253.953,196.855 253.352,197.117 252.652,197.117C252.027,197.117 251.514,196.941 251.111,196.59C250.713,196.234 250.514,195.785 250.514,195.242C250.514,194.582 250.764,194.07 251.264,193.707C251.768,193.34 252.475,193.156 253.385,193.156L254.439,193.156L254.439,192.658C254.439,192.279 254.326,191.979 254.1,191.756C253.873,191.529 253.539,191.416 253.098,191.416C252.711,191.416 252.387,191.514 252.125,191.709C251.863,191.904 251.732,192.141 251.732,192.418L250.643,192.418C250.643,192.102 250.754,191.797 250.977,191.504C251.203,191.207 251.508,190.973 251.891,190.801C252.277,190.629 252.701,190.543 253.162,190.543C253.893,190.543 254.465,190.727 254.879,191.094C255.293,191.457 255.508,191.959 255.523,192.6L255.523,195.518C255.523,196.1 255.598,196.562 255.746,196.906L255.746,197L254.609,197ZM252.811,196.174C253.15,196.174 253.473,196.086 253.777,195.91C254.082,195.734 254.303,195.506 254.439,195.225L254.439,193.924L253.59,193.924C252.262,193.924 251.598,194.312 251.598,195.09C251.598,195.43 251.711,195.695 251.938,195.887C252.164,196.078 252.455,196.174 252.811,196.174ZM258.248,190.66L258.283,191.457C258.768,190.848 259.4,190.543 260.182,190.543C261.521,190.543 262.197,191.299 262.209,192.811L262.209,197L261.125,197L261.125,192.805C261.121,192.348 261.016,192.01 260.809,191.791C260.605,191.572 260.287,191.463 259.854,191.463C259.502,191.463 259.193,191.557 258.928,191.744C258.662,191.932 258.455,192.178 258.307,192.482L258.307,197L257.223,197L257.223,190.66L258.248,190.66ZM265.613,194.064L264.934,194.773L264.934,197L263.85,197L263.85,188L264.934,188L264.934,193.443L265.514,192.746L267.488,190.66L268.807,190.66L266.34,193.309L269.094,197L267.822,197L265.613,194.064ZM272.439,197.117C271.58,197.117 270.881,196.836 270.342,196.273C269.803,195.707 269.533,194.951 269.533,194.006L269.533,193.807C269.533,193.178 269.652,192.617 269.891,192.125C270.133,191.629 270.469,191.242 270.898,190.965C271.332,190.684 271.801,190.543 272.305,190.543C273.129,190.543 273.77,190.814 274.227,191.357C274.684,191.9 274.912,192.678 274.912,193.689L274.912,194.141L270.617,194.141C270.633,194.766 270.814,195.271 271.162,195.658C271.514,196.041 271.959,196.232 272.498,196.232C272.881,196.232 273.205,196.154 273.471,195.998C273.736,195.842 273.969,195.635 274.168,195.377L274.83,195.893C274.299,196.709 273.502,197.117 272.439,197.117ZM272.305,191.434C271.867,191.434 271.5,191.594 271.203,191.914C270.906,192.23 270.723,192.676 270.652,193.25L273.828,193.25L273.828,193.168C273.797,192.617 273.648,192.191 273.383,191.891C273.117,191.586 272.758,191.434 272.305,191.434ZM275.908,193.777C275.908,192.805 276.139,192.023 276.6,191.434C277.061,190.84 277.664,190.543 278.41,190.543C279.152,190.543 279.74,190.797 280.174,191.305L280.174,188L281.258,188L281.258,197L280.262,197L280.209,196.32C279.775,196.852 279.172,197.117 278.398,197.117C277.664,197.117 277.064,196.816 276.6,196.215C276.139,195.613 275.908,194.828 275.908,193.859L275.908,193.777ZM276.992,193.9C276.992,194.619 277.141,195.182 277.438,195.588C277.734,195.994 278.145,196.197 278.668,196.197C279.355,196.197 279.857,195.889 280.174,195.271L280.174,192.359C279.85,191.762 279.352,191.463 278.68,191.463C278.148,191.463 277.734,191.668 277.438,192.078C277.141,192.488 276.992,193.096 276.992,193.9ZM291.752,189.395L289.01,189.395L289.01,197L287.891,197L287.891,189.395L285.154,189.395L285.154,188.469L291.752,188.469L291.752,189.395ZM294.893,197.117C294.033,197.117 293.334,196.836 292.795,196.273C292.256,195.707 291.986,194.951 291.986,194.006L291.986,193.807C291.986,193.178 292.105,192.617 292.344,192.125C292.586,191.629 292.922,191.242 293.352,190.965C293.785,190.684 294.254,190.543 294.758,190.543C295.582,190.543 296.223,190.814 296.68,191.357C297.137,191.9 297.365,192.678 297.365,193.689L297.365,194.141L293.07,194.141C293.086,194.766 293.268,195.271 293.615,195.658C293.967,196.041 294.412,196.232 294.951,196.232C295.334,196.232 295.658,196.154 295.924,195.998C296.189,195.842 296.422,195.635 296.621,195.377L297.283,195.893C296.752,196.709 295.955,197.117 294.893,197.117ZM294.758,191.434C294.32,191.434 293.953,191.594 293.656,191.914C293.359,192.23 293.176,192.676 293.105,193.25L296.281,193.25L296.281,193.168C296.25,192.617 296.102,192.191 295.836,191.891C295.57,191.586 295.211,191.434 294.758,191.434ZM301.168,196.232C301.555,196.232 301.893,196.115 302.182,195.881C302.471,195.646 302.631,195.354 302.662,195.002L303.688,195.002C303.668,195.365 303.543,195.711 303.312,196.039C303.082,196.367 302.773,196.629 302.387,196.824C302.004,197.02 301.598,197.117 301.168,197.117C300.305,197.117 299.617,196.83 299.105,196.256C298.598,195.678 298.344,194.889 298.344,193.889L298.344,193.707C298.344,193.09 298.457,192.541 298.684,192.061C298.91,191.58 299.234,191.207 299.656,190.941C300.082,190.676 300.584,190.543 301.162,190.543C301.873,190.543 302.463,190.756 302.932,191.182C303.404,191.607 303.656,192.16 303.688,192.84L302.662,192.84C302.631,192.43 302.475,192.094 302.193,191.832C301.916,191.566 301.572,191.434 301.162,191.434C300.611,191.434 300.184,191.633 299.879,192.031C299.578,192.426 299.428,192.998 299.428,193.748L299.428,193.953C299.428,194.684 299.578,195.246 299.879,195.641C300.18,196.035 300.609,196.232 301.168,196.232ZM305.932,190.66L305.967,191.457C306.451,190.848 307.084,190.543 307.865,190.543C309.205,190.543 309.881,191.299 309.893,192.811L309.893,197L308.809,197L308.809,192.805C308.805,192.348 308.699,192.01 308.492,191.791C308.289,191.572 307.971,191.463 307.537,191.463C307.186,191.463 306.877,191.557 306.611,191.744C306.346,191.932 306.139,192.178 305.99,192.482L305.99,197L304.906,197L304.906,190.66L305.932,190.66ZM311.24,193.771C311.24,193.15 311.361,192.592 311.604,192.096C311.85,191.6 312.189,191.217 312.623,190.947C313.061,190.678 313.559,190.543 314.117,190.543C314.98,190.543 315.678,190.842 316.209,191.439C316.744,192.037 317.012,192.832 317.012,193.824L317.012,193.9C317.012,194.518 316.893,195.072 316.654,195.564C316.42,196.053 316.082,196.434 315.641,196.707C315.203,196.98 314.699,197.117 314.129,197.117C313.27,197.117 312.572,196.818 312.037,196.221C311.506,195.623 311.24,194.832 311.24,193.848L311.24,193.771ZM312.33,193.9C312.33,194.604 312.492,195.168 312.816,195.594C313.145,196.02 313.582,196.232 314.129,196.232C314.68,196.232 315.117,196.018 315.441,195.588C315.766,195.154 315.928,194.549 315.928,193.771C315.928,193.076 315.762,192.514 315.43,192.084C315.102,191.65 314.664,191.434 314.117,191.434C313.582,191.434 313.15,191.646 312.822,192.072C312.494,192.498 312.33,193.107 312.33,193.9ZM319.549,197L318.465,197L318.465,188L319.549,188L319.549,197ZM321.002,193.771C321.002,193.15 321.123,192.592 321.365,192.096C321.611,191.6 321.951,191.217 322.385,190.947C322.822,190.678 323.32,190.543 323.879,190.543C324.742,190.543 325.439,190.842 325.971,191.439C326.506,192.037 326.773,192.832 326.773,193.824L326.773,193.9C326.773,194.518 326.654,195.072 326.416,195.564C326.182,196.053 325.844,196.434 325.402,196.707C324.965,196.98 324.461,197.117 323.891,197.117C323.031,197.117 322.334,196.818 321.799,196.221C321.268,195.623 321.002,194.832 321.002,193.848L321.002,193.771ZM322.092,193.9C322.092,194.604 322.254,195.168 322.578,195.594C322.906,196.02 323.344,196.232 323.891,196.232C324.441,196.232 324.879,196.018 325.203,195.588C325.527,195.154 325.689,194.549 325.689,193.771C325.689,193.076 325.523,192.514 325.191,192.084C324.863,191.65 324.426,191.434 323.879,191.434C323.344,191.434 322.912,191.646 322.584,192.072C322.256,192.498 322.092,193.107 322.092,193.9ZM327.875,193.777C327.875,192.789 328.104,192.004 328.561,191.422C329.018,190.836 329.623,190.543 330.377,190.543C331.15,190.543 331.754,190.816 332.188,191.363L332.24,190.66L333.23,190.66L333.23,196.848C333.23,197.668 332.986,198.314 332.498,198.787C332.014,199.26 331.361,199.496 330.541,199.496C330.084,199.496 329.637,199.398 329.199,199.203C328.762,199.008 328.428,198.74 328.197,198.4L328.76,197.75C329.225,198.324 329.793,198.611 330.465,198.611C330.992,198.611 331.402,198.463 331.695,198.166C331.992,197.869 332.141,197.451 332.141,196.912L332.141,196.367C331.707,196.867 331.115,197.117 330.365,197.117C329.623,197.117 329.021,196.818 328.561,196.221C328.104,195.623 327.875,194.809 327.875,193.777ZM328.965,193.9C328.965,194.615 329.111,195.178 329.404,195.588C329.697,195.994 330.107,196.197 330.635,196.197C331.318,196.197 331.82,195.887 332.141,195.266L332.141,192.371C331.809,191.766 331.311,191.463 330.646,191.463C330.119,191.463 329.707,191.668 329.41,192.078C329.113,192.488 328.965,193.096 328.965,193.9ZM336.049,197L334.965,197L334.965,190.66L336.049,190.66L336.049,197ZM334.877,188.979C334.877,188.803 334.93,188.654 335.035,188.533C335.145,188.412 335.305,188.352 335.516,188.352C335.727,188.352 335.887,188.412 335.996,188.533C336.105,188.654 336.16,188.803 336.16,188.979C336.16,189.154 336.105,189.301 335.996,189.418C335.887,189.535 335.727,189.594 335.516,189.594C335.305,189.594 335.145,189.535 335.035,189.418C334.93,189.301 334.877,189.154 334.877,188.979ZM340.42,197.117C339.561,197.117 338.861,196.836 338.322,196.273C337.783,195.707 337.514,194.951 337.514,194.006L337.514,193.807C337.514,193.178 337.633,192.617 337.871,192.125C338.113,191.629 338.449,191.242 338.879,190.965C339.312,190.684 339.781,190.543 340.285,190.543C341.109,190.543 341.75,190.814 342.207,191.357C342.664,191.9 342.893,192.678 342.893,193.689L342.893,194.141L338.598,194.141C338.613,194.766 338.795,195.271 339.143,195.658C339.494,196.041 339.939,196.232 340.479,196.232C340.861,196.232 341.186,196.154 341.451,195.998C341.717,195.842 341.949,195.635 342.148,195.377L342.811,195.893C342.279,196.709 341.482,197.117 340.42,197.117ZM340.285,191.434C339.848,191.434 339.48,191.594 339.184,191.914C338.887,192.23 338.703,192.676 338.633,193.25L341.809,193.25L341.809,193.168C341.777,192.617 341.629,192.191 341.363,191.891C341.098,191.586 340.738,191.434 340.285,191.434ZM347.844,195.318C347.844,195.025 347.732,194.799 347.51,194.639C347.291,194.475 346.906,194.334 346.355,194.217C345.809,194.1 345.373,193.959 345.049,193.795C344.729,193.631 344.49,193.436 344.334,193.209C344.182,192.982 344.105,192.713 344.105,192.4C344.105,191.881 344.324,191.441 344.762,191.082C345.203,190.723 345.766,190.543 346.449,190.543C347.168,190.543 347.75,190.729 348.195,191.1C348.645,191.471 348.869,191.945 348.869,192.523L347.779,192.523C347.779,192.227 347.652,191.971 347.398,191.756C347.148,191.541 346.832,191.434 346.449,191.434C346.055,191.434 345.746,191.52 345.523,191.691C345.301,191.863 345.189,192.088 345.189,192.365C345.189,192.627 345.293,192.824 345.5,192.957C345.707,193.09 346.08,193.217 346.619,193.338C347.162,193.459 347.602,193.604 347.938,193.771C348.273,193.939 348.521,194.143 348.682,194.381C348.846,194.615 348.928,194.902 348.928,195.242C348.928,195.809 348.701,196.264 348.248,196.607C347.795,196.947 347.207,197.117 346.484,197.117C345.977,197.117 345.527,197.027 345.137,196.848C344.746,196.668 344.439,196.418 344.217,196.098C343.998,195.773 343.889,195.424 343.889,195.049L344.973,195.049C344.992,195.412 345.137,195.701 345.406,195.916C345.68,196.127 346.039,196.232 346.484,196.232C346.895,196.232 347.223,196.15 347.469,195.986C347.719,195.818 347.844,195.596 347.844,195.318Z" style="fill-rule:nonzero;"/>
    <g transform="matrix(1,0,0,1,-24.976,-13.3768)">
        <text x="317.949px" y="553.248px" style="font-family:'ArialMT', 'Arial', sans-serif;font-size:12px;">Environmental Ef<tspan x="409.109px 412.443px " y="553.248px 553.248px ">fe</tspan>cts</text>
    </g>
    <path d="M121.584,535.197C120.619,534.92 119.916,534.58 119.475,534.178C119.037,533.771 118.818,533.271 118.818,532.678C118.818,532.006 119.086,531.451 119.621,531.014C120.16,530.572 120.859,530.352 121.719,530.352C122.305,530.352 122.826,530.465 123.283,530.691C123.744,530.918 124.1,531.23 124.35,531.629C124.604,532.027 124.73,532.463 124.73,532.936L123.6,532.936C123.6,532.42 123.436,532.016 123.107,531.723C122.779,531.426 122.316,531.277 121.719,531.277C121.164,531.277 120.73,531.4 120.418,531.646C120.109,531.889 119.955,532.227 119.955,532.66C119.955,533.008 120.102,533.303 120.395,533.545C120.691,533.783 121.193,534.002 121.9,534.201C122.611,534.4 123.166,534.621 123.564,534.863C123.967,535.102 124.264,535.381 124.455,535.701C124.65,536.021 124.748,536.398 124.748,536.832C124.748,537.523 124.479,538.078 123.939,538.496C123.4,538.91 122.68,539.117 121.777,539.117C121.191,539.117 120.645,539.006 120.137,538.783C119.629,538.557 119.236,538.248 118.959,537.857C118.686,537.467 118.549,537.023 118.549,536.527L119.68,536.527C119.68,537.043 119.869,537.451 120.248,537.752C120.631,538.049 121.141,538.197 121.777,538.197C122.371,538.197 122.826,538.076 123.143,537.834C123.459,537.592 123.617,537.262 123.617,536.844C123.617,536.426 123.471,536.104 123.178,535.877C122.885,535.646 122.354,535.42 121.584,535.197ZM125.738,535.771C125.738,535.15 125.859,534.592 126.102,534.096C126.348,533.6 126.688,533.217 127.121,532.947C127.559,532.678 128.057,532.543 128.615,532.543C129.479,532.543 130.176,532.842 130.707,533.439C131.242,534.037 131.51,534.832 131.51,535.824L131.51,535.9C131.51,536.518 131.391,537.072 131.152,537.564C130.918,538.053 130.58,538.434 130.139,538.707C129.701,538.98 129.197,539.117 128.627,539.117C127.768,539.117 127.07,538.818 126.535,538.221C126.004,537.623 125.738,536.832 125.738,535.848L125.738,535.771ZM126.828,535.9C126.828,536.604 126.99,537.168 127.314,537.594C127.643,538.02 128.08,538.232 128.627,538.232C129.178,538.232 129.615,538.018 129.939,537.588C130.264,537.154 130.426,536.549 130.426,535.771C130.426,535.076 130.26,534.514 129.928,534.084C129.6,533.65 129.162,533.434 128.615,533.434C128.08,533.434 127.648,533.646 127.32,534.072C126.992,534.498 126.828,535.107 126.828,535.9ZM135.412,538.232C135.799,538.232 136.137,538.115 136.426,537.881C136.715,537.646 136.875,537.354 136.906,537.002L137.932,537.002C137.912,537.365 137.787,537.711 137.557,538.039C137.326,538.367 137.018,538.629 136.631,538.824C136.248,539.02 135.842,539.117 135.412,539.117C134.549,539.117 133.861,538.83 133.35,538.256C132.842,537.678 132.588,536.889 132.588,535.889L132.588,535.707C132.588,535.09 132.701,534.541 132.928,534.061C133.154,533.58 133.479,533.207 133.9,532.941C134.326,532.676 134.828,532.543 135.406,532.543C136.117,532.543 136.707,532.756 137.176,533.182C137.648,533.607 137.9,534.16 137.932,534.84L136.906,534.84C136.875,534.43 136.719,534.094 136.438,533.832C136.16,533.566 135.816,533.434 135.406,533.434C134.855,533.434 134.428,533.633 134.123,534.031C133.822,534.426 133.672,534.998 133.672,535.748L133.672,535.953C133.672,536.684 133.822,537.246 134.123,537.641C134.424,538.035 134.854,538.232 135.412,538.232ZM140.328,539L139.244,539L139.244,532.66L140.328,532.66L140.328,539ZM139.156,530.979C139.156,530.803 139.209,530.654 139.314,530.533C139.424,530.412 139.584,530.352 139.795,530.352C140.006,530.352 140.166,530.412 140.275,530.533C140.385,530.654 140.439,530.803 140.439,530.979C140.439,531.154 140.385,531.301 140.275,531.418C140.166,531.535 140.006,531.594 139.795,531.594C139.584,531.594 139.424,531.535 139.314,531.418C139.209,531.301 139.156,531.154 139.156,530.979ZM144.699,539.117C143.84,539.117 143.141,538.836 142.602,538.273C142.062,537.707 141.793,536.951 141.793,536.006L141.793,535.807C141.793,535.178 141.912,534.617 142.15,534.125C142.393,533.629 142.729,533.242 143.158,532.965C143.592,532.684 144.061,532.543 144.564,532.543C145.389,532.543 146.029,532.814 146.486,533.357C146.943,533.9 147.172,534.678 147.172,535.689L147.172,536.141L142.877,536.141C142.893,536.766 143.074,537.271 143.422,537.658C143.773,538.041 144.219,538.232 144.758,538.232C145.141,538.232 145.465,538.154 145.73,537.998C145.996,537.842 146.229,537.635 146.428,537.377L147.09,537.893C146.559,538.709 145.762,539.117 144.699,539.117ZM144.564,533.434C144.127,533.434 143.76,533.594 143.463,533.914C143.166,534.23 142.982,534.676 142.912,535.25L146.088,535.25L146.088,535.168C146.057,534.617 145.908,534.191 145.643,533.891C145.377,533.586 145.018,533.434 144.564,533.434ZM149.902,531.125L149.902,532.66L151.086,532.66L151.086,533.498L149.902,533.498L149.902,537.43C149.902,537.684 149.955,537.875 150.061,538.004C150.166,538.129 150.346,538.191 150.6,538.191C150.725,538.191 150.896,538.168 151.115,538.121L151.115,539C150.83,539.078 150.553,539.117 150.283,539.117C149.799,539.117 149.434,538.971 149.188,538.678C148.941,538.385 148.818,537.969 148.818,537.43L148.818,533.498L147.664,533.498L147.664,532.66L148.818,532.66L148.818,531.125L149.902,531.125ZM156.271,539C156.209,538.875 156.158,538.652 156.119,538.332C155.615,538.855 155.014,539.117 154.314,539.117C153.689,539.117 153.176,538.941 152.773,538.59C152.375,538.234 152.176,537.785 152.176,537.242C152.176,536.582 152.426,536.07 152.926,535.707C153.43,535.34 154.137,535.156 155.047,535.156L156.102,535.156L156.102,534.658C156.102,534.279 155.988,533.979 155.762,533.756C155.535,533.529 155.201,533.416 154.76,533.416C154.373,533.416 154.049,533.514 153.787,533.709C153.525,533.904 153.395,534.141 153.395,534.418L152.305,534.418C152.305,534.102 152.416,533.797 152.639,533.504C152.865,533.207 153.17,532.973 153.553,532.801C153.939,532.629 154.363,532.543 154.824,532.543C155.555,532.543 156.127,532.727 156.541,533.094C156.955,533.457 157.17,533.959 157.186,534.6L157.186,537.518C157.186,538.1 157.26,538.562 157.408,538.906L157.408,539L156.271,539ZM154.473,538.174C154.812,538.174 155.135,538.086 155.439,537.91C155.744,537.734 155.965,537.506 156.102,537.225L156.102,535.924L155.252,535.924C153.924,535.924 153.26,536.312 153.26,537.09C153.26,537.43 153.373,537.695 153.6,537.887C153.826,538.078 154.117,538.174 154.473,538.174ZM160.062,539L158.979,539L158.979,530L160.062,530L160.062,539ZM171.225,536.293C171.119,537.195 170.785,537.893 170.223,538.385C169.664,538.873 168.92,539.117 167.99,539.117C166.982,539.117 166.174,538.756 165.564,538.033C164.959,537.311 164.656,536.344 164.656,535.133L164.656,534.312C164.656,533.52 164.797,532.822 165.078,532.221C165.363,531.619 165.766,531.158 166.285,530.838C166.805,530.514 167.406,530.352 168.09,530.352C168.996,530.352 169.723,530.605 170.27,531.113C170.816,531.617 171.135,532.316 171.225,533.211L170.094,533.211C169.996,532.531 169.783,532.039 169.455,531.734C169.131,531.43 168.676,531.277 168.09,531.277C167.371,531.277 166.807,531.543 166.396,532.074C165.99,532.605 165.787,533.361 165.787,534.342L165.787,535.168C165.787,536.094 165.98,536.83 166.367,537.377C166.754,537.924 167.295,538.197 167.99,538.197C168.615,538.197 169.094,538.057 169.426,537.775C169.762,537.49 169.984,536.996 170.094,536.293L171.225,536.293ZM172.309,535.771C172.309,535.15 172.43,534.592 172.672,534.096C172.918,533.6 173.258,533.217 173.691,532.947C174.129,532.678 174.627,532.543 175.186,532.543C176.049,532.543 176.746,532.842 177.277,533.439C177.812,534.037 178.08,534.832 178.08,535.824L178.08,535.9C178.08,536.518 177.961,537.072 177.723,537.564C177.488,538.053 177.15,538.434 176.709,538.707C176.271,538.98 175.768,539.117 175.197,539.117C174.338,539.117 173.641,538.818 173.105,538.221C172.574,537.623 172.309,536.832 172.309,535.848L172.309,535.771ZM173.398,535.9C173.398,536.604 173.561,537.168 173.885,537.594C174.213,538.02 174.65,538.232 175.197,538.232C175.748,538.232 176.186,538.018 176.51,537.588C176.834,537.154 176.996,536.549 176.996,535.771C176.996,535.076 176.83,534.514 176.498,534.084C176.17,533.65 175.732,533.434 175.186,533.434C174.65,533.434 174.219,533.646 173.891,534.072C173.562,534.498 173.398,535.107 173.398,535.9ZM183.131,537.318C183.131,537.025 183.02,536.799 182.797,536.639C182.578,536.475 182.193,536.334 181.643,536.217C181.096,536.1 180.66,535.959 180.336,535.795C180.016,535.631 179.777,535.436 179.621,535.209C179.469,534.982 179.393,534.713 179.393,534.4C179.393,533.881 179.611,533.441 180.049,533.082C180.49,532.723 181.053,532.543 181.736,532.543C182.455,532.543 183.037,532.729 183.482,533.1C183.932,533.471 184.156,533.945 184.156,534.523L183.066,534.523C183.066,534.227 182.939,533.971 182.686,533.756C182.436,533.541 182.119,533.434 181.736,533.434C181.342,533.434 181.033,533.52 180.811,533.691C180.588,533.863 180.477,534.088 180.477,534.365C180.477,534.627 180.58,534.824 180.787,534.957C180.994,535.09 181.367,535.217 181.906,535.338C182.449,535.459 182.889,535.604 183.225,535.771C183.561,535.939 183.809,536.143 183.969,536.381C184.133,536.615 184.215,536.902 184.215,537.242C184.215,537.809 183.988,538.264 183.535,538.607C183.082,538.947 182.494,539.117 181.771,539.117C181.264,539.117 180.814,539.027 180.424,538.848C180.033,538.668 179.727,538.418 179.504,538.098C179.285,537.773 179.176,537.424 179.176,537.049L180.26,537.049C180.279,537.412 180.424,537.701 180.693,537.916C180.967,538.127 181.326,538.232 181.771,538.232C182.182,538.232 182.51,538.15 182.756,537.986C183.006,537.818 183.131,537.596 183.131,537.318ZM187.098,531.125L187.098,532.66L188.281,532.66L188.281,533.498L187.098,533.498L187.098,537.43C187.098,537.684 187.15,537.875 187.256,538.004C187.361,538.129 187.541,538.191 187.795,538.191C187.92,538.191 188.092,538.168 188.311,538.121L188.311,539C188.025,539.078 187.748,539.117 187.479,539.117C186.994,539.117 186.629,538.971 186.383,538.678C186.137,538.385 186.014,537.969 186.014,537.43L186.014,533.498L184.859,533.498L184.859,532.66L186.014,532.66L186.014,531.125L187.098,531.125ZM193.244,537.318C193.244,537.025 193.133,536.799 192.91,536.639C192.691,536.475 192.307,536.334 191.756,536.217C191.209,536.1 190.773,535.959 190.449,535.795C190.129,535.631 189.891,535.436 189.734,535.209C189.582,534.982 189.506,534.713 189.506,534.4C189.506,533.881 189.725,533.441 190.162,533.082C190.604,532.723 191.166,532.543 191.85,532.543C192.568,532.543 193.15,532.729 193.596,533.1C194.045,533.471 194.27,533.945 194.27,534.523L193.18,534.523C193.18,534.227 193.053,533.971 192.799,533.756C192.549,533.541 192.232,533.434 191.85,533.434C191.455,533.434 191.146,533.52 190.924,533.691C190.701,533.863 190.59,534.088 190.59,534.365C190.59,534.627 190.693,534.824 190.9,534.957C191.107,535.09 191.48,535.217 192.02,535.338C192.562,535.459 193.002,535.604 193.338,535.771C193.674,535.939 193.922,536.143 194.082,536.381C194.246,536.615 194.328,536.902 194.328,537.242C194.328,537.809 194.102,538.264 193.648,538.607C193.195,538.947 192.607,539.117 191.885,539.117C191.377,539.117 190.928,539.027 190.537,538.848C190.146,538.668 189.84,538.418 189.617,538.098C189.398,537.773 189.289,537.424 189.289,537.049L190.373,537.049C190.393,537.412 190.537,537.701 190.807,537.916C191.08,538.127 191.439,538.232 191.885,538.232C192.295,538.232 192.623,538.15 192.869,537.986C193.119,537.818 193.244,537.596 193.244,537.318Z" style="fill-rule:nonzero;"/>
    <g transform="matrix(1,0,0,1,-6.09014,-14.2315)">
        <text x="214.074px" y="383.056px" style="font-family:'ArialMT', 'Arial', sans-serif;font-size:12px;">New V<tspan x="248.756px 255.43px " y="383.056px 383.056px ">eh</tspan>icles with <tspan x="313.455px 321.459px " y="383.056px 383.056px ">Ap</tspan>plied <tspan x="356.603px 362.603px 369.277px " y="383.056px 383.056px 383.056px ">Tec</tspan>hnologies</text>
    </g>
</svg>
