<?xml version="1.0" encoding="UTF-8" standalone="no"?>
<!DOCTYPE svg PUBLIC "-//W3C//DTD SVG 1.1//EN" "http://www.w3.org/Graphics/SVG/1.1/DTD/svg11.dtd">
<svg width="100%" height="100%" viewBox="0 0 700 500" version="1.1" xmlns="http://www.w3.org/2000/svg" xmlns:xlink="http://www.w3.org/1999/xlink" xml:space="preserve" xmlns:serif="http://www.serif.com/" style="fill-rule:evenodd;clip-rule:evenodd;stroke-linejoin:round;">
    <g>
        <g>
            <g>
                <path d="M279.897,217.926C264.563,226.345 255,242.507 255,260C255,286.332 276.668,308 303,308C329.332,308 351,286.332 351,260C351,233.668 329.332,212 303,212L303,100C390.773,100 463,172.227 463,260C463,347.773 390.773,420 303,420C215.227,420 143,347.773 143,260C143,201.689 174.877,147.818 225.99,119.752L279.897,217.926Z" style="fill:rgb(99,110,250);fill-rule:nonzero;"/>
                <g transform="matrix(1,0,0,1,317.239,365.489)">
                    <g transform="matrix(12,0,0,12,0,0)">
                        <path d="M0.114,-0.004L0.114,-0.086C0.175,-0.065 0.227,-0.054 0.27,-0.054C0.33,-0.054 0.377,-0.08 0.41,-0.131C0.444,-0.182 0.461,-0.252 0.461,-0.343C0.412,-0.283 0.357,-0.253 0.294,-0.253C0.234,-0.253 0.182,-0.275 0.14,-0.32C0.097,-0.365 0.076,-0.419 0.076,-0.484C0.076,-0.558 0.099,-0.619 0.144,-0.668C0.189,-0.716 0.246,-0.741 0.314,-0.741C0.392,-0.741 0.454,-0.709 0.5,-0.646C0.545,-0.583 0.567,-0.497 0.567,-0.388C0.567,-0.263 0.54,-0.165 0.485,-0.092C0.429,-0.018 0.355,0.018 0.261,0.018C0.223,0.018 0.174,0.011 0.114,-0.004ZM0.172,-0.503C0.172,-0.447 0.185,-0.403 0.21,-0.371C0.235,-0.338 0.269,-0.322 0.312,-0.322C0.353,-0.322 0.387,-0.336 0.416,-0.364C0.445,-0.391 0.459,-0.425 0.459,-0.464C0.459,-0.525 0.446,-0.575 0.418,-0.613C0.39,-0.65 0.353,-0.669 0.308,-0.669C0.266,-0.669 0.233,-0.654 0.209,-0.624C0.184,-0.594 0.172,-0.554 0.172,-0.503Z" style="fill:white;fill-rule:nonzero;"/>
                    </g>
                    <g transform="matrix(12,0,0,12,7.58789,0)">
                        <path d="M0.083,-0L0.083,-0.084C0.111,-0.15 0.168,-0.221 0.253,-0.298L0.308,-0.348C0.379,-0.412 0.415,-0.475 0.415,-0.539C0.415,-0.579 0.402,-0.611 0.378,-0.634C0.354,-0.657 0.321,-0.668 0.278,-0.668C0.228,-0.668 0.169,-0.649 0.101,-0.61L0.101,-0.695C0.165,-0.726 0.229,-0.741 0.292,-0.741C0.36,-0.741 0.414,-0.722 0.455,-0.686C0.496,-0.65 0.517,-0.601 0.517,-0.541C0.517,-0.498 0.506,-0.459 0.486,-0.426C0.465,-0.392 0.426,-0.352 0.37,-0.304L0.333,-0.272C0.256,-0.207 0.211,-0.144 0.199,-0.084L0.513,-0.084L0.513,-0L0.083,-0Z" style="fill:white;fill-rule:nonzero;"/>
                    </g>
                    <g transform="matrix(12,0,0,12,15.1758,0)">
                        <path d="M0.012,0.018L0.581,-0.741L0.656,-0.741L0.087,0.018L0.012,0.018ZM0.157,-0.361C0.111,-0.361 0.075,-0.378 0.047,-0.411C0.02,-0.444 0.006,-0.487 0.006,-0.542C0.006,-0.598 0.02,-0.642 0.047,-0.674C0.075,-0.706 0.112,-0.723 0.16,-0.723C0.207,-0.723 0.244,-0.706 0.271,-0.674C0.299,-0.642 0.313,-0.598 0.313,-0.543C0.313,-0.487 0.299,-0.442 0.271,-0.41C0.244,-0.378 0.206,-0.361 0.157,-0.361ZM0.159,-0.41C0.213,-0.41 0.241,-0.454 0.241,-0.543C0.241,-0.583 0.233,-0.615 0.219,-0.639C0.204,-0.663 0.184,-0.675 0.16,-0.675C0.135,-0.675 0.115,-0.663 0.1,-0.639C0.085,-0.615 0.078,-0.583 0.078,-0.542C0.078,-0.502 0.085,-0.47 0.1,-0.446C0.115,-0.422 0.134,-0.41 0.159,-0.41ZM0.507,-0C0.461,-0 0.424,-0.016 0.396,-0.049C0.369,-0.082 0.355,-0.126 0.355,-0.181C0.355,-0.236 0.369,-0.28 0.397,-0.313C0.425,-0.345 0.462,-0.361 0.509,-0.361C0.556,-0.361 0.593,-0.345 0.621,-0.313C0.649,-0.28 0.663,-0.237 0.663,-0.182C0.663,-0.125 0.649,-0.081 0.621,-0.048C0.593,-0.016 0.555,-0 0.507,-0ZM0.508,-0.048C0.563,-0.048 0.59,-0.093 0.59,-0.182C0.59,-0.222 0.583,-0.254 0.568,-0.278C0.553,-0.302 0.534,-0.313 0.509,-0.313C0.484,-0.313 0.464,-0.302 0.45,-0.278C0.435,-0.254 0.428,-0.221 0.428,-0.181C0.428,-0.141 0.435,-0.109 0.449,-0.084C0.464,-0.06 0.483,-0.048 0.508,-0.048Z" style="fill:white;fill-rule:nonzero;"/>
                    </g>
                </g>
            </g>
            <g>
                <path d="M303,212C295.637,212 288.371,213.694 281.767,216.951L232.224,116.505C254.237,105.648 278.456,100 303,100L303,212Z" style="fill:rgb(239,85,59);fill-rule:nonzero;"/>
                <g transform="matrix(1,0,0,1,256.097,137.769)">
                    <g transform="matrix(12,0,0,12,0,0)">
                        <path d="M0.15,-0C0.16,-0.056 0.173,-0.105 0.191,-0.146C0.208,-0.187 0.239,-0.243 0.283,-0.315L0.48,-0.632L0.108,-0.632L0.108,-0.723L0.572,-0.723L0.572,-0.632C0.387,-0.359 0.283,-0.148 0.261,-0L0.15,-0Z" style="fill:rgb(68,68,68);fill-rule:nonzero;"/>
                    </g>
                    <g transform="matrix(12,0,0,12,7.58789,0)">
                        <rect x="0.098" y="-0.121" width="0.121" height="0.121" style="fill:rgb(68,68,68);fill-rule:nonzero;"/>
                    </g>
                    <g transform="matrix(12,0,0,12,11.3848,0)">
                        <path d="M0.083,-0L0.083,-0.084C0.111,-0.15 0.168,-0.221 0.253,-0.298L0.308,-0.348C0.379,-0.412 0.415,-0.475 0.415,-0.539C0.415,-0.579 0.402,-0.611 0.378,-0.634C0.354,-0.657 0.321,-0.668 0.278,-0.668C0.228,-0.668 0.169,-0.649 0.101,-0.61L0.101,-0.695C0.165,-0.726 0.229,-0.741 0.292,-0.741C0.36,-0.741 0.414,-0.722 0.455,-0.686C0.496,-0.65 0.517,-0.601 0.517,-0.541C0.517,-0.498 0.506,-0.459 0.486,-0.426C0.465,-0.392 0.426,-0.352 0.37,-0.304L0.333,-0.272C0.256,-0.207 0.211,-0.144 0.199,-0.084L0.513,-0.084L0.513,-0L0.083,-0Z" style="fill:rgb(68,68,68);fill-rule:nonzero;"/>
                    </g>
                    <g transform="matrix(12,0,0,12,18.9727,0)">
                        <path d="M0.114,-0.004L0.114,-0.086C0.175,-0.065 0.227,-0.054 0.27,-0.054C0.33,-0.054 0.377,-0.08 0.41,-0.131C0.444,-0.182 0.461,-0.252 0.461,-0.343C0.412,-0.283 0.357,-0.253 0.294,-0.253C0.234,-0.253 0.182,-0.275 0.14,-0.32C0.097,-0.365 0.076,-0.419 0.076,-0.484C0.076,-0.558 0.099,-0.619 0.144,-0.668C0.189,-0.716 0.246,-0.741 0.314,-0.741C0.392,-0.741 0.454,-0.709 0.5,-0.646C0.545,-0.583 0.567,-0.497 0.567,-0.388C0.567,-0.263 0.54,-0.165 0.485,-0.092C0.429,-0.018 0.355,0.018 0.261,0.018C0.223,0.018 0.174,0.011 0.114,-0.004ZM0.172,-0.503C0.172,-0.447 0.185,-0.403 0.21,-0.371C0.235,-0.338 0.269,-0.322 0.312,-0.322C0.353,-0.322 0.387,-0.336 0.416,-0.364C0.445,-0.391 0.459,-0.425 0.459,-0.464C0.459,-0.525 0.446,-0.575 0.418,-0.613C0.39,-0.65 0.353,-0.669 0.308,-0.669C0.266,-0.669 0.233,-0.654 0.209,-0.624C0.184,-0.594 0.172,-0.554 0.172,-0.503Z" style="fill:rgb(68,68,68);fill-rule:nonzero;"/>
                    </g>
                    <g transform="matrix(12,0,0,12,26.5605,0)">
                        <path d="M0.012,0.018L0.581,-0.741L0.656,-0.741L0.087,0.018L0.012,0.018ZM0.157,-0.361C0.111,-0.361 0.075,-0.378 0.047,-0.411C0.02,-0.444 0.006,-0.487 0.006,-0.542C0.006,-0.598 0.02,-0.642 0.047,-0.674C0.075,-0.706 0.112,-0.723 0.16,-0.723C0.207,-0.723 0.244,-0.706 0.271,-0.674C0.299,-0.642 0.313,-0.598 0.313,-0.543C0.313,-0.487 0.299,-0.442 0.271,-0.41C0.244,-0.378 0.206,-0.361 0.157,-0.361ZM0.159,-0.41C0.213,-0.41 0.241,-0.454 0.241,-0.543C0.241,-0.583 0.233,-0.615 0.219,-0.639C0.204,-0.663 0.184,-0.675 0.16,-0.675C0.135,-0.675 0.115,-0.663 0.1,-0.639C0.085,-0.615 0.078,-0.583 0.078,-0.542C0.078,-0.502 0.085,-0.47 0.1,-0.446C0.115,-0.422 0.134,-0.41 0.159,-0.41ZM0.507,-0C0.461,-0 0.424,-0.016 0.396,-0.049C0.369,-0.082 0.355,-0.126 0.355,-0.181C0.355,-0.236 0.369,-0.28 0.397,-0.313C0.425,-0.345 0.462,-0.361 0.509,-0.361C0.556,-0.361 0.593,-0.345 0.621,-0.313C0.649,-0.28 0.663,-0.237 0.663,-0.182C0.663,-0.125 0.649,-0.081 0.621,-0.048C0.593,-0.016 0.555,-0 0.507,-0ZM0.508,-0.048C0.563,-0.048 0.59,-0.093 0.59,-0.182C0.59,-0.222 0.583,-0.254 0.568,-0.278C0.553,-0.302 0.534,-0.313 0.509,-0.313C0.484,-0.313 0.464,-0.302 0.45,-0.278C0.435,-0.254 0.428,-0.221 0.428,-0.181C0.428,-0.141 0.435,-0.109 0.449,-0.084C0.464,-0.06 0.483,-0.048 0.508,-0.048Z" style="fill:rgb(68,68,68);fill-rule:nonzero;"/>
                    </g>
                </g>
            </g>
            <g>
                <path d="M281.767,216.951C281.407,217.129 281.049,217.311 280.693,217.498L228.644,118.327C229.83,117.705 231.023,117.097 232.224,116.505L281.767,216.951Z" style="fill:rgb(0,204,150);fill-rule:nonzero;"/>
                <g transform="matrix(1,0,0,1,197.025,89.6716)">
                    <g transform="matrix(12,0,0,12,0,0)">
                        <path d="M0.313,0.018C0.239,0.018 0.179,-0.017 0.133,-0.087C0.087,-0.157 0.063,-0.249 0.063,-0.362C0.063,-0.476 0.087,-0.567 0.133,-0.637C0.179,-0.706 0.241,-0.741 0.316,-0.741C0.392,-0.741 0.453,-0.706 0.5,-0.637C0.546,-0.567 0.569,-0.476 0.569,-0.363C0.569,-0.247 0.546,-0.155 0.5,-0.086C0.453,-0.017 0.391,0.018 0.313,0.018ZM0.314,-0.054C0.416,-0.054 0.467,-0.158 0.467,-0.365C0.467,-0.567 0.417,-0.668 0.316,-0.668C0.216,-0.668 0.166,-0.566 0.166,-0.362C0.166,-0.157 0.215,-0.054 0.314,-0.054Z" style="fill:rgb(42,63,95);fill-rule:nonzero;"/>
                    </g>
                    <g transform="matrix(12,0,0,12,7.58789,0)">
                        <rect x="0.098" y="-0.121" width="0.121" height="0.121" style="fill:rgb(42,63,95);fill-rule:nonzero;"/>
                    </g>
                    <g transform="matrix(12,0,0,12,11.3848,0)">
                        <path d="M0.376,-0L0.376,-0.205L0.051,-0.205L0.051,-0.277L0.376,-0.723L0.467,-0.723L0.467,-0.283L0.563,-0.283L0.563,-0.205L0.467,-0.205L0.467,-0L0.376,-0ZM0.146,-0.283L0.383,-0.283L0.383,-0.604L0.146,-0.283Z" style="fill:rgb(42,63,95);fill-rule:nonzero;"/>
                    </g>
                    <g transform="matrix(12,0,0,12,18.9727,0)">
                        <path d="M0.012,0.018L0.581,-0.741L0.656,-0.741L0.087,0.018L0.012,0.018ZM0.157,-0.361C0.111,-0.361 0.075,-0.378 0.047,-0.411C0.02,-0.444 0.006,-0.487 0.006,-0.542C0.006,-0.598 0.02,-0.642 0.047,-0.674C0.075,-0.706 0.112,-0.723 0.16,-0.723C0.207,-0.723 0.244,-0.706 0.271,-0.674C0.299,-0.642 0.313,-0.598 0.313,-0.543C0.313,-0.487 0.299,-0.442 0.271,-0.41C0.244,-0.378 0.206,-0.361 0.157,-0.361ZM0.159,-0.41C0.213,-0.41 0.241,-0.454 0.241,-0.543C0.241,-0.583 0.233,-0.615 0.219,-0.639C0.204,-0.663 0.184,-0.675 0.16,-0.675C0.135,-0.675 0.115,-0.663 0.1,-0.639C0.085,-0.615 0.078,-0.583 0.078,-0.542C0.078,-0.502 0.085,-0.47 0.1,-0.446C0.115,-0.422 0.134,-0.41 0.159,-0.41ZM0.507,-0C0.461,-0 0.424,-0.016 0.396,-0.049C0.369,-0.082 0.355,-0.126 0.355,-0.181C0.355,-0.236 0.369,-0.28 0.397,-0.313C0.425,-0.345 0.462,-0.361 0.509,-0.361C0.556,-0.361 0.593,-0.345 0.621,-0.313C0.649,-0.28 0.663,-0.237 0.663,-0.182C0.663,-0.125 0.649,-0.081 0.621,-0.048C0.593,-0.016 0.555,-0 0.507,-0ZM0.508,-0.048C0.563,-0.048 0.59,-0.093 0.59,-0.182C0.59,-0.222 0.583,-0.254 0.568,-0.278C0.553,-0.302 0.534,-0.313 0.509,-0.313C0.484,-0.313 0.464,-0.302 0.45,-0.278C0.435,-0.254 0.428,-0.221 0.428,-0.181C0.428,-0.141 0.435,-0.109 0.449,-0.084C0.464,-0.06 0.483,-0.048 0.508,-0.048Z" style="fill:rgb(42,63,95);fill-rule:nonzero;"/>
                    </g>
                </g>
                <path d="M230.429,117.405L230.429,84.922L226.804,84.922" style="fill:none;fill-rule:nonzero;stroke:rgb(42,63,95);stroke-width:1.5px;"/>
            </g>
            <g>
                <path d="M280.693,217.498C280.515,217.591 280.338,217.686 280.161,217.781L226.872,119.272C227.461,118.953 228.051,118.638 228.644,118.327L280.693,217.498Z" style="fill:rgb(171,99,250);fill-rule:nonzero;"/>
                <g transform="matrix(1,0,0,1,194.353,104.172)">
                    <g transform="matrix(12,0,0,12,0,0)">
                        <path d="M0.313,0.018C0.239,0.018 0.179,-0.017 0.133,-0.087C0.087,-0.157 0.063,-0.249 0.063,-0.362C0.063,-0.476 0.087,-0.567 0.133,-0.637C0.179,-0.706 0.241,-0.741 0.316,-0.741C0.392,-0.741 0.453,-0.706 0.5,-0.637C0.546,-0.567 0.569,-0.476 0.569,-0.363C0.569,-0.247 0.546,-0.155 0.5,-0.086C0.453,-0.017 0.391,0.018 0.313,0.018ZM0.314,-0.054C0.416,-0.054 0.467,-0.158 0.467,-0.365C0.467,-0.567 0.417,-0.668 0.316,-0.668C0.216,-0.668 0.166,-0.566 0.166,-0.362C0.166,-0.157 0.215,-0.054 0.314,-0.054Z" style="fill:rgb(42,63,95);fill-rule:nonzero;"/>
                    </g>
                    <g transform="matrix(12,0,0,12,7.58789,0)">
                        <rect x="0.098" y="-0.121" width="0.121" height="0.121" style="fill:rgb(42,63,95);fill-rule:nonzero;"/>
                    </g>
                    <g transform="matrix(12,0,0,12,11.3848,0)">
                        <path d="M0.083,-0L0.083,-0.084C0.111,-0.15 0.168,-0.221 0.253,-0.298L0.308,-0.348C0.379,-0.412 0.415,-0.475 0.415,-0.539C0.415,-0.579 0.402,-0.611 0.378,-0.634C0.354,-0.657 0.321,-0.668 0.278,-0.668C0.228,-0.668 0.169,-0.649 0.101,-0.61L0.101,-0.695C0.165,-0.726 0.229,-0.741 0.292,-0.741C0.36,-0.741 0.414,-0.722 0.455,-0.686C0.496,-0.65 0.517,-0.601 0.517,-0.541C0.517,-0.498 0.506,-0.459 0.486,-0.426C0.465,-0.392 0.426,-0.352 0.37,-0.304L0.333,-0.272C0.256,-0.207 0.211,-0.144 0.199,-0.084L0.513,-0.084L0.513,-0L0.083,-0Z" style="fill:rgb(42,63,95);fill-rule:nonzero;"/>
                    </g>
                    <g transform="matrix(12,0,0,12,18.9727,0)">
                        <path d="M0.012,0.018L0.581,-0.741L0.656,-0.741L0.087,0.018L0.012,0.018ZM0.157,-0.361C0.111,-0.361 0.075,-0.378 0.047,-0.411C0.02,-0.444 0.006,-0.487 0.006,-0.542C0.006,-0.598 0.02,-0.642 0.047,-0.674C0.075,-0.706 0.112,-0.723 0.16,-0.723C0.207,-0.723 0.244,-0.706 0.271,-0.674C0.299,-0.642 0.313,-0.598 0.313,-0.543C0.313,-0.487 0.299,-0.442 0.271,-0.41C0.244,-0.378 0.206,-0.361 0.157,-0.361ZM0.159,-0.41C0.213,-0.41 0.241,-0.454 0.241,-0.543C0.241,-0.583 0.233,-0.615 0.219,-0.639C0.204,-0.663 0.184,-0.675 0.16,-0.675C0.135,-0.675 0.115,-0.663 0.1,-0.639C0.085,-0.615 0.078,-0.583 0.078,-0.542C0.078,-0.502 0.085,-0.47 0.1,-0.446C0.115,-0.422 0.134,-0.41 0.159,-0.41ZM0.507,-0C0.461,-0 0.424,-0.016 0.396,-0.049C0.369,-0.082 0.355,-0.126 0.355,-0.181C0.355,-0.236 0.369,-0.28 0.397,-0.313C0.425,-0.345 0.462,-0.361 0.509,-0.361C0.556,-0.361 0.593,-0.345 0.621,-0.313C0.649,-0.28 0.663,-0.237 0.663,-0.182C0.663,-0.125 0.649,-0.081 0.621,-0.048C0.593,-0.016 0.555,-0 0.507,-0ZM0.508,-0.048C0.563,-0.048 0.59,-0.093 0.59,-0.182C0.59,-0.222 0.583,-0.254 0.568,-0.278C0.553,-0.302 0.534,-0.313 0.509,-0.313C0.484,-0.313 0.464,-0.302 0.45,-0.278C0.435,-0.254 0.428,-0.221 0.428,-0.181C0.428,-0.141 0.435,-0.109 0.449,-0.084C0.464,-0.06 0.483,-0.048 0.508,-0.048Z" style="fill:rgb(42,63,95);fill-rule:nonzero;"/>
                    </g>
                </g>
                <path d="M227.756,118.797L227.756,99.422L224.131,99.422" style="fill:none;fill-rule:nonzero;stroke:rgb(42,63,95);stroke-width:1.5px;"/>
            </g>
            <g>
                <path d="M280.161,217.781C280.073,217.829 279.985,217.877 279.897,217.926L225.99,119.752C226.283,119.591 226.577,119.431 226.872,119.272L280.161,217.781Z" style="fill:rgb(255,161,90);fill-rule:nonzero;"/>
                <g transform="matrix(1,0,0,1,170.208,118.672)">
                    <g transform="matrix(12,0,0,12,0,0)">
                        <path d="M0.313,0.018C0.239,0.018 0.179,-0.017 0.133,-0.087C0.087,-0.157 0.063,-0.249 0.063,-0.362C0.063,-0.476 0.087,-0.567 0.133,-0.637C0.179,-0.706 0.241,-0.741 0.316,-0.741C0.392,-0.741 0.453,-0.706 0.5,-0.637C0.546,-0.567 0.569,-0.476 0.569,-0.363C0.569,-0.247 0.546,-0.155 0.5,-0.086C0.453,-0.017 0.391,0.018 0.313,0.018ZM0.314,-0.054C0.416,-0.054 0.467,-0.158 0.467,-0.365C0.467,-0.567 0.417,-0.668 0.316,-0.668C0.216,-0.668 0.166,-0.566 0.166,-0.362C0.166,-0.157 0.215,-0.054 0.314,-0.054Z" style="fill:rgb(42,63,95);fill-rule:nonzero;"/>
                    </g>
                    <g transform="matrix(12,0,0,12,7.58789,0)">
                        <rect x="0.098" y="-0.121" width="0.121" height="0.121" style="fill:rgb(42,63,95);fill-rule:nonzero;"/>
                    </g>
                    <g transform="matrix(12,0,0,12,11.3848,0)">
                        <path d="M0.313,0.018C0.239,0.018 0.179,-0.017 0.133,-0.087C0.087,-0.157 0.063,-0.249 0.063,-0.362C0.063,-0.476 0.087,-0.567 0.133,-0.637C0.179,-0.706 0.241,-0.741 0.316,-0.741C0.392,-0.741 0.453,-0.706 0.5,-0.637C0.546,-0.567 0.569,-0.476 0.569,-0.363C0.569,-0.247 0.546,-0.155 0.5,-0.086C0.453,-0.017 0.391,0.018 0.313,0.018ZM0.314,-0.054C0.416,-0.054 0.467,-0.158 0.467,-0.365C0.467,-0.567 0.417,-0.668 0.316,-0.668C0.216,-0.668 0.166,-0.566 0.166,-0.362C0.166,-0.157 0.215,-0.054 0.314,-0.054Z" style="fill:rgb(42,63,95);fill-rule:nonzero;"/>
                    </g>
                    <g transform="matrix(12,0,0,12,18.9727,0)">
                        <path d="M0.114,-0.004L0.114,-0.086C0.175,-0.065 0.227,-0.054 0.27,-0.054C0.33,-0.054 0.377,-0.08 0.41,-0.131C0.444,-0.182 0.461,-0.252 0.461,-0.343C0.412,-0.283 0.357,-0.253 0.294,-0.253C0.234,-0.253 0.182,-0.275 0.14,-0.32C0.097,-0.365 0.076,-0.419 0.076,-0.484C0.076,-0.558 0.099,-0.619 0.144,-0.668C0.189,-0.716 0.246,-0.741 0.314,-0.741C0.392,-0.741 0.454,-0.709 0.5,-0.646C0.545,-0.583 0.567,-0.497 0.567,-0.388C0.567,-0.263 0.54,-0.165 0.485,-0.092C0.429,-0.018 0.355,0.018 0.261,0.018C0.223,0.018 0.174,0.011 0.114,-0.004ZM0.172,-0.503C0.172,-0.447 0.185,-0.403 0.21,-0.371C0.235,-0.338 0.269,-0.322 0.312,-0.322C0.353,-0.322 0.387,-0.336 0.416,-0.364C0.445,-0.391 0.459,-0.425 0.459,-0.464C0.459,-0.525 0.446,-0.575 0.418,-0.613C0.39,-0.65 0.353,-0.669 0.308,-0.669C0.266,-0.669 0.233,-0.654 0.209,-0.624C0.184,-0.594 0.172,-0.554 0.172,-0.503Z" style="fill:rgb(42,63,95);fill-rule:nonzero;"/>
                    </g>
                    <g transform="matrix(12,0,0,12,26.5605,0)">
                        <path d="M0.114,-0.004L0.114,-0.086C0.175,-0.065 0.227,-0.054 0.27,-0.054C0.33,-0.054 0.377,-0.08 0.41,-0.131C0.444,-0.182 0.461,-0.252 0.461,-0.343C0.412,-0.283 0.357,-0.253 0.294,-0.253C0.234,-0.253 0.182,-0.275 0.14,-0.32C0.097,-0.365 0.076,-0.419 0.076,-0.484C0.076,-0.558 0.099,-0.619 0.144,-0.668C0.189,-0.716 0.246,-0.741 0.314,-0.741C0.392,-0.741 0.454,-0.709 0.5,-0.646C0.545,-0.583 0.567,-0.497 0.567,-0.388C0.567,-0.263 0.54,-0.165 0.485,-0.092C0.429,-0.018 0.355,0.018 0.261,0.018C0.223,0.018 0.174,0.011 0.114,-0.004ZM0.172,-0.503C0.172,-0.447 0.185,-0.403 0.21,-0.371C0.235,-0.338 0.269,-0.322 0.312,-0.322C0.353,-0.322 0.387,-0.336 0.416,-0.364C0.445,-0.391 0.459,-0.425 0.459,-0.464C0.459,-0.525 0.446,-0.575 0.418,-0.613C0.39,-0.65 0.353,-0.669 0.308,-0.669C0.266,-0.669 0.233,-0.654 0.209,-0.624C0.184,-0.594 0.172,-0.554 0.172,-0.503Z" style="fill:rgb(42,63,95);fill-rule:nonzero;"/>
                    </g>
                    <g transform="matrix(12,0,0,12,34.1484,0)">
                        <path d="M0.114,-0.004L0.114,-0.086C0.175,-0.065 0.227,-0.054 0.27,-0.054C0.33,-0.054 0.377,-0.08 0.41,-0.131C0.444,-0.182 0.461,-0.252 0.461,-0.343C0.412,-0.283 0.357,-0.253 0.294,-0.253C0.234,-0.253 0.182,-0.275 0.14,-0.32C0.097,-0.365 0.076,-0.419 0.076,-0.484C0.076,-0.558 0.099,-0.619 0.144,-0.668C0.189,-0.716 0.246,-0.741 0.314,-0.741C0.392,-0.741 0.454,-0.709 0.5,-0.646C0.545,-0.583 0.567,-0.497 0.567,-0.388C0.567,-0.263 0.54,-0.165 0.485,-0.092C0.429,-0.018 0.355,0.018 0.261,0.018C0.223,0.018 0.174,0.011 0.114,-0.004ZM0.172,-0.503C0.172,-0.447 0.185,-0.403 0.21,-0.371C0.235,-0.338 0.269,-0.322 0.312,-0.322C0.353,-0.322 0.387,-0.336 0.416,-0.364C0.445,-0.391 0.459,-0.425 0.459,-0.464C0.459,-0.525 0.446,-0.575 0.418,-0.613C0.39,-0.65 0.353,-0.669 0.308,-0.669C0.266,-0.669 0.233,-0.654 0.209,-0.624C0.184,-0.594 0.172,-0.554 0.172,-0.503Z" style="fill:rgb(42,63,95);fill-rule:nonzero;"/>
                    </g>
                    <g transform="matrix(12,0,0,12,41.7363,0)">
                        <path d="M0.012,0.018L0.581,-0.741L0.656,-0.741L0.087,0.018L0.012,0.018ZM0.157,-0.361C0.111,-0.361 0.075,-0.378 0.047,-0.411C0.02,-0.444 0.006,-0.487 0.006,-0.542C0.006,-0.598 0.02,-0.642 0.047,-0.674C0.075,-0.706 0.112,-0.723 0.16,-0.723C0.207,-0.723 0.244,-0.706 0.271,-0.674C0.299,-0.642 0.313,-0.598 0.313,-0.543C0.313,-0.487 0.299,-0.442 0.271,-0.41C0.244,-0.378 0.206,-0.361 0.157,-0.361ZM0.159,-0.41C0.213,-0.41 0.241,-0.454 0.241,-0.543C0.241,-0.583 0.233,-0.615 0.219,-0.639C0.204,-0.663 0.184,-0.675 0.16,-0.675C0.135,-0.675 0.115,-0.663 0.1,-0.639C0.085,-0.615 0.078,-0.583 0.078,-0.542C0.078,-0.502 0.085,-0.47 0.1,-0.446C0.115,-0.422 0.134,-0.41 0.159,-0.41ZM0.507,-0C0.461,-0 0.424,-0.016 0.396,-0.049C0.369,-0.082 0.355,-0.126 0.355,-0.181C0.355,-0.236 0.369,-0.28 0.397,-0.313C0.425,-0.345 0.462,-0.361 0.509,-0.361C0.556,-0.361 0.593,-0.345 0.621,-0.313C0.649,-0.28 0.663,-0.237 0.663,-0.182C0.663,-0.125 0.649,-0.081 0.621,-0.048C0.593,-0.016 0.555,-0 0.507,-0ZM0.508,-0.048C0.563,-0.048 0.59,-0.093 0.59,-0.182C0.59,-0.222 0.583,-0.254 0.568,-0.278C0.553,-0.302 0.534,-0.313 0.509,-0.313C0.484,-0.313 0.464,-0.302 0.45,-0.278C0.435,-0.254 0.428,-0.221 0.428,-0.181C0.428,-0.141 0.435,-0.109 0.449,-0.084C0.464,-0.06 0.483,-0.048 0.508,-0.048Z" style="fill:rgb(42,63,95);fill-rule:nonzero;"/>
                    </g>
                </g>
            </g>
        </g>
    </g>
    <g>
        <g transform="matrix(1,0,0,1,534.92,100)">
            <g>
                <g>
                    <g transform="matrix(1,0,0,1,0,14.5)">
                        <g transform="matrix(1,0,0,1,40,4.68)">
                            <path d="M7.635,-0.234C6.584,0.066 5.668,0.217 4.887,0.217C3.508,0.217 2.45,-0.176 1.714,-0.961C0.978,-1.746 0.609,-2.871 0.609,-4.336C0.609,-5.773 0.982,-6.892 1.729,-7.69C2.475,-8.489 3.521,-8.889 4.869,-8.889C5.752,-8.889 6.67,-8.758 7.623,-8.496L7.623,-7.359C6.428,-7.766 5.512,-7.969 4.875,-7.969C3.938,-7.969 3.21,-7.65 2.692,-7.014C2.175,-6.377 1.916,-5.48 1.916,-4.324C1.916,-3.18 2.193,-2.29 2.748,-1.655C3.303,-1.021 4.08,-0.703 5.08,-0.703C5.49,-0.703 5.934,-0.775 6.41,-0.92L6.41,-3.744L7.635,-3.744L7.635,-0.234Z" style="fill:rgb(42,63,95);fill-rule:nonzero;"/>
                            <path d="M13.107,-0.809C12.416,-0.172 11.75,0.146 11.109,0.146C10.582,0.146 10.145,-0.019 9.797,-0.349C9.449,-0.679 9.275,-1.096 9.275,-1.6C9.275,-2.295 9.567,-2.829 10.151,-3.202C10.735,-3.575 11.572,-3.762 12.662,-3.762L12.938,-3.762L12.938,-4.529C12.938,-5.268 12.559,-5.637 11.801,-5.637C11.191,-5.637 10.533,-5.449 9.826,-5.074L9.826,-6.029C10.604,-6.346 11.332,-6.504 12.012,-6.504C12.723,-6.504 13.247,-6.344 13.585,-6.023C13.923,-5.703 14.092,-5.205 14.092,-4.529L14.092,-1.646C14.092,-0.986 14.295,-0.656 14.701,-0.656C14.752,-0.656 14.826,-0.664 14.924,-0.68L15.006,-0.041C14.744,0.084 14.455,0.146 14.139,0.146C13.6,0.146 13.256,-0.172 13.107,-0.809ZM12.938,-1.436L12.938,-3.082L12.551,-3.094C11.918,-3.094 11.406,-2.974 11.016,-2.733C10.625,-2.493 10.43,-2.178 10.43,-1.787C10.43,-1.51 10.527,-1.275 10.723,-1.084C10.918,-0.893 11.156,-0.797 11.438,-0.797C11.918,-0.797 12.418,-1.01 12.938,-1.436Z" style="fill:rgb(42,63,95);fill-rule:nonzero;"/>
                            <path d="M18.141,0.146C17.613,0.146 16.973,0.023 16.219,-0.223L16.219,-1.283C16.973,-0.908 17.629,-0.721 18.188,-0.721C18.52,-0.721 18.795,-0.811 19.014,-0.99C19.232,-1.17 19.342,-1.395 19.342,-1.664C19.342,-2.059 19.035,-2.385 18.422,-2.643L17.748,-2.93C16.752,-3.344 16.254,-3.939 16.254,-4.717C16.254,-5.271 16.45,-5.708 16.843,-6.026C17.235,-6.345 17.773,-6.504 18.457,-6.504C18.813,-6.504 19.252,-6.455 19.775,-6.357L20.016,-6.311L20.016,-5.35C19.371,-5.541 18.859,-5.637 18.48,-5.637C17.738,-5.637 17.367,-5.367 17.367,-4.828C17.367,-4.48 17.648,-4.188 18.211,-3.949L18.768,-3.715C19.396,-3.449 19.842,-3.169 20.104,-2.874C20.365,-2.579 20.496,-2.211 20.496,-1.77C20.496,-1.211 20.275,-0.752 19.834,-0.393C19.393,-0.033 18.828,0.146 18.141,0.146Z" style="fill:rgb(42,63,95);fill-rule:nonzero;"/>
                            <path d="M25.061,0.146C24.15,0.146 23.424,-0.155 22.881,-0.759C22.338,-1.362 22.066,-2.17 22.066,-3.182C22.066,-4.205 22.339,-5.015 22.884,-5.61C23.429,-6.206 24.168,-6.504 25.102,-6.504C26.035,-6.504 26.774,-6.206 27.319,-5.61C27.864,-5.015 28.137,-4.209 28.137,-3.193C28.137,-2.154 27.863,-1.338 27.316,-0.744C26.77,-0.15 26.018,0.146 25.061,0.146ZM25.078,-0.721C26.301,-0.721 26.912,-1.545 26.912,-3.193C26.912,-4.822 26.309,-5.637 25.102,-5.637C23.898,-5.637 23.297,-4.818 23.297,-3.182C23.297,-1.541 23.891,-0.721 25.078,-0.721Z" style="fill:rgb(42,63,95);fill-rule:nonzero;"/>
                            <rect x="29.941" y="-9.252" width="1.154" height="9.252" style="fill:rgb(42,63,95);"/>
                            <path d="M33.41,0L33.41,-6.363L34.564,-6.363L34.564,0L33.41,0ZM33.41,-7.518L33.41,-8.672L34.564,-8.672L34.564,-7.518L33.41,-7.518Z" style="fill:rgb(42,63,95);fill-rule:nonzero;"/>
                            <path d="M36.879,0L36.879,-6.363L38.033,-6.363L38.033,-5.168C38.643,-6.059 39.389,-6.504 40.271,-6.504C40.822,-6.504 41.262,-6.329 41.59,-5.979C41.918,-5.63 42.082,-5.16 42.082,-4.57L42.082,0L40.928,0L40.928,-4.195C40.928,-4.668 40.858,-5.005 40.72,-5.206C40.581,-5.407 40.352,-5.508 40.031,-5.508C39.324,-5.508 38.658,-5.045 38.033,-4.119L38.033,0L36.879,0Z" style="fill:rgb(42,63,95);fill-rule:nonzero;"/>
                            <path d="M47.607,-0.809C46.916,-0.172 46.25,0.146 45.609,0.146C45.082,0.146 44.645,-0.019 44.297,-0.349C43.949,-0.679 43.775,-1.096 43.775,-1.6C43.775,-2.295 44.067,-2.829 44.651,-3.202C45.235,-3.575 46.072,-3.762 47.162,-3.762L47.438,-3.762L47.438,-4.529C47.438,-5.268 47.059,-5.637 46.301,-5.637C45.691,-5.637 45.033,-5.449 44.326,-5.074L44.326,-6.029C45.104,-6.346 45.832,-6.504 46.512,-6.504C47.223,-6.504 47.747,-6.344 48.085,-6.023C48.423,-5.703 48.592,-5.205 48.592,-4.529L48.592,-1.646C48.592,-0.986 48.795,-0.656 49.201,-0.656C49.252,-0.656 49.326,-0.664 49.424,-0.68L49.506,-0.041C49.244,0.084 48.955,0.146 48.639,0.146C48.1,0.146 47.756,-0.172 47.607,-0.809ZM47.438,-1.436L47.438,-3.082L47.051,-3.094C46.418,-3.094 45.906,-2.974 45.516,-2.733C45.125,-2.493 44.93,-2.178 44.93,-1.787C44.93,-1.51 45.027,-1.275 45.223,-1.084C45.418,-0.893 45.656,-0.797 45.938,-0.797C46.418,-0.797 46.918,-1.01 47.438,-1.436Z" style="fill:rgb(42,63,95);fill-rule:nonzero;"/>
                        </g>
                        <g transform="matrix(1,0,0,1,20,0)">
                            <g>
                                <g>
                                    <rect x="-6" y="-6" width="12" height="12" style="fill:rgb(99,110,250);"/>
                                </g>
                            </g>
                        </g>
                        <rect x="0" y="-9.5" width="147.844" height="19" style="fill-opacity:0;"/>
                    </g>
                    <g transform="matrix(1,0,0,1,0,33.5)">
                        <g transform="matrix(1,0,0,1,40,4.68)">
                            <path d="M1.119,0L1.119,-8.672L4.002,-8.672C4.861,-8.672 5.556,-8.576 6.085,-8.385C6.614,-8.193 7.072,-7.869 7.459,-7.412C8.072,-6.686 8.379,-5.729 8.379,-4.541C8.379,-3.1 7.998,-1.982 7.236,-1.189C6.475,-0.396 5.402,0 4.02,0L1.119,0ZM2.35,-0.92L3.926,-0.92C5.051,-0.92 5.848,-1.223 6.316,-1.828C6.82,-2.473 7.072,-3.338 7.072,-4.424C7.072,-5.443 6.824,-6.244 6.328,-6.826C6.027,-7.182 5.668,-7.425 5.25,-7.556C4.832,-7.687 4.203,-7.752 3.363,-7.752L2.35,-7.752L2.35,-0.92Z" style="fill:rgb(42,63,95);fill-rule:nonzero;"/>
                            <path d="M10.143,0L10.143,-6.363L11.297,-6.363L11.297,0L10.143,0ZM10.143,-7.518L10.143,-8.672L11.297,-8.672L11.297,-7.518L10.143,-7.518Z" style="fill:rgb(42,63,95);fill-rule:nonzero;"/>
                            <path d="M18.275,-0.205C17.502,0.029 16.84,0.146 16.289,0.146C15.352,0.146 14.587,-0.165 13.995,-0.788C13.403,-1.411 13.107,-2.219 13.107,-3.211C13.107,-4.176 13.368,-4.967 13.89,-5.584C14.411,-6.201 15.078,-6.51 15.891,-6.51C16.66,-6.51 17.255,-6.236 17.675,-5.689C18.095,-5.143 18.305,-4.365 18.305,-3.357L18.299,-3L14.285,-3C14.453,-1.488 15.193,-0.732 16.506,-0.732C16.986,-0.732 17.576,-0.861 18.275,-1.119L18.275,-0.205ZM14.338,-3.867L17.145,-3.867C17.145,-5.051 16.703,-5.643 15.82,-5.643C14.934,-5.643 14.439,-5.051 14.338,-3.867ZM14.924,-7.518L16.336,-9.398L17.672,-9.398L15.791,-7.518L14.924,-7.518Z" style="fill:rgb(42,63,95);fill-rule:nonzero;"/>
                            <path d="M21.984,0.146C21.457,0.146 20.816,0.023 20.063,-0.223L20.063,-1.283C20.816,-0.908 21.473,-0.721 22.031,-0.721C22.363,-0.721 22.639,-0.811 22.857,-0.99C23.076,-1.17 23.186,-1.395 23.186,-1.664C23.186,-2.059 22.879,-2.385 22.266,-2.643L21.592,-2.93C20.596,-3.344 20.098,-3.939 20.098,-4.717C20.098,-5.271 20.294,-5.708 20.687,-6.026C21.079,-6.345 21.617,-6.504 22.301,-6.504C22.656,-6.504 23.096,-6.455 23.619,-6.357L23.859,-6.311L23.859,-5.35C23.215,-5.541 22.703,-5.637 22.324,-5.637C21.582,-5.637 21.211,-5.367 21.211,-4.828C21.211,-4.48 21.492,-4.188 22.055,-3.949L22.611,-3.715C23.24,-3.449 23.686,-3.169 23.947,-2.874C24.209,-2.579 24.34,-2.211 24.34,-1.77C24.34,-1.211 24.119,-0.752 23.678,-0.393C23.236,-0.033 22.672,0.146 21.984,0.146Z" style="fill:rgb(42,63,95);fill-rule:nonzero;"/>
                            <path d="M31.078,-0.205C30.305,0.029 29.643,0.146 29.092,0.146C28.154,0.146 27.39,-0.165 26.798,-0.788C26.206,-1.411 25.91,-2.219 25.91,-3.211C25.91,-4.176 26.171,-4.967 26.692,-5.584C27.214,-6.201 27.881,-6.51 28.693,-6.51C29.463,-6.51 30.058,-6.236 30.478,-5.689C30.897,-5.143 31.107,-4.365 31.107,-3.357L31.102,-3L27.088,-3C27.256,-1.488 27.996,-0.732 29.309,-0.732C29.789,-0.732 30.379,-0.861 31.078,-1.119L31.078,-0.205ZM27.141,-3.867L29.947,-3.867C29.947,-5.051 29.506,-5.643 28.623,-5.643C27.736,-5.643 27.242,-5.051 27.141,-3.867Z" style="fill:rgb(42,63,95);fill-rule:nonzero;"/>
                            <rect x="33.1" y="-9.252" width="1.154" height="9.252" style="fill:rgb(42,63,95);"/>
                        </g>
                        <g transform="matrix(1,0,0,1,20,0)">
                            <g>
                                <g>
                                    <rect x="-6" y="-6" width="12" height="12" style="fill:rgb(239,85,59);"/>
                                </g>
                            </g>
                        </g>
                        <rect x="0" y="-9.5" width="147.844" height="19" style="fill-opacity:0;"/>
                    </g>
                    <g transform="matrix(1,0,0,1,0,52.5)">
                        <g transform="matrix(1,0,0,1,40,4.68)">
                            <path d="M7.635,-0.234C6.584,0.066 5.668,0.217 4.887,0.217C3.508,0.217 2.45,-0.176 1.714,-0.961C0.978,-1.746 0.609,-2.871 0.609,-4.336C0.609,-5.773 0.982,-6.892 1.729,-7.69C2.475,-8.489 3.521,-8.889 4.869,-8.889C5.752,-8.889 6.67,-8.758 7.623,-8.496L7.623,-7.359C6.428,-7.766 5.512,-7.969 4.875,-7.969C3.938,-7.969 3.21,-7.65 2.692,-7.014C2.175,-6.377 1.916,-5.48 1.916,-4.324C1.916,-3.18 2.193,-2.29 2.748,-1.655C3.303,-1.021 4.08,-0.703 5.08,-0.703C5.49,-0.703 5.934,-0.775 6.41,-0.92L6.41,-3.744L7.635,-3.744L7.635,-0.234Z" style="fill:rgb(42,63,95);fill-rule:nonzero;"/>
                            <path d="M13.107,-0.809C12.416,-0.172 11.75,0.146 11.109,0.146C10.582,0.146 10.145,-0.019 9.797,-0.349C9.449,-0.679 9.275,-1.096 9.275,-1.6C9.275,-2.295 9.567,-2.829 10.151,-3.202C10.735,-3.575 11.572,-3.762 12.662,-3.762L12.938,-3.762L12.938,-4.529C12.938,-5.268 12.559,-5.637 11.801,-5.637C11.191,-5.637 10.533,-5.449 9.826,-5.074L9.826,-6.029C10.604,-6.346 11.332,-6.504 12.012,-6.504C12.723,-6.504 13.247,-6.344 13.585,-6.023C13.923,-5.703 14.092,-5.205 14.092,-4.529L14.092,-1.646C14.092,-0.986 14.295,-0.656 14.701,-0.656C14.752,-0.656 14.826,-0.664 14.924,-0.68L15.006,-0.041C14.744,0.084 14.455,0.146 14.139,0.146C13.6,0.146 13.256,-0.172 13.107,-0.809ZM12.938,-1.436L12.938,-3.082L12.551,-3.094C11.918,-3.094 11.406,-2.974 11.016,-2.733C10.625,-2.493 10.43,-2.178 10.43,-1.787C10.43,-1.51 10.527,-1.275 10.723,-1.084C10.918,-0.893 11.156,-0.797 11.438,-0.797C11.918,-0.797 12.418,-1.01 12.938,-1.436Z" style="fill:rgb(42,63,95);fill-rule:nonzero;"/>
                            <path d="M18.141,0.146C17.613,0.146 16.973,0.023 16.219,-0.223L16.219,-1.283C16.973,-0.908 17.629,-0.721 18.188,-0.721C18.52,-0.721 18.795,-0.811 19.014,-0.99C19.232,-1.17 19.342,-1.395 19.342,-1.664C19.342,-2.059 19.035,-2.385 18.422,-2.643L17.748,-2.93C16.752,-3.344 16.254,-3.939 16.254,-4.717C16.254,-5.271 16.45,-5.708 16.843,-6.026C17.235,-6.345 17.773,-6.504 18.457,-6.504C18.813,-6.504 19.252,-6.455 19.775,-6.357L20.016,-6.311L20.016,-5.35C19.371,-5.541 18.859,-5.637 18.48,-5.637C17.738,-5.637 17.367,-5.367 17.367,-4.828C17.367,-4.48 17.648,-4.188 18.211,-3.949L18.768,-3.715C19.396,-3.449 19.842,-3.169 20.104,-2.874C20.365,-2.579 20.496,-2.211 20.496,-1.77C20.496,-1.211 20.275,-0.752 19.834,-0.393C19.393,-0.033 18.828,0.146 18.141,0.146Z" style="fill:rgb(42,63,95);fill-rule:nonzero;"/>
                            <path d="M32.848,-0.234C31.797,0.066 30.881,0.217 30.1,0.217C28.721,0.217 27.663,-0.176 26.927,-0.961C26.19,-1.746 25.822,-2.871 25.822,-4.336C25.822,-5.773 26.195,-6.892 26.941,-7.69C27.688,-8.489 28.734,-8.889 30.082,-8.889C30.965,-8.889 31.883,-8.758 32.836,-8.496L32.836,-7.359C31.641,-7.766 30.725,-7.969 30.088,-7.969C29.15,-7.969 28.423,-7.65 27.905,-7.014C27.388,-6.377 27.129,-5.48 27.129,-4.324C27.129,-3.18 27.406,-2.29 27.961,-1.655C28.516,-1.021 29.293,-0.703 30.293,-0.703C30.703,-0.703 31.146,-0.775 31.623,-0.92L31.623,-3.744L32.848,-3.744L32.848,-0.234Z" style="fill:rgb(42,63,95);fill-rule:nonzero;"/>
                            <path d="M38.32,-0.809C37.629,-0.172 36.963,0.146 36.322,0.146C35.795,0.146 35.357,-0.019 35.01,-0.349C34.662,-0.679 34.488,-1.096 34.488,-1.6C34.488,-2.295 34.78,-2.829 35.364,-3.202C35.948,-3.575 36.785,-3.762 37.875,-3.762L38.15,-3.762L38.15,-4.529C38.15,-5.268 37.771,-5.637 37.014,-5.637C36.404,-5.637 35.746,-5.449 35.039,-5.074L35.039,-6.029C35.816,-6.346 36.545,-6.504 37.225,-6.504C37.936,-6.504 38.46,-6.344 38.798,-6.023C39.136,-5.703 39.305,-5.205 39.305,-4.529L39.305,-1.646C39.305,-0.986 39.508,-0.656 39.914,-0.656C39.965,-0.656 40.039,-0.664 40.137,-0.68L40.219,-0.041C39.957,0.084 39.668,0.146 39.352,0.146C38.813,0.146 38.469,-0.172 38.32,-0.809ZM38.15,-1.436L38.15,-3.082L37.764,-3.094C37.131,-3.094 36.619,-2.974 36.229,-2.733C35.838,-2.493 35.643,-2.178 35.643,-1.787C35.643,-1.51 35.74,-1.275 35.936,-1.084C36.131,-0.893 36.369,-0.797 36.65,-0.797C37.131,-0.797 37.631,-1.01 38.15,-1.436Z" style="fill:rgb(42,63,95);fill-rule:nonzero;"/>
                            <path d="M43.354,0.146C42.826,0.146 42.186,0.023 41.432,-0.223L41.432,-1.283C42.186,-0.908 42.842,-0.721 43.4,-0.721C43.732,-0.721 44.008,-0.811 44.227,-0.99C44.445,-1.17 44.555,-1.395 44.555,-1.664C44.555,-2.059 44.248,-2.385 43.635,-2.643L42.961,-2.93C41.965,-3.344 41.467,-3.939 41.467,-4.717C41.467,-5.271 41.663,-5.708 42.056,-6.026C42.448,-6.345 42.986,-6.504 43.67,-6.504C44.025,-6.504 44.465,-6.455 44.988,-6.357L45.229,-6.311L45.229,-5.35C44.584,-5.541 44.072,-5.637 43.693,-5.637C42.951,-5.637 42.58,-5.367 42.58,-4.828C42.58,-4.48 42.861,-4.188 43.424,-3.949L43.98,-3.715C44.609,-3.449 45.055,-3.169 45.316,-2.874C45.578,-2.579 45.709,-2.211 45.709,-1.77C45.709,-1.211 45.488,-0.752 45.047,-0.393C44.605,-0.033 44.041,0.146 43.354,0.146Z" style="fill:rgb(42,63,95);fill-rule:nonzero;"/>
                            <path d="M50.273,0.146C49.363,0.146 48.637,-0.155 48.094,-0.759C47.551,-1.362 47.279,-2.17 47.279,-3.182C47.279,-4.205 47.552,-5.015 48.097,-5.61C48.642,-6.206 49.381,-6.504 50.314,-6.504C51.248,-6.504 51.987,-6.206 52.532,-5.61C53.077,-5.015 53.35,-4.209 53.35,-3.193C53.35,-2.154 53.076,-1.338 52.529,-0.744C51.982,-0.15 51.23,0.146 50.273,0.146ZM50.291,-0.721C51.514,-0.721 52.125,-1.545 52.125,-3.193C52.125,-4.822 51.521,-5.637 50.314,-5.637C49.111,-5.637 48.51,-4.818 48.51,-3.182C48.51,-1.541 49.104,-0.721 50.291,-0.721Z" style="fill:rgb(42,63,95);fill-rule:nonzero;"/>
                            <rect x="55.154" y="-9.252" width="1.154" height="9.252" style="fill:rgb(42,63,95);"/>
                        </g>
                        <g transform="matrix(1,0,0,1,20,0)">
                            <g>
                                <g>
                                    <rect x="-6" y="-6" width="12" height="12" style="fill:rgb(0,204,150);"/>
                                </g>
                            </g>
                        </g>
                        <rect x="0" y="-9.5" width="147.844" height="19" style="fill-opacity:0;"/>
                    </g>
                    <g transform="matrix(1,0,0,1,0,71.5)">
                        <g transform="matrix(1,0,0,1,40,4.68)">
                            <path d="M7.635,-0.234C6.584,0.066 5.668,0.217 4.887,0.217C3.508,0.217 2.45,-0.176 1.714,-0.961C0.978,-1.746 0.609,-2.871 0.609,-4.336C0.609,-5.773 0.982,-6.892 1.729,-7.69C2.475,-8.489 3.521,-8.889 4.869,-8.889C5.752,-8.889 6.67,-8.758 7.623,-8.496L7.623,-7.359C6.428,-7.766 5.512,-7.969 4.875,-7.969C3.938,-7.969 3.21,-7.65 2.692,-7.014C2.175,-6.377 1.916,-5.48 1.916,-4.324C1.916,-3.18 2.193,-2.29 2.748,-1.655C3.303,-1.021 4.08,-0.703 5.08,-0.703C5.49,-0.703 5.934,-0.775 6.41,-0.92L6.41,-3.744L7.635,-3.744L7.635,-0.234Z" style="fill:rgb(42,63,95);fill-rule:nonzero;"/>
                            <path d="M13.107,-0.809C12.416,-0.172 11.75,0.146 11.109,0.146C10.582,0.146 10.145,-0.019 9.797,-0.349C9.449,-0.679 9.275,-1.096 9.275,-1.6C9.275,-2.295 9.567,-2.829 10.151,-3.202C10.735,-3.575 11.572,-3.762 12.662,-3.762L12.938,-3.762L12.938,-4.529C12.938,-5.268 12.559,-5.637 11.801,-5.637C11.191,-5.637 10.533,-5.449 9.826,-5.074L9.826,-6.029C10.604,-6.346 11.332,-6.504 12.012,-6.504C12.723,-6.504 13.247,-6.344 13.585,-6.023C13.923,-5.703 14.092,-5.205 14.092,-4.529L14.092,-1.646C14.092,-0.986 14.295,-0.656 14.701,-0.656C14.752,-0.656 14.826,-0.664 14.924,-0.68L15.006,-0.041C14.744,0.084 14.455,0.146 14.139,0.146C13.6,0.146 13.256,-0.172 13.107,-0.809ZM12.938,-1.436L12.938,-3.082L12.551,-3.094C11.918,-3.094 11.406,-2.974 11.016,-2.733C10.625,-2.493 10.43,-2.178 10.43,-1.787C10.43,-1.51 10.527,-1.275 10.723,-1.084C10.918,-0.893 11.156,-0.797 11.438,-0.797C11.918,-0.797 12.418,-1.01 12.938,-1.436Z" style="fill:rgb(42,63,95);fill-rule:nonzero;"/>
                            <path d="M18.141,0.146C17.613,0.146 16.973,0.023 16.219,-0.223L16.219,-1.283C16.973,-0.908 17.629,-0.721 18.188,-0.721C18.52,-0.721 18.795,-0.811 19.014,-0.99C19.232,-1.17 19.342,-1.395 19.342,-1.664C19.342,-2.059 19.035,-2.385 18.422,-2.643L17.748,-2.93C16.752,-3.344 16.254,-3.939 16.254,-4.717C16.254,-5.271 16.45,-5.708 16.843,-6.026C17.235,-6.345 17.773,-6.504 18.457,-6.504C18.813,-6.504 19.252,-6.455 19.775,-6.357L20.016,-6.311L20.016,-5.35C19.371,-5.541 18.859,-5.637 18.48,-5.637C17.738,-5.637 17.367,-5.367 17.367,-4.828C17.367,-4.48 17.648,-4.188 18.211,-3.949L18.768,-3.715C19.396,-3.449 19.842,-3.169 20.104,-2.874C20.365,-2.579 20.496,-2.211 20.496,-1.77C20.496,-1.211 20.275,-0.752 19.834,-0.393C19.393,-0.033 18.828,0.146 18.141,0.146Z" style="fill:rgb(42,63,95);fill-rule:nonzero;"/>
                            <path d="M25.061,0.146C24.15,0.146 23.424,-0.155 22.881,-0.759C22.338,-1.362 22.066,-2.17 22.066,-3.182C22.066,-4.205 22.339,-5.015 22.884,-5.61C23.429,-6.206 24.168,-6.504 25.102,-6.504C26.035,-6.504 26.774,-6.206 27.319,-5.61C27.864,-5.015 28.137,-4.209 28.137,-3.193C28.137,-2.154 27.863,-1.338 27.316,-0.744C26.77,-0.15 26.018,0.146 25.061,0.146ZM25.078,-0.721C26.301,-0.721 26.912,-1.545 26.912,-3.193C26.912,-4.822 26.309,-5.637 25.102,-5.637C23.898,-5.637 23.297,-4.818 23.297,-3.182C23.297,-1.541 23.891,-0.721 25.078,-0.721Z" style="fill:rgb(42,63,95);fill-rule:nonzero;"/>
                            <rect x="29.941" y="-9.252" width="1.154" height="9.252" style="fill:rgb(42,63,95);"/>
                            <path d="M33.41,0L33.41,-6.363L34.564,-6.363L34.564,0L33.41,0ZM33.41,-7.518L33.41,-8.672L34.564,-8.672L34.564,-7.518L33.41,-7.518Z" style="fill:rgb(42,63,95);fill-rule:nonzero;"/>
                            <path d="M36.879,0L36.879,-6.363L38.033,-6.363L38.033,-5.168C38.643,-6.059 39.389,-6.504 40.271,-6.504C40.822,-6.504 41.262,-6.329 41.59,-5.979C41.918,-5.63 42.082,-5.16 42.082,-4.57L42.082,0L40.928,0L40.928,-4.195C40.928,-4.668 40.858,-5.005 40.72,-5.206C40.581,-5.407 40.352,-5.508 40.031,-5.508C39.324,-5.508 38.658,-5.045 38.033,-4.119L38.033,0L36.879,0Z" style="fill:rgb(42,63,95);fill-rule:nonzero;"/>
                            <path d="M47.607,-0.809C46.916,-0.172 46.25,0.146 45.609,0.146C45.082,0.146 44.645,-0.019 44.297,-0.349C43.949,-0.679 43.775,-1.096 43.775,-1.6C43.775,-2.295 44.067,-2.829 44.651,-3.202C45.235,-3.575 46.072,-3.762 47.162,-3.762L47.438,-3.762L47.438,-4.529C47.438,-5.268 47.059,-5.637 46.301,-5.637C45.691,-5.637 45.033,-5.449 44.326,-5.074L44.326,-6.029C45.104,-6.346 45.832,-6.504 46.512,-6.504C47.223,-6.504 47.747,-6.344 48.085,-6.023C48.423,-5.703 48.592,-5.205 48.592,-4.529L48.592,-1.646C48.592,-0.986 48.795,-0.656 49.201,-0.656C49.252,-0.656 49.326,-0.664 49.424,-0.68L49.506,-0.041C49.244,0.084 48.955,0.146 48.639,0.146C48.1,0.146 47.756,-0.172 47.607,-0.809ZM47.438,-1.436L47.438,-3.082L47.051,-3.094C46.418,-3.094 45.906,-2.974 45.516,-2.733C45.125,-2.493 44.93,-2.178 44.93,-1.787C44.93,-1.51 45.027,-1.275 45.223,-1.084C45.418,-0.893 45.656,-0.797 45.938,-0.797C46.418,-0.797 46.918,-1.01 47.438,-1.436Z" style="fill:rgb(42,63,95);fill-rule:nonzero;"/>
                            <rect x="50.666" y="-3.902" width="5.203" height="0.867" style="fill:rgb(42,63,95);"/>
                            <path d="M57.861,0L57.861,-8.672L62.707,-8.672L62.707,-7.752L59.092,-7.752L59.092,-4.969L62.121,-4.969L62.121,-4.061L59.092,-4.061L59.092,-0.92L62.959,-0.92L62.959,0L57.861,0Z" style="fill:rgb(42,63,95);fill-rule:nonzero;"/>
                            <rect x="64.4" y="-9.252" width="1.154" height="9.252" style="fill:rgb(42,63,95);"/>
                            <path d="M72.533,-0.205C71.76,0.029 71.098,0.146 70.547,0.146C69.609,0.146 68.845,-0.165 68.253,-0.788C67.661,-1.411 67.365,-2.219 67.365,-3.211C67.365,-4.176 67.626,-4.967 68.147,-5.584C68.669,-6.201 69.336,-6.51 70.148,-6.51C70.918,-6.51 71.513,-6.236 71.933,-5.689C72.353,-5.143 72.563,-4.365 72.563,-3.357L72.557,-3L68.543,-3C68.711,-1.488 69.451,-0.732 70.764,-0.732C71.244,-0.732 71.834,-0.861 72.533,-1.119L72.533,-0.205ZM68.596,-3.867L71.402,-3.867C71.402,-5.051 70.961,-5.643 70.078,-5.643C69.191,-5.643 68.697,-5.051 68.596,-3.867ZM69.182,-7.518L70.594,-9.398L71.93,-9.398L70.049,-7.518L69.182,-7.518Z" style="fill:rgb(42,63,95);fill-rule:nonzero;"/>
                            <path d="M77.039,0.146C76.18,0.146 75.467,-0.172 74.9,-0.809C74.334,-1.445 74.051,-2.248 74.051,-3.217C74.051,-4.252 74.331,-5.059 74.892,-5.637C75.452,-6.215 76.234,-6.504 77.238,-6.504C77.734,-6.504 78.289,-6.436 78.902,-6.299L78.902,-5.332C78.25,-5.523 77.719,-5.619 77.309,-5.619C76.719,-5.619 76.245,-5.397 75.888,-4.954C75.53,-4.511 75.352,-3.92 75.352,-3.182C75.352,-2.467 75.535,-1.889 75.902,-1.447C76.27,-1.006 76.75,-0.785 77.344,-0.785C77.871,-0.785 78.414,-0.92 78.973,-1.189L78.973,-0.193C78.227,0.033 77.582,0.146 77.039,0.146Z" style="fill:rgb(42,63,95);fill-rule:nonzero;"/>
                            <path d="M82.611,0.146C82.025,0.146 81.568,-0.021 81.24,-0.357C80.912,-0.693 80.748,-1.16 80.748,-1.758L80.748,-5.496L79.951,-5.496L79.951,-6.363L80.748,-6.363L80.748,-7.518L81.902,-7.629L81.902,-6.363L83.566,-6.363L83.566,-5.496L81.902,-5.496L81.902,-1.969C81.902,-1.137 82.262,-0.721 82.98,-0.721C83.133,-0.721 83.318,-0.746 83.537,-0.797L83.537,0C83.182,0.098 82.873,0.146 82.611,0.146Z" style="fill:rgb(42,63,95);fill-rule:nonzero;"/>
                            <path d="M85.189,0L85.189,-6.363L86.344,-6.363L86.344,-5.168C86.801,-6.059 87.465,-6.504 88.336,-6.504C88.453,-6.504 88.576,-6.494 88.705,-6.475L88.705,-5.396C88.506,-5.463 88.33,-5.496 88.178,-5.496C87.447,-5.496 86.836,-5.063 86.344,-4.195L86.344,0L85.189,0Z" style="fill:rgb(42,63,95);fill-rule:nonzero;"/>
                            <path d="M90.1,0L90.1,-6.363L91.254,-6.363L91.254,0L90.1,0ZM90.1,-7.518L90.1,-8.672L91.254,-8.672L91.254,-7.518L90.1,-7.518Z" style="fill:rgb(42,63,95);fill-rule:nonzero;"/>
                            <path d="M96.053,0.146C95.193,0.146 94.48,-0.172 93.914,-0.809C93.348,-1.445 93.064,-2.248 93.064,-3.217C93.064,-4.252 93.345,-5.059 93.905,-5.637C94.466,-6.215 95.248,-6.504 96.252,-6.504C96.748,-6.504 97.303,-6.436 97.916,-6.299L97.916,-5.332C97.264,-5.523 96.732,-5.619 96.322,-5.619C95.732,-5.619 95.259,-5.397 94.901,-4.954C94.544,-4.511 94.365,-3.92 94.365,-3.182C94.365,-2.467 94.549,-1.889 94.916,-1.447C95.283,-1.006 95.764,-0.785 96.357,-0.785C96.885,-0.785 97.428,-0.92 97.986,-1.189L97.986,-0.193C97.24,0.033 96.596,0.146 96.053,0.146Z" style="fill:rgb(42,63,95);fill-rule:nonzero;"/>
                            <path d="M102.205,0.146C101.295,0.146 100.568,-0.155 100.025,-0.759C99.482,-1.362 99.211,-2.17 99.211,-3.182C99.211,-4.205 99.483,-5.015 100.028,-5.61C100.573,-6.206 101.313,-6.504 102.246,-6.504C103.18,-6.504 103.919,-6.206 104.464,-5.61C105.009,-5.015 105.281,-4.209 105.281,-3.193C105.281,-2.154 105.008,-1.338 104.461,-0.744C103.914,-0.15 103.162,0.146 102.205,0.146ZM102.223,-0.721C103.445,-0.721 104.057,-1.545 104.057,-3.193C104.057,-4.822 103.453,-5.637 102.246,-5.637C101.043,-5.637 100.441,-4.818 100.441,-3.182C100.441,-1.541 101.035,-0.721 102.223,-0.721Z" style="fill:rgb(42,63,95);fill-rule:nonzero;"/>
                        </g>
                        <g transform="matrix(1,0,0,1,20,0)">
                            <g>
                                <g>
                                    <rect x="-6" y="-6" width="12" height="12" style="fill:rgb(171,99,250);"/>
                                </g>
                            </g>
                        </g>
                        <rect x="0" y="-9.5" width="147.844" height="19" style="fill-opacity:0;"/>
                    </g>
                    <g transform="matrix(1,0,0,1,0,90.5)">
                        <g transform="matrix(1,0,0,1,40,4.68)">
                            <path d="M1.119,0L1.119,-8.672L5.965,-8.672L5.965,-7.752L2.35,-7.752L2.35,-4.969L5.379,-4.969L5.379,-4.061L2.35,-4.061L2.35,-0.92L6.217,-0.92L6.217,0L1.119,0Z" style="fill:rgb(42,63,95);fill-rule:nonzero;"/>
                            <rect x="7.658" y="-9.252" width="1.154" height="9.252" style="fill:rgb(42,63,95);"/>
                            <path d="M15.791,-0.205C15.018,0.029 14.355,0.146 13.805,0.146C12.867,0.146 12.103,-0.165 11.511,-0.788C10.919,-1.411 10.623,-2.219 10.623,-3.211C10.623,-4.176 10.884,-4.967 11.405,-5.584C11.927,-6.201 12.594,-6.51 13.406,-6.51C14.176,-6.51 14.771,-6.236 15.19,-5.689C15.61,-5.143 15.82,-4.365 15.82,-3.357L15.814,-3L11.801,-3C11.969,-1.488 12.709,-0.732 14.021,-0.732C14.502,-0.732 15.092,-0.861 15.791,-1.119L15.791,-0.205ZM11.854,-3.867L14.66,-3.867C14.66,-5.051 14.219,-5.643 13.336,-5.643C12.449,-5.643 11.955,-5.051 11.854,-3.867ZM12.439,-7.518L13.852,-9.398L15.188,-9.398L13.307,-7.518L12.439,-7.518Z" style="fill:rgb(42,63,95);fill-rule:nonzero;"/>
                            <path d="M20.297,0.146C19.438,0.146 18.725,-0.172 18.158,-0.809C17.592,-1.445 17.309,-2.248 17.309,-3.217C17.309,-4.252 17.589,-5.059 18.149,-5.637C18.71,-6.215 19.492,-6.504 20.496,-6.504C20.992,-6.504 21.547,-6.436 22.16,-6.299L22.16,-5.332C21.508,-5.523 20.977,-5.619 20.566,-5.619C19.977,-5.619 19.503,-5.397 19.146,-4.954C18.788,-4.511 18.609,-3.92 18.609,-3.182C18.609,-2.467 18.793,-1.889 19.16,-1.447C19.527,-1.006 20.008,-0.785 20.602,-0.785C21.129,-0.785 21.672,-0.92 22.23,-1.189L22.23,-0.193C21.484,0.033 20.84,0.146 20.297,0.146Z" style="fill:rgb(42,63,95);fill-rule:nonzero;"/>
                            <path d="M25.869,0.146C25.283,0.146 24.826,-0.021 24.498,-0.357C24.17,-0.693 24.006,-1.16 24.006,-1.758L24.006,-5.496L23.209,-5.496L23.209,-6.363L24.006,-6.363L24.006,-7.518L25.16,-7.629L25.16,-6.363L26.824,-6.363L26.824,-5.496L25.16,-5.496L25.16,-1.969C25.16,-1.137 25.52,-0.721 26.238,-0.721C26.391,-0.721 26.576,-0.746 26.795,-0.797L26.795,0C26.439,0.098 26.131,0.146 25.869,0.146Z" style="fill:rgb(42,63,95);fill-rule:nonzero;"/>
                            <path d="M28.447,0L28.447,-6.363L29.602,-6.363L29.602,-5.168C30.059,-6.059 30.723,-6.504 31.594,-6.504C31.711,-6.504 31.834,-6.494 31.963,-6.475L31.963,-5.396C31.764,-5.463 31.588,-5.496 31.436,-5.496C30.705,-5.496 30.094,-5.063 29.602,-4.195L29.602,0L28.447,0Z" style="fill:rgb(42,63,95);fill-rule:nonzero;"/>
                            <path d="M33.357,0L33.357,-6.363L34.512,-6.363L34.512,0L33.357,0ZM33.357,-7.518L33.357,-8.672L34.512,-8.672L34.512,-7.518L33.357,-7.518Z" style="fill:rgb(42,63,95);fill-rule:nonzero;"/>
                            <path d="M39.311,0.146C38.451,0.146 37.738,-0.172 37.172,-0.809C36.605,-1.445 36.322,-2.248 36.322,-3.217C36.322,-4.252 36.603,-5.059 37.163,-5.637C37.724,-6.215 38.506,-6.504 39.51,-6.504C40.006,-6.504 40.561,-6.436 41.174,-6.299L41.174,-5.332C40.521,-5.523 39.99,-5.619 39.58,-5.619C38.99,-5.619 38.517,-5.397 38.159,-4.954C37.802,-4.511 37.623,-3.92 37.623,-3.182C37.623,-2.467 37.807,-1.889 38.174,-1.447C38.541,-1.006 39.021,-0.785 39.615,-0.785C40.143,-0.785 40.686,-0.92 41.244,-1.189L41.244,-0.193C40.498,0.033 39.854,0.146 39.311,0.146Z" style="fill:rgb(42,63,95);fill-rule:nonzero;"/>
                            <path d="M45.463,0.146C44.553,0.146 43.826,-0.155 43.283,-0.759C42.74,-1.362 42.469,-2.17 42.469,-3.182C42.469,-4.205 42.741,-5.015 43.286,-5.61C43.831,-6.206 44.57,-6.504 45.504,-6.504C46.438,-6.504 47.177,-6.206 47.722,-5.61C48.267,-5.015 48.539,-4.209 48.539,-3.193C48.539,-2.154 48.266,-1.338 47.719,-0.744C47.172,-0.15 46.42,0.146 45.463,0.146ZM45.48,-0.721C46.703,-0.721 47.314,-1.545 47.314,-3.193C47.314,-4.822 46.711,-5.637 45.504,-5.637C44.301,-5.637 43.699,-4.818 43.699,-3.182C43.699,-1.541 44.293,-0.721 45.48,-0.721Z" style="fill:rgb(42,63,95);fill-rule:nonzero;"/>
                        </g>
                        <g transform="matrix(1,0,0,1,20,0)">
                            <g>
                                <g>
                                    <rect x="-6" y="-6" width="12" height="12" style="fill:rgb(255,161,90);"/>
                                </g>
                            </g>
                        </g>
                        <rect x="0" y="-9.5" width="147.844" height="19" style="fill-opacity:0;"/>
                    </g>
                </g>
            </g>
        </g>
        <g transform="matrix(1,0,0,1,35,50)">
            <g>
                <path d="M1.585,0L1.585,-12.285L5.669,-12.285C6.887,-12.285 7.871,-12.15 8.62,-11.878C9.37,-11.607 10.019,-11.148 10.567,-10.5C11.436,-9.471 11.87,-8.115 11.87,-6.433C11.87,-4.391 11.331,-2.808 10.251,-1.685C9.172,-0.562 7.653,0 5.694,0L1.585,0ZM3.329,-1.303L5.562,-1.303C7.155,-1.303 8.284,-1.732 8.948,-2.59C9.662,-3.503 10.019,-4.729 10.019,-6.267C10.019,-7.711 9.668,-8.846 8.965,-9.67C8.539,-10.174 8.03,-10.518 7.438,-10.704C6.845,-10.889 5.954,-10.982 4.765,-10.982L3.329,-10.982L3.329,-1.303Z" style="fill:rgb(42,63,95);fill-rule:nonzero;"/>
                <path d="M14.369,0L14.369,-9.015L16.004,-9.015L16.004,0L14.369,0ZM14.369,-10.65L14.369,-12.285L16.004,-12.285L16.004,-10.65L14.369,-10.65Z" style="fill:rgb(42,63,95);fill-rule:nonzero;"/>
                <path d="M21.673,0.208C20.926,0.208 20.019,0.033 18.951,-0.315L18.951,-1.818C20.019,-1.287 20.948,-1.021 21.74,-1.021C22.21,-1.021 22.6,-1.148 22.91,-1.403C23.22,-1.657 23.375,-1.976 23.375,-2.357C23.375,-2.916 22.941,-3.378 22.072,-3.744L21.117,-4.15C19.706,-4.737 19,-5.581 19,-6.682C19,-7.468 19.279,-8.086 19.835,-8.537C20.391,-8.988 21.153,-9.214 22.122,-9.214C22.625,-9.214 23.248,-9.145 23.989,-9.006L24.33,-8.94L24.33,-7.579C23.417,-7.85 22.692,-7.985 22.155,-7.985C21.103,-7.985 20.578,-7.604 20.578,-6.84C20.578,-6.347 20.976,-5.932 21.773,-5.595L22.562,-5.263C23.452,-4.886 24.083,-4.489 24.454,-4.072C24.825,-3.654 25.01,-3.132 25.01,-2.507C25.01,-1.715 24.698,-1.065 24.072,-0.556C23.447,-0.047 22.647,0.208 21.673,0.208Z" style="fill:rgb(42,63,95);fill-rule:nonzero;"/>
                <path d="M30.655,0.208C29.825,0.208 29.177,-0.03 28.712,-0.506C28.248,-0.982 28.015,-1.644 28.015,-2.49L28.015,-7.786L26.886,-7.786L26.886,-9.015L28.015,-9.015L28.015,-10.65L29.65,-10.808L29.65,-9.015L32.008,-9.015L32.008,-7.786L29.65,-7.786L29.65,-2.789C29.65,-1.61 30.16,-1.021 31.178,-1.021C31.394,-1.021 31.656,-1.057 31.966,-1.129L31.966,0C31.463,0.138 31.026,0.208 30.655,0.208Z" style="fill:rgb(42,63,95);fill-rule:nonzero;"/>
                <path d="M34.307,0L34.307,-9.015L35.942,-9.015L35.942,-7.321C36.59,-8.583 37.531,-9.214 38.765,-9.214C38.931,-9.214 39.105,-9.2 39.288,-9.172L39.288,-7.645C39.005,-7.739 38.756,-7.786 38.541,-7.786C37.506,-7.786 36.64,-7.172 35.942,-5.943L35.942,0L34.307,0Z" style="fill:rgb(42,63,95);fill-rule:nonzero;"/>
                <path d="M41.263,0L41.263,-9.015L42.898,-9.015L42.898,0L41.263,0ZM41.263,-10.65L41.263,-12.285L42.898,-12.285L42.898,-10.65L41.263,-10.65Z" style="fill:rgb(42,63,95);fill-rule:nonzero;"/>
                <path d="M46.177,0.1L46.177,-13.107L47.813,-13.107L47.813,-7.321C48.482,-8.583 49.486,-9.214 50.826,-9.214C51.91,-9.214 52.764,-8.818 53.386,-8.027C54.009,-7.236 54.32,-6.154 54.32,-4.781C54.32,-3.287 53.968,-2.082 53.262,-1.166C52.556,-0.25 51.628,0.208 50.477,0.208C49.409,0.208 48.521,-0.202 47.813,-1.021L47.613,0.1L46.177,0.1ZM47.813,-2.15C48.654,-1.397 49.456,-1.021 50.22,-1.021C51.791,-1.021 52.577,-2.219 52.577,-4.615C52.577,-6.729 51.88,-7.786 50.485,-7.786C49.572,-7.786 48.681,-7.291 47.813,-6.3L47.813,-2.15Z" style="fill:rgb(42,63,95);fill-rule:nonzero;"/>
                <path d="M62.513,0L62.513,-1.693C61.644,-0.426 60.59,0.208 59.351,0.208C58.565,0.208 57.939,-0.04 57.475,-0.535C57.01,-1.031 56.777,-1.699 56.777,-2.54L56.777,-9.015L58.413,-9.015L58.413,-3.071C58.413,-2.396 58.511,-1.916 58.707,-1.631C58.904,-1.346 59.232,-1.204 59.691,-1.204C60.687,-1.204 61.628,-1.859 62.513,-3.171L62.513,-9.015L64.148,-9.015L64.148,0L62.513,0Z" style="fill:rgb(42,63,95);fill-rule:nonzero;"/>
                <path d="M70.947,0.208C69.729,0.208 68.719,-0.243 67.917,-1.146C67.115,-2.048 66.713,-3.185 66.713,-4.557C66.713,-6.024 67.11,-7.166 67.905,-7.985C68.699,-8.804 69.807,-9.214 71.229,-9.214C71.932,-9.214 72.718,-9.117 73.586,-8.923L73.586,-7.554C72.662,-7.825 71.91,-7.96 71.329,-7.96C70.493,-7.96 69.822,-7.646 69.316,-7.018C68.809,-6.39 68.556,-5.553 68.556,-4.507C68.556,-3.495 68.816,-2.676 69.336,-2.05C69.857,-1.425 70.537,-1.112 71.378,-1.112C72.125,-1.112 72.895,-1.303 73.686,-1.685L73.686,-0.274C72.629,0.047 71.716,0.208 70.947,0.208Z" style="fill:rgb(42,63,95);fill-rule:nonzero;"/>
                <path d="M76.135,0L76.135,-9.015L77.77,-9.015L77.77,0L76.135,0ZM76.135,-10.65L76.135,-12.285L77.77,-12.285L77.77,-10.65L76.135,-10.65Z" style="fill:rgb(42,63,95);fill-rule:nonzero;"/>
                <path d="M84.577,0.208C83.287,0.208 82.258,-0.22 81.489,-1.075C80.72,-1.93 80.335,-3.074 80.335,-4.507C80.335,-5.957 80.721,-7.104 81.493,-7.948C82.265,-8.792 83.312,-9.214 84.635,-9.214C85.957,-9.214 87.005,-8.792 87.777,-7.948C88.549,-7.104 88.935,-5.963 88.935,-4.524C88.935,-3.052 88.547,-1.895 87.772,-1.054C86.998,-0.213 85.932,0.208 84.577,0.208ZM84.602,-1.021C86.334,-1.021 87.2,-2.189 87.2,-4.524C87.2,-6.832 86.345,-7.985 84.635,-7.985C82.93,-7.985 82.078,-6.826 82.078,-4.507C82.078,-2.183 82.919,-1.021 84.602,-1.021ZM83.406,-10.65L85.407,-13.314L87.299,-13.314L84.635,-10.65L83.406,-10.65Z" style="fill:rgb(42,63,95);fill-rule:nonzero;"/>
                <path d="M91.491,0L91.491,-9.015L93.126,-9.015L93.126,-7.321C93.99,-8.583 95.047,-9.214 96.297,-9.214C97.078,-9.214 97.7,-8.966 98.165,-8.471C98.63,-7.976 98.862,-7.31 98.862,-6.475L98.862,0L97.227,0L97.227,-5.943C97.227,-6.613 97.129,-7.09 96.932,-7.375C96.736,-7.66 96.411,-7.803 95.957,-7.803C94.955,-7.803 94.012,-7.147 93.126,-5.835L93.126,0L91.491,0Z" style="fill:rgb(42,63,95);fill-rule:nonzero;"/>
                <path d="M113.206,0L113.206,-1.693C112.542,-0.426 111.54,0.208 110.201,0.208C109.117,0.208 108.263,-0.188 107.64,-0.979C107.018,-1.771 106.707,-2.853 106.707,-4.225C106.707,-5.725 107.059,-6.931 107.765,-7.844C108.47,-8.757 109.399,-9.214 110.55,-9.214C111.618,-9.214 112.503,-8.804 113.206,-7.985L113.206,-13.107L114.85,-13.107L114.85,0L113.206,0ZM113.206,-6.865C112.359,-7.612 111.557,-7.985 110.799,-7.985C109.233,-7.985 108.45,-6.787 108.45,-4.391C108.45,-2.283 109.147,-1.229 110.542,-1.229C111.449,-1.229 112.337,-1.724 113.206,-2.714L113.206,-6.865Z" style="fill:rgb(42,63,95);fill-rule:nonzero;"/>
                <path d="M124.728,-0.291C123.632,0.042 122.694,0.208 121.914,0.208C120.585,0.208 119.502,-0.234 118.664,-1.116C117.825,-1.999 117.406,-3.143 117.406,-4.549C117.406,-5.916 117.776,-7.036 118.514,-7.911C119.253,-8.785 120.198,-9.222 121.349,-9.222C122.439,-9.222 123.282,-8.835 123.877,-8.06C124.472,-7.285 124.769,-6.184 124.769,-4.756L124.761,-4.25L119.075,-4.25C119.313,-2.108 120.361,-1.038 122.221,-1.038C122.901,-1.038 123.737,-1.22 124.728,-1.585L124.728,-0.291ZM119.149,-5.479L123.125,-5.479C123.125,-7.155 122.5,-7.994 121.25,-7.994C119.993,-7.994 119.293,-7.155 119.149,-5.479Z" style="fill:rgb(42,63,95);fill-rule:nonzero;"/>
                <rect x="127.591" y="-13.107" width="1.635" height="13.107" style="fill:rgb(42,63,95);"/>
                <path d="M137.884,3.279L137.884,-9.015L139.52,-9.015L139.52,-7.321C140.189,-8.583 141.194,-9.214 142.533,-9.214C143.617,-9.214 144.471,-8.818 145.094,-8.027C145.716,-7.236 146.027,-6.154 146.027,-4.781C146.027,-3.287 145.675,-2.082 144.969,-1.166C144.263,-0.25 143.335,0.208 142.184,0.208C141.116,0.208 140.228,-0.202 139.52,-1.021L139.52,3.279L137.884,3.279ZM139.52,-2.15C140.361,-1.397 141.163,-1.021 141.927,-1.021C143.498,-1.021 144.284,-2.219 144.284,-4.615C144.284,-6.729 143.587,-7.786 142.192,-7.786C141.279,-7.786 140.388,-7.291 139.52,-6.3L139.52,-2.15Z" style="fill:rgb(42,63,95);fill-rule:nonzero;"/>
                <path d="M153.232,-1.146C152.253,-0.243 151.309,0.208 150.402,0.208C149.655,0.208 149.035,-0.026 148.542,-0.494C148.05,-0.962 147.804,-1.552 147.804,-2.266C147.804,-3.251 148.217,-4.008 149.045,-4.536C149.872,-5.065 151.058,-5.329 152.602,-5.329L152.992,-5.329L152.992,-6.417C152.992,-7.462 152.455,-7.985 151.381,-7.985C150.518,-7.985 149.586,-7.72 148.584,-7.188L148.584,-8.542C149.685,-8.99 150.717,-9.214 151.68,-9.214C152.687,-9.214 153.43,-8.987 153.909,-8.533C154.388,-8.079 154.627,-7.374 154.627,-6.417L154.627,-2.333C154.627,-1.397 154.915,-0.93 155.49,-0.93C155.562,-0.93 155.667,-0.941 155.806,-0.963L155.922,-0.058C155.551,0.119 155.142,0.208 154.693,0.208C153.93,0.208 153.443,-0.243 153.232,-1.146ZM152.992,-2.034L152.992,-4.366L152.444,-4.383C151.547,-4.383 150.822,-4.213 150.269,-3.872C149.716,-3.532 149.439,-3.085 149.439,-2.532C149.439,-2.139 149.577,-1.807 149.854,-1.536C150.131,-1.264 150.468,-1.129 150.867,-1.129C151.547,-1.129 152.256,-1.431 152.992,-2.034Z" style="fill:rgb(42,63,95);fill-rule:nonzero;"/>
                <path d="M157.972,0L157.972,-9.015L159.607,-9.015L159.607,-7.321C160.255,-8.583 161.196,-9.214 162.43,-9.214C162.596,-9.214 162.77,-9.2 162.953,-9.172L162.953,-7.645C162.67,-7.739 162.421,-7.786 162.206,-7.786C161.171,-7.786 160.305,-7.172 159.607,-5.943L159.607,0L157.972,0Z" style="fill:rgb(42,63,95);fill-rule:nonzero;"/>
                <path d="M170.714,3.279L170.714,-1.693C170.05,-0.426 169.048,0.208 167.709,0.208C166.624,0.208 165.771,-0.188 165.148,-0.979C164.526,-1.771 164.214,-2.853 164.214,-4.225C164.214,-5.725 164.567,-6.931 165.273,-7.844C165.978,-8.757 166.907,-9.214 168.058,-9.214C169.126,-9.214 170.011,-8.804 170.714,-7.985L170.714,-9.015L172.357,-9.015L172.357,3.279L170.714,3.279ZM170.714,-6.865C169.867,-7.612 169.065,-7.985 168.307,-7.985C166.741,-7.985 165.958,-6.787 165.958,-4.391C165.958,-2.283 166.655,-1.229 168.049,-1.229C168.957,-1.229 169.845,-1.724 170.714,-2.714L170.714,-6.865Z" style="fill:rgb(42,63,95);fill-rule:nonzero;"/>
                <path d="M181.264,0L181.264,-1.693C180.395,-0.426 179.341,0.208 178.102,0.208C177.316,0.208 176.69,-0.04 176.226,-0.535C175.761,-1.031 175.528,-1.699 175.528,-2.54L175.528,-9.015L177.164,-9.015L177.164,-3.071C177.164,-2.396 177.262,-1.916 177.458,-1.631C177.655,-1.346 177.983,-1.204 178.442,-1.204C179.438,-1.204 180.379,-1.859 181.264,-3.171L181.264,-9.015L182.899,-9.015L182.899,0L181.264,0Z" style="fill:rgb(42,63,95);fill-rule:nonzero;"/>
                <path d="M192.786,-0.291C191.69,0.042 190.752,0.208 189.972,0.208C188.644,0.208 187.56,-0.234 186.722,-1.116C185.884,-1.999 185.464,-3.143 185.464,-4.549C185.464,-5.916 185.834,-7.036 186.573,-7.911C187.311,-8.785 188.256,-9.222 189.407,-9.222C190.497,-9.222 191.34,-8.835 191.935,-8.06C192.53,-7.285 192.827,-6.184 192.827,-4.756L192.819,-4.25L187.133,-4.25C187.371,-2.108 188.419,-1.038 190.279,-1.038C190.959,-1.038 191.795,-1.22 192.786,-1.585L192.786,-0.291ZM187.208,-5.479L191.184,-5.479C191.184,-7.155 190.558,-7.994 189.308,-7.994C188.051,-7.994 187.351,-7.155 187.208,-5.479Z" style="fill:rgb(42,63,95);fill-rule:nonzero;"/>
                <path d="M205.677,-1.146C204.697,-0.243 203.754,0.208 202.846,0.208C202.099,0.208 201.479,-0.026 200.987,-0.494C200.494,-0.962 200.248,-1.552 200.248,-2.266C200.248,-3.251 200.662,-4.008 201.489,-4.536C202.316,-5.065 203.502,-5.329 205.046,-5.329L205.436,-5.329L205.436,-6.417C205.436,-7.462 204.899,-7.985 203.826,-7.985C202.962,-7.985 202.03,-7.72 201.028,-7.188L201.028,-8.542C202.13,-8.99 203.162,-9.214 204.125,-9.214C205.132,-9.214 205.875,-8.987 206.353,-8.533C206.832,-8.079 207.071,-7.374 207.071,-6.417L207.071,-2.333C207.071,-1.397 207.359,-0.93 207.935,-0.93C208.007,-0.93 208.112,-0.941 208.25,-0.963L208.366,-0.058C207.995,0.119 207.586,0.208 207.138,0.208C206.374,0.208 205.887,-0.243 205.677,-1.146ZM205.436,-2.034L205.436,-4.366L204.888,-4.383C203.992,-4.383 203.267,-4.213 202.713,-3.872C202.16,-3.532 201.883,-3.085 201.883,-2.532C201.883,-2.139 202.022,-1.807 202.298,-1.536C202.575,-1.264 202.913,-1.129 203.311,-1.129C203.992,-1.129 204.7,-1.431 205.436,-2.034Z" style="fill:rgb(42,63,95);fill-rule:nonzero;"/>
                <path d="M216.053,0L216.053,-1.693C215.184,-0.426 214.13,0.208 212.89,0.208C212.104,0.208 211.479,-0.04 211.014,-0.535C210.549,-1.031 210.317,-1.699 210.317,-2.54L210.317,-9.015L211.952,-9.015L211.952,-3.071C211.952,-2.396 212.05,-1.916 212.247,-1.631C212.443,-1.346 212.771,-1.204 213.23,-1.204C214.227,-1.204 215.167,-1.859 216.053,-3.171L216.053,-9.015L217.688,-9.015L217.688,0L216.053,0Z" style="fill:rgb(42,63,95);fill-rule:nonzero;"/>
                <path d="M223.673,0.208C222.843,0.208 222.195,-0.03 221.73,-0.506C221.266,-0.982 221.033,-1.644 221.033,-2.49L221.033,-7.786L219.904,-7.786L219.904,-9.015L221.033,-9.015L221.033,-10.65L222.668,-10.808L222.668,-9.015L225.026,-9.015L225.026,-7.786L222.668,-7.786L222.668,-2.789C222.668,-1.61 223.178,-1.021 224.196,-1.021C224.412,-1.021 224.674,-1.057 224.984,-1.129L224.984,0C224.481,0.138 224.044,0.208 223.673,0.208Z" style="fill:rgb(42,63,95);fill-rule:nonzero;"/>
                <path d="M230.853,0.208C229.564,0.208 228.534,-0.22 227.765,-1.075C226.996,-1.93 226.611,-3.074 226.611,-4.507C226.611,-5.957 226.997,-7.104 227.769,-7.948C228.541,-8.792 229.589,-9.214 230.911,-9.214C232.234,-9.214 233.281,-8.792 234.053,-7.948C234.825,-7.104 235.211,-5.963 235.211,-4.524C235.211,-3.052 234.824,-1.895 234.049,-1.054C233.274,-0.213 232.209,0.208 230.853,0.208ZM230.878,-1.021C232.61,-1.021 233.476,-2.189 233.476,-4.524C233.476,-6.832 232.621,-7.985 230.911,-7.985C229.207,-7.985 228.354,-6.826 228.354,-4.507C228.354,-2.183 229.196,-1.021 230.878,-1.021Z" style="fill:rgb(42,63,95);fill-rule:nonzero;"/>
                <path d="M237.768,0L237.768,-9.015L239.403,-9.015L239.403,-7.321C240.2,-8.583 241.223,-9.214 242.474,-9.214C243.681,-9.214 244.502,-8.583 244.939,-7.321C245.714,-8.589 246.721,-9.222 247.961,-9.222C248.758,-9.222 249.375,-8.988 249.812,-8.521C250.249,-8.053 250.468,-7.399 250.468,-6.558L250.468,0L248.824,0L248.824,-6.3C248.824,-7.33 248.417,-7.844 247.604,-7.844C246.757,-7.844 245.869,-7.244 244.939,-6.043L244.939,0L243.296,0L243.296,-6.3C243.296,-7.335 242.881,-7.853 242.051,-7.853C241.226,-7.853 240.344,-7.249 239.403,-6.043L239.403,0L237.768,0Z" style="fill:rgb(42,63,95);fill-rule:nonzero;"/>
                <path d="M257.167,0.208C255.877,0.208 254.848,-0.22 254.079,-1.075C253.309,-1.93 252.925,-3.074 252.925,-4.507C252.925,-5.957 253.311,-7.104 254.083,-7.948C254.855,-8.792 255.902,-9.214 257.225,-9.214C258.547,-9.214 259.594,-8.792 260.366,-7.948C261.138,-7.104 261.524,-5.963 261.524,-4.524C261.524,-3.052 261.137,-1.895 260.362,-1.054C259.588,-0.213 258.522,0.208 257.167,0.208ZM257.191,-1.021C258.924,-1.021 259.79,-2.189 259.79,-4.524C259.79,-6.832 258.935,-7.985 257.225,-7.985C255.52,-7.985 254.668,-6.826 254.668,-4.507C254.668,-2.183 255.509,-1.021 257.191,-1.021Z" style="fill:rgb(42,63,95);fill-rule:nonzero;"/>
                <path d="M266.787,0.208C265.957,0.208 265.31,-0.03 264.845,-0.506C264.38,-0.982 264.147,-1.644 264.147,-2.49L264.147,-7.786L263.019,-7.786L263.019,-9.015L264.147,-9.015L264.147,-10.65L265.783,-10.808L265.783,-9.015L268.14,-9.015L268.14,-7.786L265.783,-7.786L265.783,-2.789C265.783,-1.61 266.292,-1.021 267.31,-1.021C267.526,-1.021 267.789,-1.057 268.099,-1.129L268.099,0C267.595,0.138 267.158,0.208 266.787,0.208Z" style="fill:rgb(42,63,95);fill-rule:nonzero;"/>
                <path d="M273.967,0.208C272.678,0.208 271.649,-0.22 270.879,-1.075C270.11,-1.93 269.726,-3.074 269.726,-4.507C269.726,-5.957 270.112,-7.104 270.884,-7.948C271.656,-8.792 272.703,-9.214 274.025,-9.214C275.348,-9.214 276.395,-8.792 277.167,-7.948C277.939,-7.104 278.325,-5.963 278.325,-4.524C278.325,-3.052 277.938,-1.895 277.163,-1.054C276.388,-0.213 275.323,0.208 273.967,0.208ZM273.992,-1.021C275.724,-1.021 276.59,-2.189 276.59,-4.524C276.59,-6.832 275.735,-7.985 274.025,-7.985C272.321,-7.985 271.469,-6.826 271.469,-4.507C271.469,-2.183 272.31,-1.021 273.992,-1.021Z" style="fill:rgb(42,63,95);fill-rule:nonzero;"/>
                <path d="M280.882,0L280.882,-9.015L282.517,-9.015L282.517,-7.321C283.165,-8.583 284.105,-9.214 285.339,-9.214C285.505,-9.214 285.68,-9.2 285.862,-9.172L285.862,-7.645C285.58,-7.739 285.331,-7.786 285.115,-7.786C284.08,-7.786 283.214,-7.172 282.517,-5.943L282.517,0L280.882,0Z" style="fill:rgb(42,63,95);fill-rule:nonzero;"/>
                <path d="M296.736,0.208C295.519,0.208 294.509,-0.243 293.707,-1.146C292.904,-2.048 292.503,-3.185 292.503,-4.557C292.503,-6.024 292.9,-7.166 293.694,-7.985C294.488,-8.804 295.596,-9.214 297.019,-9.214C297.721,-9.214 298.507,-9.117 299.376,-8.923L299.376,-7.554C298.452,-7.825 297.699,-7.96 297.118,-7.96C296.283,-7.96 295.612,-7.646 295.105,-7.018C294.599,-6.39 294.346,-5.553 294.346,-4.507C294.346,-3.495 294.606,-2.676 295.126,-2.05C295.646,-1.425 296.327,-1.112 297.168,-1.112C297.915,-1.112 298.684,-1.303 299.476,-1.685L299.476,-0.274C298.419,0.047 297.506,0.208 296.736,0.208Z" style="fill:rgb(42,63,95);fill-rule:nonzero;"/>
                <path d="M305.452,0.208C304.163,0.208 303.133,-0.22 302.364,-1.075C301.595,-1.93 301.21,-3.074 301.21,-4.507C301.21,-5.957 301.596,-7.104 302.368,-7.948C303.14,-8.792 304.188,-9.214 305.51,-9.214C306.833,-9.214 307.88,-8.792 308.652,-7.948C309.424,-7.104 309.81,-5.963 309.81,-4.524C309.81,-3.052 309.423,-1.895 308.648,-1.054C307.873,-0.213 306.808,0.208 305.452,0.208ZM305.477,-1.021C307.209,-1.021 308.075,-2.189 308.075,-4.524C308.075,-6.832 307.22,-7.985 305.51,-7.985C303.806,-7.985 302.954,-6.826 302.954,-4.507C302.954,-2.183 303.795,-1.021 305.477,-1.021Z" style="fill:rgb(42,63,95);fill-rule:nonzero;"/>
                <rect x="312.367" y="-13.107" width="1.635" height="13.107" style="fill:rgb(42,63,95);"/>
                <path d="M320.809,0.208C319.519,0.208 318.49,-0.22 317.721,-1.075C316.951,-1.93 316.567,-3.074 316.567,-4.507C316.567,-5.957 316.953,-7.104 317.725,-7.948C318.497,-8.792 319.544,-9.214 320.867,-9.214C322.189,-9.214 323.237,-8.792 324.009,-7.948C324.781,-7.104 325.167,-5.963 325.167,-4.524C325.167,-3.052 324.779,-1.895 324.004,-1.054C323.23,-0.213 322.164,0.208 320.809,0.208ZM320.833,-1.021C322.566,-1.021 323.432,-2.189 323.432,-4.524C323.432,-6.832 322.577,-7.985 320.867,-7.985C319.162,-7.985 318.31,-6.826 318.31,-4.507C318.31,-2.183 319.151,-1.021 320.833,-1.021Z" style="fill:rgb(42,63,95);fill-rule:nonzero;"/>
                <path d="M327.723,0L327.723,-9.015L329.358,-9.015L329.358,-7.321C330.155,-8.583 331.179,-9.214 332.43,-9.214C333.636,-9.214 334.458,-8.583 334.895,-7.321C335.67,-8.589 336.677,-9.222 337.917,-9.222C338.713,-9.222 339.33,-8.988 339.768,-8.521C340.205,-8.053 340.423,-7.399 340.423,-6.558L340.423,0L338.78,0L338.78,-6.3C338.78,-7.33 338.373,-7.844 337.56,-7.844C336.713,-7.844 335.825,-7.244 334.895,-6.043L334.895,0L333.251,0L333.251,-6.3C333.251,-7.335 332.836,-7.853 332.006,-7.853C331.182,-7.853 330.299,-7.249 329.358,-6.043L329.358,0L327.723,0Z" style="fill:rgb(42,63,95);fill-rule:nonzero;"/>
                <path d="M343.594,0.1L343.594,-13.107L345.229,-13.107L345.229,-7.321C345.899,-8.583 346.903,-9.214 348.243,-9.214C349.327,-9.214 350.181,-8.818 350.803,-8.027C351.426,-7.236 351.737,-6.154 351.737,-4.781C351.737,-3.287 351.385,-2.082 350.679,-1.166C349.973,-0.25 349.045,0.208 347.894,0.208C346.826,0.208 345.938,-0.202 345.229,-1.021L345.03,0.1L343.594,0.1ZM345.229,-2.15C346.071,-1.397 346.873,-1.021 347.637,-1.021C349.208,-1.021 349.994,-2.219 349.994,-4.615C349.994,-6.729 349.297,-7.786 347.902,-7.786C346.989,-7.786 346.098,-7.291 345.229,-6.3L345.229,-2.15Z" style="fill:rgb(42,63,95);fill-rule:nonzero;"/>
                <path d="M354.294,0L354.294,-9.015L355.929,-9.015L355.929,0L354.294,0ZM354.294,-10.65L354.294,-12.285L355.929,-12.285L355.929,-10.65L354.294,-10.65Z" style="fill:rgb(42,63,95);fill-rule:nonzero;"/>
                <path d="M363.856,-1.146C362.877,-0.243 361.933,0.208 361.026,0.208C360.279,0.208 359.659,-0.026 359.167,-0.494C358.674,-0.962 358.428,-1.552 358.428,-2.266C358.428,-3.251 358.841,-4.008 359.669,-4.536C360.496,-5.065 361.682,-5.329 363.226,-5.329L363.616,-5.329L363.616,-6.417C363.616,-7.462 363.079,-7.985 362.005,-7.985C361.142,-7.985 360.21,-7.72 359.208,-7.188L359.208,-8.542C360.309,-8.99 361.341,-9.214 362.304,-9.214C363.311,-9.214 364.054,-8.987 364.533,-8.533C365.012,-8.079 365.251,-7.374 365.251,-6.417L365.251,-2.333C365.251,-1.397 365.539,-0.93 366.114,-0.93C366.186,-0.93 366.291,-0.941 366.43,-0.963L366.546,-0.058C366.175,0.119 365.766,0.208 365.317,0.208C364.554,0.208 364.067,-0.243 363.856,-1.146ZM363.616,-2.034L363.616,-4.366L363.068,-4.383C362.171,-4.383 361.446,-4.213 360.893,-3.872C360.34,-3.532 360.063,-3.085 360.063,-2.532C360.063,-2.139 360.201,-1.807 360.478,-1.536C360.755,-1.264 361.092,-1.129 361.491,-1.129C362.171,-1.129 362.88,-1.431 363.616,-2.034Z" style="fill:rgb(42,63,95);fill-rule:nonzero;"/>
                <path d="M368.596,0L368.596,-9.015L370.231,-9.015L370.231,-7.321C371.095,-8.583 372.152,-9.214 373.402,-9.214C374.183,-9.214 374.805,-8.966 375.27,-8.471C375.735,-7.976 375.967,-7.31 375.967,-6.475L375.967,0L374.332,0L374.332,-5.943C374.332,-6.613 374.234,-7.09 374.037,-7.375C373.841,-7.66 373.516,-7.803 373.062,-7.803C372.06,-7.803 371.117,-7.147 370.231,-5.835L370.231,0L368.596,0Z" style="fill:rgb(42,63,95);fill-rule:nonzero;"/>
                <path d="M382.674,0.208C381.385,0.208 380.356,-0.22 379.586,-1.075C378.817,-1.93 378.433,-3.074 378.433,-4.507C378.433,-5.957 378.819,-7.104 379.591,-7.948C380.363,-8.792 381.41,-9.214 382.732,-9.214C384.055,-9.214 385.102,-8.792 385.874,-7.948C386.646,-7.104 387.032,-5.963 387.032,-4.524C387.032,-3.052 386.645,-1.895 385.87,-1.054C385.095,-0.213 384.03,0.208 382.674,0.208ZM382.699,-1.021C384.431,-1.021 385.297,-2.189 385.297,-4.524C385.297,-6.832 384.442,-7.985 382.732,-7.985C381.028,-7.985 380.176,-6.826 380.176,-4.507C380.176,-2.183 381.017,-1.021 382.699,-1.021Z" style="fill:rgb(42,63,95);fill-rule:nonzero;"/>
                <path d="M394.968,3.279L394.968,-9.015L396.603,-9.015L396.603,-7.321C397.273,-8.583 398.277,-9.214 399.616,-9.214C400.701,-9.214 401.554,-8.818 402.177,-8.027C402.8,-7.236 403.111,-6.154 403.111,-4.781C403.111,-3.287 402.758,-2.082 402.052,-1.166C401.347,-0.25 400.419,0.208 399.268,0.208C398.2,0.208 397.311,-0.202 396.603,-1.021L396.603,3.279L394.968,3.279ZM396.603,-2.15C397.444,-1.397 398.247,-1.021 399.01,-1.021C400.582,-1.021 401.368,-2.219 401.368,-4.615C401.368,-6.729 400.67,-7.786 399.276,-7.786C398.363,-7.786 397.472,-7.291 396.603,-6.3L396.603,-2.15Z" style="fill:rgb(42,63,95);fill-rule:nonzero;"/>
                <path d="M409.195,0.208C407.906,0.208 406.877,-0.22 406.107,-1.075C405.338,-1.93 404.954,-3.074 404.954,-4.507C404.954,-5.957 405.34,-7.104 406.112,-7.948C406.884,-8.792 407.931,-9.214 409.253,-9.214C410.576,-9.214 411.623,-8.792 412.395,-7.948C413.167,-7.104 413.553,-5.963 413.553,-4.524C413.553,-3.052 413.166,-1.895 412.391,-1.054C411.616,-0.213 410.551,0.208 409.195,0.208ZM409.22,-1.021C410.952,-1.021 411.818,-2.189 411.818,-4.524C411.818,-6.832 410.963,-7.985 409.253,-7.985C407.549,-7.985 406.697,-6.826 406.697,-4.507C406.697,-2.183 407.538,-1.021 409.22,-1.021Z" style="fill:rgb(42,63,95);fill-rule:nonzero;"/>
                <path d="M416.11,0L416.11,-9.015L417.745,-9.015L417.745,-7.321C418.393,-8.583 419.333,-9.214 420.567,-9.214C420.733,-9.214 420.908,-9.2 421.09,-9.172L421.09,-7.645C420.808,-7.739 420.559,-7.786 420.343,-7.786C419.308,-7.786 418.442,-7.172 417.745,-5.943L417.745,0L416.11,0Z" style="fill:rgb(42,63,95);fill-rule:nonzero;"/>
                <path d="M431.151,0.208C430.321,0.208 429.673,-0.03 429.208,-0.506C428.744,-0.982 428.511,-1.644 428.511,-2.49L428.511,-7.786L427.382,-7.786L427.382,-9.015L428.511,-9.015L428.511,-10.65L430.146,-10.808L430.146,-9.015L432.504,-9.015L432.504,-7.786L430.146,-7.786L430.146,-2.789C430.146,-1.61 430.656,-1.021 431.674,-1.021C431.89,-1.021 432.153,-1.057 432.462,-1.129L432.462,0C431.959,0.138 431.522,0.208 431.151,0.208Z" style="fill:rgb(42,63,95);fill-rule:nonzero;"/>
                <path d="M434.803,0L434.803,-9.015L436.438,-9.015L436.438,0L434.803,0ZM434.803,-10.65L434.803,-12.285L436.438,-12.285L436.438,-10.65L434.803,-10.65Z" style="fill:rgb(42,63,95);fill-rule:nonzero;"/>
                <path d="M439.717,3.279L439.717,-9.015L441.353,-9.015L441.353,-7.321C442.022,-8.583 443.027,-9.214 444.366,-9.214C445.45,-9.214 446.304,-8.818 446.927,-8.027C447.549,-7.236 447.86,-6.154 447.86,-4.781C447.86,-3.287 447.508,-2.082 446.802,-1.166C446.096,-0.25 445.168,0.208 444.017,0.208C442.949,0.208 442.061,-0.202 441.353,-1.021L441.353,3.279L439.717,3.279ZM441.353,-2.15C442.194,-1.397 442.996,-1.021 443.76,-1.021C445.331,-1.021 446.117,-2.219 446.117,-4.615C446.117,-6.729 445.42,-7.786 444.025,-7.786C443.112,-7.786 442.221,-7.291 441.353,-6.3L441.353,-2.15Z" style="fill:rgb(42,63,95);fill-rule:nonzero;"/>
                <path d="M453.945,0.208C452.655,0.208 451.626,-0.22 450.857,-1.075C450.088,-1.93 449.703,-3.074 449.703,-4.507C449.703,-5.957 450.089,-7.104 450.861,-7.948C451.633,-8.792 452.68,-9.214 454.003,-9.214C455.326,-9.214 456.373,-8.792 457.145,-7.948C457.917,-7.104 458.303,-5.963 458.303,-4.524C458.303,-3.052 457.915,-1.895 457.141,-1.054C456.366,-0.213 455.301,0.208 453.945,0.208ZM453.97,-1.021C455.702,-1.021 456.568,-2.189 456.568,-4.524C456.568,-6.832 455.713,-7.985 454.003,-7.985C452.299,-7.985 451.446,-6.826 451.446,-4.507C451.446,-2.183 452.287,-1.021 453.97,-1.021Z" style="fill:rgb(42,63,95);fill-rule:nonzero;"/>
                <path d="M472.024,0L472.024,-1.693C471.36,-0.426 470.358,0.208 469.019,0.208C467.934,0.208 467.081,-0.188 466.458,-0.979C465.836,-1.771 465.524,-2.853 465.524,-4.225C465.524,-5.725 465.877,-6.931 466.583,-7.844C467.288,-8.757 468.217,-9.214 469.368,-9.214C470.436,-9.214 471.321,-8.804 472.024,-7.985L472.024,-13.107L473.667,-13.107L473.667,0L472.024,0ZM472.024,-6.865C471.177,-7.612 470.375,-7.985 469.617,-7.985C468.051,-7.985 467.268,-6.787 467.268,-4.391C467.268,-2.283 467.965,-1.229 469.359,-1.229C470.267,-1.229 471.155,-1.724 472.024,-2.714L472.024,-6.865Z" style="fill:rgb(42,63,95);fill-rule:nonzero;"/>
                <path d="M483.545,-0.291C482.45,0.042 481.512,0.208 480.731,0.208C479.403,0.208 478.32,-0.234 477.482,-1.116C476.643,-1.999 476.224,-3.143 476.224,-4.549C476.224,-5.916 476.594,-7.036 477.332,-7.911C478.071,-8.785 479.016,-9.222 480.167,-9.222C481.257,-9.222 482.1,-8.835 482.695,-8.06C483.289,-7.285 483.587,-6.184 483.587,-4.756L483.579,-4.25L477.893,-4.25C478.131,-2.108 479.179,-1.038 481.039,-1.038C481.719,-1.038 482.555,-1.22 483.545,-1.585L483.545,-0.291ZM477.967,-5.479L481.943,-5.479C481.943,-7.155 481.318,-7.994 480.067,-7.994C478.811,-7.994 478.111,-7.155 477.967,-5.479Z" style="fill:rgb(42,63,95);fill-rule:nonzero;"/>
                <path d="M495.308,0.208C494.09,0.208 493.08,-0.243 492.278,-1.146C491.475,-2.048 491.074,-3.185 491.074,-4.557C491.074,-6.024 491.471,-7.166 492.265,-7.985C493.059,-8.804 494.168,-9.214 495.59,-9.214C496.293,-9.214 497.078,-9.117 497.947,-8.923L497.947,-7.554C497.023,-7.825 496.271,-7.96 495.689,-7.96C494.854,-7.96 494.183,-7.646 493.677,-7.018C493.17,-6.39 492.917,-5.553 492.917,-4.507C492.917,-3.495 493.177,-2.676 493.697,-2.05C494.217,-1.425 494.898,-1.112 495.739,-1.112C496.486,-1.112 497.256,-1.303 498.047,-1.685L498.047,-0.274C496.99,0.047 496.077,0.208 495.308,0.208Z" style="fill:rgb(42,63,95);fill-rule:nonzero;"/>
                <path d="M504.023,0.208C502.734,0.208 501.705,-0.22 500.936,-1.075C500.166,-1.93 499.782,-3.074 499.782,-4.507C499.782,-5.957 500.168,-7.104 500.94,-7.948C501.712,-8.792 502.759,-9.214 504.082,-9.214C505.404,-9.214 506.451,-8.792 507.223,-7.948C507.995,-7.104 508.381,-5.963 508.381,-4.524C508.381,-3.052 507.994,-1.895 507.219,-1.054C506.444,-0.213 505.379,0.208 504.023,0.208ZM504.048,-1.021C505.78,-1.021 506.646,-2.189 506.646,-4.524C506.646,-6.832 505.792,-7.985 504.082,-7.985C502.377,-7.985 501.525,-6.826 501.525,-4.507C501.525,-2.183 502.366,-1.021 504.048,-1.021Z" style="fill:rgb(42,63,95);fill-rule:nonzero;"/>
                <path d="M510.938,0L510.938,-9.015L512.573,-9.015L512.573,-7.321C513.37,-8.583 514.394,-9.214 515.645,-9.214C516.851,-9.214 517.673,-8.583 518.11,-7.321C518.885,-8.589 519.892,-9.222 521.131,-9.222C521.928,-9.222 522.545,-8.988 522.982,-8.521C523.42,-8.053 523.638,-7.399 523.638,-6.558L523.638,0L521.995,0L521.995,-6.3C521.995,-7.33 521.588,-7.844 520.774,-7.844C519.928,-7.844 519.04,-7.244 518.11,-6.043L518.11,0L516.466,0L516.466,-6.3C516.466,-7.335 516.051,-7.853 515.221,-7.853C514.397,-7.853 513.514,-7.249 512.573,-6.043L512.573,0L510.938,0Z" style="fill:rgb(42,63,95);fill-rule:nonzero;"/>
                <path d="M526.809,0.1L526.809,-13.107L528.444,-13.107L528.444,-7.321C529.114,-8.583 530.118,-9.214 531.458,-9.214C532.542,-9.214 533.396,-8.818 534.018,-8.027C534.641,-7.236 534.952,-6.154 534.952,-4.781C534.952,-3.287 534.599,-2.082 533.894,-1.166C533.188,-0.25 532.26,0.208 531.109,0.208C530.041,0.208 529.153,-0.202 528.444,-1.021L528.245,0.1L526.809,0.1ZM528.444,-2.15C529.285,-1.397 530.088,-1.021 530.852,-1.021C532.423,-1.021 533.209,-2.219 533.209,-4.615C533.209,-6.729 532.512,-7.786 531.117,-7.786C530.204,-7.786 529.313,-7.291 528.444,-6.3L528.444,-2.15Z" style="fill:rgb(42,63,95);fill-rule:nonzero;"/>
                <path d="M543.145,0L543.145,-1.693C542.276,-0.426 541.222,0.208 539.982,0.208C539.197,0.208 538.571,-0.04 538.106,-0.535C537.642,-1.031 537.409,-1.699 537.409,-2.54L537.409,-9.015L539.044,-9.015L539.044,-3.071C539.044,-2.396 539.143,-1.916 539.339,-1.631C539.536,-1.346 539.863,-1.204 540.323,-1.204C541.319,-1.204 542.26,-1.859 543.145,-3.171L543.145,-9.015L544.78,-9.015L544.78,0L543.145,0Z" style="fill:rgb(42,63,95);fill-rule:nonzero;"/>
                <path d="M550.45,0.208C549.703,0.208 548.795,0.033 547.727,-0.315L547.727,-1.818C548.795,-1.287 549.725,-1.021 550.516,-1.021C550.986,-1.021 551.377,-1.148 551.687,-1.403C551.996,-1.657 552.151,-1.976 552.151,-2.357C552.151,-2.916 551.717,-3.378 550.848,-3.744L549.894,-4.15C548.482,-4.737 547.777,-5.581 547.777,-6.682C547.777,-7.468 548.055,-8.086 548.611,-8.537C549.167,-8.988 549.93,-9.214 550.898,-9.214C551.402,-9.214 552.024,-9.145 552.766,-9.006L553.106,-8.94L553.106,-7.579C552.193,-7.85 551.468,-7.985 550.931,-7.985C549.88,-7.985 549.354,-7.604 549.354,-6.84C549.354,-6.347 549.752,-5.932 550.549,-5.595L551.338,-5.263C552.229,-4.886 552.86,-4.489 553.23,-4.072C553.601,-3.654 553.787,-3.132 553.787,-2.507C553.787,-1.715 553.474,-1.065 552.849,-0.556C552.223,-0.047 551.424,0.208 550.45,0.208Z" style="fill:rgb(42,63,95);fill-rule:nonzero;"/>
                <path d="M559.431,0.208C558.601,0.208 557.954,-0.03 557.489,-0.506C557.024,-0.982 556.792,-1.644 556.792,-2.49L556.792,-7.786L555.663,-7.786L555.663,-9.015L556.792,-9.015L556.792,-10.65L558.427,-10.808L558.427,-9.015L560.784,-9.015L560.784,-7.786L558.427,-7.786L558.427,-2.789C558.427,-1.61 558.936,-1.021 559.954,-1.021C560.17,-1.021 560.433,-1.057 560.743,-1.129L560.743,0C560.239,0.138 559.802,0.208 559.431,0.208Z" style="fill:rgb(42,63,95);fill-rule:nonzero;"/>
                <path d="M563.083,0L563.083,-9.015L564.719,-9.015L564.719,0L563.083,0ZM563.083,-10.65L563.083,-12.285L564.719,-12.285L564.719,-10.65L563.083,-10.65Z" style="fill:rgb(42,63,95);fill-rule:nonzero;"/>
                <path d="M567.998,0.1L567.998,-13.107L569.633,-13.107L569.633,-7.321C570.302,-8.583 571.307,-9.214 572.646,-9.214C573.731,-9.214 574.584,-8.818 575.207,-8.027C575.829,-7.236 576.141,-6.154 576.141,-4.781C576.141,-3.287 575.788,-2.082 575.082,-1.166C574.377,-0.25 573.448,0.208 572.297,0.208C571.229,0.208 570.341,-0.202 569.633,-1.021L569.434,0.1L567.998,0.1ZM569.633,-2.15C570.474,-1.397 571.276,-1.021 572.04,-1.021C573.612,-1.021 574.397,-2.219 574.397,-4.615C574.397,-6.729 573.7,-7.786 572.306,-7.786C571.393,-7.786 570.502,-7.291 569.633,-6.3L569.633,-2.15Z" style="fill:rgb(42,63,95);fill-rule:nonzero;"/>
                <rect x="578.697" y="-13.107" width="1.635" height="13.107" style="fill:rgb(42,63,95);"/>
                <path d="M590.219,-0.291C589.123,0.042 588.185,0.208 587.405,0.208C586.077,0.208 584.993,-0.234 584.155,-1.116C583.317,-1.999 582.897,-3.143 582.897,-4.549C582.897,-5.916 583.267,-7.036 584.006,-7.911C584.744,-8.785 585.689,-9.222 586.84,-9.222C587.931,-9.222 588.773,-8.835 589.368,-8.06C589.963,-7.285 590.26,-6.184 590.26,-4.756L590.252,-4.25L584.566,-4.25C584.804,-2.108 585.853,-1.038 587.712,-1.038C588.393,-1.038 589.228,-1.22 590.219,-1.585L590.219,-0.291ZM584.641,-5.479L588.617,-5.479C588.617,-7.155 587.991,-7.994 586.741,-7.994C585.485,-7.994 584.785,-7.155 584.641,-5.479Z" style="fill:rgb(42,63,95);fill-rule:nonzero;"/>
            </g>
        </g>
    </g>
</svg>
