<?xml version="1.0" encoding="UTF-8" standalone="no"?>
<!DOCTYPE svg PUBLIC "-//W3C//DTD SVG 1.1//EN" "http://www.w3.org/Graphics/SVG/1.1/DTD/svg11.dtd">
<svg width="100%" height="100%" viewBox="0 0 442 238" version="1.1" xmlns="http://www.w3.org/2000/svg" xmlns:xlink="http://www.w3.org/1999/xlink" xml:space="preserve" xmlns:serif="http://www.serif.com/" style="fill-rule:evenodd;clip-rule:evenodd;stroke-miterlimit:10;">
    <g transform="matrix(1,0,0,1,-96.4048,-147.536)">
        <clipPath id="_clip1">
            <rect x="100.764" y="150.049" width="410.472" height="231.999" clip-rule="nonzero"/>
        </clipPath>
        <g clip-path="url(#_clip1)">
            <g transform="matrix(-1,0,0,1,101.43,286.205)">
                <path d="M-45.019,0L0,0" style="fill:none;fill-rule:nonzero;stroke:rgb(239,85,59);stroke-width:1px;"/>
            </g>
            <g transform="matrix(-0.35837,0.933579,0.933579,0.35837,155.638,331.98)">
                <path d="M-57.418,44.633L20.437,44.633C20.438,1.635 -14.419,-33.222 -57.418,-33.222C-90.311,-33.222 -118.313,-13.977 -130.102,16.732L-57.418,44.633Z" style="fill:rgb(239,85,59);fill-rule:nonzero;"/>
            </g>
            <g transform="matrix(0.956304,0.292373,0.292373,-0.956304,231.622,289.467)">
                <path d="M-11.705,-8.707L66.151,-8.707C66.151,-51.705 31.294,-86.562 -11.705,-86.563C-13.554,-86.562 -15.291,-86.502 -17.136,-86.372L-11.705,-8.707Z" style="fill:rgb(99,110,251);fill-rule:nonzero;"/>
            </g>
            <g transform="matrix(1,0,0,1,217.883,279.389)">
                <path d="M0,14.982L68.094,-22.763C78.663,-3.696 80.828,16.897 74.454,37.745L0,14.982Z" style="fill:rgb(171,99,250);fill-rule:nonzero;"/>
            </g>
            <g transform="matrix(1,0,0,1,217.883,221.686)">
                <path d="M0,72.685L27.901,0C45.925,6.919 58.734,18.054 68.094,34.94L0,72.685Z" style="fill:rgb(0,204,150);fill-rule:nonzero;"/>
            </g>
            <g transform="matrix(1,0,0,1,217.883,216.516)">
                <path d="M0,77.855L0,0C10.062,0 18.508,1.565 27.901,5.17L0,77.855Z" style="fill:rgb(255,160,90);fill-rule:nonzero;"/>
            </g>
            <g transform="matrix(0,-1,-1,0,217.96,234.854)">
                <path d="M-59.527,-59.527C-92.403,-59.527 -119.054,-32.876 -119.054,0.001C-119.054,32.877 -92.403,59.527 -59.527,59.527C-26.651,59.527 -0,32.877 -0,0.001C-0,-32.876 -26.651,-59.527 -59.527,-59.527" style="fill:white;fill-rule:nonzero;"/>
            </g>
            <g transform="matrix(1,0,0,1,0,-65.9)">
                <rect x="396.166" y="424.698" width="8.504" height="8.504" style="fill:rgb(0,204,150);"/>
            </g>
            <g transform="matrix(1,0,0,1,0,-37.984)">
                <rect x="396.166" y="410.74" width="8.504" height="8.504" style="fill:rgb(255,160,90);"/>
            </g>
            <g transform="matrix(1,0,0,1,0,-121.732)">
                <rect x="396.166" y="452.614" width="8.504" height="8.504" style="fill:rgb(99,110,251);"/>
            </g>
            <g transform="matrix(1,0,0,1,0,-93.816)">
                <rect x="396.166" y="438.656" width="8.504" height="8.504" style="fill:rgb(171,99,250);"/>
            </g>
            <g transform="matrix(1,0,0,1,0,-149.648)">
                <rect x="396.166" y="466.572" width="8.504" height="8.504" style="fill:rgb(239,85,59);"/>
            </g>
            <g>
                <g transform="matrix(10,0,0,10,100.764,298.884)">
                    <path d="M0.124,-0.003L0.124,-0.108C0.186,-0.084 0.237,-0.072 0.278,-0.072C0.319,-0.072 0.352,-0.085 0.376,-0.109C0.4,-0.134 0.413,-0.167 0.413,-0.209C0.413,-0.313 0.338,-0.364 0.189,-0.364C0.172,-0.364 0.154,-0.363 0.137,-0.36L0.137,-0.723L0.552,-0.723L0.552,-0.608L0.242,-0.608L0.235,-0.453C0.339,-0.453 0.42,-0.431 0.479,-0.389C0.537,-0.346 0.566,-0.286 0.566,-0.21C0.566,-0.139 0.541,-0.084 0.49,-0.043C0.439,-0.002 0.369,0.018 0.28,0.018C0.242,0.018 0.19,0.011 0.124,-0.003Z" style="fill:rgb(239,85,59);fill-rule:nonzero;"/>
                </g>
                <g transform="matrix(10,0,0,10,105.739,298.884)">
                    <path d="M0.124,-0.003L0.124,-0.108C0.186,-0.084 0.237,-0.072 0.278,-0.072C0.319,-0.072 0.352,-0.085 0.376,-0.109C0.4,-0.134 0.413,-0.167 0.413,-0.209C0.413,-0.313 0.338,-0.364 0.189,-0.364C0.172,-0.364 0.154,-0.363 0.137,-0.36L0.137,-0.723L0.552,-0.723L0.552,-0.608L0.242,-0.608L0.235,-0.453C0.339,-0.453 0.42,-0.431 0.479,-0.389C0.537,-0.346 0.566,-0.286 0.566,-0.21C0.566,-0.139 0.541,-0.084 0.49,-0.043C0.439,-0.002 0.369,0.018 0.28,0.018C0.242,0.018 0.19,0.011 0.124,-0.003Z" style="fill:rgb(239,85,59);fill-rule:nonzero;"/>
                </g>
                <g transform="matrix(10,0,0,10,110.714,298.884)">
                    <path d="M0.327,0.018C0.245,0.018 0.178,-0.017 0.127,-0.087C0.075,-0.158 0.05,-0.249 0.05,-0.361C0.05,-0.475 0.076,-0.567 0.127,-0.636C0.178,-0.706 0.246,-0.741 0.33,-0.741C0.413,-0.741 0.481,-0.706 0.532,-0.636C0.584,-0.567 0.61,-0.476 0.61,-0.363C0.61,-0.248 0.584,-0.155 0.532,-0.086C0.481,-0.017 0.412,0.018 0.327,0.018ZM0.328,-0.072C0.414,-0.072 0.457,-0.169 0.457,-0.361C0.457,-0.554 0.414,-0.65 0.33,-0.65C0.246,-0.65 0.204,-0.554 0.204,-0.362C0.204,-0.169 0.245,-0.072 0.328,-0.072Z" style="fill:rgb(239,85,59);fill-rule:nonzero;"/>
                </g>
                <g transform="matrix(10,0,0,10,100.764,310.884)">
                    <path d="M0.141,-0L0.141,-0.084L0.285,-0.084L0.285,-0.618L0.141,-0.582L0.141,-0.668L0.43,-0.741L0.43,-0.084L0.575,-0.084L0.575,-0L0.141,-0Z" style="fill:rgb(157,157,156);fill-rule:nonzero;"/>
                </g>
                <g transform="matrix(10,0,0,10,105.539,310.884)">
                    <path d="M0.384,-0L0.384,-0.193L0.047,-0.193L0.047,-0.301L0.378,-0.723L0.511,-0.723L0.511,-0.301L0.595,-0.301L0.595,-0.193L0.511,-0.193L0.511,-0L0.384,-0ZM0.163,-0.301L0.387,-0.301L0.387,-0.584L0.163,-0.301Z" style="fill:rgb(157,157,156);fill-rule:nonzero;"/>
                </g>
                <g transform="matrix(10,0,0,10,110.315,310.884)">
                    <path d="M0.15,-0C0.157,-0.054 0.17,-0.102 0.19,-0.143C0.21,-0.184 0.255,-0.256 0.325,-0.358L0.495,-0.605L0.119,-0.605L0.119,-0.723L0.613,-0.723L0.613,-0.605C0.519,-0.486 0.444,-0.373 0.391,-0.265C0.337,-0.158 0.31,-0.07 0.31,-0L0.15,-0Z" style="fill:rgb(157,157,156);fill-rule:nonzero;"/>
                </g>
            </g>
            <g transform="matrix(12,0,0,12,205.792,174.195)">
                <path d="M0.072,-0L0.072,-0.114L0.08,-0.125C0.118,-0.177 0.158,-0.22 0.199,-0.256L0.258,-0.308C0.355,-0.394 0.404,-0.469 0.404,-0.534C0.404,-0.61 0.361,-0.647 0.275,-0.647C0.222,-0.647 0.16,-0.63 0.09,-0.594L0.09,-0.7C0.164,-0.727 0.235,-0.741 0.304,-0.741C0.381,-0.741 0.442,-0.723 0.488,-0.686C0.535,-0.65 0.558,-0.601 0.558,-0.541C0.558,-0.499 0.546,-0.46 0.524,-0.426C0.501,-0.391 0.462,-0.351 0.405,-0.306L0.356,-0.267C0.288,-0.212 0.248,-0.161 0.235,-0.114L0.555,-0.114L0.555,-0L0.072,-0Z" style="fill-rule:nonzero;"/>
            </g>
            <g transform="matrix(12,0,0,12,211.876,174.195)">
                <path d="M0.327,0.018C0.245,0.018 0.178,-0.017 0.127,-0.087C0.075,-0.158 0.05,-0.249 0.05,-0.361C0.05,-0.475 0.076,-0.567 0.127,-0.636C0.178,-0.706 0.246,-0.741 0.33,-0.741C0.413,-0.741 0.481,-0.706 0.532,-0.636C0.584,-0.567 0.61,-0.476 0.61,-0.363C0.61,-0.248 0.584,-0.155 0.532,-0.086C0.481,-0.017 0.412,0.018 0.327,0.018ZM0.328,-0.072C0.414,-0.072 0.457,-0.169 0.457,-0.361C0.457,-0.554 0.414,-0.65 0.33,-0.65C0.246,-0.65 0.204,-0.554 0.204,-0.362C0.204,-0.169 0.245,-0.072 0.328,-0.072Z" style="fill-rule:nonzero;"/>
            </g>
            <g transform="matrix(12,0,0,12,217.96,174.195)">
                <path d="M0.141,-0L0.141,-0.084L0.285,-0.084L0.285,-0.618L0.141,-0.582L0.141,-0.668L0.43,-0.741L0.43,-0.084L0.575,-0.084L0.575,-0L0.141,-0Z" style="fill-rule:nonzero;"/>
            </g>
            <g transform="matrix(12,0,0,12,224.044,174.195)">
                <path d="M0.102,-0.005L0.102,-0.11C0.163,-0.085 0.221,-0.072 0.274,-0.072C0.331,-0.072 0.376,-0.096 0.409,-0.143C0.442,-0.191 0.458,-0.255 0.458,-0.337C0.413,-0.282 0.356,-0.254 0.289,-0.254C0.225,-0.254 0.172,-0.276 0.128,-0.32C0.085,-0.364 0.063,-0.418 0.063,-0.483C0.063,-0.558 0.088,-0.62 0.137,-0.668C0.186,-0.717 0.249,-0.741 0.325,-0.741C0.414,-0.741 0.484,-0.709 0.534,-0.646C0.585,-0.582 0.61,-0.494 0.61,-0.383C0.61,-0.258 0.581,-0.16 0.521,-0.089C0.461,-0.017 0.379,0.018 0.274,0.018C0.23,0.018 0.172,0.01 0.102,-0.005ZM0.208,-0.505C0.208,-0.455 0.219,-0.416 0.24,-0.387C0.262,-0.358 0.292,-0.343 0.329,-0.343C0.364,-0.343 0.393,-0.356 0.417,-0.383C0.442,-0.409 0.454,-0.442 0.454,-0.48C0.454,-0.531 0.442,-0.572 0.418,-0.604C0.395,-0.635 0.364,-0.65 0.325,-0.65C0.289,-0.65 0.261,-0.637 0.24,-0.611C0.219,-0.585 0.208,-0.55 0.208,-0.505Z" style="fill-rule:nonzero;"/>
            </g>
            <g>
                <g transform="matrix(8,0,0,8,410.597,323.369)">
                    <path d="M0.27,-0L0.27,-0.624L0.011,-0.624L0.011,-0.723L0.679,-0.723L0.679,-0.624L0.42,-0.624L0.42,-0L0.27,-0Z" style="fill-rule:nonzero;"/>
                </g>
                <g transform="matrix(8,0,0,8,415.957,323.369)">
                    <path d="M0.09,-0L0.09,-0.536L0.235,-0.536L0.235,-0.435C0.272,-0.511 0.329,-0.548 0.406,-0.548C0.415,-0.548 0.424,-0.547 0.433,-0.545L0.433,-0.417C0.412,-0.424 0.393,-0.428 0.375,-0.428C0.318,-0.428 0.271,-0.399 0.235,-0.34L0.235,-0L0.09,-0Z" style="fill-rule:nonzero;"/>
                </g>
                <g transform="matrix(8,0,0,8,419.434,323.369)">
                    <path d="M0.353,-0.058C0.305,-0.011 0.253,0.012 0.198,0.012C0.151,0.012 0.113,-0.002 0.084,-0.031C0.055,-0.059 0.04,-0.097 0.04,-0.142C0.04,-0.201 0.064,-0.247 0.111,-0.279C0.158,-0.311 0.226,-0.327 0.314,-0.327L0.353,-0.327L0.353,-0.376C0.353,-0.432 0.321,-0.459 0.258,-0.459C0.201,-0.459 0.145,-0.444 0.087,-0.412L0.087,-0.511C0.152,-0.536 0.217,-0.548 0.281,-0.548C0.422,-0.548 0.492,-0.493 0.492,-0.381L0.492,-0.144C0.492,-0.102 0.505,-0.081 0.532,-0.081C0.537,-0.081 0.543,-0.081 0.551,-0.083L0.555,-0.001C0.524,0.008 0.497,0.012 0.474,0.012C0.414,0.012 0.376,-0.011 0.359,-0.058L0.353,-0.058ZM0.353,-0.135L0.353,-0.244L0.319,-0.244C0.225,-0.244 0.179,-0.215 0.179,-0.156C0.179,-0.136 0.185,-0.12 0.199,-0.106C0.212,-0.093 0.229,-0.086 0.249,-0.086C0.283,-0.086 0.318,-0.102 0.353,-0.135Z" style="fill-rule:nonzero;"/>
                </g>
                <g transform="matrix(8,0,0,8,423.977,323.369)">
                    <path d="M0.09,-0L0.09,-0.536L0.235,-0.536L0.235,-0.435C0.282,-0.511 0.343,-0.548 0.417,-0.548C0.465,-0.548 0.503,-0.533 0.531,-0.503C0.558,-0.473 0.572,-0.431 0.572,-0.379L0.572,-0L0.428,-0L0.428,-0.343C0.428,-0.404 0.408,-0.435 0.367,-0.435C0.321,-0.435 0.277,-0.402 0.235,-0.337L0.235,-0L0.09,-0Z" style="fill-rule:nonzero;"/>
                </g>
                <g transform="matrix(8,0,0,8,429.071,323.369)">
                    <path d="M0.076,-0.017L0.076,-0.123C0.148,-0.093 0.209,-0.078 0.26,-0.078C0.319,-0.078 0.349,-0.098 0.349,-0.139C0.349,-0.165 0.324,-0.188 0.275,-0.207L0.227,-0.227C0.174,-0.248 0.136,-0.271 0.113,-0.296C0.09,-0.321 0.079,-0.351 0.079,-0.388C0.079,-0.438 0.098,-0.478 0.137,-0.506C0.175,-0.534 0.23,-0.548 0.299,-0.548C0.343,-0.548 0.395,-0.542 0.455,-0.529L0.455,-0.428C0.397,-0.448 0.349,-0.458 0.311,-0.458C0.251,-0.458 0.221,-0.439 0.221,-0.402C0.221,-0.378 0.243,-0.357 0.288,-0.34L0.33,-0.324C0.392,-0.3 0.436,-0.276 0.461,-0.252C0.485,-0.228 0.498,-0.196 0.498,-0.158C0.498,-0.107 0.477,-0.066 0.435,-0.035C0.393,-0.003 0.339,0.012 0.271,0.012C0.207,0.012 0.142,0.002 0.076,-0.017Z" style="fill-rule:nonzero;"/>
                </g>
                <g transform="matrix(8,0,0,8,433.434,323.369)">
                    <path d="M0.09,0.193L0.09,-0.536L0.235,-0.536L0.235,-0.435C0.272,-0.511 0.33,-0.548 0.41,-0.548C0.475,-0.548 0.525,-0.525 0.562,-0.478C0.599,-0.43 0.618,-0.365 0.618,-0.283C0.618,-0.193 0.597,-0.121 0.555,-0.068C0.514,-0.014 0.458,0.012 0.388,0.012C0.331,0.012 0.28,-0.01 0.235,-0.054L0.235,0.193L0.09,0.193ZM0.235,-0.14C0.27,-0.101 0.307,-0.082 0.347,-0.082C0.383,-0.082 0.411,-0.099 0.432,-0.133C0.453,-0.167 0.464,-0.213 0.464,-0.271C0.464,-0.38 0.429,-0.435 0.358,-0.435C0.315,-0.435 0.274,-0.408 0.235,-0.353L0.235,-0.14Z" style="fill-rule:nonzero;"/>
                </g>
                <g transform="matrix(8,0,0,8,438.575,323.369)">
                    <path d="M0.315,0.012C0.232,0.012 0.165,-0.013 0.116,-0.064C0.067,-0.114 0.042,-0.182 0.042,-0.268C0.042,-0.355 0.067,-0.423 0.116,-0.473C0.166,-0.523 0.234,-0.548 0.319,-0.548C0.404,-0.548 0.472,-0.523 0.522,-0.473C0.571,-0.423 0.596,-0.355 0.596,-0.269C0.596,-0.181 0.571,-0.112 0.521,-0.063C0.472,-0.013 0.403,0.012 0.315,0.012ZM0.318,-0.078C0.401,-0.078 0.442,-0.142 0.442,-0.269C0.442,-0.327 0.431,-0.373 0.409,-0.407C0.387,-0.441 0.357,-0.458 0.319,-0.458C0.281,-0.458 0.251,-0.441 0.229,-0.407C0.207,-0.373 0.196,-0.327 0.196,-0.268C0.196,-0.21 0.207,-0.164 0.229,-0.129C0.25,-0.095 0.28,-0.078 0.318,-0.078Z" style="fill-rule:nonzero;"/>
                </g>
                <g transform="matrix(8,0,0,8,443.524,323.369)">
                    <path d="M0.09,-0L0.09,-0.536L0.235,-0.536L0.235,-0.435C0.272,-0.511 0.329,-0.548 0.406,-0.548C0.415,-0.548 0.424,-0.547 0.433,-0.545L0.433,-0.417C0.412,-0.424 0.393,-0.428 0.375,-0.428C0.318,-0.428 0.271,-0.399 0.235,-0.34L0.235,-0L0.09,-0Z" style="fill-rule:nonzero;"/>
                </g>
                <g transform="matrix(8,0,0,8,447.001,323.369)">
                    <path d="M0.367,-0.003C0.332,0.007 0.305,0.012 0.285,0.012C0.16,0.012 0.097,-0.046 0.097,-0.164L0.097,-0.446L0.037,-0.446L0.037,-0.536L0.097,-0.536L0.097,-0.626L0.242,-0.643L0.242,-0.536L0.356,-0.536L0.356,-0.446L0.242,-0.446L0.242,-0.183C0.242,-0.117 0.269,-0.084 0.322,-0.084C0.335,-0.084 0.349,-0.086 0.367,-0.091L0.367,-0.003Z" style="fill-rule:nonzero;"/>
                </g>
                <g transform="matrix(8,0,0,8,450.083,323.369)">
                    <path d="M0.527,-0.018C0.458,0.002 0.393,0.012 0.332,0.012C0.242,0.012 0.171,-0.013 0.12,-0.064C0.068,-0.115 0.042,-0.184 0.042,-0.272C0.042,-0.355 0.066,-0.422 0.113,-0.472C0.16,-0.523 0.223,-0.548 0.301,-0.548C0.379,-0.548 0.437,-0.524 0.473,-0.474C0.509,-0.425 0.527,-0.346 0.527,-0.239L0.194,-0.239C0.204,-0.137 0.26,-0.086 0.363,-0.086C0.411,-0.086 0.466,-0.097 0.527,-0.12L0.527,-0.018ZM0.192,-0.321L0.385,-0.321C0.385,-0.412 0.355,-0.458 0.296,-0.458C0.236,-0.458 0.202,-0.412 0.192,-0.321Z" style="fill-rule:nonzero;"/>
                </g>
                <g transform="matrix(8,0,0,8,410.597,337.369)">
                    <rect x="0.09" y="-0.723" width="0.15" height="0.723" style="fill-rule:nonzero;"/>
                </g>
                <g transform="matrix(8,0,0,8,413.09,337.369)">
                    <path d="M0.09,-0L0.09,-0.536L0.235,-0.536L0.235,-0.435C0.282,-0.511 0.343,-0.548 0.417,-0.548C0.465,-0.548 0.503,-0.533 0.531,-0.503C0.558,-0.473 0.572,-0.431 0.572,-0.379L0.572,-0L0.428,-0L0.428,-0.343C0.428,-0.404 0.408,-0.435 0.367,-0.435C0.321,-0.435 0.277,-0.402 0.235,-0.337L0.235,-0L0.09,-0Z" style="fill-rule:nonzero;"/>
                </g>
                <g transform="matrix(8,0,0,8,418.184,337.369)">
                    <path d="M0.428,-0L0.428,-0.101C0.391,-0.026 0.332,0.012 0.252,0.012C0.188,0.012 0.137,-0.011 0.101,-0.059C0.064,-0.106 0.045,-0.171 0.045,-0.253C0.045,-0.343 0.066,-0.415 0.108,-0.468C0.149,-0.522 0.205,-0.548 0.275,-0.548C0.331,-0.548 0.382,-0.526 0.428,-0.482L0.428,-0.771L0.573,-0.771L0.573,-0L0.428,-0ZM0.428,-0.396C0.393,-0.435 0.356,-0.455 0.316,-0.455C0.28,-0.455 0.252,-0.438 0.231,-0.403C0.21,-0.369 0.199,-0.323 0.199,-0.266C0.199,-0.156 0.234,-0.101 0.305,-0.101C0.348,-0.101 0.389,-0.129 0.428,-0.184L0.428,-0.396Z" style="fill-rule:nonzero;"/>
                </g>
                <g transform="matrix(8,0,0,8,423.324,337.369)">
                    <path d="M0.422,-0L0.422,-0.101C0.375,-0.026 0.314,0.012 0.239,0.012C0.191,0.012 0.154,-0.003 0.126,-0.033C0.098,-0.063 0.084,-0.105 0.084,-0.157L0.084,-0.536L0.229,-0.536L0.229,-0.193C0.229,-0.132 0.249,-0.102 0.29,-0.102C0.336,-0.102 0.38,-0.134 0.422,-0.199L0.422,-0.536L0.566,-0.536L0.566,-0L0.422,-0Z" style="fill-rule:nonzero;"/>
                </g>
                <g transform="matrix(8,0,0,8,428.418,337.369)">
                    <path d="M0.076,-0.017L0.076,-0.123C0.148,-0.093 0.209,-0.078 0.26,-0.078C0.319,-0.078 0.349,-0.098 0.349,-0.139C0.349,-0.165 0.324,-0.188 0.275,-0.207L0.227,-0.227C0.174,-0.248 0.136,-0.271 0.113,-0.296C0.09,-0.321 0.079,-0.351 0.079,-0.388C0.079,-0.438 0.098,-0.478 0.137,-0.506C0.175,-0.534 0.23,-0.548 0.299,-0.548C0.343,-0.548 0.395,-0.542 0.455,-0.529L0.455,-0.428C0.397,-0.448 0.349,-0.458 0.311,-0.458C0.251,-0.458 0.221,-0.439 0.221,-0.402C0.221,-0.378 0.243,-0.357 0.288,-0.34L0.33,-0.324C0.392,-0.3 0.436,-0.276 0.461,-0.252C0.485,-0.228 0.498,-0.196 0.498,-0.158C0.498,-0.107 0.477,-0.066 0.435,-0.035C0.393,-0.003 0.339,0.012 0.271,0.012C0.207,0.012 0.142,0.002 0.076,-0.017Z" style="fill-rule:nonzero;"/>
                </g>
                <g transform="matrix(8,0,0,8,432.782,337.369)">
                    <path d="M0.367,-0.003C0.332,0.007 0.305,0.012 0.285,0.012C0.16,0.012 0.097,-0.046 0.097,-0.164L0.097,-0.446L0.037,-0.446L0.037,-0.536L0.097,-0.536L0.097,-0.626L0.242,-0.643L0.242,-0.536L0.356,-0.536L0.356,-0.446L0.242,-0.446L0.242,-0.183C0.242,-0.117 0.269,-0.084 0.322,-0.084C0.335,-0.084 0.349,-0.086 0.367,-0.091L0.367,-0.003Z" style="fill-rule:nonzero;"/>
                </g>
                <g transform="matrix(8,0,0,8,435.864,337.369)">
                    <path d="M0.09,-0L0.09,-0.536L0.235,-0.536L0.235,-0.435C0.272,-0.511 0.329,-0.548 0.406,-0.548C0.415,-0.548 0.424,-0.547 0.433,-0.545L0.433,-0.417C0.412,-0.424 0.393,-0.428 0.375,-0.428C0.318,-0.428 0.271,-0.399 0.235,-0.34L0.235,-0L0.09,-0Z" style="fill-rule:nonzero;"/>
                </g>
                <g transform="matrix(8,0,0,8,439.341,337.369)">
                    <path d="M0.09,-0L0.09,-0.536L0.235,-0.536L0.235,-0L0.09,-0ZM0.09,-0.626L0.09,-0.747L0.235,-0.747L0.235,-0.626L0.09,-0.626Z" style="fill-rule:nonzero;"/>
                </g>
                <g transform="matrix(8,0,0,8,441.782,337.369)">
                    <path d="M0.353,-0.058C0.305,-0.011 0.253,0.012 0.198,0.012C0.151,0.012 0.113,-0.002 0.084,-0.031C0.055,-0.059 0.04,-0.097 0.04,-0.142C0.04,-0.201 0.064,-0.247 0.111,-0.279C0.158,-0.311 0.226,-0.327 0.314,-0.327L0.353,-0.327L0.353,-0.376C0.353,-0.432 0.321,-0.459 0.258,-0.459C0.201,-0.459 0.145,-0.444 0.087,-0.412L0.087,-0.511C0.152,-0.536 0.217,-0.548 0.281,-0.548C0.422,-0.548 0.492,-0.493 0.492,-0.381L0.492,-0.144C0.492,-0.102 0.505,-0.081 0.532,-0.081C0.537,-0.081 0.543,-0.081 0.551,-0.083L0.555,-0.001C0.524,0.008 0.497,0.012 0.474,0.012C0.414,0.012 0.376,-0.011 0.359,-0.058L0.353,-0.058ZM0.353,-0.135L0.353,-0.244L0.319,-0.244C0.225,-0.244 0.179,-0.215 0.179,-0.156C0.179,-0.136 0.185,-0.12 0.199,-0.106C0.212,-0.093 0.229,-0.086 0.249,-0.086C0.283,-0.086 0.318,-0.102 0.353,-0.135Z" style="fill-rule:nonzero;"/>
                </g>
                <g transform="matrix(8,0,0,8,410.597,351.369)">
                    <path d="M0.09,-0L0.09,-0.723L0.361,-0.723C0.508,-0.723 0.581,-0.663 0.581,-0.543C0.581,-0.499 0.569,-0.458 0.544,-0.422C0.519,-0.385 0.485,-0.357 0.441,-0.337L0.677,-0L0.494,-0L0.315,-0.295L0.232,-0.295L0.232,-0L0.09,-0ZM0.232,-0.395L0.267,-0.395C0.376,-0.395 0.43,-0.439 0.43,-0.527C0.43,-0.591 0.382,-0.624 0.284,-0.624L0.232,-0.624L0.232,-0.395Z" style="fill-rule:nonzero;"/>
                </g>
                <g transform="matrix(8,0,0,8,415.957,351.369)">
                    <path d="M0.527,-0.018C0.458,0.002 0.393,0.012 0.332,0.012C0.242,0.012 0.171,-0.013 0.12,-0.064C0.068,-0.115 0.042,-0.184 0.042,-0.272C0.042,-0.355 0.066,-0.422 0.113,-0.472C0.16,-0.523 0.223,-0.548 0.301,-0.548C0.379,-0.548 0.437,-0.524 0.473,-0.474C0.509,-0.425 0.527,-0.346 0.527,-0.239L0.194,-0.239C0.204,-0.137 0.26,-0.086 0.363,-0.086C0.411,-0.086 0.466,-0.097 0.527,-0.12L0.527,-0.018ZM0.192,-0.321L0.385,-0.321C0.385,-0.412 0.355,-0.458 0.296,-0.458C0.236,-0.458 0.202,-0.412 0.192,-0.321Z" style="fill-rule:nonzero;"/>
                </g>
                <g transform="matrix(8,0,0,8,420.484,351.369)">
                    <path d="M0.076,-0.017L0.076,-0.123C0.148,-0.093 0.209,-0.078 0.26,-0.078C0.319,-0.078 0.349,-0.098 0.349,-0.139C0.349,-0.165 0.324,-0.188 0.275,-0.207L0.227,-0.227C0.174,-0.248 0.136,-0.271 0.113,-0.296C0.09,-0.321 0.079,-0.351 0.079,-0.388C0.079,-0.438 0.098,-0.478 0.137,-0.506C0.175,-0.534 0.23,-0.548 0.299,-0.548C0.343,-0.548 0.395,-0.542 0.455,-0.529L0.455,-0.428C0.397,-0.448 0.349,-0.458 0.311,-0.458C0.251,-0.458 0.221,-0.439 0.221,-0.402C0.221,-0.378 0.243,-0.357 0.288,-0.34L0.33,-0.324C0.392,-0.3 0.436,-0.276 0.461,-0.252C0.485,-0.228 0.498,-0.196 0.498,-0.158C0.498,-0.107 0.477,-0.066 0.435,-0.035C0.393,-0.003 0.339,0.012 0.271,0.012C0.207,0.012 0.142,0.002 0.076,-0.017Z" style="fill-rule:nonzero;"/>
                </g>
                <g transform="matrix(8,0,0,8,424.848,351.369)">
                    <path d="M0.09,-0L0.09,-0.536L0.235,-0.536L0.235,-0L0.09,-0ZM0.09,-0.626L0.09,-0.747L0.235,-0.747L0.235,-0.626L0.09,-0.626Z" style="fill-rule:nonzero;"/>
                </g>
                <g transform="matrix(8,0,0,8,427.289,351.369)">
                    <path d="M0.428,-0L0.428,-0.101C0.391,-0.026 0.332,0.012 0.252,0.012C0.188,0.012 0.137,-0.011 0.101,-0.059C0.064,-0.106 0.045,-0.171 0.045,-0.253C0.045,-0.343 0.066,-0.415 0.108,-0.468C0.149,-0.522 0.205,-0.548 0.275,-0.548C0.331,-0.548 0.382,-0.526 0.428,-0.482L0.428,-0.771L0.573,-0.771L0.573,-0L0.428,-0ZM0.428,-0.396C0.393,-0.435 0.356,-0.455 0.316,-0.455C0.28,-0.455 0.252,-0.438 0.231,-0.403C0.21,-0.369 0.199,-0.323 0.199,-0.266C0.199,-0.156 0.234,-0.101 0.305,-0.101C0.348,-0.101 0.389,-0.129 0.428,-0.184L0.428,-0.396Z" style="fill-rule:nonzero;"/>
                </g>
                <g transform="matrix(8,0,0,8,432.43,351.369)">
                    <path d="M0.527,-0.018C0.458,0.002 0.393,0.012 0.332,0.012C0.242,0.012 0.171,-0.013 0.12,-0.064C0.068,-0.115 0.042,-0.184 0.042,-0.272C0.042,-0.355 0.066,-0.422 0.113,-0.472C0.16,-0.523 0.223,-0.548 0.301,-0.548C0.379,-0.548 0.437,-0.524 0.473,-0.474C0.509,-0.425 0.527,-0.346 0.527,-0.239L0.194,-0.239C0.204,-0.137 0.26,-0.086 0.363,-0.086C0.411,-0.086 0.466,-0.097 0.527,-0.12L0.527,-0.018ZM0.192,-0.321L0.385,-0.321C0.385,-0.412 0.355,-0.458 0.296,-0.458C0.236,-0.458 0.202,-0.412 0.192,-0.321Z" style="fill-rule:nonzero;"/>
                </g>
                <g transform="matrix(8,0,0,8,436.958,351.369)">
                    <path d="M0.09,-0L0.09,-0.536L0.235,-0.536L0.235,-0.435C0.282,-0.511 0.343,-0.548 0.417,-0.548C0.465,-0.548 0.503,-0.533 0.531,-0.503C0.558,-0.473 0.572,-0.431 0.572,-0.379L0.572,-0L0.428,-0L0.428,-0.343C0.428,-0.404 0.408,-0.435 0.367,-0.435C0.321,-0.435 0.277,-0.402 0.235,-0.337L0.235,-0L0.09,-0Z" style="fill-rule:nonzero;"/>
                </g>
                <g transform="matrix(8,0,0,8,442.052,351.369)">
                    <path d="M0.486,-0.012C0.426,0.004 0.37,0.012 0.319,0.012C0.234,0.012 0.166,-0.013 0.116,-0.063C0.067,-0.114 0.042,-0.182 0.042,-0.269C0.042,-0.356 0.068,-0.425 0.119,-0.474C0.17,-0.524 0.24,-0.548 0.331,-0.548C0.374,-0.548 0.424,-0.541 0.481,-0.527L0.481,-0.423C0.422,-0.442 0.375,-0.452 0.339,-0.452C0.296,-0.452 0.261,-0.435 0.235,-0.402C0.208,-0.369 0.195,-0.325 0.195,-0.27C0.195,-0.213 0.21,-0.168 0.238,-0.134C0.267,-0.1 0.305,-0.083 0.352,-0.083C0.395,-0.083 0.44,-0.093 0.486,-0.112L0.486,-0.012Z" style="fill-rule:nonzero;"/>
                </g>
                <g transform="matrix(8,0,0,8,446.149,351.369)">
                    <path d="M0.09,-0L0.09,-0.536L0.235,-0.536L0.235,-0L0.09,-0ZM0.09,-0.626L0.09,-0.747L0.235,-0.747L0.235,-0.626L0.09,-0.626Z" style="fill-rule:nonzero;"/>
                </g>
                <g transform="matrix(8,0,0,8,448.591,351.369)">
                    <path d="M0.353,-0.058C0.305,-0.011 0.253,0.012 0.198,0.012C0.151,0.012 0.113,-0.002 0.084,-0.031C0.055,-0.059 0.04,-0.097 0.04,-0.142C0.04,-0.201 0.064,-0.247 0.111,-0.279C0.158,-0.311 0.226,-0.327 0.314,-0.327L0.353,-0.327L0.353,-0.376C0.353,-0.432 0.321,-0.459 0.258,-0.459C0.201,-0.459 0.145,-0.444 0.087,-0.412L0.087,-0.511C0.152,-0.536 0.217,-0.548 0.281,-0.548C0.422,-0.548 0.492,-0.493 0.492,-0.381L0.492,-0.144C0.492,-0.102 0.505,-0.081 0.532,-0.081C0.537,-0.081 0.543,-0.081 0.551,-0.083L0.555,-0.001C0.524,0.008 0.497,0.012 0.474,0.012C0.414,0.012 0.376,-0.011 0.359,-0.058L0.353,-0.058ZM0.353,-0.135L0.353,-0.244L0.319,-0.244C0.225,-0.244 0.179,-0.215 0.179,-0.156C0.179,-0.136 0.185,-0.12 0.199,-0.106C0.212,-0.093 0.229,-0.086 0.249,-0.086C0.283,-0.086 0.318,-0.102 0.353,-0.135Z" style="fill-rule:nonzero;"/>
                </g>
                <g transform="matrix(8,0,0,8,453.134,351.369)">
                    <rect x="0.09" y="-0.771" width="0.145" height="0.771" style="fill-rule:nonzero;"/>
                </g>
                <g transform="matrix(8,0,0,8,410.597,365.369)">
                    <path d="M0.27,-0L0.27,-0.624L0.011,-0.624L0.011,-0.723L0.679,-0.723L0.679,-0.624L0.42,-0.624L0.42,-0L0.27,-0Z" style="fill-rule:nonzero;"/>
                </g>
                <g transform="matrix(8,0,0,8,415.957,365.369)">
                    <path d="M0.527,-0.018C0.458,0.002 0.393,0.012 0.332,0.012C0.242,0.012 0.171,-0.013 0.12,-0.064C0.068,-0.115 0.042,-0.184 0.042,-0.272C0.042,-0.355 0.066,-0.422 0.113,-0.472C0.16,-0.523 0.223,-0.548 0.301,-0.548C0.379,-0.548 0.437,-0.524 0.473,-0.474C0.509,-0.425 0.527,-0.346 0.527,-0.239L0.194,-0.239C0.204,-0.137 0.26,-0.086 0.363,-0.086C0.411,-0.086 0.466,-0.097 0.527,-0.12L0.527,-0.018ZM0.192,-0.321L0.385,-0.321C0.385,-0.412 0.355,-0.458 0.296,-0.458C0.236,-0.458 0.202,-0.412 0.192,-0.321Z" style="fill-rule:nonzero;"/>
                </g>
                <g transform="matrix(8,0,0,8,420.484,365.369)">
                    <path d="M0.09,-0L0.09,-0.536L0.235,-0.536L0.235,-0.435C0.272,-0.511 0.329,-0.548 0.406,-0.548C0.415,-0.548 0.424,-0.547 0.433,-0.545L0.433,-0.417C0.412,-0.424 0.393,-0.428 0.375,-0.428C0.318,-0.428 0.271,-0.399 0.235,-0.34L0.235,-0L0.09,-0Z" style="fill-rule:nonzero;"/>
                </g>
                <g transform="matrix(8,0,0,8,423.961,365.369)">
                    <path d="M0.486,-0.012C0.426,0.004 0.37,0.012 0.319,0.012C0.234,0.012 0.166,-0.013 0.116,-0.063C0.067,-0.114 0.042,-0.182 0.042,-0.269C0.042,-0.356 0.068,-0.425 0.119,-0.474C0.17,-0.524 0.24,-0.548 0.331,-0.548C0.374,-0.548 0.424,-0.541 0.481,-0.527L0.481,-0.423C0.422,-0.442 0.375,-0.452 0.339,-0.452C0.296,-0.452 0.261,-0.435 0.235,-0.402C0.208,-0.369 0.195,-0.325 0.195,-0.27C0.195,-0.213 0.21,-0.168 0.238,-0.134C0.267,-0.1 0.305,-0.083 0.352,-0.083C0.395,-0.083 0.44,-0.093 0.486,-0.112L0.486,-0.012Z" style="fill-rule:nonzero;"/>
                </g>
                <g transform="matrix(8,0,0,8,428.059,365.369)">
                    <path d="M0.09,-0L0.09,-0.536L0.235,-0.536L0.235,-0L0.09,-0ZM0.09,-0.626L0.09,-0.747L0.235,-0.747L0.235,-0.626L0.09,-0.626Z" style="fill-rule:nonzero;"/>
                </g>
                <g transform="matrix(8,0,0,8,430.5,365.369)">
                    <path d="M0.353,-0.058C0.305,-0.011 0.253,0.012 0.198,0.012C0.151,0.012 0.113,-0.002 0.084,-0.031C0.055,-0.059 0.04,-0.097 0.04,-0.142C0.04,-0.201 0.064,-0.247 0.111,-0.279C0.158,-0.311 0.226,-0.327 0.314,-0.327L0.353,-0.327L0.353,-0.376C0.353,-0.432 0.321,-0.459 0.258,-0.459C0.201,-0.459 0.145,-0.444 0.087,-0.412L0.087,-0.511C0.152,-0.536 0.217,-0.548 0.281,-0.548C0.422,-0.548 0.492,-0.493 0.492,-0.381L0.492,-0.144C0.492,-0.102 0.505,-0.081 0.532,-0.081C0.537,-0.081 0.543,-0.081 0.551,-0.083L0.555,-0.001C0.524,0.008 0.497,0.012 0.474,0.012C0.414,0.012 0.376,-0.011 0.359,-0.058L0.353,-0.058ZM0.353,-0.135L0.353,-0.244L0.319,-0.244C0.225,-0.244 0.179,-0.215 0.179,-0.156C0.179,-0.136 0.185,-0.12 0.199,-0.106C0.212,-0.093 0.229,-0.086 0.249,-0.086C0.283,-0.086 0.318,-0.102 0.353,-0.135Z" style="fill-rule:nonzero;"/>
                </g>
                <g transform="matrix(8,0,0,8,435.044,365.369)">
                    <path d="M0.09,-0L0.09,-0.536L0.235,-0.536L0.235,-0.435C0.272,-0.511 0.329,-0.548 0.406,-0.548C0.415,-0.548 0.424,-0.547 0.433,-0.545L0.433,-0.417C0.412,-0.424 0.393,-0.428 0.375,-0.428C0.318,-0.428 0.271,-0.399 0.235,-0.34L0.235,-0L0.09,-0Z" style="fill-rule:nonzero;"/>
                </g>
                <g transform="matrix(8,0,0,8,438.52,365.369)">
                    <path d="M0.09,-0L0.09,-0.536L0.235,-0.536L0.235,-0L0.09,-0ZM0.09,-0.626L0.09,-0.747L0.235,-0.747L0.235,-0.626L0.09,-0.626Z" style="fill-rule:nonzero;"/>
                </g>
                <g transform="matrix(8,0,0,8,440.962,365.369)">
                    <path d="M0.315,0.012C0.232,0.012 0.165,-0.013 0.116,-0.064C0.067,-0.114 0.042,-0.182 0.042,-0.268C0.042,-0.355 0.067,-0.423 0.116,-0.473C0.166,-0.523 0.234,-0.548 0.319,-0.548C0.404,-0.548 0.472,-0.523 0.522,-0.473C0.571,-0.423 0.596,-0.355 0.596,-0.269C0.596,-0.181 0.571,-0.112 0.521,-0.063C0.472,-0.013 0.403,0.012 0.315,0.012ZM0.318,-0.078C0.401,-0.078 0.442,-0.142 0.442,-0.269C0.442,-0.327 0.431,-0.373 0.409,-0.407C0.387,-0.441 0.357,-0.458 0.319,-0.458C0.281,-0.458 0.251,-0.441 0.229,-0.407C0.207,-0.373 0.196,-0.327 0.196,-0.268C0.196,-0.21 0.207,-0.164 0.229,-0.129C0.25,-0.095 0.28,-0.078 0.318,-0.078Z" style="fill-rule:nonzero;"/>
                </g>
            </g>
            <g transform="matrix(1.78993,0,0,1,-324.344,0)">
                <g transform="matrix(0.558681,0,0,1,181.205,0)">
                    <g transform="matrix(8,0,0,8,410.597,379.369)">
                        <path d="M0.011,-0L0.292,-0.723L0.443,-0.723L0.724,-0L0.57,-0L0.495,-0.193L0.196,-0.193L0.121,-0L0.011,-0ZM0.233,-0.289L0.458,-0.289L0.345,-0.577L0.233,-0.289Z" style="fill-rule:nonzero;"/>
                    </g>
                    <g transform="matrix(8,0,0,8,416.328,379.369)">
                        <path d="M0.094,0.167L0.106,0.062C0.166,0.089 0.222,0.103 0.276,0.103C0.33,0.103 0.368,0.091 0.392,0.068C0.416,0.046 0.428,0.009 0.428,-0.042L0.428,-0.116C0.393,-0.039 0.334,-0 0.253,-0C0.19,-0 0.139,-0.024 0.102,-0.072C0.064,-0.119 0.045,-0.184 0.045,-0.265C0.045,-0.351 0.066,-0.419 0.108,-0.471C0.15,-0.523 0.206,-0.548 0.276,-0.548C0.331,-0.548 0.381,-0.526 0.428,-0.482L0.443,-0.536L0.573,-0.536L0.573,-0.127C0.573,-0.045 0.568,0.014 0.558,0.05C0.548,0.086 0.529,0.117 0.5,0.142C0.452,0.184 0.384,0.205 0.296,0.205C0.234,0.205 0.167,0.192 0.094,0.167ZM0.428,-0.2L0.428,-0.397C0.393,-0.437 0.356,-0.457 0.318,-0.457C0.282,-0.457 0.253,-0.44 0.231,-0.407C0.21,-0.374 0.199,-0.329 0.199,-0.273C0.199,-0.168 0.233,-0.116 0.3,-0.116C0.347,-0.116 0.389,-0.144 0.428,-0.2Z" style="fill-rule:nonzero;"/>
                    </g>
                    <g transform="matrix(8,0,0,8,421.445,379.369)">
                        <path d="M0.09,-0L0.09,-0.536L0.235,-0.536L0.235,-0.435C0.272,-0.511 0.329,-0.548 0.406,-0.548C0.415,-0.548 0.424,-0.547 0.433,-0.545L0.433,-0.417C0.412,-0.424 0.393,-0.428 0.375,-0.428C0.318,-0.428 0.271,-0.399 0.235,-0.34L0.235,-0L0.09,-0Z" style="fill-rule:nonzero;"/>
                    </g>
                    <g transform="matrix(8,0,0,8,424.922,379.369)">
                        <path d="M0.09,-0L0.09,-0.536L0.235,-0.536L0.235,-0L0.09,-0ZM0.09,-0.626L0.09,-0.747L0.235,-0.747L0.235,-0.626L0.09,-0.626Z" style="fill-rule:nonzero;"/>
                    </g>
                    <g transform="matrix(8,0,0,8,427.364,379.369)">
                        <path d="M0.486,-0.012C0.426,0.004 0.37,0.012 0.319,0.012C0.234,0.012 0.166,-0.013 0.116,-0.063C0.067,-0.114 0.042,-0.182 0.042,-0.269C0.042,-0.356 0.068,-0.425 0.119,-0.474C0.17,-0.524 0.24,-0.548 0.331,-0.548C0.374,-0.548 0.424,-0.541 0.481,-0.527L0.481,-0.423C0.422,-0.442 0.375,-0.452 0.339,-0.452C0.296,-0.452 0.261,-0.435 0.235,-0.402C0.208,-0.369 0.195,-0.325 0.195,-0.27C0.195,-0.213 0.21,-0.168 0.238,-0.134C0.267,-0.1 0.305,-0.083 0.352,-0.083C0.395,-0.083 0.44,-0.093 0.486,-0.112L0.486,-0.012Z" style="fill-rule:nonzero;"/>
                    </g>
                    <g transform="matrix(8,0,0,8,431.461,379.369)">
                        <path d="M0.422,-0L0.422,-0.101C0.375,-0.026 0.314,0.012 0.239,0.012C0.191,0.012 0.154,-0.003 0.126,-0.033C0.098,-0.063 0.084,-0.105 0.084,-0.157L0.084,-0.536L0.229,-0.536L0.229,-0.193C0.229,-0.132 0.249,-0.102 0.29,-0.102C0.336,-0.102 0.38,-0.134 0.422,-0.199L0.422,-0.536L0.566,-0.536L0.566,-0L0.422,-0Z" style="fill-rule:nonzero;"/>
                    </g>
                    <g transform="matrix(8,0,0,8,436.555,379.369)">
                        <rect x="0.09" y="-0.771" width="0.145" height="0.771" style="fill-rule:nonzero;"/>
                    </g>
                    <g transform="matrix(8,0,0,8,438.997,379.369)">
                        <path d="M0.367,-0.003C0.332,0.007 0.305,0.012 0.285,0.012C0.16,0.012 0.097,-0.046 0.097,-0.164L0.097,-0.446L0.037,-0.446L0.037,-0.536L0.097,-0.536L0.097,-0.626L0.242,-0.643L0.242,-0.536L0.356,-0.536L0.356,-0.446L0.242,-0.446L0.242,-0.183C0.242,-0.117 0.269,-0.084 0.322,-0.084C0.335,-0.084 0.349,-0.086 0.367,-0.091L0.367,-0.003Z" style="fill-rule:nonzero;"/>
                    </g>
                    <g transform="matrix(8,0,0,8,442.079,379.369)">
                        <path d="M0.422,-0L0.422,-0.101C0.375,-0.026 0.314,0.012 0.239,0.012C0.191,0.012 0.154,-0.003 0.126,-0.033C0.098,-0.063 0.084,-0.105 0.084,-0.157L0.084,-0.536L0.229,-0.536L0.229,-0.193C0.229,-0.132 0.249,-0.102 0.29,-0.102C0.336,-0.102 0.38,-0.134 0.422,-0.199L0.422,-0.536L0.566,-0.536L0.566,-0L0.422,-0Z" style="fill-rule:nonzero;"/>
                    </g>
                    <g transform="matrix(8,0,0,8,447.173,379.369)">
                        <path d="M0.09,-0L0.09,-0.536L0.235,-0.536L0.235,-0.435C0.272,-0.511 0.329,-0.548 0.406,-0.548C0.415,-0.548 0.424,-0.547 0.433,-0.545L0.433,-0.417C0.412,-0.424 0.393,-0.428 0.375,-0.428C0.318,-0.428 0.271,-0.399 0.235,-0.34L0.235,-0L0.09,-0Z" style="fill-rule:nonzero;"/>
                    </g>
                    <g transform="matrix(8,0,0,8,450.65,379.369)">
                        <path d="M0.353,-0.058C0.305,-0.011 0.253,0.012 0.198,0.012C0.151,0.012 0.113,-0.002 0.084,-0.031C0.055,-0.059 0.04,-0.097 0.04,-0.142C0.04,-0.201 0.064,-0.247 0.111,-0.279C0.158,-0.311 0.226,-0.327 0.314,-0.327L0.353,-0.327L0.353,-0.376C0.353,-0.432 0.321,-0.459 0.258,-0.459C0.201,-0.459 0.145,-0.444 0.087,-0.412L0.087,-0.511C0.152,-0.536 0.217,-0.548 0.281,-0.548C0.422,-0.548 0.492,-0.493 0.492,-0.381L0.492,-0.144C0.492,-0.102 0.505,-0.081 0.532,-0.081C0.537,-0.081 0.543,-0.081 0.551,-0.083L0.555,-0.001C0.524,0.008 0.497,0.012 0.474,0.012C0.414,0.012 0.376,-0.011 0.359,-0.058L0.353,-0.058ZM0.353,-0.135L0.353,-0.244L0.319,-0.244C0.225,-0.244 0.179,-0.215 0.179,-0.156C0.179,-0.136 0.185,-0.12 0.199,-0.106C0.212,-0.093 0.229,-0.086 0.249,-0.086C0.283,-0.086 0.318,-0.102 0.353,-0.135Z" style="fill-rule:nonzero;"/>
                    </g>
                    <g transform="matrix(8,0,0,8,455.193,379.369)">
                        <path d="M0.105,-0L0.045,-0L0.045,-0.157L0.202,-0.157L0.202,-0.035C0.202,0.093 0.15,0.157 0.045,0.157L0.045,0.103C0.085,0.103 0.105,0.074 0.105,0.016L0.105,-0Z" style="fill-rule:nonzero;"/>
                    </g>
                    <g transform="matrix(8,0,0,8,459.486,379.369)">
                        <path d="M0.486,-0.012C0.426,0.004 0.37,0.012 0.319,0.012C0.234,0.012 0.166,-0.013 0.116,-0.063C0.067,-0.114 0.042,-0.182 0.042,-0.269C0.042,-0.356 0.068,-0.425 0.119,-0.474C0.17,-0.524 0.24,-0.548 0.331,-0.548C0.374,-0.548 0.424,-0.541 0.481,-0.527L0.481,-0.423C0.422,-0.442 0.375,-0.452 0.339,-0.452C0.296,-0.452 0.261,-0.435 0.235,-0.402C0.208,-0.369 0.195,-0.325 0.195,-0.27C0.195,-0.213 0.21,-0.168 0.238,-0.134C0.267,-0.1 0.305,-0.083 0.352,-0.083C0.395,-0.083 0.44,-0.093 0.486,-0.112L0.486,-0.012Z" style="fill-rule:nonzero;"/>
                    </g>
                    <g transform="matrix(8,0,0,8,463.584,379.369)">
                        <path d="M0.315,0.012C0.232,0.012 0.165,-0.013 0.116,-0.064C0.067,-0.114 0.042,-0.182 0.042,-0.268C0.042,-0.355 0.067,-0.423 0.116,-0.473C0.166,-0.523 0.234,-0.548 0.319,-0.548C0.404,-0.548 0.472,-0.523 0.522,-0.473C0.571,-0.423 0.596,-0.355 0.596,-0.269C0.596,-0.181 0.571,-0.112 0.521,-0.063C0.472,-0.013 0.403,0.012 0.315,0.012ZM0.318,-0.078C0.401,-0.078 0.442,-0.142 0.442,-0.269C0.442,-0.327 0.431,-0.373 0.409,-0.407C0.387,-0.441 0.357,-0.458 0.319,-0.458C0.281,-0.458 0.251,-0.441 0.229,-0.407C0.207,-0.373 0.196,-0.327 0.196,-0.268C0.196,-0.21 0.207,-0.164 0.229,-0.129C0.25,-0.095 0.28,-0.078 0.318,-0.078Z" style="fill-rule:nonzero;"/>
                    </g>
                    <g transform="matrix(8,0,0,8,468.533,379.369)">
                        <path d="M0.09,-0L0.09,-0.536L0.235,-0.536L0.235,-0.435C0.282,-0.511 0.343,-0.548 0.417,-0.548C0.465,-0.548 0.503,-0.533 0.531,-0.503C0.558,-0.473 0.572,-0.431 0.572,-0.379L0.572,-0L0.428,-0L0.428,-0.343C0.428,-0.404 0.408,-0.435 0.367,-0.435C0.321,-0.435 0.277,-0.402 0.235,-0.337L0.235,-0L0.09,-0Z" style="fill-rule:nonzero;"/>
                    </g>
                    <g transform="matrix(8,0,0,8,473.627,379.369)">
                        <path d="M0.076,-0.017L0.076,-0.123C0.148,-0.093 0.209,-0.078 0.26,-0.078C0.319,-0.078 0.349,-0.098 0.349,-0.139C0.349,-0.165 0.324,-0.188 0.275,-0.207L0.227,-0.227C0.174,-0.248 0.136,-0.271 0.113,-0.296C0.09,-0.321 0.079,-0.351 0.079,-0.388C0.079,-0.438 0.098,-0.478 0.137,-0.506C0.175,-0.534 0.23,-0.548 0.299,-0.548C0.343,-0.548 0.395,-0.542 0.455,-0.529L0.455,-0.428C0.397,-0.448 0.349,-0.458 0.311,-0.458C0.251,-0.458 0.221,-0.439 0.221,-0.402C0.221,-0.378 0.243,-0.357 0.288,-0.34L0.33,-0.324C0.392,-0.3 0.436,-0.276 0.461,-0.252C0.485,-0.228 0.498,-0.196 0.498,-0.158C0.498,-0.107 0.477,-0.066 0.435,-0.035C0.393,-0.003 0.339,0.012 0.271,0.012C0.207,0.012 0.142,0.002 0.076,-0.017Z" style="fill-rule:nonzero;"/>
                    </g>
                    <g transform="matrix(8,0,0,8,477.991,379.369)">
                        <path d="M0.367,-0.003C0.332,0.007 0.305,0.012 0.285,0.012C0.16,0.012 0.097,-0.046 0.097,-0.164L0.097,-0.446L0.037,-0.446L0.037,-0.536L0.097,-0.536L0.097,-0.626L0.242,-0.643L0.242,-0.536L0.356,-0.536L0.356,-0.446L0.242,-0.446L0.242,-0.183C0.242,-0.117 0.269,-0.084 0.322,-0.084C0.335,-0.084 0.349,-0.086 0.367,-0.091L0.367,-0.003Z" style="fill-rule:nonzero;"/>
                    </g>
                    <g transform="matrix(8,0,0,8,481.073,379.369)">
                        <path d="M0.09,-0L0.09,-0.536L0.235,-0.536L0.235,-0.435C0.272,-0.511 0.329,-0.548 0.406,-0.548C0.415,-0.548 0.424,-0.547 0.433,-0.545L0.433,-0.417C0.412,-0.424 0.393,-0.428 0.375,-0.428C0.318,-0.428 0.271,-0.399 0.235,-0.34L0.235,-0L0.09,-0Z" style="fill-rule:nonzero;"/>
                    </g>
                    <g transform="matrix(8,0,0,8,484.549,379.369)">
                        <path d="M0.422,-0L0.422,-0.101C0.375,-0.026 0.314,0.012 0.239,0.012C0.191,0.012 0.154,-0.003 0.126,-0.033C0.098,-0.063 0.084,-0.105 0.084,-0.157L0.084,-0.536L0.229,-0.536L0.229,-0.193C0.229,-0.132 0.249,-0.102 0.29,-0.102C0.336,-0.102 0.38,-0.134 0.422,-0.199L0.422,-0.536L0.566,-0.536L0.566,-0L0.422,-0Z" style="fill-rule:nonzero;"/>
                    </g>
                    <g transform="matrix(8,0,0,8,489.643,379.369)">
                        <path d="M0.486,-0.012C0.426,0.004 0.37,0.012 0.319,0.012C0.234,0.012 0.166,-0.013 0.116,-0.063C0.067,-0.114 0.042,-0.182 0.042,-0.269C0.042,-0.356 0.068,-0.425 0.119,-0.474C0.17,-0.524 0.24,-0.548 0.331,-0.548C0.374,-0.548 0.424,-0.541 0.481,-0.527L0.481,-0.423C0.422,-0.442 0.375,-0.452 0.339,-0.452C0.296,-0.452 0.261,-0.435 0.235,-0.402C0.208,-0.369 0.195,-0.325 0.195,-0.27C0.195,-0.213 0.21,-0.168 0.238,-0.134C0.267,-0.1 0.305,-0.083 0.352,-0.083C0.395,-0.083 0.44,-0.093 0.486,-0.112L0.486,-0.012Z" style="fill-rule:nonzero;"/>
                    </g>
                    <g transform="matrix(8,0,0,8,493.741,379.369)">
                        <path d="M0.486,-0.012C0.426,0.004 0.37,0.012 0.319,0.012C0.234,0.012 0.166,-0.013 0.116,-0.063C0.067,-0.114 0.042,-0.182 0.042,-0.269C0.042,-0.356 0.068,-0.425 0.119,-0.474C0.17,-0.524 0.24,-0.548 0.331,-0.548C0.374,-0.548 0.424,-0.541 0.481,-0.527L0.481,-0.423C0.422,-0.442 0.375,-0.452 0.339,-0.452C0.296,-0.452 0.261,-0.435 0.235,-0.402C0.208,-0.369 0.195,-0.325 0.195,-0.27C0.195,-0.213 0.21,-0.168 0.238,-0.134C0.267,-0.1 0.305,-0.083 0.352,-0.083C0.395,-0.083 0.44,-0.093 0.486,-0.112L0.486,-0.012Z" style="fill-rule:nonzero;"/>
                    </g>
                    <g transform="matrix(8,0,0,8,497.839,379.369)">
                        <path d="M0.09,-0L0.09,-0.536L0.235,-0.536L0.235,-0L0.09,-0ZM0.09,-0.626L0.09,-0.747L0.235,-0.747L0.235,-0.626L0.09,-0.626Z" style="fill-rule:nonzero;"/>
                    </g>
                    <g transform="matrix(8,0,0,8,500.281,379.369)">
                        <path d="M0.315,0.012C0.232,0.012 0.165,-0.013 0.116,-0.064C0.067,-0.114 0.042,-0.182 0.042,-0.268C0.042,-0.355 0.067,-0.423 0.116,-0.473C0.166,-0.523 0.234,-0.548 0.319,-0.548C0.404,-0.548 0.472,-0.523 0.522,-0.473C0.571,-0.423 0.596,-0.355 0.596,-0.269C0.596,-0.181 0.571,-0.112 0.521,-0.063C0.472,-0.013 0.403,0.012 0.315,0.012ZM0.318,-0.078C0.401,-0.078 0.442,-0.142 0.442,-0.269C0.442,-0.327 0.431,-0.373 0.409,-0.407C0.387,-0.441 0.357,-0.458 0.319,-0.458C0.281,-0.458 0.251,-0.441 0.229,-0.407C0.207,-0.373 0.196,-0.327 0.196,-0.268C0.196,-0.21 0.207,-0.164 0.229,-0.129C0.25,-0.095 0.28,-0.078 0.318,-0.078ZM0.226,-0.626L0.344,-0.783L0.476,-0.783L0.319,-0.626L0.226,-0.626Z" style="fill-rule:nonzero;"/>
                    </g>
                    <g transform="matrix(8,0,0,8,505.23,379.369)">
                        <path d="M0.09,-0L0.09,-0.536L0.235,-0.536L0.235,-0.435C0.282,-0.511 0.343,-0.548 0.417,-0.548C0.465,-0.548 0.503,-0.533 0.531,-0.503C0.558,-0.473 0.572,-0.431 0.572,-0.379L0.572,-0L0.428,-0L0.428,-0.343C0.428,-0.404 0.408,-0.435 0.367,-0.435C0.321,-0.435 0.277,-0.402 0.235,-0.337L0.235,-0L0.09,-0Z" style="fill-rule:nonzero;"/>
                    </g>
                    <g transform="matrix(8,0,0,8,512.801,379.369)">
                        <path d="M0.09,-0L0.09,-0.536L0.229,-0.536L0.229,-0.435C0.271,-0.511 0.332,-0.548 0.41,-0.548C0.45,-0.548 0.483,-0.538 0.509,-0.519C0.535,-0.499 0.551,-0.471 0.557,-0.435C0.607,-0.511 0.668,-0.548 0.739,-0.548C0.837,-0.548 0.886,-0.494 0.886,-0.386L0.886,-0L0.747,-0L0.747,-0.339C0.747,-0.402 0.726,-0.434 0.684,-0.434C0.64,-0.434 0.598,-0.403 0.557,-0.34L0.557,-0L0.418,-0L0.418,-0.339C0.418,-0.403 0.397,-0.435 0.354,-0.435C0.312,-0.435 0.27,-0.403 0.229,-0.34L0.229,-0L0.09,-0Z" style="fill-rule:nonzero;"/>
                    </g>
                    <g transform="matrix(8,0,0,8,520.398,379.369)">
                        <path d="M0.09,-0L0.09,-0.536L0.235,-0.536L0.235,-0L0.09,-0ZM0.09,-0.626L0.09,-0.747L0.235,-0.747L0.235,-0.626L0.09,-0.626Z" style="fill-rule:nonzero;"/>
                    </g>
                    <g transform="matrix(8,0,0,8,522.84,379.369)">
                        <path d="M0.09,-0L0.09,-0.536L0.235,-0.536L0.235,-0.435C0.282,-0.511 0.343,-0.548 0.417,-0.548C0.465,-0.548 0.503,-0.533 0.531,-0.503C0.558,-0.473 0.572,-0.431 0.572,-0.379L0.572,-0L0.428,-0L0.428,-0.343C0.428,-0.404 0.408,-0.435 0.367,-0.435C0.321,-0.435 0.277,-0.402 0.235,-0.337L0.235,-0L0.09,-0Z" style="fill-rule:nonzero;"/>
                    </g>
                    <g transform="matrix(8,0,0,8,527.934,379.369)">
                        <path d="M0.527,-0.018C0.458,0.002 0.393,0.012 0.332,0.012C0.242,0.012 0.171,-0.013 0.12,-0.064C0.068,-0.115 0.042,-0.184 0.042,-0.272C0.042,-0.355 0.066,-0.422 0.113,-0.472C0.16,-0.523 0.223,-0.548 0.301,-0.548C0.379,-0.548 0.437,-0.524 0.473,-0.474C0.509,-0.425 0.527,-0.346 0.527,-0.239L0.194,-0.239C0.204,-0.137 0.26,-0.086 0.363,-0.086C0.411,-0.086 0.466,-0.097 0.527,-0.12L0.527,-0.018ZM0.192,-0.321L0.385,-0.321C0.385,-0.412 0.355,-0.458 0.296,-0.458C0.236,-0.458 0.202,-0.412 0.192,-0.321Z" style="fill-rule:nonzero;"/>
                    </g>
                    <g transform="matrix(8,0,0,8,532.461,379.369)">
                        <path d="M0.09,-0L0.09,-0.536L0.235,-0.536L0.235,-0.435C0.272,-0.511 0.329,-0.548 0.406,-0.548C0.415,-0.548 0.424,-0.547 0.433,-0.545L0.433,-0.417C0.412,-0.424 0.393,-0.428 0.375,-0.428C0.318,-0.428 0.271,-0.399 0.235,-0.34L0.235,-0L0.09,-0Z" style="fill-rule:nonzero;"/>
                    </g>
                    <g transform="matrix(8,0,0,8,535.938,379.369)">
                        <path d="M0.09,-0L0.09,-0.536L0.235,-0.536L0.235,-0L0.09,-0ZM0.071,-0.626L0.189,-0.783L0.321,-0.783L0.165,-0.626L0.071,-0.626Z" style="fill-rule:nonzero;"/>
                    </g>
                    <g transform="matrix(8,0,0,8,538.38,379.369)">
                        <path d="M0.353,-0.058C0.305,-0.011 0.253,0.012 0.198,0.012C0.151,0.012 0.113,-0.002 0.084,-0.031C0.055,-0.059 0.04,-0.097 0.04,-0.142C0.04,-0.201 0.064,-0.247 0.111,-0.279C0.158,-0.311 0.226,-0.327 0.314,-0.327L0.353,-0.327L0.353,-0.376C0.353,-0.432 0.321,-0.459 0.258,-0.459C0.201,-0.459 0.145,-0.444 0.087,-0.412L0.087,-0.511C0.152,-0.536 0.217,-0.548 0.281,-0.548C0.422,-0.548 0.492,-0.493 0.492,-0.381L0.492,-0.144C0.492,-0.102 0.505,-0.081 0.532,-0.081C0.537,-0.081 0.543,-0.081 0.551,-0.083L0.555,-0.001C0.524,0.008 0.497,0.012 0.474,0.012C0.414,0.012 0.376,-0.011 0.359,-0.058L0.353,-0.058ZM0.353,-0.135L0.353,-0.244L0.319,-0.244C0.225,-0.244 0.179,-0.215 0.179,-0.156C0.179,-0.136 0.185,-0.12 0.199,-0.106C0.212,-0.093 0.229,-0.086 0.249,-0.086C0.283,-0.086 0.318,-0.102 0.353,-0.135Z" style="fill-rule:nonzero;"/>
                    </g>
                </g>
            </g>
            <g>
                <g transform="matrix(10,0,0,10,330.722,195.714)">
                    <path d="M0.15,-0C0.157,-0.054 0.17,-0.102 0.19,-0.143C0.21,-0.184 0.255,-0.256 0.325,-0.358L0.495,-0.605L0.119,-0.605L0.119,-0.723L0.613,-0.723L0.613,-0.605C0.519,-0.486 0.444,-0.373 0.391,-0.265C0.337,-0.158 0.31,-0.07 0.31,-0L0.15,-0Z" style="fill:rgb(255,160,90);fill-rule:nonzero;"/>
                </g>
                <g transform="matrix(10,0,0,10,335.552,195.714)">
                    <path d="M0.099,-0.005L0.099,-0.114C0.17,-0.086 0.229,-0.072 0.276,-0.072C0.319,-0.072 0.354,-0.083 0.38,-0.105C0.406,-0.128 0.419,-0.157 0.419,-0.194C0.419,-0.289 0.35,-0.337 0.21,-0.337L0.166,-0.337L0.166,-0.423L0.203,-0.424C0.334,-0.424 0.399,-0.467 0.399,-0.552C0.399,-0.618 0.359,-0.65 0.278,-0.65C0.225,-0.65 0.169,-0.637 0.108,-0.61L0.108,-0.708C0.172,-0.73 0.239,-0.741 0.309,-0.741C0.384,-0.741 0.442,-0.726 0.484,-0.695C0.526,-0.665 0.547,-0.622 0.547,-0.568C0.547,-0.483 0.494,-0.423 0.388,-0.388C0.509,-0.36 0.57,-0.295 0.57,-0.192C0.57,-0.128 0.546,-0.076 0.497,-0.039C0.448,-0.001 0.382,0.018 0.298,0.018C0.227,0.018 0.16,0.01 0.099,-0.005Z" style="fill:rgb(255,160,90);fill-rule:nonzero;"/>
                </g>
                <g transform="matrix(10,0,0,10,331.192,207.714)">
                    <path d="M0.124,-0.003L0.124,-0.108C0.186,-0.084 0.237,-0.072 0.278,-0.072C0.319,-0.072 0.352,-0.085 0.376,-0.109C0.4,-0.134 0.413,-0.167 0.413,-0.209C0.413,-0.313 0.338,-0.364 0.189,-0.364C0.172,-0.364 0.154,-0.363 0.137,-0.36L0.137,-0.723L0.552,-0.723L0.552,-0.608L0.242,-0.608L0.235,-0.453C0.339,-0.453 0.42,-0.431 0.479,-0.389C0.537,-0.346 0.566,-0.286 0.566,-0.21C0.566,-0.139 0.541,-0.084 0.49,-0.043C0.439,-0.002 0.369,0.018 0.28,0.018C0.242,0.018 0.19,0.011 0.124,-0.003Z" style="fill:rgb(157,157,156);fill-rule:nonzero;"/>
                </g>
                <g transform="matrix(10,0,0,10,335.552,207.714)">
                    <path d="M0.141,-0L0.141,-0.084L0.285,-0.084L0.285,-0.618L0.141,-0.582L0.141,-0.668L0.43,-0.741L0.43,-0.084L0.575,-0.084L0.575,-0L0.141,-0Z" style="fill:rgb(157,157,156);fill-rule:nonzero;"/>
                </g>
                <g transform="matrix(10,0,0,10,325.821,241.714)">
                    <path d="M0.141,-0L0.141,-0.084L0.285,-0.084L0.285,-0.618L0.141,-0.582L0.141,-0.668L0.43,-0.741L0.43,-0.084L0.575,-0.084L0.575,-0L0.141,-0Z" style="fill:rgb(0,204,150);fill-rule:nonzero;"/>
                </g>
                <g transform="matrix(10,0,0,10,330.686,241.714)">
                    <path d="M0.384,-0L0.384,-0.193L0.047,-0.193L0.047,-0.301L0.378,-0.723L0.511,-0.723L0.511,-0.301L0.595,-0.301L0.595,-0.193L0.511,-0.193L0.511,-0L0.384,-0ZM0.163,-0.301L0.387,-0.301L0.387,-0.584L0.163,-0.301Z" style="fill:rgb(0,204,150);fill-rule:nonzero;"/>
                </g>
                <g transform="matrix(10,0,0,10,335.551,241.714)">
                    <path d="M0.327,0.018C0.245,0.018 0.178,-0.017 0.127,-0.087C0.075,-0.158 0.05,-0.249 0.05,-0.361C0.05,-0.475 0.076,-0.567 0.127,-0.636C0.178,-0.706 0.246,-0.741 0.33,-0.741C0.413,-0.741 0.481,-0.706 0.532,-0.636C0.584,-0.567 0.61,-0.476 0.61,-0.363C0.61,-0.248 0.584,-0.155 0.532,-0.086C0.481,-0.017 0.412,0.018 0.327,0.018ZM0.328,-0.072C0.414,-0.072 0.457,-0.169 0.457,-0.361C0.457,-0.554 0.414,-0.65 0.33,-0.65C0.246,-0.65 0.204,-0.554 0.204,-0.362C0.204,-0.169 0.245,-0.072 0.328,-0.072Z" style="fill:rgb(0,204,150);fill-rule:nonzero;"/>
                </g>
                <g transform="matrix(10,0,0,10,331.191,253.714)">
                    <path d="M0.124,-0.003L0.124,-0.108C0.186,-0.084 0.237,-0.072 0.278,-0.072C0.319,-0.072 0.352,-0.085 0.376,-0.109C0.4,-0.134 0.413,-0.167 0.413,-0.209C0.413,-0.313 0.338,-0.364 0.189,-0.364C0.172,-0.364 0.154,-0.363 0.137,-0.36L0.137,-0.723L0.552,-0.723L0.552,-0.608L0.242,-0.608L0.235,-0.453C0.339,-0.453 0.42,-0.431 0.479,-0.389C0.537,-0.346 0.566,-0.286 0.566,-0.21C0.566,-0.139 0.541,-0.084 0.49,-0.043C0.439,-0.002 0.369,0.018 0.28,0.018C0.242,0.018 0.19,0.011 0.124,-0.003Z" style="fill:rgb(157,157,156);fill-rule:nonzero;"/>
                </g>
                <g transform="matrix(10,0,0,10,335.551,253.714)">
                    <path d="M0.141,-0L0.141,-0.084L0.285,-0.084L0.285,-0.618L0.141,-0.582L0.141,-0.668L0.43,-0.741L0.43,-0.084L0.575,-0.084L0.575,-0L0.141,-0Z" style="fill:rgb(157,157,156);fill-rule:nonzero;"/>
                </g>
            </g>
            <g>
                <g transform="matrix(10,0,0,10,326.012,355.049)">
                    <path d="M0.099,-0.005L0.099,-0.114C0.17,-0.086 0.229,-0.072 0.276,-0.072C0.319,-0.072 0.354,-0.083 0.38,-0.105C0.406,-0.128 0.419,-0.157 0.419,-0.194C0.419,-0.289 0.35,-0.337 0.21,-0.337L0.166,-0.337L0.166,-0.423L0.203,-0.424C0.334,-0.424 0.399,-0.467 0.399,-0.552C0.399,-0.618 0.359,-0.65 0.278,-0.65C0.225,-0.65 0.169,-0.637 0.108,-0.61L0.108,-0.708C0.172,-0.73 0.239,-0.741 0.309,-0.741C0.384,-0.741 0.442,-0.726 0.484,-0.695C0.526,-0.665 0.547,-0.622 0.547,-0.568C0.547,-0.483 0.494,-0.423 0.388,-0.388C0.509,-0.36 0.57,-0.295 0.57,-0.192C0.57,-0.128 0.546,-0.076 0.497,-0.039C0.448,-0.001 0.382,0.018 0.298,0.018C0.227,0.018 0.16,0.01 0.099,-0.005Z" style="fill:rgb(99,110,251);fill-rule:nonzero;"/>
                </g>
                <g transform="matrix(10,0,0,10,330.782,355.049)">
                    <path d="M0.072,-0L0.072,-0.114L0.08,-0.125C0.118,-0.177 0.158,-0.22 0.199,-0.256L0.258,-0.308C0.355,-0.394 0.404,-0.469 0.404,-0.534C0.404,-0.61 0.361,-0.647 0.275,-0.647C0.222,-0.647 0.16,-0.63 0.09,-0.594L0.09,-0.7C0.164,-0.727 0.235,-0.741 0.304,-0.741C0.381,-0.741 0.442,-0.723 0.488,-0.686C0.535,-0.65 0.558,-0.601 0.558,-0.541C0.558,-0.499 0.546,-0.46 0.524,-0.426C0.501,-0.391 0.462,-0.351 0.405,-0.306L0.356,-0.267C0.288,-0.212 0.248,-0.161 0.235,-0.114L0.555,-0.114L0.555,-0L0.072,-0Z" style="fill:rgb(99,110,251);fill-rule:nonzero;"/>
                </g>
                <g transform="matrix(10,0,0,10,335.553,355.049)">
                    <path d="M0.124,-0.003L0.124,-0.108C0.186,-0.084 0.237,-0.072 0.278,-0.072C0.319,-0.072 0.352,-0.085 0.376,-0.109C0.4,-0.134 0.413,-0.167 0.413,-0.209C0.413,-0.313 0.338,-0.364 0.189,-0.364C0.172,-0.364 0.154,-0.363 0.137,-0.36L0.137,-0.723L0.552,-0.723L0.552,-0.608L0.242,-0.608L0.235,-0.453C0.339,-0.453 0.42,-0.431 0.479,-0.389C0.537,-0.346 0.566,-0.286 0.566,-0.21C0.566,-0.139 0.541,-0.084 0.49,-0.043C0.439,-0.002 0.369,0.018 0.28,0.018C0.242,0.018 0.19,0.011 0.124,-0.003Z" style="fill:rgb(99,110,251);fill-rule:nonzero;"/>
                </g>
                <g transform="matrix(10,0,0,10,325.822,367.049)">
                    <path d="M0.141,-0L0.141,-0.084L0.285,-0.084L0.285,-0.618L0.141,-0.582L0.141,-0.668L0.43,-0.741L0.43,-0.084L0.575,-0.084L0.575,-0L0.141,-0Z" style="fill:rgb(157,157,156);fill-rule:nonzero;"/>
                </g>
                <g transform="matrix(10,0,0,10,330.687,367.049)">
                    <path d="M0.384,-0L0.384,-0.193L0.047,-0.193L0.047,-0.301L0.378,-0.723L0.511,-0.723L0.511,-0.301L0.595,-0.301L0.595,-0.193L0.511,-0.193L0.511,-0L0.384,-0ZM0.163,-0.301L0.387,-0.301L0.387,-0.584L0.163,-0.301Z" style="fill:rgb(157,157,156);fill-rule:nonzero;"/>
                </g>
                <g transform="matrix(10,0,0,10,335.552,367.049)">
                    <path d="M0.327,0.018C0.245,0.018 0.178,-0.017 0.127,-0.087C0.075,-0.158 0.05,-0.249 0.05,-0.361C0.05,-0.475 0.076,-0.567 0.127,-0.636C0.178,-0.706 0.246,-0.741 0.33,-0.741C0.413,-0.741 0.481,-0.706 0.532,-0.636C0.584,-0.567 0.61,-0.476 0.61,-0.363C0.61,-0.248 0.584,-0.155 0.532,-0.086C0.481,-0.017 0.412,0.018 0.327,0.018ZM0.328,-0.072C0.414,-0.072 0.457,-0.169 0.457,-0.361C0.457,-0.554 0.414,-0.65 0.33,-0.65C0.246,-0.65 0.204,-0.554 0.204,-0.362C0.204,-0.169 0.245,-0.072 0.328,-0.072Z" style="fill:rgb(157,157,156);fill-rule:nonzero;"/>
                </g>
            </g>
            <g>
                <g transform="matrix(10,0,0,10,325.741,303.049)">
                    <path d="M0.072,-0L0.072,-0.114L0.08,-0.125C0.118,-0.177 0.158,-0.22 0.199,-0.256L0.258,-0.308C0.355,-0.394 0.404,-0.469 0.404,-0.534C0.404,-0.61 0.361,-0.647 0.275,-0.647C0.222,-0.647 0.16,-0.63 0.09,-0.594L0.09,-0.7C0.164,-0.727 0.235,-0.741 0.304,-0.741C0.381,-0.741 0.442,-0.723 0.488,-0.686C0.535,-0.65 0.558,-0.601 0.558,-0.541C0.558,-0.499 0.546,-0.46 0.524,-0.426C0.501,-0.391 0.462,-0.351 0.405,-0.306L0.356,-0.267C0.288,-0.212 0.248,-0.161 0.235,-0.114L0.555,-0.114L0.555,-0L0.072,-0Z" style="fill:rgb(171,99,250);fill-rule:nonzero;"/>
                </g>
                <g transform="matrix(10,0,0,10,330.647,303.049)">
                    <path d="M0.124,-0.003L0.124,-0.108C0.186,-0.084 0.237,-0.072 0.278,-0.072C0.319,-0.072 0.352,-0.085 0.376,-0.109C0.4,-0.134 0.413,-0.167 0.413,-0.209C0.413,-0.313 0.338,-0.364 0.189,-0.364C0.172,-0.364 0.154,-0.363 0.137,-0.36L0.137,-0.723L0.552,-0.723L0.552,-0.608L0.242,-0.608L0.235,-0.453C0.339,-0.453 0.42,-0.431 0.479,-0.389C0.537,-0.346 0.566,-0.286 0.566,-0.21C0.566,-0.139 0.541,-0.084 0.49,-0.043C0.439,-0.002 0.369,0.018 0.28,0.018C0.242,0.018 0.19,0.011 0.124,-0.003Z" style="fill:rgb(171,99,250);fill-rule:nonzero;"/>
                </g>
                <g transform="matrix(10,0,0,10,335.552,303.049)">
                    <path d="M0.214,-0.387C0.144,-0.433 0.109,-0.488 0.109,-0.553C0.109,-0.609 0.131,-0.655 0.175,-0.689C0.219,-0.724 0.277,-0.741 0.348,-0.741C0.415,-0.741 0.469,-0.726 0.509,-0.697C0.549,-0.667 0.569,-0.628 0.569,-0.578C0.569,-0.514 0.529,-0.454 0.447,-0.397C0.55,-0.343 0.602,-0.276 0.602,-0.194C0.602,-0.131 0.576,-0.08 0.526,-0.041C0.476,-0.001 0.41,0.018 0.329,0.018C0.251,0.018 0.189,0 0.141,-0.036C0.093,-0.071 0.069,-0.119 0.069,-0.177C0.069,-0.262 0.118,-0.332 0.214,-0.387ZM0.372,-0.438C0.42,-0.475 0.444,-0.515 0.444,-0.558C0.444,-0.586 0.434,-0.608 0.415,-0.625C0.395,-0.642 0.368,-0.65 0.336,-0.65C0.306,-0.65 0.281,-0.643 0.262,-0.628C0.244,-0.614 0.234,-0.595 0.234,-0.571C0.234,-0.547 0.244,-0.527 0.262,-0.509C0.281,-0.491 0.317,-0.468 0.372,-0.438ZM0.285,-0.339C0.233,-0.295 0.207,-0.249 0.207,-0.201C0.207,-0.163 0.22,-0.132 0.246,-0.107C0.272,-0.083 0.305,-0.071 0.346,-0.071C0.381,-0.071 0.411,-0.08 0.435,-0.1C0.459,-0.119 0.471,-0.143 0.471,-0.171C0.471,-0.196 0.463,-0.217 0.447,-0.235C0.43,-0.252 0.399,-0.274 0.353,-0.301L0.285,-0.339Z" style="fill:rgb(171,99,250);fill-rule:nonzero;"/>
                </g>
                <g transform="matrix(10,0,0,10,325.591,315.049)">
                    <path d="M0.099,-0.005L0.099,-0.114C0.17,-0.086 0.229,-0.072 0.276,-0.072C0.319,-0.072 0.354,-0.083 0.38,-0.105C0.406,-0.128 0.419,-0.157 0.419,-0.194C0.419,-0.289 0.35,-0.337 0.21,-0.337L0.166,-0.337L0.166,-0.423L0.203,-0.424C0.334,-0.424 0.399,-0.467 0.399,-0.552C0.399,-0.618 0.359,-0.65 0.278,-0.65C0.225,-0.65 0.169,-0.637 0.108,-0.61L0.108,-0.708C0.172,-0.73 0.239,-0.741 0.309,-0.741C0.384,-0.741 0.442,-0.726 0.484,-0.695C0.526,-0.665 0.547,-0.622 0.547,-0.568C0.547,-0.483 0.494,-0.423 0.388,-0.388C0.509,-0.36 0.57,-0.295 0.57,-0.192C0.57,-0.128 0.546,-0.076 0.497,-0.039C0.448,-0.001 0.382,0.018 0.298,0.018C0.227,0.018 0.16,0.01 0.099,-0.005Z" style="fill:rgb(157,157,156);fill-rule:nonzero;"/>
                </g>
                <g transform="matrix(10,0,0,10,330.571,315.049)">
                    <path d="M0.099,-0.005L0.099,-0.114C0.17,-0.086 0.229,-0.072 0.276,-0.072C0.319,-0.072 0.354,-0.083 0.38,-0.105C0.406,-0.128 0.419,-0.157 0.419,-0.194C0.419,-0.289 0.35,-0.337 0.21,-0.337L0.166,-0.337L0.166,-0.423L0.203,-0.424C0.334,-0.424 0.399,-0.467 0.399,-0.552C0.399,-0.618 0.359,-0.65 0.278,-0.65C0.225,-0.65 0.169,-0.637 0.108,-0.61L0.108,-0.708C0.172,-0.73 0.239,-0.741 0.309,-0.741C0.384,-0.741 0.442,-0.726 0.484,-0.695C0.526,-0.665 0.547,-0.622 0.547,-0.568C0.547,-0.483 0.494,-0.423 0.388,-0.388C0.509,-0.36 0.57,-0.295 0.57,-0.192C0.57,-0.128 0.546,-0.076 0.497,-0.039C0.448,-0.001 0.382,0.018 0.298,0.018C0.227,0.018 0.16,0.01 0.099,-0.005Z" style="fill:rgb(157,157,156);fill-rule:nonzero;"/>
                </g>
                <g transform="matrix(10,0,0,10,335.551,315.049)">
                    <path d="M0.214,-0.387C0.144,-0.433 0.109,-0.488 0.109,-0.553C0.109,-0.609 0.131,-0.655 0.175,-0.689C0.219,-0.724 0.277,-0.741 0.348,-0.741C0.415,-0.741 0.469,-0.726 0.509,-0.697C0.549,-0.667 0.569,-0.628 0.569,-0.578C0.569,-0.514 0.529,-0.454 0.447,-0.397C0.55,-0.343 0.602,-0.276 0.602,-0.194C0.602,-0.131 0.576,-0.08 0.526,-0.041C0.476,-0.001 0.41,0.018 0.329,0.018C0.251,0.018 0.189,0 0.141,-0.036C0.093,-0.071 0.069,-0.119 0.069,-0.177C0.069,-0.262 0.118,-0.332 0.214,-0.387ZM0.372,-0.438C0.42,-0.475 0.444,-0.515 0.444,-0.558C0.444,-0.586 0.434,-0.608 0.415,-0.625C0.395,-0.642 0.368,-0.65 0.336,-0.65C0.306,-0.65 0.281,-0.643 0.262,-0.628C0.244,-0.614 0.234,-0.595 0.234,-0.571C0.234,-0.547 0.244,-0.527 0.262,-0.509C0.281,-0.491 0.317,-0.468 0.372,-0.438ZM0.285,-0.339C0.233,-0.295 0.207,-0.249 0.207,-0.201C0.207,-0.163 0.22,-0.132 0.246,-0.107C0.272,-0.083 0.305,-0.071 0.346,-0.071C0.381,-0.071 0.411,-0.08 0.435,-0.1C0.459,-0.119 0.471,-0.143 0.471,-0.171C0.471,-0.196 0.463,-0.217 0.447,-0.235C0.43,-0.252 0.399,-0.274 0.353,-0.301L0.285,-0.339Z" style="fill:rgb(157,157,156);fill-rule:nonzero;"/>
                </g>
            </g>
            <g transform="matrix(1,0,0,1,233.263,183.036)">
                <path d="M0,34.679L62.339,0L107.358,0" style="fill:none;fill-rule:nonzero;stroke:rgb(255,160,90);stroke-width:1px;"/>
            </g>
            <g transform="matrix(1,0,0,1,270.596,229.035)">
                <path d="M0,17.346L25.006,0L70.025,0" style="fill:none;fill-rule:nonzero;stroke:rgb(0,204,150);stroke-width:1px;"/>
            </g>
            <g transform="matrix(1,0,0,1,270.596,370.369)">
                <path d="M0,-27.987L25.006,0L70.025,0" style="fill:none;fill-rule:nonzero;stroke:rgb(99,110,251);stroke-width:1px;"/>
            </g>
            <g transform="matrix(1,0,0,1,295.603,290.369)">
                <path d="M0,0L45.019,0" style="fill:none;fill-rule:nonzero;stroke:rgb(171,99,250);stroke-width:1px;"/>
            </g>
            <g>
                <clipPath id="_clip2">
                    <rect x="100.764" y="150.049" width="410.472" height="231.999" clip-rule="nonzero"/>
                </clipPath>
                <g clip-path="url(#_clip2)">
                    <g transform="matrix(0,1,1,0,501.59,266.048)">
                        <path d="M-116,-116L116,-116" style="fill:none;fill-rule:nonzero;stroke:rgb(135,135,135);stroke-width:0.5px;"/>
                    </g>
                </g>
            </g>
        </g>
    </g>
</svg>
